<svg width="60" height="60" viewBox="0 0 60 60" fill="none" xmlns="http://www.w3.org/2000/svg">
<path d="M42.5 17.5H17.5C16.1193 17.5 15 18.6193 15 20V40C15 41.3807 16.1193 42.5 17.5 42.5H42.5C43.8807 42.5 45 41.3807 45 40V20C45 18.6193 43.8807 17.5 42.5 17.5Z" fill="#D6D9E0"/>
<path d="M32.5 27.5C32.5 28.163 31.913 28.75 31.25 28.75H28.75V31.25C28.75 31.913 28.163 32.5 27.5 32.5C26.837 32.5 26.25 31.913 26.25 31.25V28.75H23.75C23.087 28.75 22.5 28.163 22.5 27.5C22.5 26.837 23.087 26.25 23.75 26.25H26.25V23.75C26.25 23.087 26.837 22.5 27.5 22.5C28.163 22.5 28.75 23.087 28.75 23.75V26.25H31.25C31.913 26.25 32.5 26.837 32.5 27.5Z" fill="#B4B9C2"/>
<path d="M20 17.5C20 15.2909 21.7909 13.5 24 13.5H36C38.2091 13.5 40 15.2909 40 17.5V17.5H20V17.5Z" fill="#E3E6EC"/>
<path d="M30 10C30.8284 10 31.5 9.32843 31.5 8.5C31.5 7.67157 30.8284 7 30 7C29.1716 7 28.5 7.67157 28.5 8.5C28.5 9.32843 29.1716 10 30 10Z" fill="#B4B9C2"/>
<path d="M33 8.5C33 9.32843 33.6716 10 34.5 10C35.3284 10 36 9.32843 36 8.5C36 7.67157 35.3284 7 34.5 7C33.6716 7 33 7.67157 33 8.5Z" fill="#B4B9C2"/>
<path d="M27 8.5C27 9.32843 27.6716 10 28.5 10C29.3284 10 30 9.32843 30 8.5C30 7.67157 29.3284 7 28.5 7C27.6716 7 27 7.67157 27 8.5Z" fill="#B4B9C2"/>
</svg>
