<svg width="48" height="48" viewBox="0 0 48 48" fill="none" xmlns="http://www.w3.org/2000/svg">
<rect width="48" height="48" rx="24" fill="#F0F3FA"/>
<g clip-path="url(#clip0_632_1147)">
<path d="M36.915 36.8737L11.3948 36.8766C10.5868 36.8767 9.9317 36.2217 9.93164 35.4137C9.93153 34.6057 10.5865 33.9507 11.3945 33.9506L36.9147 33.9478C37.7227 33.9476 38.3777 34.6026 38.3778 35.4106C38.3779 36.2185 37.723 36.8736 36.915 36.8737Z" fill="#B1BEEB"/>
<path d="M36.9135 33.9478L34.624 33.948C35.432 33.9479 36.0871 34.6028 36.0871 35.4108C36.0873 36.2188 35.4323 36.8739 34.6243 36.8739L36.9137 36.8737C37.7217 36.8736 38.3766 36.2185 38.3766 35.4106C38.3765 34.6026 37.7214 33.9476 36.9135 33.9478Z" fill="#99A8E5"/>
<path d="M26.003 19.104H22.3018V32.4972H26.003V19.104Z" fill="#DDE2F6"/>
<path d="M17.2462 19.1045H13.5449V32.4977H17.2462V19.1045Z" fill="#DDE2F6"/>
<path d="M34.7608 19.1016H31.0596V32.4947H34.7608V19.1016Z" fill="#DDE2F6"/>
<path d="M34.7601 19.1016H32.4707V32.4947H34.7601V19.1016Z" fill="#CAD2F1"/>
<path d="M17.5758 20.5244L13.214 20.5249C12.6061 20.525 12.1133 20.0323 12.1133 19.4245C12.1132 18.8166 12.6059 18.3238 13.2138 18.3238L17.5756 18.3232C18.1834 18.3232 18.6762 18.8159 18.6763 19.4237C18.6763 20.0315 18.1836 20.5243 17.5758 20.5244Z" fill="#728ADB"/>
<path d="M17.5778 33.9493L13.2159 33.9497C12.6081 33.9498 12.1153 33.4571 12.1152 32.8493C12.1152 32.2414 12.6079 31.7486 13.2157 31.7486L17.5775 31.748C18.1854 31.748 18.6782 32.2407 18.6782 32.8485C18.6783 33.4564 18.1856 33.9492 17.5778 33.9493Z" fill="#728ADB"/>
<path d="M35.0904 20.5229L30.7286 20.5235C30.1208 20.5235 29.628 20.0308 29.6279 19.423C29.6279 18.8151 30.1206 18.3223 30.7284 18.3223L35.0902 18.3218C35.6981 18.3217 36.1909 18.8144 36.1909 19.4222C36.191 20.0301 35.6983 20.5229 35.0904 20.5229Z" fill="#728ADB"/>
<path d="M35.0914 33.9473L30.7296 33.9478C30.1218 33.9478 29.629 33.4552 29.6289 32.8473C29.6288 32.2395 30.1215 31.7467 30.7294 31.7466L35.0912 31.7461C35.699 31.746 36.1918 32.2387 36.1919 32.8466C36.192 33.4544 35.6993 33.9472 35.0914 33.9473Z" fill="#728ADB"/>
<path d="M35.0902 18.3218L32.8008 18.322C33.4086 18.3219 33.9014 18.8146 33.9015 19.4225C33.9015 20.0303 33.4089 20.5231 32.801 20.5232L35.0904 20.5229C35.6983 20.5229 36.191 20.0301 36.1909 19.4222C36.1909 18.8144 35.6981 18.3217 35.0902 18.3218Z" fill="#617ED9"/>
<path d="M35.0912 31.7461L32.8018 31.7463C33.4096 31.7463 33.9024 32.239 33.9025 32.8468C33.9025 33.4546 33.4098 33.9474 32.802 33.9475L35.0914 33.9473C35.6993 33.9472 36.1919 33.4544 36.1919 32.8466C36.1918 32.2388 35.699 31.746 35.0912 31.7461Z" fill="#617ED9"/>
<path d="M26.3326 20.5234L21.9708 20.524C21.363 20.524 20.8702 20.0313 20.8701 19.4235C20.8701 18.8156 21.3627 18.3228 21.9706 18.3228L26.3324 18.3223C26.9403 18.3222 27.4331 18.8149 27.4331 19.4227C27.4332 20.0305 26.9405 20.5233 26.3326 20.5234Z" fill="#728ADB"/>
<path d="M26.3346 33.9497L21.9728 33.9502C21.3649 33.9503 20.8721 33.4576 20.8721 32.8498C20.872 32.2419 21.3647 31.7491 21.9725 31.7491L26.3344 31.7485C26.9422 31.7485 27.435 32.2412 27.4351 32.849C27.4352 33.4568 26.9424 33.9496 26.3346 33.9497Z" fill="#728ADB"/>
<path d="M10.4983 16.1665L22.967 8.75507C23.6967 8.32133 24.6048 8.32122 25.3346 8.75478L37.805 16.1634C38.819 16.7658 38.3924 18.3226 37.2134 18.3228L11.0905 18.3257C9.91145 18.3258 9.48453 16.7691 10.4983 16.1665Z" fill="#B1BEEB"/>
<path d="M37.805 16.1634L25.3346 8.7548C24.6048 8.32124 23.6967 8.3213 22.967 8.75509L22.6055 8.97001L34.7143 16.1639C35.7282 16.7662 35.3016 18.323 34.1226 18.3232L37.2133 18.3228C38.3923 18.3226 38.8189 16.7659 37.805 16.1634Z" fill="#99A8E5"/>
<path d="M33.9378 36.8762H36.9119C37.7199 36.8762 38.3749 36.2212 38.3749 35.4132C38.3749 34.6052 37.7199 33.9502 36.9119 33.9502H11.3917C10.5837 33.9502 9.92871 34.6052 9.92871 35.4132C9.92871 36.2212 10.5837 36.8762 11.3917 36.8762H32.2298" stroke="black" stroke-width="0.858536" stroke-miterlimit="10" stroke-linecap="round" stroke-linejoin="round"/>
<path d="M17.5757 20.5229H13.2139C12.606 20.5229 12.1133 20.0302 12.1133 19.4224C12.1133 18.8145 12.606 18.3218 13.2139 18.3218H17.5757C18.1835 18.3218 18.6763 18.8145 18.6763 19.4224C18.6763 20.0302 18.1835 20.5229 17.5757 20.5229Z" stroke="black" stroke-width="0.858536" stroke-miterlimit="10" stroke-linecap="round" stroke-linejoin="round"/>
<path d="M17.5757 33.9492H13.2139C12.606 33.9492 12.1133 33.4565 12.1133 32.8486C12.1133 32.2408 12.606 31.748 13.2139 31.748H17.5757C18.1835 31.748 18.6763 32.2408 18.6763 32.8486C18.6763 33.4565 18.1835 33.9492 17.5757 33.9492Z" stroke="black" stroke-width="0.858536" stroke-miterlimit="10" stroke-linecap="round" stroke-linejoin="round"/>
<path d="M35.0903 20.5229H30.7285C30.1207 20.5229 29.6279 20.0302 29.6279 19.4224C29.6279 18.8145 30.1207 18.3218 30.7285 18.3218H35.0903C35.6982 18.3218 36.1909 18.8145 36.1909 19.4224C36.1909 20.0302 35.6982 20.5229 35.0903 20.5229Z" stroke="black" stroke-width="0.858536" stroke-miterlimit="10" stroke-linecap="round" stroke-linejoin="round"/>
<path d="M35.0903 33.9492H30.7285C30.1207 33.9492 29.6279 33.4565 29.6279 32.8486C29.6279 32.2408 30.1207 31.748 30.7285 31.748H35.0903C35.6982 31.748 36.1909 32.2408 36.1909 32.8486C36.1909 33.4565 35.6982 33.9492 35.0903 33.9492Z" stroke="black" stroke-width="0.858536" stroke-miterlimit="10" stroke-linecap="round" stroke-linejoin="round"/>
<path d="M17.2452 20.5229H13.5439V31.7462H17.2452V20.5229Z" stroke="black" stroke-width="0.858536" stroke-miterlimit="10" stroke-linecap="round" stroke-linejoin="round"/>
<path d="M34.7599 20.5229H31.0586V31.7462H34.7599V20.5229Z" stroke="black" stroke-width="0.858536" stroke-miterlimit="10" stroke-linecap="round" stroke-linejoin="round"/>
<path d="M26.3325 20.5234H21.9707C21.3629 20.5234 20.8701 20.0307 20.8701 19.4229C20.8701 18.815 21.3629 18.3223 21.9707 18.3223H26.3325C26.9404 18.3223 27.4331 18.815 27.4331 19.4229C27.4331 20.0307 26.9404 20.5234 26.3325 20.5234Z" stroke="black" stroke-width="0.858536" stroke-miterlimit="10" stroke-linecap="round" stroke-linejoin="round"/>
<path d="M26.3325 33.9497H21.9707C21.3629 33.9497 20.8701 33.457 20.8701 32.8491C20.8701 32.2413 21.3629 31.7485 21.9707 31.7485H26.3325C26.9404 31.7485 27.4331 32.2413 27.4331 32.8491C27.4331 33.457 26.9404 33.9497 26.3325 33.9497Z" stroke="black" stroke-width="0.858536" stroke-miterlimit="10" stroke-linecap="round" stroke-linejoin="round"/>
<path d="M26.002 20.5234H22.3008V31.7467H26.002V20.5234Z" stroke="black" stroke-width="0.858536" stroke-miterlimit="10" stroke-linecap="round" stroke-linejoin="round"/>
<path d="M16.5847 12.5482L10.4984 16.165C9.48456 16.7674 9.91131 18.3242 11.0904 18.3242H37.2133C38.3923 18.3242 38.819 16.7674 37.8052 16.165L25.3356 8.75494C24.6058 8.32127 23.6977 8.32127 22.968 8.75494L18.0419 11.6823" stroke="black" stroke-width="0.858536" stroke-miterlimit="10" stroke-linecap="round" stroke-linejoin="round"/>
<path d="M21.7588 11.8356L23.8555 10.5896C24.038 10.4812 24.265 10.4812 24.4474 10.5896L26.5213 11.822" stroke="black" stroke-width="0.858536" stroke-miterlimit="10" stroke-linecap="round" stroke-linejoin="round"/>
<path d="M18.3262 14.8412H19.175C19.547 14.8412 19.8619 15.18 19.8715 15.6119C19.8816 16.0588 19.5727 16.4247 19.1902 16.4247C19.1902 16.4247 18.3262 16.4276 18.3262 16.427V13.4868H19.0487C19.3667 13.4868 19.6361 13.7764 19.6443 14.1458C19.6527 14.5277 19.3887 14.8404 19.0618 14.8404" stroke="black" stroke-width="0.858536" stroke-miterlimit="10" stroke-linecap="round" stroke-linejoin="round"/>
<path d="M21.1426 16.4057L22.2323 13.5491C22.2546 13.4947 22.3317 13.4947 22.3541 13.549L23.434 16.4057" stroke="black" stroke-width="0.858536" stroke-miterlimit="10" stroke-linecap="round" stroke-linejoin="round"/>
<path d="M21.4814 15.6943H23.0985" stroke="black" stroke-width="0.858536" stroke-miterlimit="10" stroke-linecap="round" stroke-linejoin="round"/>
<path d="M24.7666 16.4057V13.5137L26.7251 16.3451C26.7614 16.3974 26.8003 16.3718 26.8003 16.3081L26.7732 13.5083" stroke="black" stroke-width="0.858536" stroke-miterlimit="10" stroke-linecap="round" stroke-linejoin="round"/>
<path d="M28.3125 13.5083V16.4057" stroke="black" stroke-width="0.858536" stroke-miterlimit="10" stroke-linecap="round" stroke-linejoin="round"/>
<path d="M29.8736 13.5444L28.4053 14.8918L29.9766 16.4052" stroke="black" stroke-width="0.858536" stroke-miterlimit="10" stroke-linecap="round" stroke-linejoin="round"/>
</g>
<defs>
<clipPath id="clip0_632_1147">
<rect width="29.3047" height="29.3047" fill="white" transform="translate(9.5 8)"/>
</clipPath>
</defs>
</svg>
