<svg width="48" height="48" viewBox="0 0 48 48" fill="none" xmlns="http://www.w3.org/2000/svg">
<rect width="48" height="48" rx="24" fill="#F0F3FA"/>
<g clip-path="url(#clip0_629_2031)">
<path d="M12.7762 9.86328C11.8131 9.86439 10.8898 10.2329 10.2088 10.888C9.5278 11.5431 9.14471 12.4312 9.14355 13.3577V23.1419C9.14355 23.3273 9.2201 23.5051 9.35635 23.6361C9.4926 23.7672 9.67739 23.8408 9.87008 23.8408H15.6823C15.8749 23.8408 16.0597 23.7672 16.196 23.6361C16.3322 23.5051 16.4088 23.3273 16.4088 23.1419V13.3577C16.4076 12.4312 16.0245 11.5431 15.3435 10.888C14.6625 10.2329 13.7392 9.86439 12.7762 9.86328Z" fill="#5AA687"/>
<path d="M35.2991 17.1285V39.6507C35.3005 39.7382 35.2831 39.8249 35.2482 39.905C34.5824 40.2182 33.8553 40.3795 33.1195 40.3773H19.3156C19.1845 40.3774 19.0535 40.3702 18.9232 40.3555C17.8398 40.2586 16.8318 39.7597 16.0977 38.957C15.3636 38.1543 14.9565 37.1059 14.9564 36.0181V12.7694C14.9558 12.0835 14.7126 11.4199 14.2699 10.896C13.8271 10.3722 13.2133 10.0218 12.5371 9.90692C12.6135 9.87717 12.6949 9.86237 12.7769 9.86332H28.0338C29.9597 9.8664 31.8059 10.6328 33.1677 11.9947C34.5295 13.3565 35.296 15.2026 35.2991 17.1285Z" fill="#3FC67D"/>
<path d="M38.204 33.1118V35.2913C38.2036 36.2625 37.9249 37.2132 37.4008 38.0309C36.8767 38.8485 36.1293 39.4988 35.247 39.9048C34.5812 40.218 33.8541 40.3793 33.1183 40.377H18.5879C18.6997 40.3772 18.8113 40.3699 18.9221 40.3552C19.8237 40.2746 20.6625 39.8591 21.273 39.1908C21.8835 38.5224 22.2216 37.6496 22.2205 36.7444V33.1118C22.2205 32.8648 37.4775 32.3853 37.4775 32.3853C37.6702 32.3853 37.8549 32.4618 37.9912 32.598C38.1274 32.7343 38.204 32.9191 38.204 33.1118Z" fill="#248350"/>
<path d="M24.4012 19.3088C23.9702 19.3088 23.5488 19.181 23.1903 18.9415C22.8319 18.702 22.5526 18.3616 22.3876 17.9634C22.2226 17.5651 22.1795 17.1269 22.2636 16.7041C22.3477 16.2813 22.5552 15.8929 22.8601 15.5881C23.1649 15.2833 23.5532 15.0757 23.976 14.9916C24.3988 14.9075 24.8371 14.9507 25.2353 15.1156C25.6336 15.2806 25.974 15.5599 26.2135 15.9184C26.453 16.2768 26.5808 16.6982 26.5808 17.1293C26.5808 17.322 26.5043 17.5068 26.368 17.643C26.2318 17.7793 26.047 17.8558 25.8543 17.8558C25.6616 17.8558 25.4768 17.7793 25.3406 17.643C25.2043 17.5068 25.1278 17.322 25.1278 17.1293C25.1278 16.9856 25.0852 16.8451 25.0053 16.7256C24.9255 16.6062 24.812 16.513 24.6793 16.4581C24.5465 16.4031 24.4004 16.3887 24.2595 16.4167C24.1186 16.4447 23.9891 16.5139 23.8875 16.6155C23.7859 16.7172 23.7167 16.8466 23.6887 16.9875C23.6607 17.1285 23.675 17.2745 23.73 17.4073C23.785 17.5401 23.8781 17.6535 23.9976 17.7334C24.1171 17.8132 24.2576 17.8558 24.4012 17.8558C24.5939 17.8558 24.7787 17.9323 24.915 18.0686C25.0512 18.2048 25.1278 18.3896 25.1278 18.5823C25.1278 18.775 25.0512 18.9598 24.915 19.096C24.7787 19.2323 24.5939 19.3088 24.4012 19.3088Z" fill="#FCF419"/>
<path d="M24.4012 22.2151C23.8232 22.2151 23.2688 21.9855 22.8601 21.5767C22.4513 21.168 22.2217 20.6136 22.2217 20.0355C22.2217 19.8428 22.2982 19.658 22.4345 19.5218C22.5707 19.3855 22.7555 19.309 22.9482 19.309C23.1409 19.309 23.3257 19.3855 23.4619 19.5218C23.5982 19.658 23.6747 19.8428 23.6747 20.0355C23.6747 20.1792 23.7173 20.3197 23.7972 20.4392C23.877 20.5586 23.9905 20.6518 24.1232 20.7067C24.256 20.7617 24.4021 20.7761 24.543 20.7481C24.6839 20.7201 24.8134 20.6509 24.915 20.5493C25.0166 20.4476 25.0858 20.3182 25.1138 20.1773C25.1418 20.0363 25.1275 19.8903 25.0725 19.7575C25.0175 19.6247 24.9244 19.5113 24.8049 19.4314C24.6854 19.3516 24.5449 19.309 24.4012 19.309C24.2086 19.309 24.0238 19.2325 23.8875 19.0962C23.7513 18.96 23.6747 18.7752 23.6747 18.5825C23.6747 18.3898 23.7513 18.205 23.8875 18.0688C24.0238 17.9325 24.2086 17.856 24.4012 17.856C24.9793 17.856 25.5337 18.0856 25.9424 18.4943C26.3512 18.9031 26.5808 19.4575 26.5808 20.0355C26.5808 20.6136 26.3512 21.168 25.9424 21.5767C25.5337 21.9855 24.9793 22.2151 24.4012 22.2151Z" fill="#FCF419"/>
<path d="M24.4004 16.401C24.2077 16.401 24.0229 16.3244 23.8866 16.1882C23.7504 16.0519 23.6738 15.8672 23.6738 15.6745V14.706C23.6738 14.5133 23.7504 14.3285 23.8866 14.1923C24.0229 14.056 24.2077 13.9795 24.4004 13.9795C24.593 13.9795 24.7778 14.056 24.9141 14.1923C25.0503 14.3285 25.1269 14.5133 25.1269 14.706V15.6745C25.1269 15.8672 25.0503 16.0519 24.9141 16.1882C24.7778 16.3244 24.593 16.401 24.4004 16.401Z" fill="#FCF419"/>
<path d="M24.4004 23.1822C24.2077 23.1822 24.0229 23.1057 23.8866 22.9694C23.7504 22.8332 23.6738 22.6484 23.6738 22.4557V21.4873C23.6738 21.2946 23.7504 21.1098 23.8866 20.9735C24.0229 20.8373 24.2077 20.7607 24.4004 20.7607C24.593 20.7607 24.7778 20.8373 24.9141 20.9735C25.0503 21.1098 25.1269 21.2946 25.1269 21.4873V22.4557C25.1269 22.6484 25.0503 22.8332 24.9141 22.9694C24.7778 23.1057 24.593 23.1822 24.4004 23.1822Z" fill="#FCF419"/>
<path d="M30.9402 26.5741H28.0341C27.8415 26.5741 27.6567 26.4976 27.5204 26.3613C27.3842 26.2251 27.3076 26.0403 27.3076 25.8476C27.3076 25.6549 27.3842 25.4701 27.5204 25.3339C27.6567 25.1976 27.8415 25.1211 28.0341 25.1211H30.9402C31.1329 25.1211 31.3177 25.1976 31.454 25.3339C31.5902 25.4701 31.6668 25.6549 31.6668 25.8476C31.6668 26.0403 31.5902 26.2251 31.454 26.3613C31.3177 26.4976 31.1329 26.5741 30.9402 26.5741Z" fill="#F9F5F5"/>
<path d="M25.8531 26.5741H19.3144C19.1217 26.5741 18.9369 26.4976 18.8007 26.3613C18.6644 26.2251 18.5879 26.0403 18.5879 25.8476C18.5879 25.6549 18.6644 25.4701 18.8007 25.3339C18.9369 25.1976 19.1217 25.1211 19.3144 25.1211H25.8531C26.0458 25.1211 26.2306 25.1976 26.3668 25.3339C26.5031 25.4701 26.5796 25.6549 26.5796 25.8476C26.5796 26.0403 26.5031 26.2251 26.3668 26.3613C26.2306 26.4976 26.0458 26.5741 25.8531 26.5741Z" fill="#F9F5F5"/>
<path d="M21.494 30.2074H19.3144C19.1217 30.2074 18.9369 30.1309 18.8007 29.9946C18.6644 29.8584 18.5879 29.6736 18.5879 29.4809C18.5879 29.2882 18.6644 29.1034 18.8007 28.9672C18.9369 28.8309 19.1217 28.7544 19.3144 28.7544H21.494C21.6867 28.7544 21.8715 28.8309 22.0077 28.9672C22.144 29.1034 22.2205 29.2882 22.2205 29.4809C22.2205 29.6736 22.144 29.8584 22.0077 29.9946C21.8715 30.1309 21.6867 30.2074 21.494 30.2074Z" fill="#F9F5F5"/>
<path d="M30.939 30.2074H23.6738C23.4811 30.2074 23.2963 30.1309 23.1601 29.9946C23.0238 29.8584 22.9473 29.6736 22.9473 29.4809C22.9473 29.2882 23.0238 29.1034 23.1601 28.9672C23.2963 28.8309 23.4811 28.7544 23.6738 28.7544H30.939C31.1317 28.7544 31.3165 28.8309 31.4527 28.9672C31.589 29.1034 31.6655 29.2882 31.6655 29.4809C31.6655 29.6736 31.589 29.8584 31.4527 29.9946C31.3165 30.1309 31.1317 30.2074 30.939 30.2074Z" fill="#F9F5F5"/>
<path d="M15.6823 24.3937C15.4896 24.3937 15.3048 24.3172 15.1685 24.1809C15.0323 24.0447 14.9557 23.8599 14.9557 23.6672V13.4959C14.9557 12.9178 14.7261 12.3635 14.3174 11.9547C13.9086 11.546 13.3542 11.3163 12.7762 11.3163C12.1981 11.3163 11.6437 11.546 11.235 11.9547C10.8262 12.3635 10.5966 12.9178 10.5966 13.4959V22.9407H13.5027C13.6954 22.9407 13.8802 23.0172 14.0164 23.1535C14.1527 23.2897 14.2292 23.4745 14.2292 23.6672C14.2292 23.8599 14.1527 24.0447 14.0164 24.1809C13.8802 24.3172 13.6954 24.3937 13.5027 24.3937H9.87008C9.67739 24.3937 9.4926 24.3172 9.35635 24.1809C9.2201 24.0447 9.14355 23.8599 9.14355 23.6672V13.4959C9.14355 12.5325 9.52628 11.6085 10.2075 10.9272C10.8888 10.246 11.8127 9.86328 12.7762 9.86328C13.7396 9.86328 14.6636 10.246 15.3448 10.9272C16.0261 11.6085 16.4088 12.5325 16.4088 13.4959V23.6672C16.4088 23.8599 16.3322 24.0447 16.196 24.1809C16.0597 24.3172 15.8749 24.3937 15.6823 24.3937Z" fill="#043C49"/>
<path d="M33.1195 40.377H20.0421C19.9105 40.377 19.7815 40.3413 19.6686 40.2737C19.5558 40.2062 19.4634 40.1092 19.4014 39.9932C19.3393 39.8772 19.3099 39.7466 19.3163 39.6152C19.3227 39.4839 19.3646 39.3567 19.4376 39.2473L19.4957 39.1601C19.6001 39.0036 19.761 38.8937 19.9447 38.8535C20.5893 38.7085 21.1655 38.3491 21.5791 37.8339C21.9928 37.3188 22.2193 36.6785 22.2216 36.0179V33.1118C22.2216 32.9191 22.2982 32.7343 22.4344 32.598C22.5707 32.4618 22.7555 32.3853 22.9481 32.3853H37.4786C37.6713 32.3853 37.8561 32.4618 37.9923 32.598C38.1286 32.7343 38.2051 32.9191 38.2051 33.1118V35.2913C38.2034 36.6396 37.667 37.9322 36.7137 38.8855C35.7603 39.8389 34.4677 40.3753 33.1195 40.377ZM22.5558 38.924H33.1195C34.0825 38.9228 35.0058 38.5397 35.6868 37.8587C36.3678 37.1777 36.7509 36.2544 36.7521 35.2913V33.8383H23.6747V36.0179C23.6722 37.0913 23.2739 38.1261 22.5558 38.924Z" fill="#043C49"/>
<path d="M33.1189 40.3772H19.315C18.1593 40.3761 17.0512 39.9164 16.2339 39.0992C15.4167 38.2819 14.957 37.1738 14.9559 36.0181V13.4959C14.9559 12.9178 14.7263 12.3635 14.3175 11.9547C13.9088 11.546 13.3544 11.3163 12.7763 11.3163C12.5836 11.3163 12.3988 11.2398 12.2626 11.1035C12.1263 10.9673 12.0498 10.7825 12.0498 10.5898C12.0498 10.3971 12.1263 10.2123 12.2626 10.0761C12.3988 9.93983 12.5836 9.86328 12.7763 9.86328H28.0333C29.9595 9.8654 31.8062 10.6315 33.1682 11.9936C34.5303 13.3556 35.2964 15.2023 35.2985 17.1285V33.112C35.2985 33.3047 35.222 33.4895 35.0857 33.6257C34.9495 33.762 34.7647 33.8385 34.572 33.8385C34.3793 33.8385 34.1945 33.762 34.0583 33.6257C33.922 33.4895 33.8455 33.3047 33.8455 33.112V17.1285C33.8437 15.5875 33.2308 14.1102 32.1412 13.0206C31.0516 11.931 29.5742 11.3181 28.0333 11.3163H15.6824C16.1553 11.9444 16.4104 12.7097 16.4089 13.4959V36.0181C16.4089 36.7888 16.7151 37.528 17.2601 38.073C17.8051 38.618 18.5443 38.9242 19.315 38.9242H33.1189C33.3116 38.9242 33.4964 39.0007 33.6327 39.137C33.7689 39.2732 33.8455 39.458 33.8455 39.6507C33.8455 39.8434 33.7689 40.0282 33.6327 40.1644C33.4964 40.3007 33.3116 40.3772 33.1189 40.3772Z" fill="#043C49"/>
</g>
<defs>
<clipPath id="clip0_629_2031">
<rect width="30.2605" height="31.5762" fill="white" transform="translate(8.87012 9)"/>
</clipPath>
</defs>
</svg>
