<svg width="48" height="48" viewBox="0 0 48 48" fill="none" xmlns="http://www.w3.org/2000/svg">
<rect width="48" height="48" rx="24" fill="#F0F3FA"/>
<g clip-path="url(#clip0_629_2048)">
<path d="M18.6141 37.7058H11.5586V31.0267L14.4758 30.4189L18.6141 31.0267V37.7058Z" fill="#E3EDF6"/>
<path d="M22.7195 10.2822L22.6282 11.96H10.4189L10.3271 10.2822H22.7195Z" fill="#E3EDF6"/>
<path d="M10.4199 11.9595L11.5502 31.0263H18.5051L21.8971 25.4511L22.6292 11.9595H10.4199Z" fill="#8AE897"/>
<path d="M19.2555 29.7926L18.5051 31.0263H11.5502L10.4199 11.9595H11.6221L12.6794 29.7926H19.2555Z" fill="#54E072"/>
<path d="M14.4756 16.9404H15.6925C17.3082 16.9404 18.618 18.2503 18.618 19.8659V21.0828H17.4011C15.7854 21.0828 14.4756 19.773 14.4756 18.1573V16.9404Z" fill="#E3EDF6"/>
<path d="M18.619 19.8773V21.0828H17.4018C15.786 21.0828 14.4766 19.7728 14.4766 18.1575V16.9404H15.6865V17.7959C15.6865 18.9455 16.6183 19.8773 17.7685 19.8773H18.619Z" fill="#C5D9EC"/>
<path d="M35.626 28.585H37.7248V37.7056H32.7529V28.585H35.884" fill="#F88FA4"/>
<path d="M37.304 28.5848V23.5991H33.1699V28.613L37.304 28.5848Z" fill="#E3EDF6"/>
<path d="M33.6074 23.6021V19.1782L36.87 17.1875V23.6021H33.6074Z" fill="#F05475"/>
<path d="M31.0524 26.8567V29.3805H18.6152V26.8567C18.6152 25.9703 19.3336 25.252 20.22 25.252H29.4476C30.334 25.2519 31.0524 25.9702 31.0524 26.8567Z" fill="#E3EDF6"/>
<path d="M31.0524 28.1159V29.3812H18.6152V26.8574C18.6152 26.0804 19.1671 25.4323 19.9004 25.2847C19.8805 25.3837 19.8705 25.4865 19.8705 25.5916V28.1159H31.0524Z" fill="#C5D9EC"/>
<path d="M31.0524 29.3809H18.6152V37.7055H31.0524V29.3809Z" fill="#B6E6FA"/>
<path d="M21.5225 31.8613H22.4969C23.7906 31.8613 24.8395 32.9102 24.8395 34.2039V35.1783H23.8651C22.5713 35.1783 21.5225 34.1295 21.5225 32.8357V31.8613Z" fill="#8AE897"/>
<path d="M28.1608 31.8613H27.1864C25.8926 31.8613 24.8438 32.9102 24.8438 34.2039V35.1783H25.8182C27.1119 35.1783 28.1608 34.1295 28.1608 32.8357V31.8613Z" fill="#8AE897"/>
<path d="M34.0038 28.585H32.7402V37.8837H34.0038V28.585Z" fill="#F05475"/>
<path d="M32.7529 36.4537L32.7529 37.7173L37.7869 37.7173L37.7869 36.4537L32.7529 36.4537Z" fill="#F05475"/>
<path d="M33.1084 27.3043L33.1084 28.5679L37.3053 28.5679L37.3053 27.3043L33.1084 27.3043Z" fill="#C5D9EC"/>
<path d="M33.5195 22.3273L33.5195 23.5908L36.8698 23.5908L36.8698 22.3273L33.5195 22.3273Z" fill="#E21743"/>
<path d="M34.4042 23.4834H33.1406V28.6133H34.4042V23.4834Z" fill="#C5D9EC"/>
<path d="M34.7831 23.6001H33.5195V19.2444L34.7831 18.4702V23.6001Z" fill="#E21743"/>
<path d="M18.6009 36.4639H11.3623V37.7055H18.6009V36.4639Z" fill="#C5D9EC"/>
<path d="M31.0402 36.4639H18.6025V37.7055H31.0402V36.4639Z" fill="#8AD8F6"/>
<path d="M12.7916 31.4512H11.459V37.0851H12.7916V31.4512Z" fill="#C5D9EC"/>
<path d="M19.8661 29.3877H18.6025V37.4331H19.8661V29.3877Z" fill="#8AD8F6"/>
<path d="M14.0459 13.209V14.0385" stroke="white" stroke-width="0.829474" stroke-miterlimit="10"/>
<path d="M12.3877 13.209V14.0385" stroke="white" stroke-width="0.829474" stroke-miterlimit="10"/>
<path d="M35.6133 28.5918H37.7121V37.7125H32.7402V28.5918H35.8713" stroke="#2B2B2B" stroke-width="0.829474" stroke-miterlimit="10"/>
<path d="M33.1582 28.6757V26.481" stroke="#2B2B2B" stroke-width="0.829474" stroke-miterlimit="10"/>
<path d="M33.1582 25.6519V23.6069H37.2923V28.5926" stroke="#2B2B2B" stroke-width="0.829474" stroke-miterlimit="10"/>
<path d="M33.5938 23.3877V19.1851L36.8563 17.1943V23.3877" stroke="#2B2B2B" stroke-width="0.829474" stroke-miterlimit="10"/>
<path d="M29.0326 37.7123H31.0401V26.8636C31.0401 25.9773 30.3216 25.2588 29.4353 25.2588H20.2073C19.321 25.2588 18.6025 25.9773 18.6025 26.8636V37.7123H26.5425" stroke="#2B2B2B" stroke-width="0.829474" stroke-miterlimit="10"/>
<path d="M27.373 37.7119H28.2005" stroke="#2B2B2B" stroke-width="0.829474" stroke-miterlimit="10"/>
<path d="M31.0394 29.3877H18.8936" stroke="#2B2B2B" stroke-width="0.829474" stroke-miterlimit="10"/>
<path d="M18.4921 31.0342H14.8789" stroke="#2B2B2B" stroke-width="0.829474" stroke-miterlimit="10"/>
<path d="M14.0493 31.0342H11.5371" stroke="#2B2B2B" stroke-width="0.829474" stroke-miterlimit="10"/>
<path d="M21.8834 25.4592L22.7069 10.29H10.3145L11.4691 31.3479" stroke="#2B2B2B" stroke-width="0.829474" stroke-miterlimit="10"/>
<path d="M18.6013 37.7132H11.5459V31.3647" stroke="#2B2B2B" stroke-width="0.829474" stroke-miterlimit="10"/>
<path d="M18.3659 35.2227H14.6464C14.0742 35.2227 13.6104 35.6866 13.6104 36.2587V37.433" stroke="#2B2B2B" stroke-width="0.829474" stroke-miterlimit="10"/>
<path d="M14.4639 16.9473H15.6808C17.2965 16.9473 18.6063 18.2571 18.6063 19.8728V21.0897H17.3894C15.7737 21.0897 14.4639 19.7798 14.4639 18.1642V16.9473Z" stroke="#2B2B2B" stroke-width="0.829474" stroke-miterlimit="10"/>
<path d="M21.5098 31.8691H22.4842C23.7779 31.8691 24.8268 32.918 24.8268 34.2117V35.1862H23.8524C22.5586 35.1862 21.5098 34.1373 21.5098 32.8435V31.8691Z" stroke="#2B2B2B" stroke-width="0.829474" stroke-miterlimit="10"/>
<path d="M28.1481 31.8691H27.1737C25.8799 31.8691 24.8311 32.918 24.8311 34.2117V35.1862H25.8055C27.0992 35.1862 28.1481 34.1373 28.1481 32.8435V31.8691Z" stroke="#2B2B2B" stroke-width="0.829474" stroke-miterlimit="10"/>
<path d="M22.6187 11.9658H10.4121" stroke="#2B2B2B" stroke-width="0.829474" stroke-miterlimit="10"/>
<path d="M20.2461 10.5034V11.6647" stroke="#2B2B2B" stroke-width="0.829474" stroke-miterlimit="10"/>
<path d="M17.7578 10.5034V11.6647" stroke="#2B2B2B" stroke-width="0.829474" stroke-miterlimit="10"/>
<path d="M15.2686 10.5034V11.6647" stroke="#2B2B2B" stroke-width="0.829474" stroke-miterlimit="10"/>
<path d="M12.7803 10.5034V11.6647" stroke="#2B2B2B" stroke-width="0.829474" stroke-miterlimit="10"/>
<path d="M20.2715 26.481V27.3104" stroke="#2B2B2B" stroke-width="0.829474" stroke-miterlimit="10"/>
<path d="M14.0459 22.7388H19.0227" stroke="#2B2B2B" stroke-width="0.829474" stroke-miterlimit="10"/>
<path d="M34.7832 31.9038H37.7115" stroke="#2B2B2B" stroke-width="0.829474" stroke-miterlimit="10"/>
<path d="M35.2246 19.8452V20.6747" stroke="white" stroke-width="0.829474" stroke-miterlimit="10"/>
</g>
<defs>
<clipPath id="clip0_629_2048">
<rect width="28.2529" height="28.2529" fill="white" transform="translate(9.87305 9.87354)"/>
</clipPath>
</defs>
</svg>
