<svg width="48" height="48" viewBox="0 0 48 48" fill="none" xmlns="http://www.w3.org/2000/svg">
<rect width="48" height="48" rx="24" fill="#F0F3FA"/>
<g clip-path="url(#clip0_629_2470)">
<path d="M14.7477 37.3745L13.9438 35.3952C13.8127 35.0724 13.4791 34.8798 13.134 34.9276L11.0178 35.221C10.3903 35.3081 9.93734 34.6352 10.2541 34.0865L15.7674 24.5371L21.6255 27.9193L16.1121 37.4687C15.7954 38.0174 14.9861 37.9615 14.7477 37.3745Z" fill="#86E99E"/>
<path d="M33.2518 37.3745L34.0557 35.3952C34.1868 35.0724 34.5204 34.8798 34.8655 34.9276L36.9817 35.221C37.6092 35.3081 38.0622 34.6352 37.7455 34.0865L32.2321 24.5371L26.374 27.9193L31.8874 37.4687C32.2041 38.0174 33.0134 37.9615 33.2518 37.3745Z" fill="#86E99E"/>
<path d="M23.9996 34.1955C30.6392 34.1955 36.0217 28.813 36.0217 22.1734C36.0217 15.5338 30.6392 10.1514 23.9996 10.1514C17.36 10.1514 11.9775 15.5338 11.9775 22.1734C11.9775 28.813 17.36 34.1955 23.9996 34.1955Z" fill="#FFCC36"/>
<path d="M38.2328 33.8046L35.0259 28.25C36.0433 26.4102 36.5849 24.3332 36.5849 22.1727C36.5849 19.2741 35.5754 16.4447 33.7426 14.2058C31.9352 11.998 29.4117 10.4563 26.637 9.86448C26.3329 9.79985 26.0337 9.99357 25.9689 10.2976C25.9041 10.6017 26.098 10.9008 26.4021 10.9657C28.9278 11.5043 31.2252 12.9083 32.8713 14.919C34.54 16.9573 35.459 19.5334 35.459 22.1727C35.459 28.4913 30.3184 33.6318 23.9998 33.6318C17.6813 33.6318 12.5408 28.4913 12.5408 22.1727C12.5408 19.5334 13.4597 16.9573 15.1284 14.919C16.7745 12.9083 19.072 11.5043 21.5976 10.9657C21.9017 10.9008 22.0956 10.6017 22.0308 10.2976C21.966 9.99363 21.6672 9.79985 21.3628 9.86448C18.588 10.4563 16.0646 11.998 14.2572 14.2058C12.4242 16.4447 11.4148 19.2741 11.4148 22.1727C11.4148 24.3332 11.9564 26.4102 12.9739 28.25L9.76689 33.8046C9.51198 34.2461 9.53045 34.7831 9.81514 35.2061C10.0998 35.6291 10.5909 35.8483 11.0955 35.7782L13.2117 35.4848C13.302 35.4726 13.3883 35.5224 13.4226 35.6065L14.2265 37.5859C14.4183 38.0583 14.8535 38.3735 15.3621 38.4086C15.3935 38.4108 15.4247 38.4119 15.4558 38.4119C15.9285 38.4119 16.3608 38.164 16.6 37.7497L18.9373 33.7015C20.5121 34.3936 22.2279 34.7577 23.9998 34.7577C25.7718 34.7577 27.4876 34.3936 29.0624 33.7015L31.3996 37.7497C31.6388 38.164 32.0712 38.4119 32.5438 38.4119C32.5749 38.4119 32.6062 38.4108 32.6375 38.4086C33.1462 38.3735 33.5813 38.0582 33.7731 37.5859L34.5771 35.6065C34.6113 35.5224 34.6976 35.4723 34.788 35.4848L36.9041 35.7782C37.4088 35.8481 37.8998 35.6291 38.1845 35.2061C38.4693 34.7831 38.4878 34.2461 38.2328 33.8046ZM15.625 37.1867C15.5712 37.2799 15.4858 37.2885 15.4397 37.2853C15.3936 37.2821 15.3102 37.262 15.2697 37.1622L14.4657 35.1828C14.2374 34.6206 13.6578 34.2862 13.0571 34.3695L10.9409 34.6629C10.8338 34.6781 10.775 34.6157 10.7492 34.5773C10.7234 34.539 10.6882 34.4608 10.742 34.3675L13.648 29.3342C14.0753 29.9492 14.5601 30.531 15.1009 31.0717C15.9512 31.922 16.9022 32.6348 17.9263 33.2007L15.625 37.1867ZM37.2506 34.5773C37.2248 34.6157 37.1655 34.6779 37.0589 34.6629L34.9428 34.3695C34.3415 34.2862 33.7623 34.6206 33.534 35.1828L32.7301 37.1622C32.6896 37.2619 32.6062 37.2821 32.5601 37.2853C32.5138 37.2887 32.4286 37.2799 32.3748 37.1867L30.0735 33.2007C31.0976 32.6348 32.0485 31.922 32.8988 31.0717C33.4396 30.531 33.9244 29.9492 34.3518 29.3343L37.2578 34.3675C37.3116 34.4607 37.2764 34.539 37.2506 34.5773Z" fill="black"/>
<path d="M32.3827 20.5546C33.0169 20.3636 33.6046 20.8271 33.6221 20.8411C33.8602 21.0385 34.2132 21.007 34.4125 20.77C34.6126 20.532 34.5818 20.1768 34.3438 19.9768C34.3012 19.9411 33.2885 19.1058 32.058 19.4765C31.4362 19.6637 30.9964 20.1537 30.9099 20.7553C30.8289 21.3198 31.0735 21.8628 31.5484 22.1725C31.5733 22.1887 32.2729 22.5027 32.9713 22.7603C33.1688 22.8331 33.6216 23.0387 33.5618 23.3735C33.5169 23.6252 33.2103 23.8856 32.775 23.8856C32.3274 23.8856 31.8966 23.7052 31.6227 23.4029C31.414 23.1725 31.0579 23.1551 30.8275 23.3638C30.5971 23.5725 30.5796 23.9286 30.7884 24.159C31.2722 24.6928 32.0148 25.0116 32.775 25.0116C33.7241 25.0116 34.5212 24.4059 34.6702 23.5715C34.7823 22.9435 34.4973 22.1232 33.3609 21.704C32.8077 21.5 32.2927 21.2778 32.1346 21.2086C32.012 21.11 32.0162 20.9727 32.0244 20.9154C32.0359 20.8359 32.0936 20.6416 32.3827 20.5546Z" fill="black"/>
<path d="M15.1457 19.3818H13.8374C13.5265 19.3818 13.2744 19.6339 13.2744 19.9448V24.4486C13.2744 24.5983 13.3341 24.7419 13.4402 24.8476C13.5457 24.9526 13.6885 25.0116 13.8374 25.0116H13.8399C13.84 25.0116 15.0426 25.0062 15.3741 25.0062C16.353 25.0062 17.1494 24.2098 17.1494 23.2309C17.1494 22.6734 16.8908 22.1754 16.4875 21.8496C16.6501 21.5993 16.745 21.3012 16.745 20.9811C16.745 20.0993 16.0275 19.3818 15.1457 19.3818ZM15.1457 20.5078C15.4067 20.5078 15.619 20.7201 15.619 20.9811C15.619 21.2422 15.4067 21.4545 15.1457 21.4545C15.0495 21.4545 14.4004 21.4557 14.4004 21.4557V20.5077L15.1457 20.5078ZM15.3741 23.8802C15.1948 23.8802 14.7617 23.8817 14.4004 23.8833V22.5827C14.4907 22.5823 15.3741 22.5817 15.3741 22.5817C15.7321 22.5817 16.0234 22.8729 16.0234 23.2309C16.0234 23.5889 15.7322 23.8802 15.3741 23.8802Z" fill="black"/>
<path d="M27.3706 19.3818C27.0597 19.3818 26.8076 19.6339 26.8076 19.9448V23.3277C26.8076 23.9113 27.0848 24.3844 27.6312 24.7335C27.9193 24.9176 28.2439 25.0111 28.5961 25.0116H28.5991C28.9013 25.0116 29.1855 24.9456 29.4439 24.8156C30.0804 24.495 30.431 23.9656 30.431 23.325V19.9448C30.431 19.6339 30.1789 19.3818 29.868 19.3818C29.5571 19.3818 29.305 19.6339 29.305 19.9448V23.325C29.305 23.4732 29.2614 23.6468 28.9375 23.8099C28.8363 23.8608 28.7256 23.8856 28.5991 23.8856C28.5986 23.8856 28.5982 23.8856 28.5978 23.8856C28.4614 23.8854 28.3435 23.8524 28.2376 23.7847C27.9834 23.6223 27.9337 23.4941 27.9337 23.3277V19.9448C27.9336 19.6339 27.6815 19.3818 27.3706 19.3818Z" fill="black"/>
<path d="M23.0517 24.4486V21.7592L25.0652 24.6749C25.2307 24.9138 25.5066 25.0157 25.7682 24.9337C26.0351 24.8503 26.2077 24.6003 26.2077 24.2968V19.9448C26.2077 19.6339 25.9556 19.3818 25.6447 19.3818C25.3339 19.3818 25.0818 19.6339 25.0818 19.9448V22.7174L22.952 19.6333C22.812 19.4305 22.5565 19.3425 22.3212 19.4158C22.0859 19.4891 21.9258 19.7069 21.9258 19.9533V24.4486C21.9258 24.7595 22.1779 25.0116 22.4888 25.0116C22.7996 25.0116 23.0517 24.7595 23.0517 24.4486Z" fill="black"/>
<path d="M24.0006 31.9227C26.4984 31.9227 28.9962 30.9719 30.8978 29.0704C31.1176 28.8506 31.1176 28.4941 30.8978 28.2742C30.6779 28.0544 30.3215 28.0544 30.1016 28.2742C26.7375 31.6383 21.2637 31.6383 17.8996 28.2742C17.6797 28.0544 17.3233 28.0544 17.1034 28.2742C16.8835 28.4941 16.8835 28.8505 17.1034 29.0704C19.005 30.9719 21.5028 31.9227 24.0006 31.9227Z" fill="black"/>
<path d="M17.1034 15.2761C16.8835 15.496 16.8835 15.8524 17.1034 16.0723C17.3233 16.2921 17.6796 16.2921 17.8996 16.0723C21.2637 12.7082 26.7375 12.7082 30.1016 16.0723C30.2115 16.1822 30.3556 16.2372 30.4996 16.2372C30.6437 16.2372 30.7878 16.1822 30.8977 16.0723C31.1176 15.8525 31.1176 15.496 30.8977 15.2761C27.0946 11.4731 20.9065 11.4731 17.1034 15.2761Z" fill="black"/>
<path d="M19.4774 25.0116H19.4917C20.5718 25.0116 21.4505 24.1328 21.4505 23.0527V21.3407C21.4505 20.2606 20.5718 19.3818 19.4917 19.3818H19.4774C18.3973 19.3818 17.5186 20.2606 17.5186 21.3407V23.0527C17.5186 24.1328 18.3973 25.0116 19.4774 25.0116ZM18.6445 21.3407C18.6445 20.8814 19.0181 20.5078 19.4774 20.5078H19.4917C19.9509 20.5078 20.3246 20.8814 20.3246 21.3407V23.0527C20.3246 23.512 19.9509 23.8856 19.4917 23.8856H19.4774C19.0181 23.8856 18.6445 23.512 18.6445 23.0527V21.3407Z" fill="black"/>
<path d="M23.9995 10.7138C24.3104 10.7138 24.5625 10.4618 24.5625 10.1509C24.5625 9.83994 24.3104 9.58789 23.9995 9.58789C23.6886 9.58789 23.4365 9.83994 23.4365 10.1509C23.4365 10.4618 23.6886 10.7138 23.9995 10.7138Z" fill="black"/>
</g>
<defs>
<clipPath id="clip0_629_2470">
<rect width="28.8242" height="28.8242" fill="white" transform="translate(9.58789 9.58789)"/>
</clipPath>
</defs>
</svg>
