<svg width="24" height="24" viewBox="0 0 24 24" fill="none" xmlns="http://www.w3.org/2000/svg">
<rect width="24" height="24" rx="2" fill="#F0F3FA"/>
<path d="M13.5659 9.26372C10.879 9.444 8.75735 11.6033 8.75735 14.2405C8.75735 14.3481 8.76089 14.4548 8.76783 14.5606C6.71948 14.2445 5.1544 12.5324 5.1544 10.4678C5.1544 8.17849 7.0786 6.32267 9.4522 6.32267C11.3916 6.32267 13.031 7.56165 13.5659 9.26372Z" fill="#3E70FD"/>
<path d="M19 14.3398C19 16.9033 16.8454 18.9813 14.1875 18.9813C11.5296 18.9813 9.375 16.9033 9.375 14.3398C9.375 11.7764 11.5296 9.69832 14.1875 9.69832C16.8454 9.69832 19 11.7764 19 14.3398Z" fill="#3E70FD"/>
<path d="M13.75 6.64534H15.886V7.91121H14.9992C14.9119 7.91121 14.8642 8.00939 14.9201 8.07406L16.1158 9.45786C16.1569 9.5055 16.2328 9.5055 16.2739 9.45786L17.4696 8.07406C17.5255 8.00939 17.4778 7.91121 17.3905 7.91121H16.5551V6.19857C16.5551 6.0889 16.463 6 16.3493 6H13.75C13.6363 6 13.5441 6.0889 13.5441 6.19857V6.44678C13.5441 6.55644 13.6363 6.64534 13.75 6.64534Z" fill="#3E70FD"/>
<path d="M8.74365 18.3547H6.60762V17.0888H7.49445C7.58173 17.0888 7.62941 16.9906 7.57354 16.9259L6.37788 15.5421C6.33672 15.4945 6.26087 15.4945 6.21971 15.5421L5.02406 16.9259C4.96818 16.9906 5.01586 17.0888 5.10314 17.0888H5.9385V18.8014C5.9385 18.9111 6.03068 19 6.14438 19H8.74365C8.85736 19 8.94953 18.9111 8.94953 18.8014V18.5532C8.94953 18.4436 8.85736 18.3547 8.74365 18.3547Z" fill="#3E70FD"/>
</svg>
