<svg width="48" height="48" viewBox="0 0 48 48" fill="none" xmlns="http://www.w3.org/2000/svg">
<rect width="48" height="48" rx="24" fill="#F0F3FA"/>
<g clip-path="url(#clip0_632_1003)">
<path fill-rule="evenodd" clip-rule="evenodd" d="M39.6551 33.3705C39.6551 35.154 38.2019 36.6072 36.3853 36.6072H11.5825C9.79896 36.6072 8.34573 35.154 8.34573 33.3705C8.34573 27.5906 8.34573 21.8438 8.34573 16.0639C8.34573 14.2804 9.79896 12.8271 11.5825 12.8271H12.21C12.9036 12.8271 12.9036 14.0492 12.21 14.0492H11.5825C10.4925 14.0492 9.56776 14.974 9.56776 16.0639V17.9795H38.4V16.0639C38.4 14.974 37.5083 14.0492 36.3853 14.0492H15.0834C14.3568 14.0492 14.3568 12.8271 15.0834 12.8271H36.3853C38.2019 12.8271 39.6551 14.2804 39.6551 16.0639V23.9906C39.6551 24.7172 38.4 24.7172 38.4 23.9906V19.2015H9.56776V33.3705C9.56776 34.4604 10.4925 35.3852 11.5825 35.3852H36.3853C37.5083 35.3852 38.4 34.4604 38.4 33.3705V26.9631C38.4 26.2695 39.6551 26.2695 39.6551 26.9631V33.3705Z" fill="black"/>
<path fill-rule="evenodd" clip-rule="evenodd" d="M38.3996 33.3731C38.3996 34.463 37.5078 35.3878 36.3849 35.3878H11.5792C10.4892 35.3878 9.56445 34.463 9.56445 33.3731V19.2041H38.3996V33.3731ZM9.56445 17.9821V16.0665C9.56445 14.9765 10.4892 14.0518 11.5792 14.0518L36.3849 14.0518C37.5078 14.0518 38.3996 14.9765 38.3996 16.0665V17.9821H9.56445Z" fill="#8F90FB"/>
<path fill-rule="evenodd" clip-rule="evenodd" d="M12.5146 21.3818H17.7991V24.4865H12.5146V21.3818Z" fill="#FF4567"/>
<path fill-rule="evenodd" clip-rule="evenodd" d="M22.5787 20.3916H36.5825C36.9128 20.3916 37.2101 20.6558 37.2101 20.9861C37.2101 21.3164 36.9128 21.6136 36.5825 21.6136H22.5787C22.2154 21.6136 21.9512 21.3164 21.9512 20.9861C21.9512 20.6558 22.2154 20.3916 22.5787 20.3916Z" fill="black"/>
<path fill-rule="evenodd" clip-rule="evenodd" d="M30.1756 22.8359H36.583C36.9132 22.8359 37.2105 23.1002 37.2105 23.4304C37.2105 23.7607 36.9132 24.058 36.583 24.058H30.1756C29.8453 24.058 29.5811 23.7607 29.5811 23.4304C29.5811 23.1002 29.8453 22.8359 30.1756 22.8359Z" fill="black"/>
<path fill-rule="evenodd" clip-rule="evenodd" d="M11.7459 30.498H15.511C15.8413 30.498 16.1386 30.7623 16.1386 31.0926C16.1386 31.4228 15.8413 31.7201 15.511 31.7201H11.7459C11.4156 31.7201 11.1514 31.4228 11.1514 31.0926C11.1514 30.7623 11.4156 30.498 11.7459 30.498Z" fill="black"/>
<path fill-rule="evenodd" clip-rule="evenodd" d="M18.1539 30.498H21.9191C22.2494 30.498 22.5136 30.7623 22.5136 31.0926C22.5136 31.4228 22.2494 31.7201 21.9191 31.7201H18.1539C17.7906 31.7201 17.5264 31.4228 17.5264 31.0926C17.5264 30.7623 17.7906 30.498 18.1539 30.498Z" fill="black"/>
<path fill-rule="evenodd" clip-rule="evenodd" d="M24.4949 30.498H28.2601C28.5904 30.498 28.8546 30.7623 28.8546 31.0926C28.8546 31.4228 28.5904 31.7201 28.2601 31.7201H24.4949C24.1646 31.7201 23.9004 31.4228 23.9004 31.0926C23.9004 30.7623 24.1646 30.498 24.4949 30.498Z" fill="black"/>
<path fill-rule="evenodd" clip-rule="evenodd" d="M36.4185 25.3789C39.49 25.3789 42.0002 27.889 42.0002 30.9936C42.0002 34.0983 39.49 36.6084 36.4185 36.6084C33.3138 36.6084 30.8037 34.0983 30.8037 30.9936C30.8037 27.889 33.3138 25.3789 36.4185 25.3789Z" fill="black"/>
<path fill-rule="evenodd" clip-rule="evenodd" d="M36.4181 26.6006C38.8291 26.6006 40.7778 28.5823 40.7778 30.9933C40.7778 33.4043 38.8291 35.386 36.4181 35.386C33.974 35.386 32.0254 33.4043 32.0254 30.9933C32.0254 28.5823 33.974 26.6006 36.4181 26.6006Z" fill="#FF4567"/>
<path fill-rule="evenodd" clip-rule="evenodd" d="M12.349 20.3916H17.9637C18.4261 20.3916 18.7894 20.7549 18.7894 21.2173V24.6522C18.7894 25.1146 18.4261 25.5109 17.9637 25.5109H12.349C11.8866 25.5109 11.4902 25.1146 11.4902 24.6522V21.2173C11.4902 20.7549 11.8866 20.3916 12.349 20.3916ZM12.7123 21.6136H17.5674V24.2559H12.7123V21.6136Z" fill="black"/>
<path fill-rule="evenodd" clip-rule="evenodd" d="M34.0732 30.9928C34.0732 30.5964 35.1301 29.2092 35.2622 29.0111C35.7246 28.2845 36.8146 28.978 36.3522 29.7047L35.9558 30.3322H38.0696C38.9283 30.3322 38.9283 31.6533 38.0696 31.6533H35.9558L36.3522 32.2808C36.8146 33.0075 35.7246 33.701 35.2622 32.9744C35.0641 32.6772 34.0732 31.3561 34.0732 30.9928Z" fill="black"/>
</g>
<defs>
<clipPath id="clip0_632_1003">
<rect width="34" height="23.7999" fill="white" transform="translate(8 12.8184)"/>
</clipPath>
</defs>
</svg>
