<svg width="48" height="48" viewBox="0 0 48 48" fill="none" xmlns="http://www.w3.org/2000/svg">
<rect width="48" height="48" rx="24" fill="#F0F3FA"/>
<path d="M10.1035 24.228L8.55469 16.4712L36.343 11.8587L36.8896 17.4656L10.1035 24.228Z" fill="#A4CC82"/>
<path d="M10.2223 36.2661L10.1641 18.4112L38.3619 17.414L38.3504 36.4305L10.2223 36.2661Z" fill="#66C334"/>
<path d="M16.9444 26.4183C16.9283 25.2376 15.9632 24.2933 14.7889 24.3093C13.6145 24.3253 12.6755 25.2955 12.6916 26.4763C12.7077 27.6571 13.6727 28.6013 14.8471 28.5853C16.0215 28.5693 16.9605 27.5991 16.9444 26.4183Z" fill="#FBE41A"/>
<path d="M36.4844 26.764C36.4683 25.5833 35.5033 24.639 34.3289 24.655C33.1545 24.671 32.2155 25.6412 32.2316 26.822C32.2477 28.0028 33.2128 28.947 34.3871 28.931C35.5615 28.915 36.5005 27.9448 36.4844 26.764Z" fill="#FBE41A"/>
<path d="M30.0098 27.1852C29.9676 24.0856 27.4341 21.6069 24.3511 21.6489C21.2682 21.6909 18.8032 24.2377 18.8454 27.3373C18.8876 30.437 21.4211 32.9157 24.5041 32.8737C27.587 32.8317 30.052 30.2849 30.0098 27.1852Z" fill="#FCC325"/>
<g opacity="0.2">
<path d="M38.3547 30.3775L38.3627 17.4145L10.1649 18.4117L10.1864 24.4C15.4203 26.6702 28.0806 31.5127 38.3547 30.3775Z" fill="white"/>
</g>
<path d="M24.9031 30.7569C24.7242 30.7913 24.5405 30.7933 24.3608 30.7625L23.4565 30.6087C23.2585 30.575 23.069 30.5026 22.8989 30.3957C22.7289 30.2888 22.5815 30.1494 22.4653 29.9855C22.3491 29.8216 22.2664 29.6365 22.2218 29.4406C22.1772 29.2447 22.1717 29.042 22.2054 28.8439L22.2941 28.3235C22.3039 28.2572 22.3268 28.1936 22.3615 28.1363C22.3962 28.079 22.442 28.0292 22.4962 27.9899C22.5504 27.9505 22.6119 27.9224 22.6771 27.9072C22.7423 27.8919 22.8099 27.8898 22.8759 27.901C22.942 27.9122 23.0051 27.9365 23.0616 27.9724C23.1181 28.0084 23.1669 28.0552 23.2051 28.1103C23.2432 28.1653 23.27 28.2274 23.2839 28.2929C23.2977 28.3584 23.2983 28.4261 23.2857 28.4918L23.197 29.0123C23.1855 29.0801 23.1874 29.1495 23.2027 29.2166C23.2179 29.2836 23.2462 29.347 23.286 29.4031C23.3258 29.4592 23.3762 29.5069 23.4344 29.5435C23.4927 29.5802 23.5575 29.6049 23.6253 29.6165L24.5291 29.7705C24.666 29.7935 24.8064 29.7614 24.9197 29.6811C25.0329 29.6009 25.1097 29.479 25.1333 29.3422L25.1986 28.9589C25.2125 28.8769 25.2067 28.7928 25.1816 28.7135C25.1565 28.6342 25.1129 28.5621 25.0543 28.503L23.2177 26.8577C22.9832 26.6306 22.8276 26.3343 22.7737 26.0123C22.7197 25.6903 22.7702 25.3595 22.9178 25.0683C23.0654 24.7771 23.3024 24.5408 23.5939 24.3939C23.8855 24.247 24.2164 24.1974 24.5383 24.2521L25.4432 24.4064C25.6412 24.4401 25.8306 24.5124 26.0006 24.6193C26.1706 24.7262 26.3179 24.8656 26.434 25.0295C26.5501 25.1933 26.6328 25.3784 26.6774 25.5743C26.7219 25.7701 26.7275 25.9728 26.6937 26.1707L26.6686 26.3072C26.6576 26.3723 26.6338 26.4347 26.5987 26.4907C26.5635 26.5467 26.5177 26.5952 26.4638 26.6335C26.4099 26.6717 26.349 26.699 26.2846 26.7138C26.2201 26.7285 26.1534 26.7304 26.0882 26.7194C26.0231 26.7083 25.9607 26.6845 25.9047 26.6494C25.8487 26.6142 25.8002 26.5684 25.7619 26.5145C25.7237 26.4606 25.6964 26.3997 25.6816 26.3353C25.6669 26.2709 25.665 26.2041 25.676 26.139L25.7007 26.0006C25.7125 25.9328 25.7108 25.8633 25.6957 25.7962C25.6806 25.729 25.6524 25.6656 25.6127 25.6094C25.573 25.5532 25.5225 25.5054 25.4643 25.4687C25.4061 25.432 25.3412 25.4072 25.2733 25.3957L24.3685 25.2414C24.2591 25.2227 24.1467 25.2392 24.0473 25.2885C23.948 25.3378 23.8669 25.4175 23.8158 25.5159C23.7646 25.6144 23.7461 25.7265 23.7629 25.8362C23.7797 25.9458 23.8309 26.0473 23.9091 26.1259L25.7457 27.7712C25.9232 27.9446 26.0562 28.1582 26.1334 28.3939C26.2106 28.6297 26.2298 28.8806 26.1893 29.1254L26.1241 29.5092C26.0717 29.8167 25.9267 30.1008 25.7085 30.3238C25.4904 30.5467 25.2094 30.6978 24.9031 30.7569Z" fill="#043C49"/>
<path d="M24.9805 25.2685C24.9006 25.2838 24.8183 25.2796 24.7404 25.2562C24.6626 25.2327 24.5916 25.1908 24.5335 25.1339C24.4754 25.077 24.432 25.0069 24.4069 24.9295C24.3819 24.8522 24.3759 24.7699 24.3896 24.6898L24.558 23.6982C24.5828 23.5691 24.6572 23.4548 24.7653 23.3798C24.8734 23.3049 25.0065 23.2752 25.1362 23.2972C25.2658 23.3193 25.3817 23.3912 25.459 23.4976C25.5363 23.604 25.5688 23.7365 25.5496 23.8666L25.3812 24.8582C25.3641 24.9593 25.3166 25.0527 25.245 25.126C25.1734 25.1993 25.0811 25.249 24.9805 25.2685Z" fill="#043C49"/>
<path d="M23.8827 31.7138C23.8029 31.7291 23.7205 31.7249 23.6427 31.7015C23.5648 31.678 23.4938 31.6361 23.4358 31.5792C23.3777 31.5223 23.3342 31.4522 23.3092 31.3749C23.2841 31.2975 23.2782 31.2153 23.2919 31.1351L23.4603 30.1435C23.47 30.0773 23.493 30.0137 23.5277 29.9564C23.5624 29.8991 23.6081 29.8493 23.6623 29.81C23.7165 29.7706 23.778 29.7425 23.8432 29.7272C23.9085 29.712 23.9761 29.7099 24.0421 29.7211C24.1081 29.7323 24.1712 29.7566 24.2277 29.7925C24.2843 29.8285 24.333 29.8753 24.3712 29.9303C24.4094 29.9854 24.4362 30.0475 24.45 30.113C24.4639 30.1785 24.4645 30.2462 24.4518 30.3119L24.2835 31.3035C24.2664 31.4046 24.2189 31.498 24.1473 31.5713C24.0757 31.6447 23.9834 31.6943 23.8827 31.7138Z" fill="#043C49"/>
<path d="M15.3066 29.0358C15.1542 29.065 14.9996 29.0808 14.8444 29.0829C14.172 29.0913 13.5222 28.8401 13.0304 28.3814C12.5385 27.9227 12.2426 27.292 12.2042 26.6206C12.1659 25.9491 12.388 25.2888 12.8243 24.777C13.2606 24.2653 13.8776 23.9416 14.5466 23.8734C15.2157 23.8051 15.8852 23.9976 16.4159 24.4107C16.9466 24.8239 17.2974 25.4258 17.3953 26.0911C17.4933 26.7565 17.3308 27.4339 16.9417 27.9825C16.5526 28.531 15.9669 28.9083 15.3066 29.0358ZM14.5014 24.8367C14.175 24.8994 13.8762 25.062 13.6462 25.3019C13.3457 25.6138 13.1806 26.0318 13.1869 26.4649C13.1932 26.8979 13.3703 27.311 13.6798 27.614C13.8319 27.7633 14.0121 27.881 14.2099 27.9602C14.4078 28.0395 14.6194 28.0787 14.8325 28.0757C15.0456 28.0727 15.256 28.0275 15.4515 27.9427C15.6471 27.8579 15.8239 27.7352 15.9717 27.5817C16.1214 27.4277 16.2392 27.2456 16.3181 27.0458C16.3971 26.8461 16.4357 26.6327 16.4318 26.4179C16.4295 26.2033 16.3848 25.9913 16.3003 25.794C16.2158 25.5967 16.0931 25.418 15.9394 25.2683C15.7873 25.1189 15.6069 25.0013 15.4089 24.9223C15.2108 24.8433 14.999 24.8046 14.7859 24.8083C14.6901 24.8098 14.5946 24.8197 14.5006 24.8379L14.5014 24.8367Z" fill="#043C49"/>
<path d="M34.8369 29.3888C34.6845 29.4181 34.5298 29.4338 34.3747 29.4359C33.7022 29.4444 33.0524 29.1931 32.5606 28.7344C32.0688 28.2757 31.7729 27.645 31.7345 26.9736C31.6961 26.3022 31.9182 25.6418 32.3546 25.1301C32.7909 24.6183 33.4078 24.2946 34.0769 24.2264C34.7459 24.1582 35.4155 24.3507 35.9462 24.7638C36.4768 25.1769 36.8277 25.7788 36.9256 26.4442C37.0236 27.1095 36.8611 27.787 36.472 28.3355C36.0829 28.884 35.4972 29.2613 34.8369 29.3888ZM34.0317 25.1897C33.7053 25.2525 33.4065 25.415 33.1764 25.6549C32.8759 25.9668 32.7109 26.3848 32.7172 26.8179C32.7234 27.251 32.9006 27.664 33.2101 27.967C33.3622 28.1163 33.5424 28.234 33.7402 28.3132C33.9381 28.3925 34.1496 28.4317 34.3628 28.4287C34.5759 28.4257 34.7863 28.3805 34.9818 28.2957C35.1773 28.2109 35.3541 28.0882 35.502 27.9347C35.6517 27.7807 35.7694 27.5986 35.8484 27.3988C35.9274 27.1991 35.966 26.9857 35.962 26.7709C35.9597 26.5563 35.9151 26.3443 35.8306 26.147C35.746 25.9497 35.6234 25.7711 35.4696 25.6213C35.3175 25.4719 35.1372 25.3543 34.9391 25.2753C34.7411 25.1963 34.5293 25.1576 34.3161 25.1613C34.2204 25.1628 34.1249 25.1727 34.0309 25.1909L34.0317 25.1897Z" fill="#043C49"/>
<path d="M38.4458 36.9234C38.4147 36.9292 38.383 36.9322 38.3513 36.9323L15.8909 36.942C15.7575 36.9422 15.6295 36.8893 15.535 36.795C15.4406 36.7007 15.3875 36.5728 15.3874 36.4394C15.3873 36.3059 15.4401 36.1779 15.5344 36.0835C15.6287 35.989 15.7566 35.9359 15.89 35.9358L37.8482 35.925L37.8594 17.9325L10.6701 18.8951L10.7245 35.7898L13.7985 35.9686C13.8662 35.97 13.9329 35.9851 13.9946 36.0128C14.0563 36.0406 14.1118 36.0806 14.1577 36.1303C14.2036 36.1801 14.239 36.2386 14.2618 36.3023C14.2846 36.3661 14.2942 36.4337 14.2902 36.5013C14.2862 36.5689 14.2686 36.635 14.2385 36.6956C14.2083 36.7562 14.1662 36.8101 14.1148 36.854C14.0633 36.898 14.0035 36.9311 13.9389 36.9514C13.8743 36.9717 13.8063 36.9787 13.7389 36.9721L10.1943 36.7668C10.0664 36.7594 9.9461 36.7035 9.85802 36.6104C9.76993 36.5174 9.72067 36.3942 9.72029 36.2661L9.66166 18.4093C9.66163 18.2789 9.71222 18.1536 9.80278 18.0598C9.89333 17.966 10.0168 17.9111 10.1471 17.9065L38.3449 16.9093C38.4124 16.9068 38.4797 16.9181 38.5429 16.9422C38.606 16.9664 38.6636 17.0031 38.7122 17.05C38.7608 17.097 38.7995 17.1532 38.8259 17.2155C38.8523 17.2777 38.8659 17.3446 38.8659 17.4122L38.854 36.4292C38.8541 36.5462 38.8133 36.6596 38.7388 36.7497C38.6643 36.8399 38.5607 36.9013 38.4458 36.9234Z" fill="#043C49"/>
<path d="M36.9852 17.9601C36.9704 17.963 36.9546 17.966 36.9393 17.9689C36.8067 17.9814 36.6746 17.9408 36.572 17.856C36.4693 17.7712 36.4045 17.6492 36.3916 17.5167L35.8973 12.4442L28.519 13.6675C28.4538 13.6783 28.3871 13.6762 28.3228 13.6613C28.2584 13.6463 28.1976 13.6189 28.1438 13.5804C28.0901 13.542 28.0445 13.4933 28.0095 13.4372C27.9746 13.3811 27.951 13.3187 27.9402 13.2535C27.9284 13.1882 27.9298 13.1212 27.9444 13.0565C27.9589 12.9917 27.9863 12.9306 28.0249 12.8766C28.0635 12.8226 28.1125 12.777 28.1691 12.7423C28.2257 12.7076 28.2886 12.6846 28.3542 12.6747L36.2616 11.3633C36.3296 11.352 36.3992 11.3548 36.4661 11.3715C36.5329 11.3883 36.5957 11.4185 36.6503 11.4605C36.705 11.5024 36.7505 11.5552 36.7839 11.6155C36.8174 11.6757 36.8381 11.7422 36.8447 11.8108L37.3902 17.4174C37.4024 17.5421 37.3676 17.6668 37.2927 17.7671C37.2178 17.8675 37.1082 17.9363 36.9852 17.9601Z" fill="#043C49"/>
<path d="M10.1991 24.7219C10.0688 24.7469 9.93386 24.7194 9.82373 24.6453C9.7136 24.5713 9.63719 24.4567 9.61115 24.3266L8.06229 16.5697C8.04913 16.5035 8.04942 16.4354 8.06315 16.3693C8.07688 16.3032 8.10376 16.2406 8.1422 16.1851C8.22166 16.0751 8.34029 15.9998 8.47366 15.9746L25.7697 13.1036C25.901 13.0801 26.0363 13.1098 26.1458 13.186C26.2552 13.2623 26.3299 13.3789 26.3534 13.5102C26.3769 13.6416 26.3472 13.7769 26.271 13.8863C26.1947 13.9958 26.0781 14.0705 25.9468 14.094L25.9344 14.0964L9.15059 16.8819L10.5976 24.1287C10.6105 24.1935 10.6106 24.2602 10.5978 24.325C10.585 24.3898 10.5595 24.4515 10.5229 24.5064C10.4862 24.5614 10.4391 24.6086 10.3842 24.6454C10.3293 24.6821 10.2678 24.7077 10.203 24.7207L10.1991 24.7219Z" fill="#043C49"/>
<path d="M25.5563 33.2649C25.2074 33.3316 24.8533 33.3675 24.4982 33.372C23.2879 33.395 22.0981 33.0582 21.0795 32.4043C20.0608 31.7504 19.2592 30.8089 18.7763 29.699C18.2933 28.589 18.1506 27.3607 18.3664 26.1697C18.5822 24.9786 19.1467 23.8784 19.9884 23.0085C20.8301 22.1386 21.9111 21.5381 23.0944 21.2832C24.2777 21.0282 25.51 21.1303 26.6353 21.5764C27.7605 22.0226 28.728 22.7927 29.4151 23.7892C30.1022 24.7857 30.478 25.9638 30.4949 27.1741C30.5159 28.6072 30.0329 30.002 29.1302 31.1152C28.2276 32.2284 26.9627 32.9892 25.5563 33.2649ZM23.4585 22.2422C22.1744 22.49 21.0356 23.2238 20.2793 24.2908C19.5231 25.3577 19.2078 26.6753 19.3992 27.969C19.5906 29.2627 20.274 30.4325 21.3068 31.2347C22.3396 32.0369 23.6422 32.4095 24.943 32.2749C26.2438 32.1402 27.4425 31.5086 28.2891 30.5119C29.1357 29.5151 29.5649 28.2301 29.4872 26.9246C29.4096 25.6192 28.8311 24.3941 27.8723 23.5047C26.9135 22.6153 25.6485 22.1303 24.3409 22.1508C24.0448 22.1558 23.7498 22.1865 23.4591 22.2426L23.4585 22.2422Z" fill="#043C49"/>
</svg>
