<svg width="48" height="48" viewBox="0 0 48 48" fill="none" xmlns="http://www.w3.org/2000/svg">
<g clip-path="url(#clip0_6115_20362)">
<path fill-rule="evenodd" clip-rule="evenodd" d="M26.1735 0.374023C29.471 0.374023 32.399 1.98602 34.188 4.45552C35.6525 6.45252 37.5745 7.68002 39.9845 8.15302C44.5545 9.04102 48 13.063 48 17.885C48 18.9795 47.823 20.044 47.4825 21.02C46.8175 23.0465 46.8175 24.954 47.4825 26.9805C47.823 27.9565 48 29.021 48 30.1155C48 35.218 44.1255 39.432 39.172 39.965C36.4955 40.261 34.292 41.518 32.68 43.6625C30.876 46.073 27.9925 47.626 24.7545 47.626C20.9985 47.626 17.745 45.5405 16.059 42.4795C14.536 39.699 11.9775 37.9985 8.828 37.658C3.8745 37.111 0 32.911 0 27.793C0 26.0185 0.473 24.3325 1.3015 22.8835C2.337 21.079 2.7065 19.245 2.47 17.175C2.4405 16.7905 2.411 16.3525 2.411 15.9675C2.411 10.3475 6.965 5.73902 12.5845 5.73902H12.658C15.216 5.73902 17.4345 4.91952 19.2685 3.13002C21.0575 1.38552 23.4825 0.374023 26.1735 0.374023Z" fill="#E6EDFF"/>
<g clip-path="url(#clip1_6115_20362)">
<path d="M11.3257 34.8438H36.175C37.8557 34.8438 39.2182 33.4813 39.2182 31.8006V19.7563C39.2182 18.0756 37.8557 16.7131 36.175 16.7131H11.3257C9.64502 16.7131 8.28255 18.0756 8.28255 19.7563V31.8006C8.28255 33.4813 9.64502 34.8438 11.3257 34.8438Z" fill="#558B2F"/>
<path d="M11.3257 32.8164H36.175C37.8557 32.8164 39.2182 31.4539 39.2182 29.7733V17.7289C39.2182 16.0482 37.8557 14.6858 36.175 14.6858H11.3257C9.64502 14.6858 8.28255 16.0482 8.28255 17.7289V29.7733C8.28255 31.4539 9.64502 32.8164 11.3257 32.8164Z" fill="#689F38"/>
<path d="M11.3257 30.7871H36.175C37.8557 30.7871 39.2182 29.4246 39.2182 27.744V15.6996C39.2182 14.0189 37.8557 12.6565 36.175 12.6565H11.3257C9.64502 12.6565 8.28255 14.0189 8.28255 15.6996V27.744C8.28255 29.4246 9.64502 30.7871 11.3257 30.7871Z" fill="#7CB342"/>
<path d="M13.602 28.1761C13.4224 26.772 12.2985 25.6495 10.893 25.4706C10.7044 25.4463 10.5644 25.2841 10.5644 25.0941V18.3491C10.5644 18.1591 10.7044 17.9969 10.893 17.9726C12.2985 17.793 13.4224 16.6705 13.602 15.2671C13.6263 15.0785 13.7885 14.9385 13.9785 14.9385H33.5222C33.7122 14.9385 33.8744 15.0785 33.8987 15.2671C34.0783 16.6712 35.2022 17.7937 36.6077 17.9726C36.7963 17.9969 36.9363 18.1591 36.9363 18.3491V25.0941C36.9363 25.2841 36.7963 25.4463 36.6077 25.4706C35.2022 25.6502 34.0783 26.7727 33.8987 28.1761C33.8744 28.3647 33.7122 28.5047 33.5222 28.5047H13.9785C13.7885 28.5047 13.6263 28.3647 13.602 28.1761Z" fill="#8BC34A"/>
<path d="M17.9951 12.6562H29.5049V30.7869H17.9951V12.6562Z" fill="#ECEFF1"/>
<path d="M17.9951 30.7871H29.5049V34.844H17.9951V30.7871Z" fill="#CFD8DC"/>
<path d="M9.01611 40.668C10.2223 40.668 11.2002 39.6901 11.2002 38.4839C11.2002 37.2777 10.2223 36.2998 9.01611 36.2998C7.80988 36.2998 6.83203 37.2777 6.83203 38.4839C6.83203 39.6901 7.80988 40.668 9.01611 40.668Z" fill="#FFC107"/>
<path d="M38.4839 11.2002C39.6901 11.2002 40.668 10.2223 40.668 9.01611C40.668 7.80988 39.6901 6.83203 38.4839 6.83203C37.2777 6.83203 36.2998 7.80988 36.2998 9.01611C36.2998 10.2223 37.2777 11.2002 38.4839 11.2002Z" fill="#FFC107"/>
<path d="M22.7793 9.08887C18.8355 9.08887 16.4558 10.832 15.0462 12.6562C14.2135 13.7337 13.7192 14.8382 13.4404 15.6293L12.6542 15.4407C12.0079 15.2861 11.4595 15.9309 11.7153 16.5439L13.394 20.5598C13.7961 21.5208 15.0164 21.8134 15.8103 21.1388L19.1267 18.3203C19.6328 17.8897 19.4366 17.0667 18.7897 16.9113L17.9445 16.7089C18.6899 15.196 20.2464 12.6562 22.2925 12.6562H30.2121C27.1953 9.49448 23.8186 9.08887 22.7786 9.08887H22.7793Z" fill="#D32F2F"/>
<path d="M24.7207 38.4108C28.6645 38.4108 31.0441 36.6677 32.4537 34.8434C33.2865 33.766 33.7808 32.6614 34.0596 31.8703L34.8458 32.0589C35.492 32.2135 36.0405 31.5687 35.7846 30.9558L34.106 26.9398C33.7039 25.9788 32.4836 25.6862 31.6897 26.3609L28.3733 29.1794C27.8672 29.61 28.0634 30.433 28.7103 30.5883L29.5555 30.7908C28.8101 32.3037 27.2535 34.8434 25.2074 34.8434H17.2879C20.3047 38.0052 23.6814 38.4108 24.7214 38.4108H24.7207Z" fill="#D32F2F"/>
<path d="M11.325 35.2594H17.1125C18.4257 36.5997 19.9344 37.5905 21.602 38.2034C23.1759 38.7817 24.3872 38.8268 24.7207 38.8268C28.0343 38.8268 30.7724 37.594 32.6541 35.2594H36.175C38.0824 35.2594 39.6342 33.7077 39.6342 31.8003V15.6984C39.6342 13.7909 38.0824 12.2392 36.175 12.2392H30.3875C27.7493 9.54551 24.6153 8.67188 22.7793 8.67188C19.4657 8.67188 16.7277 9.90467 14.8459 12.2392H11.325C9.41757 12.2392 7.86583 13.7909 7.86583 15.6984V31.8003C7.86583 33.7077 9.41757 35.2594 11.325 35.2594ZM13.0106 20.7197C13.5209 21.9407 15.0691 22.3144 16.0801 21.4553L17.5791 20.1809V28.088H14.0097C13.7927 26.5155 12.5543 25.2785 10.9804 25.0622V18.3803C11.307 18.3352 11.6211 18.2451 11.9199 18.1127L13.0099 20.7204L13.0106 20.7197ZM18.8875 16.5061L18.5588 16.4271C19.2501 15.1485 20.6292 13.0712 22.294 13.0712H29.0896V28.0249L28.1043 28.8625C27.6647 29.2355 27.5441 29.8568 27.8131 30.3699H18.4118V19.4737L19.3971 18.6361C20.1626 17.9858 19.8644 16.7398 18.8882 16.5061H18.8875ZM34.2454 26.3525C33.6047 25.4997 32.3158 25.2827 31.4206 26.044L29.9216 27.3184V15.3545H33.491C33.708 16.927 34.9464 18.164 36.5203 18.3803V25.0622C35.6175 25.1863 34.8091 25.6536 34.2454 26.3525ZM28.8705 31.2019C28.1584 32.4867 26.816 34.4267 25.2074 34.4267H18.4118V31.2019H28.8705ZM17.5798 32.3986H11.3257C9.95493 32.3986 8.82683 31.3426 8.70965 30.0017C9.34408 30.736 10.2815 31.2019 11.3257 31.2019H17.5798V32.3986ZM24.7214 37.9947C24.3567 37.9947 21.2955 37.9115 18.3161 35.2594H25.2074C27.3374 35.2594 28.9703 32.9027 29.9167 30.9987C29.9611 30.91 29.9868 30.8233 29.9632 30.7075C29.9362 30.5744 29.8474 30.4711 29.7406 30.4177C29.6748 30.3851 29.6713 30.39 28.8074 30.1833C28.4919 30.1078 28.3955 29.707 28.643 29.4962L31.9594 26.6777C32.539 26.1847 33.4293 26.3983 33.7226 27.1L35.4012 31.1159C35.5267 31.4154 35.2591 31.7295 34.9436 31.654L34.1573 31.4654C33.95 31.4154 33.7392 31.5305 33.6678 31.7316C33.4127 32.4548 32.9377 33.5371 32.1251 34.589C30.3792 36.8486 27.888 37.9947 24.7214 37.9947ZM36.2631 31.1998C37.2719 31.1749 38.1747 30.7159 38.7917 30.0017C38.6746 31.3426 37.5465 32.3986 36.1757 32.3986H35.5184C35.9843 32.1996 36.2936 31.7254 36.2631 31.1998ZM34.4811 32.3986H34.3071C34.312 32.3862 34.3175 32.373 34.3223 32.3605L34.4811 32.3986ZM36.1757 34.4274H33.2594C33.5291 34.0149 33.7531 33.6092 33.9389 33.2307H36.1757C37.2199 33.2307 38.1573 32.7647 38.7917 32.0305C38.6746 33.3714 37.5465 34.4274 36.1757 34.4274ZM38.8028 15.6991V27.7434C38.8028 29.1918 37.6241 30.3706 36.1757 30.3706H35.992L34.667 27.2012C35.0948 26.478 35.8269 25.9899 36.6611 25.8831C37.0556 25.8325 37.353 25.4935 37.353 25.0941V18.3491C37.353 17.9497 37.0556 17.61 36.6611 17.56C35.4345 17.4033 34.4686 16.4389 34.3119 15.2144C34.2613 14.8199 33.9223 14.5231 33.5229 14.5231H29.9223V13.0733H36.1764C37.6248 13.0733 38.8035 14.252 38.8035 15.7005L38.8028 15.6991ZM22.7793 9.5046C23.144 9.5046 26.2045 9.58711 29.1846 12.2399H22.2933C20.1633 12.2399 18.5158 14.6084 17.5722 16.5242C17.4668 16.7384 17.5625 16.997 17.7836 17.0906C17.8606 17.1232 18.3695 17.2376 18.6933 17.3153C19.0088 17.3909 19.1052 17.7916 18.8577 18.0024L15.5413 20.8209C14.9617 21.3139 14.0714 21.1003 13.7781 20.3987L12.0995 16.3827C11.9851 16.1088 12.1972 15.8329 12.4614 15.8329C12.5266 15.8329 12.4794 15.826 13.3434 16.0326C13.5507 16.0825 13.7615 15.9674 13.8329 15.7663C14.088 15.0432 14.563 13.9608 15.3756 12.909C17.1215 10.6493 19.6127 9.50321 22.7793 9.50321V9.5046ZM8.69786 15.6991C8.69786 14.2506 9.87658 13.0719 11.325 13.0719H14.2413C13.7497 13.8242 13.4079 14.5543 13.179 15.1388L12.7512 15.0362C11.7743 14.8026 10.9443 15.7774 11.3319 16.7044L11.5996 17.3444C11.3583 17.4533 11.1045 17.5254 10.841 17.5594C10.4465 17.61 10.1491 17.949 10.1491 18.3484V25.0934C10.1491 25.4928 10.4465 25.8325 10.841 25.8824C12.0676 26.0391 13.0334 27.0036 13.1901 28.2281C13.2408 28.6226 13.5798 28.92 13.9792 28.92H17.5798V30.3699H11.3257C9.87727 30.3699 8.69856 29.1912 8.69856 27.7427V15.6984L8.69786 15.6991ZM11.325 33.2314H17.5791V34.4281H11.325C9.95423 34.4281 8.82614 33.3721 8.70896 32.0312C9.34338 32.7654 10.2808 33.2314 11.325 33.2314Z" fill="black"/>
<path d="M23.9774 23.4138H23.3381C23.1003 23.4138 22.9062 23.2203 22.9062 22.9818C22.9062 22.7433 22.7197 22.5658 22.4902 22.5658C22.2607 22.5658 22.0742 22.7523 22.0742 22.9818C22.0742 23.6765 22.6379 24.2423 23.3319 24.2451V24.7013C23.3319 24.9308 23.5184 25.1173 23.7479 25.1173C23.9774 25.1173 24.1639 24.9308 24.1639 24.7013V24.2319C24.8864 24.1397 25.4467 23.5226 25.4467 22.7752C25.4467 21.9646 24.7873 21.3053 23.9767 21.3053H23.5468C23.1953 21.3053 22.909 21.0189 22.909 20.6674C22.909 20.3158 23.1953 20.0295 23.5468 20.0295H24.1861C24.4246 20.0295 24.6181 20.2229 24.6181 20.4614C24.6181 20.7 24.8046 20.8775 25.0341 20.8775C25.2636 20.8775 25.4501 20.6909 25.4501 20.4614C25.4501 19.793 24.9197 19.1974 24.1646 19.1974V18.7412C24.1646 18.5117 23.9781 18.3252 23.7486 18.3252C23.5191 18.3252 23.3326 18.5117 23.3326 18.7412V19.2148C22.624 19.3195 22.0776 19.9296 22.0776 20.6667C22.0776 21.4772 22.737 22.1366 23.5475 22.1366H23.9774C24.329 22.1366 24.6153 22.4229 24.6153 22.7745C24.6153 23.126 24.329 23.4124 23.9774 23.4124V23.4138Z" fill="black"/>
<path d="M9.01611 41.084C10.45 41.084 11.6162 39.9178 11.6162 38.4839C11.6162 37.05 10.45 35.8838 9.01611 35.8838C7.58225 35.8838 6.41602 37.05 6.41602 38.4839C6.41602 39.9178 7.58225 41.084 9.01611 41.084ZM9.01611 36.7158C9.99098 36.7158 10.7842 37.509 10.7842 38.4839C10.7842 39.4588 9.99098 40.252 9.01611 40.252C8.04125 40.252 7.24805 39.4588 7.24805 38.4839C7.24805 37.509 8.04125 36.7158 9.01611 36.7158Z" fill="black"/>
<path d="M38.4839 11.6162C39.9178 11.6162 41.084 10.45 41.084 9.01611C41.084 7.58225 39.9178 6.41602 38.4839 6.41602C37.05 6.41602 35.8838 7.58225 35.8838 9.01611C35.8838 10.45 37.05 11.6162 38.4839 11.6162ZM38.4839 7.24805C39.4588 7.24805 40.252 8.04125 40.252 9.01611C40.252 9.99098 39.4588 10.7842 38.4839 10.7842C37.509 10.7842 36.7158 9.99098 36.7158 9.01611C36.7158 8.04125 37.509 7.24805 38.4839 7.24805Z" fill="black"/>
</g>
</g>
<defs>
<clipPath id="clip0_6115_20362">
<rect width="48" height="48" fill="white"/>
</clipPath>
<clipPath id="clip1_6115_20362">
<rect width="35.5" height="35.5" fill="white" transform="translate(6 6)"/>
</clipPath>
</defs>
</svg>
