<svg width="48" height="48" viewBox="0 0 48 48" fill="none" xmlns="http://www.w3.org/2000/svg">
<rect width="48" height="48" rx="24" fill="#F0F3FA"/>
<g clip-path="url(#clip0_629_2104)">
<path d="M30.6636 31.4071C30.6636 30.9739 30.3594 30.6051 29.9354 30.5175L29.2532 30.3839C28.6586 30.264 28.0547 30.2041 27.4463 30.2041H27.6675C27.9856 30.2041 28.276 30.075 28.4834 29.8676C28.6908 29.6602 28.8199 29.3698 28.8199 29.0518C28.8199 28.4157 28.3036 27.8994 27.6675 27.8994H29.255C29.5297 27.8994 29.7436 27.6602 29.7164 27.3869C29.6339 26.5595 29.3541 25.7925 28.9213 25.1338H36.8725L36.5498 32.5088H28.7968V32.5134H28.7922C28.5018 32.223 28.1054 32.0479 27.6675 32.0479H28.3589L29.5804 32.2921C29.6404 32.306 29.7003 32.3106 29.7602 32.3106C30.2488 32.3106 30.6636 31.9188 30.6636 31.4071Z" fill="#E2DEDE"/>
<path d="M27.668 30.2041H12.457C11.8205 30.2041 11.3047 29.6883 11.3047 29.0518C11.3047 28.4152 11.8205 27.8994 12.457 27.8994H27.668C28.3045 27.8994 28.8203 28.4152 28.8203 29.0518C28.8203 29.6883 28.3045 30.2041 27.668 30.2041Z" fill="#8AC926"/>
<path d="M27.668 30.2041H12.457C11.8205 30.2041 11.3047 29.6883 11.3047 29.0518C11.3047 28.4152 11.8205 27.8994 12.457 27.8994H27.668C28.3045 27.8994 28.8203 28.4152 28.8203 29.0518C28.8203 29.6883 28.3045 30.2041 27.668 30.2041Z" fill="#8AC926"/>
<path d="M28.8203 29.0518C28.8203 29.3698 28.6912 29.6602 28.4838 29.8676C28.2764 30.075 27.986 30.2041 27.668 30.2041H12.457C11.8209 30.2041 11.3047 29.6879 11.3047 29.0518C11.3047 28.8904 11.337 28.7337 11.4015 28.5908C11.5766 28.9964 11.9823 29.2822 12.457 29.2822H27.668C27.986 29.2822 28.2764 29.1532 28.4838 28.9457C28.5852 28.8443 28.6682 28.7245 28.7235 28.5908C28.788 28.7337 28.8203 28.8904 28.8203 29.0518Z" fill="#7AA822"/>
<path d="M37.1172 19.6025L36.8729 25.1338H28.9217C28.7281 24.8388 28.5069 24.5622 28.258 24.3133C27.3407 23.3961 26.0731 22.8291 24.6719 22.8291H24.3723L24.2109 19.6025H37.1172Z" fill="#E02B4F"/>
<path d="M32.5078 19.6025C32.4848 20.1183 32.0598 20.5244 31.5435 20.5244H24.257L24.2109 19.6025H32.5078Z" fill="#DD6480"/>
<path d="M27.668 32.0479H27.8984V32.0663C27.8247 32.0525 27.7463 32.0479 27.668 32.0479Z" fill="#FFFAD8"/>
<path d="M36.5502 32.5088L36.3294 37.5989C36.3188 37.8455 36.116 38.04 35.869 38.04H28.3594C28.742 38.04 29.0877 37.8833 29.3366 37.6344C29.603 37.368 29.7639 36.9909 29.7399 36.5766C29.7127 36.0995 29.2978 35.7354 28.8203 35.7354H27.668C28.5576 35.7354 29.2812 35.0117 29.2812 34.1221V33.6611C29.2812 33.5828 29.2766 33.5044 29.2628 33.4307C29.2121 33.0711 29.0462 32.7531 28.7973 32.5134V32.5088H36.5502Z" fill="#E02B4F"/>
<path d="M37.1167 19.6025L36.8724 25.1338H35.4297L35.4896 23.751L35.674 19.6025H37.1167Z" fill="#C90030"/>
<path d="M36.8728 25.1338L36.5502 32.5088H35.1074L35.1673 31.126L35.4301 25.1338H36.8728Z" fill="#D3BEBE"/>
<path d="M27.668 35.7354H28.5898C29.4795 35.7354 30.2031 35.0117 30.2031 34.1221V33.6611C30.2031 33.5828 30.1985 33.5044 30.1847 33.4307C30.134 33.0711 29.968 32.7531 29.7191 32.5134V32.5088H28.7973V32.5134C29.0462 32.7531 29.2121 33.0711 29.2628 33.4307C29.2766 33.5044 29.2812 33.5828 29.2812 33.6611V34.1221C29.2812 35.0117 28.5576 35.7354 27.668 35.7354Z" fill="#C90030"/>
<path d="M35.1075 32.5088L35.066 33.4703C34.9886 35.2523 33.5214 36.6572 31.7376 36.6572H30.6641C30.6641 36.1502 30.2492 35.7354 29.7422 35.7354H28.8203C29.3273 35.7354 29.7422 36.1502 29.7422 36.6572C29.7422 37.0398 29.5855 37.3855 29.3366 37.6344C29.0877 37.8833 28.742 38.04 28.3594 38.04H29.2812H35.869C36.1156 38.04 36.3188 37.8455 36.3294 37.5989L36.5502 32.5088H35.1075Z" fill="#C90030"/>
<path d="M38.0391 18.2197V19.1416C38.0391 19.396 37.8326 19.6025 37.5781 19.6025H37.1172H24.2109H23.75C23.4956 19.6025 23.2891 19.396 23.2891 19.1416V18.2197C23.2891 17.9653 23.4956 17.7588 23.75 17.7588H29.7422H31.5859H37.5781C37.8326 17.7588 38.0391 17.9653 38.0391 18.2197Z" fill="#E2DEDE"/>
<path d="M38.0391 18.2197V19.1416C38.0391 19.396 37.8326 19.6025 37.5781 19.6025H23.75C23.4956 19.6025 23.2891 19.396 23.2891 19.1416V18.6807H35.2734C35.5279 18.6807 35.7344 18.4742 35.7344 18.2197V17.7588H37.5781C37.8326 17.7588 38.0391 17.9653 38.0391 18.2197Z" fill="#D3BEBE"/>
<path d="M36.6562 9.95571V10.873C36.6562 11.1173 36.4673 11.3201 36.2276 11.3339L32.4479 11.5874C31.9639 11.6197 31.5859 12.0207 31.5859 12.5047V17.7594H29.7422V12.0806C29.7422 10.8684 30.6825 9.85891 31.8948 9.78055L36.163 9.49477C36.4304 9.47633 36.6562 9.68836 36.6562 9.95571Z" fill="#666666"/>
<path d="M36.6562 9.95693V10.8728C36.6562 11.1171 36.4673 11.3199 36.2276 11.3338L32.4433 11.5877C31.9607 11.62 31.5859 12.021 31.5859 12.5045V17.7592H30.6641V12.411C30.6641 11.4614 31.4002 10.6742 32.3479 10.6105L35.3057 10.4123C35.5454 10.3985 35.7344 10.1957 35.7344 9.9514V9.52227L36.163 9.49461C36.4299 9.47756 36.6562 9.68959 36.6562 9.95693Z" fill="#4D4D4D"/>
<path d="M22.8788 33.8086L20.0625 32.0479H19.6016H15.4531H14.0703H12.6875H12.457H11.7656L10.5441 32.2921C9.9818 32.4028 9.46094 31.9787 9.46094 31.4071C9.46094 30.9739 9.76516 30.6051 10.1892 30.5175L10.8714 30.3839C11.466 30.264 12.0698 30.2041 12.6783 30.2041H15.4531H20.0625H24.6719H27.4467C28.0552 30.2041 28.659 30.264 29.2536 30.3839L29.9358 30.5175C30.3598 30.6051 30.6641 30.9739 30.6641 31.4071C30.6641 31.9188 30.2492 32.3106 29.7606 32.3106C29.7007 32.3106 29.6408 32.306 29.5809 32.2921L28.3594 32.0479H27.668H26.9766L24.5428 33.781L24.5013 33.8132C24.045 34.1405 23.4412 34.1589 22.9664 33.8639L22.8788 33.8086Z" fill="#FFCA3A"/>
<path d="M30.6641 31.4065C30.6641 31.9182 30.2492 32.31 29.7606 32.31C29.7007 32.31 29.6408 32.3054 29.5809 32.2915L28.3594 32.0472H26.9766L24.5428 33.7804L24.5345 33.7868C24.08 34.1399 23.4532 34.1708 22.9664 33.8633L22.8788 33.808L20.0625 32.0472H11.7656L10.5441 32.2915C9.9818 32.4021 9.46094 31.9781 9.46094 31.4065C9.46094 31.2406 9.50703 31.0839 9.59 30.9502C9.77898 31.2636 10.1523 31.448 10.5441 31.3696L11.7656 31.1254H19.4015C19.8334 31.1254 20.257 31.2466 20.6235 31.4757L22.8793 32.8861L22.9669 32.9414C23.4536 33.2489 24.0805 33.218 24.535 32.8649L24.5433 32.8585L26.9766 31.1254H28.3594L29.5809 31.3696C29.6408 31.3835 29.7007 31.3881 29.7606 31.3881C30.0833 31.3881 30.3783 31.2175 30.535 30.9502C30.618 31.0839 30.6641 31.2406 30.6641 31.4065Z" fill="#FF9700"/>
<path d="M29.7167 27.3869C29.7438 27.6602 29.53 27.8994 29.2553 27.8994H26.9764H24.6256H22.367H17.7576H13.1483H10.8689C10.596 27.8994 10.3808 27.663 10.4075 27.391C10.6624 24.8277 12.8219 22.8291 15.4529 22.8291H24.3721H24.6717C26.0729 22.8291 27.3405 23.3961 28.2578 24.3133C28.5067 24.5622 28.7279 24.8388 28.9215 25.1338C29.3544 25.7925 29.6341 26.5595 29.7167 27.3869Z" fill="#E89A10"/>
<path d="M30.3045 25.1338H28.9217C28.7281 24.8388 28.5069 24.5622 28.258 24.3133C27.3407 23.3961 26.0731 22.8291 24.6719 22.8291H26.0547C27.4559 22.8291 28.7235 23.3961 29.6408 24.3133C29.8897 24.5622 30.1109 24.8388 30.3045 25.1338Z" fill="#C90030"/>
<path d="M31.5855 31.4071C31.5855 31.9188 31.1707 32.3106 30.6821 32.3106C30.6221 32.3106 30.5622 32.306 30.5023 32.2921L30.1474 32.223C30.447 32.0801 30.6636 31.7759 30.6636 31.4071C30.6636 30.9739 30.3594 30.6051 29.9354 30.5175L29.2532 30.3839C28.6586 30.264 28.0547 30.2041 27.4463 30.2041H27.6675C27.9856 30.2041 28.276 30.075 28.4834 29.8676C28.6908 29.6602 28.8199 29.3698 28.8199 29.0518C28.8199 28.4157 28.3036 27.8994 27.6675 27.8994H29.0504C29.6864 27.8994 30.2027 28.4157 30.2027 29.0518C30.2027 29.3698 30.0736 29.6602 29.8662 29.8676C29.6588 30.075 29.3684 30.2041 29.0504 30.2041H28.3682C28.9766 30.2041 29.5804 30.264 30.175 30.3839L30.8572 30.5175C31.2813 30.6051 31.5855 30.9739 31.5855 31.4071Z" fill="#D3BEBE"/>
<path d="M31.1021 27.3878C31.1252 27.6597 30.9131 27.8994 30.6366 27.8994H29.2537C29.5303 27.8994 29.7423 27.6597 29.7193 27.3878C29.6363 26.5581 29.3552 25.7929 28.9219 25.1338H30.3047C30.738 25.7929 31.0191 26.5581 31.1021 27.3878Z" fill="#D3BEBE"/>
<path d="M15.4532 22.8291C14.3424 22.8291 13.3186 23.1896 12.4834 23.7943C12.4848 23.8008 12.4862 23.8067 12.4875 23.8132C12.6544 24.5982 13.4924 25.037 14.2184 24.6941C14.872 24.3848 15.6026 24.2119 16.3751 24.2119H19.6017C20.3654 24.2119 20.9845 23.5929 20.9845 22.8291H15.4532Z" fill="#EFAB48"/>
<path d="M29.2553 27.8996H10.8689C10.5956 27.8996 10.3808 27.6622 10.4075 27.3903C10.437 27.0902 10.4933 26.798 10.5762 26.5168H25.1483C26.5565 26.5168 27.4023 24.9542 26.6325 23.7751L26.6169 23.7512C26.4417 23.4884 26.2481 23.2395 26.0315 23.0137C26.8842 23.2488 27.6494 23.7051 28.2578 24.3135C28.5067 24.5624 28.7279 24.839 28.9215 25.134C29.3544 25.7927 29.6342 26.5597 29.7167 27.387C29.7439 27.6604 29.53 27.8996 29.2553 27.8996Z" fill="#C97700"/>
<path d="M28.8203 35.7354C29.3273 35.7354 29.7422 36.1502 29.7422 36.6572C29.7422 37.0398 29.5855 37.3855 29.3366 37.6344C29.0877 37.8833 28.742 38.04 28.3594 38.04H27.0918H11.7656C11.0005 38.04 10.3828 37.4224 10.3828 36.6572C10.3828 36.4037 10.4842 36.1732 10.6548 36.0073C10.8207 35.8368 11.0512 35.7354 11.3047 35.7354H12.457H27.668H28.8203Z" fill="#E89A10"/>
<path d="M29.7428 36.6572C29.7428 37.0398 29.5861 37.3855 29.3372 37.6344C29.0883 37.8833 28.7426 38.04 28.36 38.04H11.7662C11.1394 38.04 10.6139 37.6298 10.4434 37.0582C10.5678 37.0951 10.7061 37.1182 10.8444 37.1182H27.4381C27.8207 37.1182 28.1664 36.9614 28.4153 36.7125C28.6642 36.4636 28.8209 36.1179 28.8209 35.7354C29.328 35.7354 29.7428 36.1502 29.7428 36.6572Z" fill="#C97700"/>
<path d="M29.2812 33.6611V34.1221C29.2812 35.0117 28.5576 35.7354 27.668 35.7354H12.457C11.5674 35.7354 10.8438 35.0117 10.8438 34.1221V33.6611C10.8438 32.7715 11.5674 32.0479 12.457 32.0479H12.6875V32.7393C12.6875 33.1218 12.9963 33.4307 13.3789 33.4307C13.7615 33.4307 14.0703 33.1218 14.0703 32.7393V33.6611C14.0703 34.0437 14.3791 34.3525 14.7617 34.3525C15.1443 34.3525 15.4531 34.0437 15.4531 33.6611V32.7393C15.4531 33.0573 15.6098 33.3477 15.8587 33.5551C16.1077 33.7625 16.4534 33.8916 16.8359 33.8916C17.1909 33.8916 17.5181 33.781 17.7624 33.5966C18.0344 33.3938 18.4031 33.3938 18.6751 33.5966C18.9194 33.781 19.2466 33.8916 19.6016 33.8916C19.9657 33.8916 20.2976 33.7718 20.5465 33.5828C20.8 33.38 21.1688 33.38 21.4223 33.5828C21.6712 33.7718 22.003 33.8916 22.3672 33.8916C22.547 33.8916 22.7221 33.8593 22.8788 33.8086L22.9664 33.8639C23.4412 34.1589 24.045 34.1405 24.5013 33.8132L24.5428 33.781L24.5474 33.7856C24.7272 33.8547 24.9254 33.8916 25.1328 33.8916C25.4877 33.8916 25.815 33.781 26.0593 33.5966C26.3312 33.3938 26.7 33.3938 26.972 33.5966C27.2163 33.781 27.5435 33.8916 27.8984 33.8916C28.2626 33.8916 28.5945 33.7718 28.8434 33.5828C28.9724 33.4814 29.1107 33.4307 29.2628 33.4307C29.2766 33.5044 29.2812 33.5828 29.2812 33.6611Z" fill="#9E7059"/>
<path d="M29.2628 33.4307C29.1107 33.4307 28.9724 33.4814 28.8434 33.5828C28.5945 33.7718 28.2626 33.8916 27.8984 33.8916C27.5435 33.8916 27.2163 33.781 26.972 33.5966C26.7 33.3938 26.3312 33.3938 26.0593 33.5966C25.815 33.781 25.4877 33.8916 25.1328 33.8916C24.9254 33.8916 24.7272 33.8547 24.5474 33.7856L24.5428 33.781L24.5013 33.8132C24.045 34.1405 23.4412 34.1589 22.9664 33.8639L22.8788 33.8086C22.7221 33.8593 22.547 33.8916 22.3672 33.8916C22.003 33.8916 21.6712 33.7718 21.4223 33.5828C21.1688 33.38 20.8 33.38 20.5465 33.5828C20.2976 33.7718 19.9657 33.8916 19.6016 33.8916C19.2466 33.8916 18.9194 33.781 18.6751 33.5966C18.4031 33.3938 18.0344 33.3938 17.7624 33.5966C17.5181 33.781 17.1909 33.8916 16.8359 33.8916C16.4534 33.8916 16.1077 33.7625 15.8588 33.5551C15.6098 33.3477 15.4531 33.0573 15.4531 32.7393V33.6611C15.4531 33.9792 15.6098 34.2696 15.8588 34.477C16.1077 34.6844 16.4534 34.8135 16.8359 34.8135C17.1909 34.8135 17.5181 34.7029 17.7624 34.5185C18.0344 34.3157 18.4031 34.3157 18.6751 34.5185C18.9194 34.7029 19.2466 34.8135 19.6016 34.8135C19.9657 34.8135 20.2976 34.6936 20.5465 34.5046C20.8 34.3018 21.1688 34.3018 21.4223 34.5046C21.6712 34.6936 22.003 34.8135 22.3672 34.8135C22.547 34.8135 22.7221 34.7812 22.8788 34.7305L22.9664 34.7858C23.4412 35.0808 24.045 35.0624 24.5013 34.7351L24.5428 34.7029L24.5474 34.7075C24.7272 34.7766 24.9254 34.8135 25.1328 34.8135C25.4877 34.8135 25.815 34.7029 26.0593 34.5185C26.3312 34.3157 26.7 34.3157 26.972 34.5185C27.2163 34.7029 27.5435 34.8135 27.8984 34.8135C28.2626 34.8135 28.5945 34.6936 28.8434 34.5046C28.9724 34.4032 29.1107 34.3525 29.2628 34.3525C29.2766 34.2788 29.2812 34.2004 29.2812 34.1221V33.6611C29.2812 33.5828 29.2766 33.5044 29.2628 33.4307Z" fill="#995B3F"/>
<path d="M14.7617 34.3525C14.3791 34.3525 14.0703 34.0437 14.0703 33.6611V34.583C14.0703 34.9656 14.3791 35.2744 14.7617 35.2744C15.1443 35.2744 15.4531 34.9656 15.4531 34.583V33.6611C15.4531 34.0437 15.1443 34.3525 14.7617 34.3525Z" fill="#995B3F"/>
<path d="M13.3789 33.4307C12.9963 33.4307 12.6875 33.1218 12.6875 32.7393V32.9697V33.6611C12.6875 34.0437 12.9963 34.3525 13.3789 34.3525C13.7615 34.3525 14.0703 34.0437 14.0703 33.6611V32.7393C14.0703 33.1218 13.7615 33.4307 13.3789 33.4307Z" fill="#995B3F"/>
<path d="M29.263 33.4307C29.1109 33.4307 28.9726 33.4814 28.8435 33.5828C28.5946 33.7718 28.2627 33.8916 27.8986 33.8916C27.5437 33.8916 27.2164 33.781 26.9721 33.5966C26.7002 33.3938 26.3314 33.3938 26.0595 33.5966C25.8152 33.781 25.4879 33.8916 25.133 33.8916C24.9255 33.8916 24.7273 33.8547 24.5476 33.7856L24.543 33.781L26.9767 32.0479H27.6681C28.106 32.0479 28.5024 32.223 28.7928 32.5134H28.7974C29.0463 32.7531 29.2123 33.0711 29.263 33.4307Z" fill="#E02B4F"/>
<path d="M27.8978 33.2002C27.7047 33.2002 27.519 33.1435 27.388 33.0449C27.2793 32.9637 27.1622 32.8992 27.04 32.8513L27.1972 32.7393H27.6674C27.9075 32.7393 28.1334 32.8328 28.303 33.002L28.3708 33.0697C28.2422 33.1523 28.0739 33.2002 27.8978 33.2002Z" fill="#F4646F"/>
<path d="M20.0625 32.0479L22.8788 33.8086C22.7221 33.8593 22.547 33.8916 22.3672 33.8916C22.003 33.8916 21.6712 33.7718 21.4223 33.5828C21.1688 33.38 20.8 33.38 20.5465 33.5828C20.2976 33.7718 19.9657 33.8916 19.6016 33.8916C19.2466 33.8916 18.9194 33.781 18.6751 33.5966C18.4031 33.3938 18.0344 33.3938 17.7624 33.5966C17.5181 33.781 17.1909 33.8916 16.8359 33.8916C16.4534 33.8916 16.1077 33.7625 15.8588 33.5551C15.6098 33.3477 15.4531 33.0573 15.4531 32.7393V32.5088V32.0479H19.6016H20.0625Z" fill="#E02B4F"/>
<path d="M19.6016 33.2002C19.4084 33.2002 19.2227 33.1435 19.0918 33.0449C18.8346 32.8531 18.534 32.7531 18.2188 32.7531C17.9035 32.7531 17.6029 32.8531 17.349 33.0421C17.2148 33.1435 17.0291 33.2002 16.8359 33.2002C16.6304 33.2002 16.4358 33.1361 16.3013 33.0241C16.2427 32.9753 16.1445 32.8734 16.1445 32.7393H19.8643L20.2238 32.9642C20.186 32.9886 20.1501 33.0149 20.115 33.043C19.9855 33.1407 19.7984 33.2002 19.6016 33.2002Z" fill="#F4646F"/>
<path d="M15.4531 32.7393V33.6611C15.4531 34.0437 15.1443 34.3525 14.7617 34.3525C14.3791 34.3525 14.0703 34.0437 14.0703 33.6611V32.7393V32.0479H15.4531V32.5088V32.7393Z" fill="#E02B4F"/>
<path d="M14.0703 32.0479V32.7393C14.0703 33.1218 13.7615 33.4307 13.3789 33.4307C12.9963 33.4307 12.6875 33.1218 12.6875 32.7393V32.0479H14.0703Z" fill="#E02B4F"/>
<path d="M27.668 32.0479H27.8984V32.0663C27.8247 32.0525 27.7463 32.0479 27.668 32.0479Z" fill="#FFFAD8"/>
<path d="M37.5781 17.2967H32.0469V12.5029C32.0469 12.2628 32.2368 12.0613 32.4788 12.0452L36.2543 11.7921C36.7383 11.764 37.1172 11.3598 37.1172 10.8712V9.95392C37.1172 9.69902 37.0103 9.45288 36.824 9.2791C36.6378 9.10533 36.3857 9.0136 36.1326 9.03342L31.8653 9.31921C30.4161 9.41231 29.2812 10.6246 29.2812 12.0788V15.9138C29.2812 16.1683 29.4877 16.3748 29.7422 16.3748C29.9966 16.3748 30.2031 16.1683 30.2031 15.9138V12.0788C30.2031 11.109 30.9591 10.301 31.9256 10.2383L36.1953 9.95392L36.1967 10.8726L32.417 11.1261C31.6924 11.174 31.125 11.7792 31.125 12.5029V17.2967H23.75C23.2416 17.2967 22.8281 17.7101 22.8281 18.2185V19.1404C22.8281 19.6488 23.2416 20.0623 23.75 20.0623H23.7726L23.8878 22.367H15.4531C12.5972 22.367 10.2307 24.5071 9.94907 27.3446C9.92372 27.6032 10.009 27.8618 10.1841 28.0549C10.3593 28.2481 10.6091 28.3592 10.8696 28.3592H11.0055C10.9051 28.5693 10.8438 28.8021 10.8438 29.0506C10.8438 29.3571 10.9346 29.641 11.0834 29.8853C10.9834 29.9019 10.8815 29.9107 10.7829 29.9305L10.0961 30.0651C9.46094 30.196 9 30.7602 9 31.4059C9 31.8153 9.18115 32.1988 9.49643 32.4583C9.80618 32.7127 10.209 32.8155 10.605 32.7454C10.4672 33.0225 10.3828 33.3304 10.3828 33.6599V34.1209C10.3828 34.5906 10.5455 35.0192 10.8096 35.3672C10.6303 35.4359 10.4672 35.5387 10.333 35.6761C10.068 35.9347 9.92188 36.2822 9.92188 36.656C9.92188 37.6729 10.7488 38.4998 11.7656 38.4998H27.0918H35.869C36.3636 38.4998 36.7683 38.1126 36.7899 37.618L37.5583 20.0623H37.5781C38.0865 20.0623 38.5 19.6488 38.5 19.1404V18.2185C38.5 17.7101 38.0865 17.2967 37.5781 17.2967ZM10.8663 27.4354C11.1014 25.0717 13.0728 23.2888 15.4531 23.2888H24.6719C25.9044 23.2888 27.0623 23.7682 27.9321 24.6385C28.1515 24.8574 28.3548 25.1091 28.5364 25.3856C28.936 25.9941 29.1854 26.7016 29.2554 27.4373L10.8663 27.4354ZM12.457 29.742C12.0758 29.742 11.7656 29.4318 11.7656 29.0506C11.7656 28.6694 12.0758 28.3592 12.457 28.3592H27.668C28.0492 28.3592 28.3594 28.6694 28.3594 29.0506C28.3594 29.4318 28.0492 29.742 27.668 29.742H27.4467H12.6783H12.457ZM10.0818 31.7461C10.0219 31.6968 9.92188 31.5876 9.92188 31.4059C9.92188 31.1921 10.0703 31.0118 10.2777 30.969L10.9622 30.8348C11.5241 30.7215 12.1016 30.6638 12.6783 30.6638H27.4467C28.0234 30.6638 28.6009 30.7215 29.1651 30.8353L29.8427 30.9681C30.0547 31.0114 30.2031 31.1921 30.2031 31.4059C30.2031 31.6821 29.9528 31.9028 29.6712 31.8388L28.4497 31.5945C28.4198 31.5885 28.3898 31.5857 28.3594 31.5857H27.668H26.9766C26.8807 31.5857 26.7871 31.6157 26.7092 31.6714L24.2598 33.4161L24.2326 33.4378C23.9288 33.6558 23.5274 33.6692 23.213 33.4733L20.3073 31.6558C20.2335 31.6101 20.1492 31.5857 20.0625 31.5857H12.457H11.7656C11.7352 31.5857 11.7052 31.5885 11.6753 31.5949L10.4552 31.8388C10.3229 31.8655 10.1855 31.8314 10.0818 31.7461ZM12.457 35.2732C11.8219 35.2732 11.3047 34.756 11.3047 34.1209V33.6599C11.3047 33.1036 11.7011 32.638 12.2266 32.5311V32.7381C12.2266 33.3732 12.7437 33.8904 13.3789 33.8904C13.4651 33.8904 13.5485 33.8793 13.6297 33.8609C13.7255 34.4007 14.1952 34.8123 14.7617 34.8123C15.2457 34.8123 15.6592 34.5117 15.8297 34.0881C16.499 34.4564 17.4402 34.4168 18.0381 33.9646C18.1464 33.8839 18.2916 33.8839 18.3976 33.9632C18.729 34.2135 19.1568 34.3513 19.6016 34.3513C20.0487 34.3513 20.4833 34.2084 20.8254 33.9485C21.0277 33.7945 21.0673 33.5055 20.9134 33.3027C20.7594 33.1008 20.4709 33.0607 20.2676 33.2147C19.9039 33.4912 19.3015 33.4908 18.9507 33.2257C18.5128 32.8994 17.9251 32.8994 17.4845 33.2271C17.1305 33.4945 16.4953 33.4843 16.1538 33.1995C15.9993 33.0709 15.9141 32.9068 15.9141 32.7381V32.5076H19.9302L22.723 34.2545C23.3591 34.6491 24.1625 34.6233 24.7843 34.1762L27.1241 32.5076H27.668C27.9699 32.5076 28.2538 32.6247 28.4668 32.8381C28.4797 32.851 28.4935 32.863 28.5078 32.8745C28.5811 32.9506 28.6382 33.0391 28.6866 33.1335C28.6452 33.1589 28.6037 33.1842 28.5645 33.2151C28.2008 33.4917 27.5961 33.4898 27.2499 33.228C27.0457 33.0745 26.7576 33.1151 26.6041 33.3184C26.4506 33.5217 26.4912 33.8107 26.6945 33.9642C27.0259 34.2135 27.4536 34.3513 27.8984 34.3513C28.2216 34.3513 28.5373 34.2744 28.8189 34.1333C28.8125 34.763 28.299 35.2732 27.668 35.2732H12.457ZM14.9922 33.6599C14.9922 33.7872 14.8889 33.8904 14.7617 33.8904C14.6345 33.8904 14.5312 33.7872 14.5312 33.6599V32.7381V32.5076H14.9922V33.6599ZM13.3789 32.9685C13.2517 32.9685 13.1484 32.8653 13.1484 32.7381V32.5076H13.6094V32.7381C13.6094 32.8653 13.5061 32.9685 13.3789 32.9685ZM11.7656 37.5779C11.2572 37.5779 10.8438 37.1644 10.8438 36.656C10.8438 36.533 10.8908 36.4196 10.9848 36.3278C11.0682 36.2421 11.1816 36.1951 11.3047 36.1951H12.457H27.668H28.8203C29.0743 36.1951 29.2812 36.4021 29.2812 36.656C29.2812 36.9017 29.1854 37.1331 29.0107 37.3073C28.836 37.4816 28.6051 37.5779 28.3594 37.5779H27.0918H11.7656ZM29.9473 37.5779C30.1096 37.2995 30.2031 36.9861 30.2031 36.656C30.2031 36.0679 29.833 35.5682 29.3144 35.3686C29.579 35.0202 29.7422 34.591 29.7422 34.1209V33.6599C29.7422 33.5525 29.7348 33.4451 29.7191 33.3649C29.6998 33.2276 29.6634 33.0962 29.6187 32.9685H36.0709L35.869 37.5779H29.9473ZM36.4341 24.6717H30.6641C30.4096 24.6717 30.2031 24.8782 30.2031 25.1326C30.2031 25.387 30.4096 25.5935 30.6641 25.5935H36.3935L36.111 32.0467H30.9577C31.0609 31.8549 31.125 31.6387 31.125 31.4059C31.125 30.7602 30.6641 30.196 30.0243 30.0642L29.3444 29.9309C29.2444 29.9107 29.142 29.9024 29.0411 29.8853C29.1904 29.641 29.2812 29.3571 29.2812 29.0506C29.2812 28.8021 29.2199 28.5693 29.1195 28.3592H29.2554C29.5154 28.3592 29.7648 28.2485 29.9395 28.0554C30.1151 27.8613 30.2008 27.6004 30.175 27.3405C30.0879 26.4633 29.7878 25.612 29.3066 24.88C29.0904 24.5509 28.847 24.2499 28.5834 23.9867C27.5726 22.9754 26.2368 22.4094 24.8106 22.3743L24.6954 20.0623H36.6355L36.4341 24.6717ZM37.5781 19.1404H23.75V18.2185H37.5781V19.1404Z" fill="#472B3C"/>
<path d="M18.6797 23.7505H18.2188C17.9643 23.7505 17.7578 23.957 17.7578 24.2114C17.7578 24.4659 17.9643 24.6724 18.2188 24.6724H18.6797C18.9341 24.6724 19.1406 24.4659 19.1406 24.2114C19.1406 23.957 18.9341 23.7505 18.6797 23.7505Z" fill="#472B3C"/>
<path d="M21.4453 23.7505H20.9844C20.7299 23.7505 20.5234 23.957 20.5234 24.2114C20.5234 24.4659 20.7299 24.6724 20.9844 24.6724H21.4453C21.6997 24.6724 21.9062 24.4659 21.9062 24.2114C21.9062 23.957 21.6997 23.7505 21.4453 23.7505Z" fill="#472B3C"/>
<path d="M24.2109 24.2114H23.75C23.4956 24.2114 23.2891 24.4179 23.2891 24.6724C23.2891 24.9268 23.4956 25.1333 23.75 25.1333H24.2109C24.4654 25.1333 24.6719 24.9268 24.6719 24.6724C24.6719 24.4179 24.4654 24.2114 24.2109 24.2114Z" fill="#472B3C"/>
<path d="M16.8359 25.1333H16.375C16.1206 25.1333 15.9141 25.3398 15.9141 25.5942C15.9141 25.8487 16.1206 26.0552 16.375 26.0552H16.8359C17.0904 26.0552 17.2969 25.8487 17.2969 25.5942C17.2969 25.3398 17.0904 25.1333 16.8359 25.1333Z" fill="#472B3C"/>
<path d="M20.5234 25.1333H20.0625C19.8081 25.1333 19.6016 25.3398 19.6016 25.5942C19.6016 25.8487 19.8081 26.0552 20.0625 26.0552H20.5234C20.7779 26.0552 20.9844 25.8487 20.9844 25.5942C20.9844 25.3398 20.7779 25.1333 20.5234 25.1333Z" fill="#472B3C"/>
<path d="M15.4531 23.7505H14.9922C14.7378 23.7505 14.5312 23.957 14.5312 24.2114C14.5312 24.4659 14.7378 24.6724 14.9922 24.6724H15.4531C15.7076 24.6724 15.9141 24.4659 15.9141 24.2114C15.9141 23.957 15.7076 23.7505 15.4531 23.7505Z" fill="#472B3C"/>
</g>
<defs>
<clipPath id="clip0_629_2104">
<rect width="29.5" height="29.5" fill="white" transform="translate(9 9)"/>
</clipPath>
</defs>
</svg>
