<svg width="48" height="48" viewBox="0 0 48 48" fill="none" xmlns="http://www.w3.org/2000/svg">
<rect width="48" height="48" rx="24" fill="#F0F3FA"/>
<path d="M11.1465 23.7012V36.7348C11.1465 37.7899 12.0016 38.645 13.0567 38.645H34.9405C35.9956 38.645 36.8508 37.7899 36.8508 36.7348V23.7012H11.1465Z" fill="#FB58AB"/>
<path d="M28.0862 27.5286C29.2024 28.6448 29.2024 30.4551 28.0862 31.5719C24.5147 35.1434 24.053 35.6051 24.0059 35.6522L24.0047 35.6535C24.004 35.6541 24.0027 35.6554 24.0008 35.6573C23.5144 35.1708 20.3917 32.0488 19.9148 31.5719C18.7999 30.4563 18.7986 28.6448 19.9148 27.5286C21.0317 26.4117 22.8426 26.4117 23.9588 27.5286L24.0008 27.5699L24.0429 27.5286C25.1591 26.4117 26.9694 26.4117 28.0862 27.5286Z" fill="white"/>
<path d="M15.9292 20.712H18.9175H21.6078H26.3897H29.08H32.0683V17.7231H36.8509C37.841 17.7231 38.644 18.5261 38.644 19.5162V21.9072C38.644 22.898 37.841 23.7009 36.8509 23.7009H11.1466C10.1565 23.7009 9.35352 22.898 9.35352 21.9072V19.5162C9.35352 18.5261 10.1565 17.7231 11.1466 17.7231H15.9292V20.712Z" fill="#E03A8F"/>
<path d="M26.3904 20.7128H21.6084C21.6084 19.3922 22.6788 18.3218 23.9994 18.3218C25.32 18.3218 26.3904 19.3922 26.3904 20.7128Z" fill="white"/>
<path d="M29.0805 14.4968V20.714H26.3902C26.3902 19.3934 25.3198 18.323 23.9992 18.323C22.6786 18.323 21.6082 19.3934 21.6082 20.714H18.918V14.4968C20.1068 14.4968 21.0702 13.5334 21.0702 12.3452H26.9283C26.9283 13.5334 27.8917 14.4968 29.0805 14.4968Z" fill="#B7FAAF"/>
<path d="M32.0697 17.7243V20.7132H29.0814V14.4959C27.8926 14.4959 26.9292 13.5325 26.9292 12.3444H21.0711C21.0711 13.5325 20.1077 14.4959 18.9189 14.4959V20.7132H15.9307V17.7243V11.1486C15.9307 10.1584 16.733 9.35547 17.7237 9.35547H30.2766C31.2674 9.35547 32.0697 10.1584 32.0697 11.1486V17.7243Z" fill="#85C179"/>
<path d="M23.5481 36.1067C23.7965 36.3553 24.1999 36.3554 24.4486 36.1067L28.5342 32.0211C29.8972 30.6581 29.8972 28.4403 28.5342 27.0772C27.2994 25.8425 25.3634 25.7263 23.9988 26.7263C22.652 25.7375 20.7167 25.8232 19.4627 27.0772C18.0997 28.4402 18.0997 30.658 19.4627 32.0211C19.4744 32.0329 23.5378 36.0966 23.5481 36.1067ZM20.3631 27.9778C21.2318 27.1091 22.6378 27.1089 23.5065 27.9778L23.5481 28.0193C23.7958 28.267 24.1969 28.268 24.446 28.022L24.4907 27.9778C25.3571 27.1113 26.7672 27.1112 27.6336 27.9778C28.5001 28.8442 28.5001 30.2541 27.6336 31.1206L23.9983 34.7558L20.3631 31.1206C19.4966 30.2541 19.4966 28.8442 20.3631 27.9778Z" fill="#462B39"/>
<path fill-rule="evenodd" clip-rule="evenodd" d="M32.7063 17.0875H36.8517C38.1916 17.0875 39.2817 18.1776 39.2817 19.5175V21.9086C39.2817 23.0281 38.5204 23.9728 37.4885 24.2533V27.6512C37.4885 27.6512 37.4885 28.2609 36.8517 28.2609C36.215 28.2609 36.215 27.6512 36.215 27.6512V24.3386H11.7845V36.7357C11.7845 37.4379 12.3558 38.0092 13.058 38.0092H34.9415C35.6437 38.0092 36.215 37.4379 36.215 36.7357V30.2531C36.215 30.2531 36.215 29.714 36.8517 29.714C37.4885 29.714 37.4885 30.2531 37.4885 30.2531V36.7357C37.4885 38.1401 36.3459 39.2827 34.9415 39.2827H13.058C11.6536 39.2827 10.5111 38.1401 10.5111 36.7357V24.2534C9.47907 23.9728 8.71777 23.0282 8.71777 21.9086V19.5175C8.71777 18.1776 9.80789 17.0875 11.1478 17.0875H15.2932V11.1488C15.2932 9.80886 16.3833 8.71875 17.7233 8.71875H30.2763C31.6162 8.71875 32.7063 9.80886 32.7063 11.1488V17.0875ZM17.7233 9.99225C17.0856 9.99225 16.5667 10.511 16.5667 11.1488H16.5667V20.0763H18.282V14.4962C18.282 14.1446 18.5671 13.8595 18.9188 13.8595C19.7542 13.8595 20.434 13.1798 20.434 12.3443C20.434 11.9927 20.719 11.7075 21.0707 11.7075H26.9288C27.2804 11.7075 27.5656 11.9927 27.5656 12.3443C27.5656 13.1798 28.2453 13.8595 29.0808 13.8595C29.4324 13.8595 29.7175 14.1446 29.7175 14.4962V20.0763H31.4328V11.1488C31.4328 10.511 30.9141 9.99225 30.2763 9.99225H17.7233ZM23.9998 17.6852C25.4508 17.6852 26.6663 18.7115 26.9596 20.0763H28.4441V15.0597C27.4167 14.8188 26.6062 14.0084 26.3654 12.981H21.6342C21.3933 14.0084 20.5829 14.8189 19.5555 15.0597V20.0763H21.0399C21.3332 18.7115 22.5487 17.6852 23.9998 17.6852ZM23.9998 18.9587C23.257 18.9587 22.6211 19.423 22.3656 20.0763H25.6339C25.3784 19.423 24.7425 18.9587 23.9998 18.9587ZM36.8517 23.0651C37.4895 23.0651 38.0082 22.5463 38.0082 21.9086V19.5175C38.0082 18.8798 37.4895 18.361 36.8517 18.361H32.7063V20.0763H34.4607C34.8123 20.0763 35.0974 20.3614 35.0974 20.7131C35.0974 21.0647 34.8123 21.3498 34.4607 21.3498H13.5389C13.1872 21.3498 12.9021 21.0647 12.9021 20.7131C12.9021 20.3614 13.1872 20.0763 13.5389 20.0763H15.2932V18.361H11.1478C10.51 18.361 9.99127 18.8797 9.99127 19.5175V21.9086C9.99127 22.5463 10.51 23.0651 11.1478 23.0651H36.8517Z" fill="#462B39"/>
</svg>
