<svg width="32" height="32" viewBox="0 0 32 32" fill="none" xmlns="http://www.w3.org/2000/svg">
<path d="M16 22.9063C19.3655 22.9063 22.0938 21.7695 22.0938 20.3672C22.0938 18.9649 19.3655 17.8281 16 17.8281C12.6345 17.8281 9.90625 18.9649 9.90625 20.3672C9.90625 21.7695 12.6345 22.9063 16 22.9063Z" fill="#8B8B8B"/>
<path d="M16 27.4767C14.1758 27.4767 12.4374 27.171 11.1051 26.6159C10.6283 26.4172 10.2333 26.2001 9.90625 25.9736V26.4611C9.90625 27.8634 12.6345 29.0001 16 29.0001C19.3655 29.0001 22.0938 27.8634 22.0938 26.4611V25.9736C21.7667 26.2 21.3717 26.4172 20.8949 26.6159C19.5626 27.171 17.8242 27.4767 16 27.4767Z" fill="#8B8B8B"/>
<path d="M16 24.4298C14.1758 24.4298 12.4374 24.1241 11.1051 23.569C10.6283 23.3703 10.2333 23.1532 9.90625 22.9268V23.4142C9.90625 24.8165 12.6345 25.9533 16 25.9533C19.3655 25.9533 22.0938 24.8165 22.0938 23.4142V22.9268C21.7667 23.1531 21.3717 23.3703 20.8949 23.569C19.5626 24.1241 17.8242 24.4298 16 24.4298Z" fill="#8B8B8B"/>
<path d="M15.2377 16.3233C15.2378 16.3171 15.2383 16.3109 15.2383 16.3047C15.2383 14.9024 12.51 13.7656 9.14453 13.7656C5.77906 13.7656 3.05078 14.9024 3.05078 16.3047C3.05078 17.6672 5.62656 18.7789 8.8598 18.8409C9.24503 18.2622 9.92489 17.6573 11.1051 17.1655C12.2503 16.6884 13.6959 16.3961 15.2377 16.3233Z" fill="#8B8B8B"/>
<path d="M3.05078 21.9111V22.3986C3.05078 23.6934 5.37687 24.7617 8.38281 24.9179V23.3957C6.84074 23.3229 5.395 23.0306 4.24963 22.5534C3.77284 22.3547 3.37781 22.1375 3.05078 21.9111Z" fill="#8B8B8B"/>
<path d="M8.38297 20.3488C6.84084 20.276 5.39505 19.9837 4.24968 19.5065C3.77284 19.3078 3.37781 19.0906 3.05078 18.8643V19.3517C3.05078 20.6465 5.37687 21.7149 8.38282 21.8711V20.4181L8.38337 20.4184C8.38307 20.4011 8.38282 20.384 8.38282 20.3673C8.38282 20.3612 8.38292 20.355 8.38297 20.3488Z" fill="#8B8B8B"/>
<path d="M12.2878 6.5703H13.2162V11.2122C13.2162 11.7249 13.6319 12.1406 14.1446 12.1406H17.8581C18.3708 12.1406 18.7865 11.7249 18.7865 11.2122V6.5703H19.7149C20.0904 6.5703 20.4289 6.34415 20.5726 5.99718C20.7163 5.65027 20.6368 5.25094 20.3713 4.98542L16.6578 1.27188C16.2953 0.909374 15.7074 0.909374 15.3449 1.27188L11.6313 4.98542C11.3658 5.25094 11.2864 5.65021 11.43 5.99718C11.5738 6.34408 11.9123 6.5703 12.2878 6.5703Z" fill="#8B8B8B"/>
<path d="M4.55618 9.45409H5.13187V11.5649C5.13187 11.8829 5.38962 12.1406 5.70755 12.1406H8.01029C8.32822 12.1406 8.58597 11.8829 8.58597 11.5649V9.45409H9.16165C9.3945 9.45409 9.60439 9.31386 9.69351 9.0987C9.78258 8.88359 9.73334 8.63597 9.5687 8.47132L7.26597 6.16859C7.04118 5.9438 6.67666 5.9438 6.45183 6.16859L4.1491 8.47132C3.98445 8.63597 3.93521 8.88355 4.02429 9.0987C4.11345 9.31382 4.32334 9.45409 4.55618 9.45409Z" fill="#8B8B8B"/>
<path d="M23.2124 9.89159H23.6944V11.6587C23.6944 11.9248 23.9101 12.1406 24.1763 12.1406H26.104C26.3702 12.1406 26.586 11.9248 26.586 11.6587V9.89159H27.0679C27.2628 9.89159 27.4385 9.77419 27.5131 9.59408C27.5877 9.414 27.5465 9.2067 27.4087 9.06887L25.4809 7.14113C25.2927 6.95296 24.9876 6.95296 24.7994 7.14113L22.8716 9.06887C22.7338 9.2067 22.6926 9.41396 22.7672 9.59408C22.8418 9.77416 23.0175 9.89159 23.2124 9.89159Z" fill="#8B8B8B"/>
<path d="M28.9492 16.3047C28.9492 14.9024 26.2209 13.7656 22.8555 13.7656C19.49 13.7656 16.7617 14.9024 16.7617 16.3047C16.7617 16.3109 16.7622 16.3171 16.7623 16.3233C18.3041 16.3961 19.7497 16.6884 20.8949 17.1655C22.0751 17.6573 22.7549 18.2622 23.1402 18.8409C26.3734 18.7789 28.9492 17.6672 28.9492 16.3047Z" fill="#8B8B8B"/>
<path d="M23.6172 23.3957V24.9179C26.6231 24.7617 28.9492 23.6934 28.9492 22.3986V21.9111C28.6222 22.1375 28.2272 22.3547 27.7504 22.5534C26.605 23.0306 25.1593 23.3229 23.6172 23.3957Z" fill="#8B8B8B"/>
<path d="M23.6176 20.3488C23.6176 20.355 23.6177 20.3612 23.6177 20.3673C23.6177 20.384 23.6175 20.4011 23.6172 20.4184L23.6177 20.4181V21.8711C26.6237 21.7149 28.9498 20.6465 28.9498 19.3517V18.8643C28.6227 19.0906 28.2277 19.3078 27.7509 19.5065C26.6055 19.9837 25.1598 20.276 23.6176 20.3488Z" fill="#8B8B8B"/>
</svg>
