<svg width="48" height="48" viewBox="0 0 48 48" fill="none" xmlns="http://www.w3.org/2000/svg">
<rect width="48" height="48" rx="24" fill="#F0F3FA"/>
<g clip-path="url(#clip0_629_2157)">
<path d="M36.4703 17.2101C36.5236 20.7037 32.3668 19.7749 25.0322 19.7749C17.3369 15.4352 24.7564 9.84416 24.7564 9.84416C24.8481 9.86616 24.9609 9.81431 25.0129 9.68828C25.7103 7.99062 27.6701 7.99062 28.3675 9.68828C28.4151 9.80436 28.5195 9.86682 28.624 9.84416C29.4868 9.6612 30.2524 10.2195 30.6073 11.0425C30.6504 11.1431 30.7338 11.2056 30.8262 11.2056C31.6691 11.2056 32.3247 11.8678 32.585 12.7019C32.6486 12.9064 32.8243 13.054 33.0333 13.0993C33.6076 13.2248 34.1648 13.7046 34.4306 14.453C34.5229 14.7133 34.7413 14.9079 35.0066 14.9836C35.3891 15.0931 35.7506 15.3584 36.0187 15.742C36.2868 16.1256 36.4615 16.6275 36.4703 17.2101Z" fill="#FCEC78"/>
<path d="M25.0308 19.7741C20.9775 19.7741 16.8577 20.5552 16.9087 17.2088C16.9264 16.0563 17.5946 15.2151 18.3536 14.9884C18.6299 14.9061 18.8566 14.7043 18.955 14.4335C19.2214 13.7022 19.7669 13.2318 20.3296 13.1024C20.5485 13.0521 20.7309 12.8985 20.7989 12.684C21.0709 11.8239 21.7452 11.2132 22.5351 11.2049C22.639 11.2038 22.7302 11.1396 22.7711 11.044C23.126 10.2182 23.8921 9.66048 24.755 9.84344C24.7688 9.84675 24.7831 9.84786 24.7964 9.84786C23.6074 12.2103 22.4782 16.0807 25.0308 19.7741Z" fill="#FFCF6B"/>
<path d="M27.9076 26.7262L27.1794 33.3156C19.621 27.5402 24.6925 17.5693 24.6925 17.5693H24.8154C25.9647 17.5693 26.8956 18.6779 26.8956 20.045L27.9076 26.7262Z" fill="#5AD6FF"/>
<path d="M27.1774 33.3156L26.8935 35.882H23.9811L23.2261 34.9146L21.9014 26.7262V20.045C21.9014 18.6778 22.8323 17.5693 23.981 17.5693H24.6903C23.8942 19.8116 22.3226 26.2562 27.1774 33.3156Z" fill="#2799BF"/>
<path d="M21.9016 19.6985C21.9016 18.5223 20.9702 17.5694 19.8216 17.5694C18.9639 17.5694 18.4554 17.4976 17.8262 17.9331C17.1281 18.4156 16.8141 19.2895 17.0053 20.1159L20.3185 34.4326C20.4678 35.0788 20.8779 35.5752 21.3903 35.7791C21.7309 35.9161 21.8167 35.8814 23.9822 35.8814L21.9016 19.6985Z" fill="#5AD6FF"/>
<path d="M29.8075 17.5703H28.9751C27.826 17.5703 26.8945 18.678 26.8945 20.045V35.8824H29.8075L31.8875 26.7261V20.045C31.8875 18.678 30.9561 17.5703 29.8075 17.5703Z" fill="#A4E7FF"/>
<path d="M35.9646 17.933C35.336 17.4979 34.824 17.5693 33.9691 17.5693C32.82 17.5693 31.8886 18.5222 31.8886 19.6985L29.8086 35.8813H31.0965L33.5922 33.9147L36.7854 20.1158C36.9766 19.2895 36.6621 18.4156 35.9646 17.933Z" fill="#5AD6FF"/>
<path d="M36.8855 27.4273V30.5498C36.8855 33.4943 34.4102 35.8816 31.358 35.8816H29.0259C28 35.8816 27.0156 35.4881 26.2904 34.7883L24.5862 33.224C23.784 32.4871 22.5203 32.485 21.7152 33.2235C19.8395 34.9436 19.5227 35.3459 18.5425 35.6749C10.0384 30.5393 16.793 24.6984 17.3275 24.2546L17.3225 24.228H23.1447L23.133 24.2396L23.154 24.228H33.569C35.4003 24.228 36.8855 25.6608 36.8855 27.4273Z" fill="#EEECFD"/>
<path d="M18.5437 35.6749C17.7643 35.9358 17.4677 35.8816 14.9425 35.8816C11.8897 35.8816 9.41504 33.4943 9.41504 30.5498V27.4273C9.41504 25.6608 10.8997 24.228 12.7315 24.228H17.3619C16.3493 26.6336 14.7966 31.9079 18.5437 35.6749Z" fill="#DBDAFD"/>
<path d="M32.6634 26.3091H30.7335H26.9673C26.0092 26.3091 25.2324 27.0805 25.2324 28.0321V29.8219C25.2324 30.5016 25.5043 31.1534 25.9882 31.634L27.3325 32.9692C27.8842 33.5171 28.6241 33.8103 29.3771 33.8103H30.7336C30.7332 33.8099 30.7329 33.8096 30.7326 33.8092L30.7336 33.8102H31.3119C32.8842 33.8102 34.3983 32.4466 34.3983 30.6514V28.0321C34.3983 27.0806 33.6215 26.3091 32.6634 26.3091Z" fill="#F9475E"/>
<path d="M21.0714 28.032V29.8218C21.0714 30.5017 20.7994 31.1534 20.3157 31.6343L18.9709 32.9692C18.4729 33.4639 17.8217 33.7508 17.1457 33.8022C11.8653 30.2867 16.6433 26.3091 16.6433 26.3091H19.3363C20.2947 26.3091 21.0714 27.0807 21.0714 28.032Z" fill="#FF6E80"/>
<path d="M17.1449 33.8022C16.9895 33.814 17.0594 33.8104 14.9909 33.8104C13.4188 33.8104 11.9043 32.4468 11.9043 30.6515V28.032C11.9043 27.0807 12.6815 26.3091 13.6394 26.3091H16.6425C16.0626 28.4471 15.7863 31.2778 17.1449 33.8022Z" fill="#F9475E"/>
<path d="M17.243 18.5588C16.4903 17.2263 17.0697 15.3724 18.3534 14.9891C18.6298 14.9068 18.8564 14.705 18.9548 14.4342C19.2213 13.7029 19.7668 13.2325 20.3295 13.1031C20.5484 13.0528 20.7308 12.8992 20.7988 12.6847C21.0708 11.8246 21.7451 11.2138 22.535 11.2055C22.6389 11.2044 22.7301 11.1403 22.771 11.0447C23.1259 10.2189 23.892 9.66116 24.7548 9.84412C24.8593 9.86678 24.9638 9.80432 25.0113 9.68824C25.7087 7.99064 27.6685 7.99064 28.3659 9.68824C28.4135 9.80432 28.518 9.86678 28.6224 9.84412C29.4853 9.66116 30.2508 10.2194 30.6057 11.0425C30.6488 11.1431 30.7323 11.2055 30.8246 11.2055C31.6675 11.2055 32.3231 11.8677 32.5834 12.7018C32.647 12.9064 32.8228 13.0539 33.0317 13.0993C33.606 13.2247 34.1632 13.7045 34.4291 14.4529C34.5214 14.7133 34.7397 14.9079 35.005 14.9836C35.3875 15.093 35.749 15.3583 36.0171 15.742C36.5067 16.4425 36.5984 17.4226 36.2935 18.221" stroke="#323232" stroke-width="0.829126" stroke-miterlimit="10" stroke-linecap="round" stroke-linejoin="round"/>
<path d="M26.8944 35.8821H23.982L23.2529 32.6729" stroke="#323232" stroke-width="0.829126" stroke-miterlimit="10" stroke-linecap="round" stroke-linejoin="round"/>
<path d="M26.8954 20.0455C26.8954 18.6786 25.9641 17.5703 24.8149 17.5703H23.983C22.9068 17.5703 22.0224 18.542 21.9141 19.7879V19.789" stroke="#323232" stroke-width="0.829126" stroke-miterlimit="10" stroke-linecap="round" stroke-linejoin="round"/>
<path d="M17.9572 24.2288L17.0053 20.1169C16.8141 19.2905 17.1281 18.4166 17.8262 17.9341C18.4554 17.4985 18.9639 17.5703 19.8216 17.5703C20.9702 17.5703 21.9016 18.5233 21.9016 19.6995L21.9132 19.7874V19.7885L22.4836 24.2288" stroke="#323232" stroke-width="0.829126" stroke-miterlimit="10" stroke-linecap="round" stroke-linejoin="round"/>
<path d="M23.5753 32.7129L23.9827 35.8824H21.9171C21.1885 35.8824 20.5473 35.3163 20.334 34.4922" stroke="#323232" stroke-width="0.829126" stroke-miterlimit="10" stroke-linecap="round" stroke-linejoin="round"/>
<path d="M31.8765 19.7867C31.7676 18.5419 30.8826 17.5713 29.8075 17.5713H28.9751C27.8259 17.5713 26.8945 18.679 26.8945 20.0459V24.2297" stroke="#323232" stroke-width="0.829126" stroke-miterlimit="10" stroke-linecap="round" stroke-linejoin="round"/>
<path d="M29.8075 35.8822H26.8945V35.2637" stroke="#323232" stroke-width="0.829126" stroke-miterlimit="10" stroke-linecap="round" stroke-linejoin="round"/>
<path d="M29.8086 35.8823C32.0648 35.8823 32.0499 35.91 32.3623 35.7944" stroke="#323232" stroke-width="0.829126" stroke-miterlimit="10" stroke-linecap="round" stroke-linejoin="round"/>
<path d="M35.6663 24.9495L36.7845 20.1169C36.9758 19.2905 36.6613 18.4166 35.9637 17.9341C35.3344 17.4985 34.826 17.5703 33.9683 17.5703C32.8191 17.5703 31.8877 18.5233 31.8877 19.6995L31.3057 24.2288" stroke="#323232" stroke-width="0.829126" stroke-miterlimit="10" stroke-linecap="round" stroke-linejoin="round"/>
<path d="M36.8866 27.9385V27.428C36.8866 25.6612 35.4018 24.229 33.5701 24.229H23.1555L23.1347 24.2403C23.1385 24.2366 23.1422 24.2327 23.1461 24.229H12.7315C10.8999 24.229 9.41504 25.6612 9.41504 27.428V30.5505C9.41504 31.3635 9.60369 32.134 9.94109 32.8235" stroke="#323232" stroke-width="0.829126" stroke-miterlimit="10" stroke-linecap="round" stroke-linejoin="round"/>
<path d="M10.9316 34.2205C11.9389 35.2443 13.363 35.8827 14.9417 35.8827H17.2734C18.2996 35.8827 19.2837 35.4895 20.0094 34.7896L21.7158 33.2245C22.52 32.487 23.7828 32.4872 24.5867 33.2252L26.2907 34.7896C27.0163 35.4894 28.0004 35.8827 29.0266 35.8827H31.3583C34.4111 35.8827 36.8858 33.4956 36.8858 30.551V29.5933" stroke="#323232" stroke-width="0.829126" stroke-miterlimit="10" stroke-linecap="round" stroke-linejoin="round"/>
<path d="M30.7336 33.8113H29.3771C28.6241 33.8113 27.8842 33.5181 27.3325 32.9702L25.9882 31.635C25.5043 31.1544 25.2324 30.5026 25.2324 29.8229V28.0331C25.2324 27.0815 26.0092 26.3101 26.9673 26.3101H30.7335H32.6634C33.6214 26.3101 34.3983 27.0815 34.3983 28.0331V30.6524C34.3983 32.4476 32.8842 33.8113 31.3119 33.8113L30.7336 33.8113ZM30.7336 33.8113C30.7332 33.811 30.7329 33.8106 30.7326 33.8103L30.7336 33.8113Z" stroke="#323232" stroke-width="0.829126" stroke-miterlimit="10" stroke-linecap="round" stroke-linejoin="round"/>
<path d="M13.6412 26.3101H19.3373C20.2954 26.3101 21.0722 27.0815 21.0722 28.033V29.8229C21.0722 30.5026 20.8003 31.1544 20.3164 31.635L18.972 32.9701C18.4204 33.518 17.6805 33.8113 16.9275 33.8113H15.571C15.5714 33.8109 15.5717 33.8105 15.572 33.8102L15.571 33.8112H14.9926C13.4204 33.8112 11.9062 32.4476 11.9062 30.6523V28.033C11.9063 27.0815 12.6831 26.3101 13.6412 26.3101Z" stroke="#323232" stroke-width="0.829126" stroke-miterlimit="10" stroke-linecap="round" stroke-linejoin="round"/>
</g>
<defs>
<clipPath id="clip0_629_2157">
<rect width="28.3008" height="28.3008" fill="white" transform="translate(9 8)"/>
</clipPath>
</defs>
</svg>
