<svg width="48" height="48" viewBox="0 0 48 48" fill="none" xmlns="http://www.w3.org/2000/svg">
<rect width="48" height="48" rx="24" fill="#F0F3FA"/>
<path d="M23.7401 29.6981V34.6359C23.7401 35.305 23.4743 35.9467 23.0012 36.4199C22.528 36.893 21.8863 37.1588 21.2172 37.1588H11.2983C10.6292 37.1588 9.98749 36.893 9.51435 36.4199C9.0412 35.9467 8.77539 35.305 8.77539 34.6359V29.6981C8.77539 28.6817 9.69086 27.7662 10.801 27.2039C11.5173 26.8061 12.3177 26.5838 13.1365 26.5552H19.3718C21.1163 26.5552 23.7401 27.9752 23.7401 29.6981Z" fill="#EC6161"/>
<path d="M23.1132 14.712V23.4631C23.1132 24.289 22.7851 25.0811 22.2011 25.6651C21.6171 26.2491 20.825 26.5772 19.9991 26.5772H12.5168C12.1072 26.5781 11.7015 26.4983 11.3229 26.3422C10.9442 26.1861 10.6001 25.9569 10.3101 25.6676C10.0202 25.3784 9.79019 25.0348 9.63324 24.6565C9.47629 24.2782 9.39551 23.8727 9.39551 23.4631V14.712C9.39551 12.9892 23.1132 12.9892 23.1132 14.712Z" fill="#EFC29A"/>
<path d="M13.1367 26.5552H19.372V27.5139C19.372 28.0874 19.1442 28.6375 18.7386 29.043C18.3331 29.4486 17.783 29.6764 17.2095 29.6764H15.2993C14.7257 29.6764 14.1757 29.4486 13.7701 29.043C13.3646 28.6375 13.1367 28.0874 13.1367 27.5139V26.5552Z" fill="#EFC29A"/>
<path d="M23.51 11.3816C22.9575 10.8321 22.2983 10.4015 21.5731 10.1164C20.8478 9.83122 20.0719 9.69758 19.2931 9.72366C18.4228 9.68145 17.5551 9.84937 16.7634 10.2132C15.9717 10.5771 15.2793 11.1262 14.7445 11.8141C13.9849 11.3306 13.1003 11.0801 12.2 11.0933C9.95813 11.0716 8.1416 12.5854 8.1416 14.4524C8.15126 14.9255 8.26858 15.3901 8.48467 15.811C8.70075 16.2319 9.00991 16.5981 9.38866 16.8817V20.6805C10.1774 19.8338 10.622 18.7235 10.6357 17.5665C11.5355 17.871 12.507 17.8926 13.4194 17.6284C14.3318 17.3642 15.1414 16.8269 15.7393 16.0887C16.6476 16.7447 19.4805 17.8908 21.953 16.5933C21.8507 17.3173 21.9005 18.0547 22.0991 18.7584C22.2976 19.4621 22.6407 20.1168 23.1064 20.6805V15.8725C23.4818 15.5842 23.7885 15.216 24.0042 14.7946C24.2198 14.3732 24.3391 13.9092 24.3534 13.436C24.3419 12.6692 24.0406 11.9353 23.51 11.3816Z" fill="#3C5959"/>
<path opacity="0.15" d="M23.51 11.3817C22.5062 11.0467 21.4542 10.8787 20.396 10.8844C18.3177 10.8967 16.2956 11.5607 14.6145 12.7827C12.9335 14.0047 11.678 15.7233 11.025 17.6964L10.6718 17.5882C10.6581 18.7453 10.2134 19.8556 9.42471 20.7023V16.8818C9.0393 16.602 8.72323 16.2375 8.50078 15.8163C8.27834 15.3952 8.15546 14.9286 8.1416 14.4525C8.1416 12.5856 9.95092 11.0718 12.1928 11.0718C13.0931 11.0586 13.9777 11.3092 14.7373 11.7926C15.2721 11.1047 15.9645 10.5556 16.7562 10.1917C17.5479 9.82789 18.4156 9.65997 19.2859 9.70217C20.0675 9.67792 20.8457 9.81449 21.5723 10.1034C22.299 10.3923 22.9585 10.8274 23.51 11.3817Z" fill="#42342C"/>
<path d="M22.81 22.8147C23.6699 22.8147 24.367 22.1176 24.367 21.2577C24.367 20.3978 23.6699 19.7007 22.81 19.7007C21.95 19.7007 21.2529 20.3978 21.2529 21.2577C21.2529 22.1176 21.95 22.8147 22.81 22.8147Z" fill="#EFC29A"/>
<path d="M9.69863 22.8147C10.5585 22.8147 11.2557 22.1176 11.2557 21.2577C11.2557 20.3978 10.5585 19.7007 9.69863 19.7007C8.83871 19.7007 8.1416 20.3978 8.1416 21.2577C8.1416 22.1176 8.83871 22.8147 9.69863 22.8147Z" fill="#EFC29A"/>
<g opacity="0.43">
<g opacity="0.43">
<path d="M20.7782 31.8605V37.1587H20.1511V31.8605C20.1442 31.8153 20.1472 31.7692 20.1598 31.7253C20.1724 31.6814 20.1943 31.6407 20.2241 31.606C20.2539 31.5714 20.2908 31.5436 20.3323 31.5245C20.3738 31.5055 20.419 31.4956 20.4646 31.4956C20.5103 31.4956 20.5555 31.5055 20.597 31.5245C20.6385 31.5436 20.6754 31.5714 20.7052 31.606C20.735 31.6407 20.7569 31.6814 20.7695 31.7253C20.7821 31.7692 20.7851 31.8153 20.7782 31.8605Z" fill="#42342C"/>
</g>
<g opacity="0.43">
<path d="M12.3585 31.8605V37.1587H11.7458V31.8605C11.7389 31.8153 11.7419 31.7692 11.7545 31.7253C11.7671 31.6814 11.789 31.6407 11.8188 31.606C11.8486 31.5714 11.8855 31.5436 11.927 31.5245C11.9685 31.5055 12.0137 31.4956 12.0594 31.4956C12.105 31.4956 12.1502 31.5055 12.1917 31.5245C12.2332 31.5436 12.2701 31.5714 12.2999 31.606C12.3297 31.6407 12.3516 31.6814 12.3642 31.7253C12.3768 31.7692 12.3798 31.8153 12.3729 31.8605H12.3585Z" fill="#42342C"/>
</g>
</g>
<g opacity="0.45">
<path opacity="0.43" d="M18.8672 37.16H11.2984C10.6292 37.16 9.9875 36.8941 9.51435 36.421C9.0412 35.9479 8.77539 35.3061 8.77539 34.637V29.6992C8.77539 28.6828 9.69086 27.7673 10.801 27.2051V27.688C10.801 29.9678 11.6127 32.173 13.0908 33.9086C14.5689 35.6442 16.6166 36.7968 18.8672 37.16Z" fill="#42342C"/>
</g>
<path d="M39.4692 19.0862V19.8071L39.3034 26.9074C39.3015 27.1776 39.1929 27.4361 39.0011 27.6265C38.8093 27.8169 38.5501 27.9238 38.2798 27.9238L26.8833 27.8517C26.7507 27.8489 26.6201 27.8197 26.499 27.7658C26.378 27.7118 26.2689 27.6342 26.1782 27.5375C26.0876 27.4408 26.0172 27.327 25.9711 27.2027C25.9251 27.0783 25.9043 26.9461 25.9101 26.8137V22.3372C25.9101 21.3713 25.9534 17.3778 25.9534 17.3778C26.6973 17.3534 27.4421 17.3871 28.1808 17.4787C30.6173 17.7671 34.171 18.3654 34.171 18.3654H34.2071L35.2451 18.5023L39.4692 19.0862Z" fill="#FCB143"/>
<path d="M39.3032 30.5057V34.9029C39.3032 35.5001 39.0665 36.0728 38.6449 36.4958C38.2233 36.9187 37.6513 37.1572 37.0541 37.1592H28.2094C27.611 37.1592 27.0371 36.9214 26.614 36.4983C26.1908 36.0752 25.9531 35.5013 25.9531 34.9029V30.5057C25.9531 29.5975 26.7677 28.7829 27.7624 28.2783C28.4028 27.9274 29.116 27.7299 29.8457 27.7017H35.4106C36.9749 27.7017 39.3032 28.9631 39.3032 30.5057Z" fill="#318C49"/>
<path d="M38.7487 17.1413V24.9048C38.7487 25.2699 38.6767 25.6313 38.5368 25.9685C38.3969 26.3057 38.1918 26.612 37.9333 26.8698C37.6749 27.1276 37.3681 27.3318 37.0305 27.4709C36.693 27.6099 36.3313 27.681 35.9663 27.6801H29.2913C28.9262 27.681 28.5645 27.6099 28.227 27.4709C27.8895 27.3318 27.5827 27.1276 27.3242 26.8698C27.0657 26.612 26.8607 26.3057 26.7207 25.9685C26.5808 25.6313 26.5088 25.2699 26.5088 24.9048V17.1413C26.5088 15.6059 38.7487 15.6059 38.7487 17.1413Z" fill="#FCD0A3"/>
<path d="M29.8467 27.7017H35.4116V28.3216C35.4116 28.8951 35.1838 29.4452 34.7782 29.8507C34.3727 30.2563 33.8226 30.4841 33.2491 30.4841H32.0092C31.4357 30.4841 30.8856 30.2563 30.4801 29.8507C30.0745 29.4452 29.8467 28.8951 29.8467 28.3216V27.7017Z" fill="#FCD0A3"/>
<g opacity="0.43">
<g opacity="0.43">
<path d="M36.6595 32.4306V37.1593H36.1045V32.4306C36.1152 32.3647 36.1489 32.3047 36.1998 32.2614C36.2506 32.2181 36.3152 32.1943 36.382 32.1943C36.4488 32.1943 36.5134 32.2181 36.5643 32.2614C36.6151 32.3047 36.6489 32.3647 36.6595 32.4306Z" fill="#42342C"/>
</g>
</g>
<g opacity="0.45">
<path opacity="0.43" d="M34.9565 37.1582H28.2094C27.6122 37.1582 27.0394 36.9214 26.6165 36.4999C26.1936 36.0783 25.955 35.5063 25.9531 34.9091V30.5048C25.9531 29.5965 26.7677 28.7819 27.7624 28.2773C26.9695 32.1122 30.8693 36.5166 34.9565 37.1582Z" fill="#42342C"/>
</g>
<path d="M39.4558 19.8582C39.2934 20.719 39.0196 21.555 38.6413 22.3451C36.2769 21.7107 35.0875 17.5443 35.037 17.1622C31.4328 22.5541 26.1634 21.6459 26.1634 21.2999C26.0625 20.2474 25.5219 16.0089 27.3312 14.4446C31.8653 11.2008 35.8804 14.5311 36.0895 14.6825C36.0823 14.6681 40.1623 14.9492 39.4558 19.8582Z" fill="#FCB143"/>
<path d="M39.8601 22.9725C39.8601 23.7439 39.5141 24.1619 38.75 24.1619C38.9026 23.3958 38.9026 22.607 38.75 21.8408C39.5141 21.8408 39.8601 22.2085 39.8601 22.9725Z" fill="#FCD0A3"/>
<path opacity="0.15" d="M36.0665 14.6612C34.6252 14.4984 33.1658 14.6678 31.8001 15.1564C30.4344 15.6449 29.1987 16.4397 28.1877 17.4797C26.9977 18.8592 26.212 20.5405 25.917 22.3382C25.917 21.3723 25.9602 17.3788 25.9602 17.3788C25.9602 17.2274 26.1332 15.2884 27.3082 14.4234C28.0578 13.8577 28.9117 13.4455 29.8208 13.2105C30.73 12.9755 31.6766 12.9222 32.6064 13.0537C33.8541 13.3575 35.0297 13.9037 36.0665 14.6612Z" fill="#42342C"/>
<path d="M25.7081 22.9005C25.7081 22.1364 25.5639 21.8408 26.328 21.8408C26.8831 22.9005 25.7081 23.6718 25.7081 22.9005Z" fill="#FCD0A3"/>
<path d="M29.6519 37.1592H18.3418C18.6821 36.6415 19.1585 36.2275 19.7186 35.9626C20.284 35.6544 20.9133 35.4816 21.5568 35.458H26.4441C27.0728 35.4795 27.6884 35.6439 28.2442 35.9387C28.8 36.2334 29.2813 36.6508 29.6519 37.1592Z" fill="#0A93A3"/>
<path d="M29.3847 26.158V33.0132C29.3847 33.662 29.1274 34.2843 28.6694 34.7437C28.2113 35.2031 27.5898 35.4622 26.941 35.4641H21.0589C20.4101 35.4622 19.7886 35.2031 19.3305 34.7437C18.8725 34.2843 18.6152 33.662 18.6152 33.0132V26.158C18.6152 24.8028 29.3847 24.8028 29.3847 26.158Z" fill="#FCD0A3"/>
<path d="M26.444 35.458V35.9554C26.441 36.393 26.2913 36.8169 26.0187 37.1592H21.9819C21.7127 36.815 21.5634 36.3923 21.5566 35.9554V35.458H26.444Z" fill="#FCD0A3"/>
<g opacity="0.45">
<path opacity="0.43" d="M21.0095 36.9144H18.6523C18.9902 36.3918 19.4704 35.9766 20.0364 35.7178C20.0204 35.8605 20.033 36.0049 20.0735 36.1426C20.114 36.2804 20.1815 36.4087 20.2721 36.5201C20.3627 36.6315 20.4745 36.7237 20.6011 36.7914C20.7277 36.8591 20.8666 36.9009 21.0095 36.9144Z" fill="#42342C"/>
</g>
<path d="M19.3868 30.2242L18.6155 30.1089C17.491 28.0689 17.2675 26.0865 18.2911 24.2268C18.4858 23.8807 23.4308 20.9974 26.9413 23.6933C26.9341 23.7005 25.0455 30.2314 19.3868 30.2242Z" fill="#93372B"/>
<path d="M25.9607 25.1786C25.9607 25.1786 25.8021 29.6334 28.5125 30.2245C28.7071 30.2605 29.1397 30.1308 29.3559 30.138C29.3559 30.138 32.3042 24.6596 26.9194 23.6504L25.9607 25.1786Z" fill="#93372B"/>
<path d="M29.1463 32.5236C29.8231 32.5236 30.3718 31.975 30.3718 31.2982C30.3718 30.6214 29.8231 30.0728 29.1463 30.0728C28.4695 30.0728 27.9209 30.6214 27.9209 31.2982C27.9209 31.975 28.4695 32.5236 29.1463 32.5236Z" fill="#FCD0A3"/>
<path d="M18.8602 32.5236C19.537 32.5236 20.0856 31.975 20.0856 31.2982C20.0856 30.6214 19.537 30.0728 18.8602 30.0728C18.1834 30.0728 17.6348 30.6214 17.6348 31.2982C17.6348 31.975 18.1834 32.5236 18.8602 32.5236Z" fill="#FCD0A3"/>
<path opacity="0.2" d="M26.9203 23.6933C17.7583 24.3637 18.6017 30.08 18.6017 30.08C17.4844 28.04 17.2681 26.0865 18.2917 24.2268C18.4864 23.8807 23.4314 20.9974 26.9203 23.6933Z" fill="#42342C"/>
<path d="M16.1578 23.2323C16.7286 23.1978 17.2626 22.9386 17.6428 22.5114C17.6756 22.4812 17.702 22.4445 17.7204 22.4038C17.7387 22.3631 17.7486 22.319 17.7495 22.2744C17.7505 22.2297 17.7423 22.1853 17.7257 22.1439C17.709 22.1024 17.6841 22.0647 17.6525 22.0332C17.6209 22.0016 17.5833 21.9767 17.5418 21.96C17.5003 21.9433 17.456 21.9352 17.4113 21.9361C17.3666 21.937 17.3226 21.9469 17.2818 21.9653C17.2411 21.9836 17.2045 22.01 17.1742 22.0429C17.0597 22.205 16.908 22.3373 16.7317 22.4286C16.5555 22.5199 16.3599 22.5675 16.1614 22.5675C15.9629 22.5675 15.7674 22.5199 15.5911 22.4286C15.4149 22.3373 15.2631 22.205 15.1486 22.0429C15.1184 22.01 15.0817 21.9836 15.041 21.9653C15.0003 21.9469 14.9562 21.937 14.9116 21.9361C14.8669 21.9352 14.8225 21.9433 14.7811 21.96C14.7396 21.9767 14.702 22.0016 14.6704 22.0332C14.6388 22.0647 14.6139 22.1024 14.5972 22.1439C14.5805 22.1853 14.5724 22.2297 14.5733 22.2744C14.5742 22.319 14.5841 22.3631 14.6025 22.4038C14.6208 22.4445 14.6472 22.4812 14.6801 22.5114C14.866 22.724 15.0924 22.8972 15.3462 23.021C15.6 23.1448 15.8759 23.2166 16.1578 23.2323Z" fill="#42342C"/>
<path d="M33.4222 23.643C33.3231 23.7843 33.1914 23.8996 33.0384 23.9792C32.8853 24.0589 32.7153 24.1004 32.5427 24.1004C32.3702 24.1004 32.2002 24.0589 32.0471 23.9792C31.894 23.8996 31.7624 23.7843 31.6633 23.643C31.633 23.6101 31.5964 23.5837 31.5557 23.5654C31.5149 23.547 31.4709 23.5371 31.4262 23.5362C31.3816 23.5353 31.3372 23.5434 31.2957 23.5601C31.2543 23.5768 31.2166 23.6017 31.185 23.6333C31.1534 23.6648 31.1285 23.7025 31.1119 23.744C31.0952 23.7854 31.0871 23.8298 31.088 23.8745C31.0889 23.9191 31.0988 23.9632 31.1171 24.0039C31.1355 24.0446 31.1619 24.0813 31.1947 24.1115C31.3553 24.3155 31.56 24.4803 31.7935 24.5937C32.027 24.707 32.2832 24.7659 32.5427 24.7659C32.8023 24.7659 33.0584 24.707 33.2919 24.5937C33.5254 24.4803 33.7301 24.3155 33.8907 24.1115C33.9487 24.0486 33.9802 23.9656 33.9784 23.88C33.9767 23.7945 33.9419 23.7129 33.8814 23.6523C33.8208 23.5918 33.7392 23.557 33.6536 23.5553C33.568 23.5535 33.4851 23.585 33.4222 23.643Z" fill="#42342C"/>
<path fill-rule="evenodd" clip-rule="evenodd" d="M40.2252 22.9435C40.2255 22.6421 40.148 22.3458 40.0003 22.0831C39.8526 21.8205 39.6395 21.6004 39.3819 21.4441C40.2252 18.8995 39.9153 17.0253 39.2521 16.0522C38.8925 15.5769 38.4423 15.1775 37.9277 14.8768C37.4131 14.5762 36.844 14.3804 36.2534 14.3005C35.175 13.5139 33.9492 12.9525 32.6492 12.6498C30.6712 12.3994 28.6724 12.9152 27.0626 14.0915C26.1926 14.9569 25.6783 16.1167 25.6209 17.3425V21.6171C25.3969 21.8101 25.2278 22.0587 25.1307 22.338C24.9001 22.2803 24.655 22.2298 24.4099 22.1938C24.5986 21.9031 24.7057 21.567 24.7199 21.2206C24.7211 20.8287 24.6012 20.446 24.3767 20.1247C24.1522 19.8035 23.834 19.5593 23.4656 19.4257V16.0089C23.8504 15.6838 24.1613 15.2802 24.3776 14.8252C24.5939 14.3702 24.7106 13.8743 24.7199 13.3706C24.7069 12.5137 24.3724 11.693 23.7828 11.0711C23.1952 10.4863 22.4945 10.0275 21.7236 9.72257C20.9527 9.41768 20.1277 9.27316 19.2991 9.29786C18.4208 9.26598 17.5464 9.42916 16.7387 9.77566C15.931 10.1222 15.2102 10.6434 14.628 11.3018C13.8813 10.886 13.039 10.6723 12.1844 10.6819C9.7551 10.6819 7.77278 12.3542 7.77278 14.4159C7.77969 14.9141 7.89479 15.4048 8.11011 15.8541C8.32544 16.3035 8.63585 16.7006 9.01984 17.0181V19.4257C8.64663 19.5569 8.32336 19.8008 8.09467 20.1236C7.86599 20.4464 7.74316 20.8323 7.74316 21.2279C7.74316 21.6235 7.86599 22.0093 8.09467 22.3321C8.32336 22.6549 8.64663 22.8988 9.01984 23.03V23.4192C9.01959 24.1019 9.22046 24.7695 9.59737 25.3387C9.97427 25.9079 10.5105 26.3535 11.1391 26.6198C10.9661 26.6919 8.59454 28.0615 8.39991 30.0222C8.39991 30.0222 8.39991 30.5018 8.77115 30.5018C9.14238 30.5018 9.14238 30.0222 9.14238 30.0222V30.0077C9.14238 29.0923 10.0867 27.9389 10.9733 27.5064C11.5366 27.2077 12.1498 27.0147 12.7827 26.9369V27.4992C12.7827 28.1683 13.0485 28.8101 13.5216 29.2832C13.9948 29.7564 14.6365 30.0222 15.3056 30.0222H17.2159C17.5209 29.9972 17.8242 29.9538 18.1241 29.8924C17.8508 30.0294 17.6232 30.2427 17.4688 30.5065C17.3145 30.7704 17.24 31.0733 17.2545 31.3787C17.269 31.684 17.3719 31.9785 17.5505 32.2266C17.7292 32.4746 17.9761 32.6654 18.2611 32.7758C18.2611 32.7758 18.1313 34.9383 19.8253 35.5294C19.1896 35.8342 18.6248 36.2689 18.1674 36.8053H12.4006V31.8243C12.4006 31.7421 12.3679 31.6632 12.3098 31.6051C12.2517 31.547 12.1728 31.5143 12.0906 31.5143C12.0472 31.5103 12.0035 31.5154 11.9621 31.5291C11.9207 31.5428 11.8826 31.5648 11.8501 31.5939C11.8177 31.623 11.7915 31.6585 11.7734 31.6981C11.7552 31.7377 11.7454 31.7807 11.7446 31.8243V36.7621C11.7446 36.7621 9.40189 36.7621 9.14238 34.5995V31.5143C9.14238 31.5143 9.14238 31.129 8.77115 31.129C8.39991 31.129 8.39991 31.5143 8.39991 31.5143V34.614C8.39991 35.3787 8.7037 36.1121 9.24444 36.6528C9.78517 37.1936 10.5186 37.4973 11.2833 37.4973H37.0607C37.7528 37.4973 38.4165 37.2224 38.9059 36.733C39.3953 36.2437 39.6702 35.5799 39.6702 34.8879V32.2246C39.6702 32.2246 39.6702 31.8605 39.3098 31.8605C38.9494 31.8605 38.9494 32.2246 38.9494 32.2246V34.8735C38.8268 36.8846 36.6643 36.7621 36.6643 36.7621V32.3937C36.6536 32.3278 36.6198 32.2678 36.569 32.2246C36.5181 32.1813 36.4535 32.1575 36.3867 32.1575C36.32 32.1575 36.2554 32.1813 36.2045 32.2246C36.1537 32.2678 36.1199 32.3278 36.1092 32.3937V36.7621H29.8379C29.4106 36.1978 28.8409 35.7574 28.1871 35.4862C29.8811 34.996 29.7658 32.7253 29.7658 32.7253C30.0504 32.6141 30.2967 32.4227 30.4747 32.1743C30.6527 31.9259 30.7547 31.6311 30.7685 31.3258C30.7822 31.0206 30.707 30.7178 30.5521 30.4544C30.3971 30.191 30.1691 29.9783 29.8955 29.842L29.9532 29.6978C30.1853 30.0337 30.4955 30.3082 30.8571 30.4978C31.2187 30.6874 31.6209 30.7864 32.0292 30.7863H33.2691C33.9382 30.7863 34.5799 30.5205 35.0531 30.0473C35.5262 29.5742 35.792 28.9324 35.792 28.2633V28.0326C37.1256 28.2201 38.9494 29.2292 38.9494 30.4691V30.9471C38.9494 30.9471 38.9493 31.2617 39.3098 31.2617C39.6702 31.2617 39.6702 30.9471 39.6702 30.9471V30.4691C39.6199 30.0197 39.4628 29.589 39.212 29.2127C38.9612 28.8365 38.624 28.5258 38.2285 28.3066C38.5956 28.3066 38.9476 28.1607 39.2072 27.9012C39.4667 27.6416 39.6125 27.2896 39.6125 26.9225V24.2554C39.9177 23.8727 40.1277 23.4231 40.2252 22.9435ZM19.1189 36.7621C19.7031 36.2458 20.4288 35.9168 21.2021 35.8178C21.2289 36.1374 21.2869 36.4537 21.3751 36.7621H19.1189ZM21.0724 35.0681C20.7954 35.0719 20.5205 35.0207 20.2635 34.9173C20.0066 34.814 19.7727 34.6606 19.5755 34.4661C19.3784 34.2716 19.2218 34.0399 19.1149 33.7843C19.0081 33.5288 18.9531 33.2546 18.9531 32.9776V30.4907C20.2983 30.5421 21.633 30.2356 22.8209 29.6024C24.0089 28.9691 25.0074 28.0319 25.7146 26.8865C26.6868 30.7344 28.6208 30.5301 28.9585 30.4944C28.9789 30.4923 28.9935 30.4907 29.0017 30.4907V32.9776C29.0026 33.2518 28.9494 33.5235 28.8452 33.7771C28.7409 34.0307 28.5876 34.2612 28.3941 34.4554C28.2005 34.6496 27.9706 34.8037 27.7173 34.9088C27.4641 35.014 27.1926 35.0681 26.9184 35.0681H21.0724ZM22.305 16.7802C22.4588 16.7033 22.6102 16.6168 22.7592 16.5207V19.4041C22.3645 18.5894 22.2071 17.6802 22.305 16.7802ZM26.5076 23.7941C26.1616 24.9042 24.2081 29.8203 19.4216 29.8347L18.8522 29.7482C17.7997 27.7515 17.7204 25.9926 18.5927 24.4068C19.018 23.9454 23.3575 21.6748 26.5076 23.7941ZM29.5207 25.6827C30.2415 27.1244 29.427 29.1283 29.1386 29.7482C29.0635 29.8076 28.975 29.8478 28.8808 29.8654C28.7866 29.883 28.6896 29.8774 28.598 29.8492C26.904 29.4743 26.2625 26.2449 26.3346 25.9566C26.6612 25.3544 26.9408 24.7278 27.1707 24.0824C27.6589 24.1511 28.1247 24.3312 28.5322 24.6087C28.9397 24.8861 29.2779 25.2536 29.5207 25.6827ZM13.5035 26.8865H17.2951C17.3297 27.6717 17.5004 28.4449 17.7997 29.1716C17.6125 29.24 17.4152 29.2766 17.2159 29.2797H15.3056C14.8277 29.2797 14.3693 29.0898 14.0313 28.7519C13.6934 28.4139 13.5035 27.9555 13.5035 27.4776V26.8865ZM18.2322 31.8747C18.1504 31.7973 18.0853 31.7039 18.0408 31.6005C17.9962 31.497 17.9733 31.3855 17.9733 31.2728C17.9733 31.1602 17.9962 31.0487 18.0408 30.9452C18.0853 30.8417 18.1504 30.7484 18.2322 30.6709V31.8747ZM29.7658 30.6709C29.9288 30.8306 30.022 31.0483 30.0253 31.2764C30.0245 31.3896 30.0011 31.5014 29.9565 31.6053C29.912 31.7093 29.8471 31.8033 29.7658 31.8819V30.6709ZM30.4506 28.0471H35.0712V28.2993C35.0712 28.7773 34.8813 29.2357 34.5434 29.5736C34.2054 29.9116 33.747 30.1015 33.2691 30.1015H32.0148C31.6202 30.1001 31.2369 29.9697 30.9233 29.7302C30.6097 29.4908 30.3829 29.1554 30.2776 28.7751C30.296 28.6898 30.3144 28.609 30.3324 28.5302C30.3706 28.3626 30.4067 28.2043 30.4362 28.0326L30.4506 28.0471ZM35.9867 27.3262H30.5227C30.5689 26.6612 30.4501 25.9951 30.1767 25.3871C29.8614 24.8213 29.4145 24.3398 28.8737 23.9835C28.3328 23.6271 27.7141 23.4064 27.0698 23.3399L26.8824 23.1886V22.0785C28.443 22.1222 29.99 21.7783 31.3851 21.0776C32.7802 20.3769 33.9798 19.3413 34.8766 18.0633C35.0657 19.0425 35.4854 19.9626 36.1009 20.7473C36.7164 21.532 37.51 22.1588 38.4159 22.5758V24.9042C38.4102 25.5472 38.1498 26.1617 37.6917 26.613C37.2336 27.0644 36.6153 27.3156 35.9723 27.3118L35.9867 27.3262ZM39.1368 22.1505C39.258 22.2442 39.3561 22.3643 39.4236 22.5018C39.4911 22.6392 39.5262 22.7903 39.5262 22.9435C39.5262 23.0966 39.4911 23.2477 39.4236 23.3852C39.3561 23.5226 39.258 23.6428 39.1368 23.7364V22.1505ZM27.5312 14.6754C28.9841 13.611 30.7909 13.1464 32.5771 13.3778C33.9049 13.5438 35.3498 14.5239 35.8613 14.8709C35.9718 14.9459 36.0387 14.9913 36.0516 14.9925C36.5637 15.0468 37.0599 15.2022 37.5116 15.4497C37.9632 15.6972 38.3613 16.0318 38.6826 16.4342C39.9009 18.3589 38.6466 21.4081 38.4736 21.8117C37.6137 21.325 36.8874 20.6334 36.3592 19.7984C35.8311 18.9634 35.5174 18.0108 35.446 17.0253C35.4348 16.9506 35.4013 16.8811 35.3498 16.8257C35.2984 16.7704 35.2314 16.732 35.1577 16.7154C35.0844 16.7072 35.0102 16.719 34.9429 16.7494C34.8757 16.7799 34.8179 16.8279 34.7757 16.8884C33.9399 18.3505 32.7046 19.5441 31.2147 20.3292C29.7248 21.1144 28.0419 21.4586 26.3634 21.3216V17.3281C26.4226 16.3326 26.837 15.3914 27.5312 14.6754ZM26.1616 22.1361V22.7416L25.83 22.5903C25.8959 22.4109 26.0108 22.2536 26.1616 22.1361ZM23.999 21.2206C23.9983 21.4105 23.9489 21.597 23.8555 21.7624C23.7621 21.9277 23.6278 22.0663 23.4656 22.165V20.2259C23.6295 20.335 23.7639 20.4829 23.857 20.6564C23.95 20.8299 23.9988 21.0237 23.999 21.2206ZM8.51525 14.4159C8.51525 12.7507 10.1732 11.4027 12.206 11.4027C13.0368 11.3912 13.8523 11.6271 14.5487 12.0803C14.5878 12.1071 14.6318 12.1258 14.6782 12.1352C14.7246 12.1446 14.7724 12.1447 14.8188 12.1352C14.8652 12.1258 14.9092 12.1072 14.9483 12.0804C14.9873 12.0536 15.0206 12.0193 15.0461 11.9794C15.5524 11.3429 16.2026 10.8358 16.9433 10.4999C17.684 10.164 18.4939 10.009 19.3063 10.0475C20.0386 10.0201 20.7687 10.1428 21.4518 10.4081C22.1348 10.6734 22.7564 11.0756 23.2782 11.5901C23.7295 12.0746 23.9862 12.7086 23.999 13.3706C23.9086 13.9938 23.6633 14.5843 23.2854 15.0881C22.9076 15.5919 22.4094 15.9927 21.8365 16.254C19.573 17.4434 16.9275 16.4414 16.0048 15.7783C15.9309 15.7228 15.8381 15.6985 15.7465 15.7106C15.6549 15.7228 15.5716 15.7703 15.5147 15.8431C13.6116 18.1138 10.7571 17.1911 10.7571 17.1911C10.3894 17.0758 8.58733 16.0666 8.51525 14.4159ZM9.76231 17.5227C9.92545 17.6212 10.0967 17.7056 10.2741 17.775C10.2324 18.3913 10.0578 18.9914 9.76231 19.5339V17.5227ZM8.50804 21.2206C8.5088 21.0248 8.55788 20.8323 8.65093 20.66C8.74399 20.4877 8.87813 20.3411 9.04146 20.2331V22.2154C8.87757 22.1063 8.74314 21.9584 8.65009 21.7849C8.55704 21.6114 8.50825 21.4175 8.50804 21.2206ZM9.76231 23.3832V20.7737C10.4472 19.9979 10.8731 19.0278 10.9805 17.9985C11.8429 18.2176 12.7485 18.1993 13.6014 17.9455C14.4542 17.6917 15.2224 17.2118 15.8246 16.5568C16.6795 17.0549 17.6296 17.3676 18.6132 17.4744C19.5968 17.5812 20.5919 17.4798 21.5337 17.1767C21.5341 18.4803 21.9649 19.7473 22.7592 20.7809V22.2226C22.4059 22.2226 19.3063 22.6119 17.98 24.0536C17.6122 24.721 17.3864 25.4573 17.3168 26.2161H12.5231C12.1566 26.2152 11.7938 26.1415 11.456 25.9993C11.1181 25.857 10.8119 25.6491 10.5551 25.3876C10.2982 25.126 10.0959 24.8161 9.9598 24.4757C9.82371 24.1353 9.75658 23.7713 9.76231 23.4048V23.3832ZM22.1753 36.7621C22.0461 36.4511 21.9612 36.1235 21.923 35.7889H26.0967C26.0588 36.1244 25.9714 36.4523 25.8372 36.7621H22.1753ZM26.6445 36.7621C26.7288 36.4577 26.7867 36.1465 26.8175 35.8322C27.5805 35.9426 28.2972 36.2648 28.8863 36.7621H26.6445ZM38.2862 27.5857H37.623C38.244 27.1988 38.7105 26.6074 38.9421 25.9133V26.9225C38.9314 27.091 38.8583 27.2494 38.7369 27.3667C38.6156 27.484 38.4549 27.5518 38.2862 27.5569V27.5857Z" fill="#42342C"/>
<path d="M24.6693 31.8534C24.5875 31.9753 24.4771 32.0752 24.3476 32.1443C24.2181 32.2134 24.0736 32.2496 23.9268 32.2496C23.78 32.2496 23.6355 32.2134 23.506 32.1443C23.3765 32.0752 23.266 31.9753 23.1843 31.8534C23.1209 31.7909 23.0355 31.7559 22.9464 31.7559C22.8574 31.7559 22.772 31.7909 22.7086 31.8534C22.6498 31.9173 22.6172 32.0009 22.6172 32.0877C22.6172 32.1745 22.6498 32.2581 22.7086 32.322C22.8617 32.497 23.0485 32.6396 23.2577 32.7411C23.467 32.8426 23.6945 32.9011 23.9268 32.9131C24.1581 32.9014 24.3846 32.843 24.5928 32.7414C24.8009 32.6398 24.9863 32.4971 25.1378 32.322C25.1958 32.259 25.2273 32.1761 25.2255 32.0905C25.2238 32.0049 25.189 31.9233 25.1285 31.8628C25.0679 31.8022 24.9863 31.7674 24.9007 31.7657C24.8152 31.764 24.7322 31.7954 24.6693 31.8534Z" fill="#42342C"/>
</svg>
