<svg width="48" height="48" viewBox="0 0 48 48" fill="none" xmlns="http://www.w3.org/2000/svg">
<rect width="48" height="48" rx="24" fill="#F0F3FA"/>
<g clip-path="url(#clip0_629_2189)">
<path d="M33.5868 37.7764H15.9441C14.1057 37.7764 12.6493 36.4411 12.7664 34.863L13.709 22.1509C13.796 20.9777 14.9275 20.0645 16.2942 20.0645H33.2423C34.6092 20.0645 35.741 20.9782 35.8275 22.1517L36.7647 34.8641C36.881 36.4418 35.4247 37.7764 33.5868 37.7764Z" fill="#ECCB5C"/>
<path d="M17.4461 34.8631L18.3887 22.1509C18.4757 20.9777 19.6073 20.0645 20.9739 20.0645H16.2942C14.9275 20.0645 13.796 20.9777 13.709 22.1509L12.7664 34.8631C12.6493 36.4412 14.1058 37.7765 15.9441 37.7765H20.6238C18.7855 37.7765 17.329 36.4412 17.4461 34.8631Z" fill="#CAA324"/>
<path d="M26.3368 38.1838H23.1965C22.7175 38.1838 22.3291 37.7954 22.3291 37.3163V20.4461C22.3291 19.967 22.7175 19.5786 23.1965 19.5786H26.3368C26.8158 19.5786 27.2042 19.967 27.2042 20.4461V37.3163C27.2042 37.7954 26.8158 38.1838 26.3368 38.1838Z" fill="#DE5E71"/>
<path d="M20.0634 16.4374C20.5451 15.1354 19.5444 13.5652 17.8283 12.9303C16.1122 12.2953 14.3305 12.8361 13.8488 14.1381C13.3671 15.4401 14.3678 17.0103 16.0839 17.6452C17.8 18.2802 19.5817 17.7394 20.0634 16.4374Z" fill="#D8445A"/>
<path d="M24.182 13.9208C24.8169 12.2047 24.2761 10.423 22.9741 9.94124C21.6721 9.45953 20.1019 10.4602 19.467 12.1764C18.8321 13.8925 19.3729 15.6742 20.6749 16.1559C21.9769 16.6376 23.5471 15.6369 24.182 13.9208Z" fill="#DE5E71"/>
<path d="M31.4203 16.7209L13.4969 24.9632C12.5095 25.4173 11.341 24.985 10.887 23.9976L9.70877 21.4354C9.25473 20.4481 9.68703 19.2796 10.6744 18.8255L28.5978 10.5833C29.5852 10.1292 30.7537 10.5615 31.2078 11.5489L32.386 14.111C32.84 15.0984 32.4076 16.2669 31.4203 16.7209Z" fill="#ECCB5C"/>
<path d="M15.3115 21.9625L14.1333 19.4004C13.6792 18.4131 14.1115 17.2446 15.0989 16.7905L10.6744 18.8252C9.68703 19.2792 9.25473 20.4477 9.70877 21.4351L10.887 23.9972C11.341 24.9845 12.5095 25.4169 13.4969 24.9628L17.9214 22.9282C16.934 23.3822 15.7655 22.9499 15.3115 21.9625Z" fill="#CAA324"/>
<path d="M24.3787 20.4139L20.9583 21.9868C20.6768 22.1163 20.3437 21.993 20.2143 21.7116L17.4401 15.6789C17.3107 15.3974 17.4339 15.0643 17.7154 14.9349L21.1358 13.362C21.4172 13.2325 21.7504 13.3558 21.8798 13.6372L24.654 19.67C24.7834 19.9514 24.6602 20.2845 24.3787 20.4139Z" fill="#DE5E71"/>
<path d="M22.3508 37.7763H15.9441C14.1057 37.7763 12.6493 36.441 12.7664 34.8629L13.4871 25.1426" stroke="#3A2D15" stroke-width="0.856047" stroke-miterlimit="10" stroke-linecap="round" stroke-linejoin="round"/>
<path d="M27.2593 20.0649H33.2427C34.6097 20.0649 35.7414 20.9787 35.828 22.1522L36.7651 34.8646C36.8814 36.4423 35.4252 37.7769 33.5873 37.7769H27.1309" stroke="#3A2D15" stroke-width="0.856047" stroke-miterlimit="10" stroke-linecap="round" stroke-linejoin="round"/>
<path d="M27.2042 35.0267V37.3155C27.2042 37.7946 26.8159 38.183 26.3368 38.183H23.1965C22.7175 38.183 22.3291 37.7946 22.3291 37.3155V21.5757" stroke="#3A2D15" stroke-width="0.856047" stroke-miterlimit="10" stroke-linecap="round" stroke-linejoin="round"/>
<path d="M25.3369 19.5786H26.3351C26.8141 19.5786 27.2025 19.967 27.2025 20.4461V33.3154" stroke="#3A2D15" stroke-width="0.856047" stroke-miterlimit="10" stroke-linecap="round" stroke-linejoin="round"/>
<path d="M14.746 16.8467C13.8983 16.0858 13.5122 15.0462 13.8485 14.1373C14.3302 12.8354 16.1119 12.2946 17.8279 12.9295C18.2878 13.0997 18.6963 13.337 19.0387 13.6184" stroke="#3A2D15" stroke-width="0.856047" stroke-miterlimit="10" stroke-linecap="round" stroke-linejoin="round"/>
<path d="M24.4468 12.379C24.4187 11.2433 23.8812 10.2768 22.9742 9.94124C21.6723 9.45951 20.1021 10.4602 19.4671 12.1763C19.2069 12.8798 19.1441 13.5944 19.2505 14.2259" stroke="#3A2D15" stroke-width="0.856047" stroke-miterlimit="10" stroke-linecap="round" stroke-linejoin="round"/>
<path d="M21.8926 13.6677L28.5987 10.5838C29.586 10.1297 30.7545 10.562 31.2086 11.5494L32.3868 14.1115C32.8408 15.0989 32.4085 16.2674 31.4212 16.7214L24.7182 19.8039" stroke="#3A2D15" stroke-width="0.856047" stroke-miterlimit="10" stroke-linecap="round" stroke-linejoin="round"/>
<path d="M20.2509 21.8566L13.4969 24.9626C12.5095 25.4166 11.341 24.9843 10.887 23.997L9.70877 21.4348C9.25473 20.4475 9.68703 19.2789 10.6744 18.8249L17.3673 15.7471" stroke="#3A2D15" stroke-width="0.856047" stroke-miterlimit="10" stroke-linecap="round" stroke-linejoin="round"/>
<path d="M18.1747 17.3763L17.4401 15.779C17.3107 15.4975 17.4339 15.1644 17.7154 15.035L21.1358 13.4621C21.4172 13.3326 21.7504 13.4559 21.8798 13.7373L24.654 19.7701C24.7834 20.0515 24.6602 20.3846 24.3788 20.5141L20.9583 22.087C20.6769 22.2164 20.3438 22.0931 20.2143 21.8117L18.89 18.9319" stroke="#3A2D15" stroke-width="0.856047" stroke-miterlimit="10" stroke-linecap="round" stroke-linejoin="round"/>
</g>
<defs>
<clipPath id="clip0_629_2189">
<rect width="29.2197" height="29.2197" fill="white" transform="translate(8.54102 9.39014)"/>
</clipPath>
</defs>
</svg>
