<svg width="48" height="48" viewBox="0 0 48 48" fill="none" xmlns="http://www.w3.org/2000/svg">
<rect width="48" height="48" rx="24" fill="#F0F3FA"/>
<g clip-path="url(#clip0_629_2322)">
<path d="M34.0528 36.8289H13.3809V20.975L24.0006 11.7949L34.0528 20.975V36.8289Z" fill="#F3F7F8"/>
<path d="M32.5967 19.2256V36.8286H34.6202V20.9747L32.5967 19.2256Z" fill="#E6EEF2"/>
<path d="M24.2143 11.9781L24.0024 11.7949L23.8271 11.9464L24.2143 11.9781Z" fill="#E6EEF2"/>
<path d="M29.9863 11.2856H33.6087V20.4647H29.9863V11.2856Z" fill="#F3F7F8"/>
<path d="M33.0889 11.2856H34.6215V20.4647H33.0889V11.2856Z" fill="#E6EEF2"/>
<path d="M29.8241 24.7547C29.8241 22.8941 28.9512 21.2375 27.5927 20.1716C27.1927 19.8578 26.607 20.1404 26.607 20.6488V24.1467C26.607 24.4825 26.3348 24.7547 25.999 24.7547H22.0038C21.668 24.7547 21.3958 24.4825 21.3958 24.1467V20.6488C21.3958 20.1404 20.8101 19.8578 20.4101 20.1716C19.0516 21.2375 18.1787 22.8941 18.1787 24.7547C18.1787 26.9126 19.3527 28.7961 21.0968 29.8019C21.2831 29.9093 21.3958 30.1101 21.3958 30.3253V35.6039H26.607V30.3253C26.607 30.1101 26.7197 29.9094 26.906 29.8019C28.6501 28.7961 29.8241 26.9126 29.8241 24.7547Z" fill="#D4E7ED"/>
<path d="M24.9215 35.6032H23.083V31.4348C23.083 30.9272 23.4945 30.5156 24.0022 30.5156C24.5099 30.5156 24.9214 30.9272 24.9214 31.4348V35.6032H24.9215Z" fill="#C0D4DF"/>
<path d="M34.7614 11.8538H29.2789C29.1222 11.8538 28.9951 11.7267 28.9951 11.57V10.2311C28.9951 10.0744 29.1222 9.94727 29.2789 9.94727H34.7614C34.9181 9.94727 35.0452 10.0744 35.0452 10.2311V11.57C35.0452 11.7268 34.9181 11.8538 34.7614 11.8538Z" fill="#FF4C4F"/>
<path d="M35.3289 9.94727H33.626C33.7827 9.94727 33.9098 10.0744 33.9098 10.2311V11.57C33.9098 11.7267 33.7827 11.8538 33.626 11.8538H35.3289C35.4856 11.8538 35.6127 11.7267 35.6127 11.57V10.2311C35.6127 10.0744 35.4856 9.94727 35.3289 9.94727Z" fill="#FB898A"/>
<path d="M36.3802 24.2404C36.251 24.2404 36.1217 24.2828 35.9947 24.2538C35.7238 24.1919 35.4639 24.0633 35.2405 23.8667L24.3761 14.3015C24.1617 14.1127 23.8404 14.1127 23.6259 14.3015L12.7615 23.8667C12.0461 24.4965 10.9557 24.4271 10.326 23.7118C9.69619 22.9965 9.76555 21.9061 10.4809 21.2763L22.661 10.5528L22.9175 10.3769C23.5694 9.80296 24.4895 9.91649 25.1414 10.4904L37.4645 21.2762C38.1798 21.9061 38.2492 22.9965 37.6194 23.7118C37.2783 24.0992 36.8587 24.2404 36.3802 24.2404Z" fill="#FF4C4F"/>
<path d="M37.5214 21.2771L25.1415 10.3777C24.4897 9.80378 23.5128 9.80378 22.8609 10.3777L22.6611 10.5536C22.9415 10.6137 23.2101 10.7442 23.4386 10.9453L35.8185 21.8447C36.5254 22.467 36.601 23.5389 35.995 24.2544C36.1219 24.2834 36.2512 24.298 36.3804 24.298C36.859 24.2979 37.3352 24.1 37.6762 23.7126C38.3061 22.9973 38.2367 21.9068 37.5214 21.2771Z" fill="#FB898A"/>
<path d="M36.3143 38.0528H11.1202C10.4438 38.0528 9.89551 37.5045 9.89551 36.8282C9.89551 36.1518 10.4438 35.6035 11.1202 35.6035H36.3143C36.9906 35.6035 37.5389 36.1518 37.5389 36.8282C37.5389 37.5045 36.9907 38.0528 36.3143 38.0528Z" fill="#FF4C4F"/>
<path d="M36.8828 35.6035H34.6123C35.2886 35.6035 35.837 36.1518 35.837 36.8282C35.837 37.5046 35.2887 38.0528 34.6123 38.0528H36.8828C37.5591 38.0528 38.1075 37.5046 38.1075 36.8282C38.1075 36.1518 37.5592 35.6035 36.8828 35.6035Z" fill="#FB898A"/>
<path d="M36.8818 35.1781H35.0464V24.2595C35.4256 24.5594 35.8948 24.7236 36.3801 24.7236C36.9985 24.7236 37.5872 24.4575 37.9954 23.9938C38.3752 23.5625 38.5642 23.0092 38.5278 22.4357C38.4913 21.8622 38.2337 21.3372 37.8024 20.9575L35.0465 18.5311V12.2795H35.3287C35.7199 12.2795 36.0383 11.9613 36.0383 11.57V10.231C36.0383 9.83975 35.72 9.52148 35.3287 9.52148H29.2786C28.8874 9.52148 28.569 9.83975 28.569 10.231V11.57C28.569 11.9613 28.8873 12.2795 29.2786 12.2795H29.5609V13.7017L25.4226 10.0582C24.6122 9.34456 23.3898 9.34467 22.5793 10.0582L16.4107 15.4891C16.2343 15.6444 16.2172 15.9135 16.3725 16.09C16.5279 16.2664 16.797 16.2835 16.9734 16.1282L23.142 10.6973C23.6316 10.2662 24.3702 10.2661 24.8599 10.6973L37.2397 21.5965C37.5003 21.8259 37.656 22.1432 37.678 22.4897C37.7001 22.8362 37.5858 23.1705 37.3564 23.4311C37.1097 23.7113 36.7538 23.8721 36.3801 23.8722C36.0641 23.8722 35.7592 23.757 35.5217 23.5479L24.6573 13.9826C24.2831 13.6532 23.7188 13.6533 23.3445 13.9827L12.4802 23.5478C12.2196 23.7773 11.8852 23.8915 11.5386 23.8695C11.1921 23.8474 10.8749 23.6918 10.6455 23.4311C10.416 23.1705 10.3018 22.8362 10.3239 22.4897C10.3459 22.1431 10.5016 21.8259 10.7622 21.5965L15.578 17.3566C15.7545 17.2013 15.7715 16.9323 15.6162 16.7558C15.4608 16.5794 15.1918 16.5622 15.0153 16.7176L10.1995 20.9575C9.76821 21.3372 9.51062 21.8621 9.47417 22.4356C9.43768 23.0092 9.62675 23.5625 10.0064 23.9938C10.3861 24.4251 10.9111 24.6827 11.4846 24.7192C11.5313 24.7221 11.5778 24.7236 11.6242 24.7236C12.1097 24.7236 12.5744 24.5616 12.9555 24.2595V31.2921C12.9555 31.5272 13.1461 31.7178 13.3813 31.7178C13.6164 31.7178 13.807 31.5272 13.807 31.2921V23.5142L23.9071 14.6218C23.9606 14.5747 24.0413 14.5747 24.0948 14.6217L34.195 23.5142V35.1781H27.0322V33.2857C27.0322 33.0506 26.8417 32.86 26.6065 32.86C26.3714 32.86 26.1808 33.0506 26.1808 33.2857V35.1781H25.3459V31.4355C25.3459 30.6939 24.7425 30.0906 24.0009 30.0906C23.2593 30.0906 22.656 30.6939 22.656 31.4355V35.1781H21.8211V30.3252C21.8211 29.9571 21.6249 29.6152 21.3091 29.4331C19.6406 28.4709 18.6041 26.6782 18.6041 24.7548C18.6041 23.0864 19.358 21.538 20.6725 20.5065C20.752 20.4442 20.8288 20.4665 20.8676 20.4854C20.9057 20.5039 20.9696 20.5498 20.9696 20.6488V24.1467C20.9696 24.7167 21.4334 25.1805 22.0034 25.1805H25.9985C26.5685 25.1805 27.0323 24.7167 27.0323 24.1467V20.6488C27.0323 20.5498 27.0962 20.5039 27.1343 20.4854C27.1732 20.4665 27.25 20.4442 27.3294 20.5065C28.644 21.538 29.3979 23.0864 29.3979 24.7548C29.3979 26.6783 28.3613 28.4709 26.6929 29.4331C26.3771 29.6152 26.1809 29.957 26.1809 30.3252V31.4304C26.1809 31.6655 26.3714 31.8561 26.6066 31.8561C26.8417 31.8561 27.0323 31.6655 27.0323 31.4304V30.3252C27.0323 30.2605 27.0652 30.2013 27.1183 30.1707C29.0496 29.0569 30.2494 26.9816 30.2494 24.7547C30.2494 22.8231 29.3767 21.0306 27.8551 19.8367C27.5402 19.5896 27.1214 19.5449 26.7618 19.7197C26.4034 19.894 26.1809 20.25 26.1809 20.6487V24.1467C26.1809 24.2473 26.0991 24.329 25.9985 24.329H22.0034C21.9029 24.329 21.8211 24.2473 21.8211 24.1467V20.6487C21.8211 20.25 21.5985 19.894 21.2401 19.7197C20.8806 19.5448 20.4617 19.5896 20.1469 19.8367C18.6252 21.0306 17.7526 22.8231 17.7526 24.7547C17.7526 26.9816 18.9524 29.0569 20.8838 30.1707C20.9368 30.2013 20.9697 30.2605 20.9697 30.3252V35.1781H13.806C13.8062 35.1722 13.8069 35.1663 13.8069 35.1603V33.1484C13.8069 32.9133 13.6164 32.7227 13.3812 32.7227C13.146 32.7227 12.9555 32.9133 12.9555 33.1484V35.1603C12.9555 35.1664 12.9562 35.1722 12.9564 35.1781H11.1201C10.2101 35.1781 9.46975 35.9185 9.46975 36.8285C9.46975 37.7385 10.2101 38.4789 11.1201 38.4789H36.8818C37.7918 38.4789 38.5321 37.7385 38.5321 36.8285C38.5321 35.9185 37.7918 35.1781 36.8818 35.1781ZM29.4205 10.3729H35.1868V11.4281H29.4205V10.3729ZM30.4123 12.2795H34.195V17.7815L30.4123 14.4513V12.2795ZM23.5074 31.4355C23.5074 31.1634 23.7288 30.942 24.0009 30.942C24.2731 30.942 24.4944 31.1634 24.4944 31.4355V35.1781H23.5074V31.4355H23.5074ZM36.8818 37.6274H11.1201C10.6796 37.6274 10.3212 37.269 10.3212 36.8285C10.3212 36.388 10.6796 36.0296 11.1201 36.0296H36.8818C37.3223 36.0296 37.6807 36.388 37.6807 36.8285C37.6807 37.269 37.3222 37.6274 36.8818 37.6274Z" fill="#262626"/>
<path d="M25.0482 28.3681C25.2833 28.3681 25.4739 28.1776 25.4739 27.9424V27.7824H26.0549C26.2901 27.7824 26.4806 27.5918 26.4806 27.3567C26.4806 27.1215 26.2901 26.9309 26.0549 26.9309H25.4739V26.7709C25.4739 26.5358 25.2834 26.3452 25.0482 26.3452C24.8131 26.3452 24.6225 26.5358 24.6225 26.7709V26.9309H23.3806V26.7709C23.3806 26.5358 23.19 26.3452 22.9549 26.3452C22.7198 26.3452 22.5291 26.5358 22.5291 26.7709V26.9309H21.9482C21.713 26.9309 21.5225 27.1215 21.5225 27.3567C21.5225 27.5918 21.713 27.7824 21.9482 27.7824H22.5291V27.9424C22.5291 28.1775 22.7197 28.3681 22.9549 28.3681C23.19 28.3681 23.3806 28.1776 23.3806 27.9424V27.7824H24.6225V27.9424C24.6225 28.1776 24.8131 28.3681 25.0482 28.3681Z" fill="#262626"/>
</g>
<defs>
<clipPath id="clip0_629_2322">
<rect width="29.0625" height="29.0625" fill="white" transform="translate(9.46875 9.46875)"/>
</clipPath>
</defs>
</svg>
