<svg width="31" height="31" viewBox="0 0 31 31" fill="none" xmlns="http://www.w3.org/2000/svg">
<g clip-path="url(#clip0_629_2349)">
<mask id="mask0_629_2349" style="mask-type:luminance" maskUnits="userSpaceOnUse" x="0" y="0" width="31" height="31">
<path d="M0 3.8147e-06H30.0889V30.0889H0V3.8147e-06Z" fill="white"/>
</mask>
<g mask="url(#mask0_629_2349)">
<path d="M22.465 13.2524L22.1712 23.9562C22.0819 24.8466 21.9843 25.6299 21.8915 26.2958C21.7927 27.0033 21.6981 27.5781 21.6217 28.0082C21.5224 28.5654 21.0775 28.9961 20.5175 29.0755C19.0307 29.2853 15.8296 29.6484 11.4867 29.6484C8.42025 29.6484 5.92322 29.4674 4.19664 29.287C3.47791 29.2124 2.89318 29.1372 2.45595 29.0755C1.8959 28.9961 1.45103 28.5665 1.35171 28.01C1.0426 26.2728 0.441406 22.1715 0.441406 16.5181C0.441406 10.8646 1.0426 6.76268 1.35171 5.02611C1.45103 4.46958 1.8959 4.03999 2.45536 3.96066C2.89142 3.89895 3.4738 3.82373 4.18959 3.74851C4.90772 3.6727 5.76044 3.59748 6.73186 3.53459H16.2369C18.1786 3.65977 19.6442 3.83666 20.5181 3.96066C21.0775 4.03999 21.5218 4.46958 21.6211 5.02611C21.8039 6.05042 22.0883 7.89689 22.2905 10.3998C22.361 11.2731 22.4221 12.2263 22.465 13.2524Z" fill="#DAF2EC"/>
<path d="M4.19664 29.2861C3.47791 29.2115 2.89318 29.1363 2.45595 29.0746C1.8959 28.9952 1.45103 28.5656 1.35171 28.0091C1.0426 26.272 0.441406 22.1706 0.441406 16.5172C0.441406 10.8638 1.0426 6.7618 1.35171 5.02522C1.45103 4.4687 1.8959 4.03911 2.45536 3.95977C2.89142 3.89807 3.4738 3.82284 4.18959 3.74762C3.95922 3.94684 3.79702 4.22305 3.7406 4.53804C3.41856 6.34808 2.7921 10.6228 2.7921 16.5142C2.7921 22.4057 3.41856 26.6798 3.7406 28.4898C3.79761 28.8078 3.96274 29.0863 4.19664 29.2861Z" fill="#B3E0D3"/>
<path d="M11.4869 0.441401C10.4877 0.441401 9.67773 1.25133 9.67773 2.25043L11.4866 3.42578L13.296 2.25043C13.296 1.25133 12.486 0.441401 11.4869 0.441401Z" fill="#FFCF4A"/>
<path d="M11.4865 5.87402C13.2067 5.87402 14.5318 5.83571 15.2884 5.80673C15.7408 5.7894 16.1156 5.45401 16.1861 5.00685C16.2272 4.74675 16.2586 4.42794 16.2586 4.06211C16.2586 3.69617 16.2271 3.37729 16.1861 3.11719C16.1156 2.67009 15.7409 2.3347 15.2886 2.31725C14.532 2.2881 13.2068 2.24961 11.4865 2.24961C9.7664 2.24961 8.44137 2.2881 7.68474 2.31725C7.23229 2.33464 6.85759 2.67021 6.78719 3.11742C6.74623 3.37753 6.71484 3.69628 6.71484 4.06211C6.71484 4.42782 6.74623 4.74651 6.78719 5.00656C6.85753 5.45384 7.23241 5.7894 7.68486 5.80673C8.44154 5.83577 9.76651 5.87402 11.4865 5.87402Z" fill="#FFEA6C"/>
<path d="M6.17635 24.512C6.17635 23.9369 5.71014 23.4707 5.13505 23.4707C4.55995 23.4707 4.09375 23.9369 4.09375 24.512C4.09375 25.087 4.55995 25.5532 5.13505 25.5532C5.71014 25.5532 6.17635 25.087 6.17635 24.512Z" fill="#28E0D2"/>
<path d="M6.17635 10.4138C6.17635 9.8388 5.71014 9.3726 5.13505 9.3726C4.55995 9.3726 4.09375 9.8388 4.09375 10.4138C4.09375 10.9889 4.55995 11.4551 5.13505 11.4551C5.71014 11.4551 6.17635 10.9889 6.17635 10.4138Z" fill="#28E0D2"/>
<path d="M6.17635 15.1218C6.17635 14.5468 5.71014 14.0806 5.13505 14.0806C4.55995 14.0806 4.09375 14.5468 4.09375 15.1218C4.09375 15.6969 4.55995 16.1631 5.13505 16.1631C5.71014 16.1631 6.17635 15.6969 6.17635 15.1218Z" fill="#28E0D2"/>
<path d="M6.17635 19.8133C6.17635 19.2382 5.71014 18.772 5.13505 18.772C4.55995 18.772 4.09375 19.2382 4.09375 19.8133C4.09375 20.3883 4.55995 20.8545 5.13505 20.8545C5.71014 20.8545 6.17635 20.3883 6.17635 19.8133Z" fill="#28E0D2"/>
<path d="M22.4645 13.2515L22.1706 23.9554C22.0813 24.8457 21.9837 25.6291 21.8909 26.2949C21.4736 26.2279 21.0646 26.0928 20.6803 25.89C17.5157 24.2181 15.2026 22.0349 13.9902 19.5755C12.8507 17.2647 12.7338 14.7824 13.6693 12.7661C14.307 11.3921 15.3953 10.339 16.7341 9.80011C18.1445 9.23242 19.7042 9.26063 21.245 9.88062C21.5971 10.0228 21.9461 10.1956 22.2899 10.399C22.3604 11.2722 22.4216 12.2254 22.4645 13.2515Z" fill="#B3E0D3"/>
<path d="M23.9862 23.4061C23.7511 23.5436 23.5072 23.6788 23.2551 23.8122C22.7926 24.0561 22.2396 24.0561 21.7777 23.8122C11.809 18.5455 15.2574 10.0048 20.3667 12.0623C20.9009 12.2774 21.4527 12.6088 22.0098 13.0713C22.3031 13.3152 22.7297 13.3152 23.023 13.0713C28.7728 8.29528 34.0207 17.5529 23.9862 23.4061Z" fill="#FF6161"/>
<path d="M23.9862 23.4061C23.7511 23.5436 23.5072 23.6788 23.2551 23.8122C22.7926 24.0561 22.2396 24.0561 21.7777 23.8122C11.809 18.5455 15.2574 10.0048 20.3667 12.0623C17.4318 13.4656 16.9135 19.2818 23.9862 23.4061Z" fill="#E62E2E"/>
<path d="M24.4742 17.2646H23.4952V16.2861C23.4952 15.7457 23.0569 15.3076 22.5162 15.3076C21.9755 15.3076 21.5372 15.7457 21.5372 16.2861V17.2646H20.5581C20.0174 17.2646 19.5791 17.7027 19.5791 18.2432C19.5791 18.7836 20.0174 19.2217 20.5581 19.2217H21.5372V20.2002C21.5372 20.7406 21.9755 21.1787 22.5162 21.1787C23.0569 21.1787 23.4952 20.7406 23.4952 20.2002V19.2217H24.4742C25.015 19.2217 25.4532 18.7836 25.4532 18.2432C25.4532 17.7027 25.015 17.2646 24.4742 17.2646Z" fill="#DAF2EC"/>
<path d="M20.5557 18.7815C20.2582 18.7815 20.0163 18.5404 20.0163 18.2438C20.0163 17.9473 20.2582 17.706 20.5557 17.706H21.5359C21.7794 17.706 21.9767 17.5087 21.9767 17.2652V16.2867C21.9767 15.9902 22.2187 15.749 22.5161 15.749C22.8136 15.749 23.0556 15.9902 23.0556 16.2867V17.2652C23.0556 17.5087 23.2529 17.706 23.4964 17.706H24.4766C24.774 17.706 25.016 17.9473 25.016 18.2438C25.016 18.5404 24.774 18.7815 24.4766 18.7815H23.4964C23.2529 18.7815 23.0556 18.9788 23.0556 19.2223V20.2008C23.0556 20.4973 22.8136 20.7386 22.5161 20.7386C22.2187 20.7386 21.9767 20.4973 21.9767 20.2008V19.2223C21.9767 18.9788 21.7794 18.7815 21.5359 18.7815H20.5557ZM22.5161 21.6201C23.2997 21.6201 23.9371 20.9834 23.9371 20.2008V19.663H24.4766C25.2601 19.663 25.8975 19.0264 25.8975 18.2438C25.8975 17.4612 25.2601 16.8245 24.4766 16.8245H23.9371V16.2867C23.9371 15.5041 23.2997 14.8675 22.5161 14.8675C21.7326 14.8675 21.0952 15.5041 21.0952 16.2867V16.8245H20.5557C19.7722 16.8245 19.1348 17.4612 19.1348 18.2438C19.1348 19.0264 19.7722 19.663 20.5557 19.663H21.0952V20.2008C21.0952 20.9834 21.7326 21.6201 22.5161 21.6201Z" fill="#414141"/>
<path d="M15.7501 4.93822C15.7124 5.17711 15.5109 5.35717 15.2709 5.3664C14.4737 5.39696 13.1699 5.43333 11.4858 5.43333C9.80219 5.43333 8.49832 5.39696 7.70109 5.3664C7.46102 5.35717 7.25951 5.17705 7.22196 4.9381C7.17753 4.65578 7.15496 4.36107 7.15496 4.06218C7.15496 3.76323 7.17753 3.46839 7.22196 3.18607C7.25951 2.94713 7.46102 2.767 7.70109 2.75778C8.49832 2.72704 9.80208 2.69043 11.4858 2.69043C13.17 2.69043 14.4738 2.72704 15.271 2.75778C15.5109 2.76706 15.7124 2.94707 15.7501 3.18596C15.7946 3.46816 15.8172 3.76299 15.8172 4.06218C15.8172 4.3613 15.7946 4.65602 15.7501 4.93822ZM11.4861 0.881514C12.0891 0.881514 12.6019 1.27373 12.7837 1.81632C12.3807 1.81174 11.948 1.80892 11.4858 1.80892C11.0239 1.80892 10.5913 1.81174 10.1885 1.81632C10.3702 1.27373 10.883 0.881514 11.4861 0.881514ZM30.0866 15.557C30.0528 14.2303 29.5611 13.0651 28.7021 12.2758C27.9747 11.6074 27.0193 11.2658 26.0123 11.3119C24.9768 11.3601 23.8958 11.8135 22.8761 12.6233C22.6921 8.93857 22.2871 6.25496 22.0542 4.94851C21.9212 4.20292 21.3282 3.63053 20.5787 3.52416C19.7417 3.40533 18.396 3.24214 16.6304 3.11884C16.627 3.09551 16.6245 3.07177 16.6208 3.04856C16.5178 2.39512 15.9644 1.90236 15.3049 1.87691C14.8955 1.8611 14.3532 1.84383 13.6962 1.8306C13.4992 0.789778 12.5834 3.8147e-06 11.4861 3.8147e-06C10.3888 3.8147e-06 9.47298 0.789778 9.27593 1.8306C8.61897 1.84383 8.07667 1.8611 7.66718 1.87691C7.00752 1.90224 6.45405 2.39518 6.35108 3.04903C6.3475 3.07207 6.34497 3.09563 6.34156 3.11879C4.57484 3.24208 3.22901 3.40539 2.3924 3.52416C1.64277 3.63047 1.0498 4.20281 0.917048 4.94839C0.813559 5.52942 0.714711 6.16281 0.623269 6.83117C0.590242 7.0723 0.758963 7.29461 1.0002 7.32758C1.02042 7.33034 1.04058 7.3317 1.0605 7.3317C1.27735 7.3317 1.46635 7.17155 1.49661 6.95065C1.58647 6.29398 1.68349 5.67234 1.78486 5.103C1.85068 4.73342 2.14458 4.44963 2.51622 4.39692C3.3181 4.28308 4.59706 4.12758 6.27451 4.00729C6.27433 4.02562 6.27345 4.04378 6.27345 4.06218C6.27345 4.40679 6.29955 4.74764 6.35108 5.07509C6.45399 5.72899 7.00752 6.22199 7.66736 6.2472C8.47229 6.27811 9.78827 6.31484 11.4858 6.31484C13.1838 6.31484 14.4998 6.27811 15.3046 6.2472C15.9642 6.22199 16.5178 5.72923 16.6208 5.07562C16.6725 4.74811 16.6987 4.40714 16.6987 4.06218C16.6987 4.04384 16.6978 4.02562 16.6977 4.00735C18.3739 4.12764 19.6527 4.28308 20.4549 4.39692C20.8264 4.44969 21.1204 4.73353 21.1864 5.1033C21.4119 6.36826 21.8015 8.94656 21.987 12.4931C20.4092 11.3084 18.7191 10.9922 17.3028 11.6308C15.9032 12.2618 14.9997 13.7546 14.9448 15.5265C14.8998 16.9782 15.4044 18.4984 16.4041 19.9226C17.5525 21.5589 19.2906 22.9985 21.57 24.2012C21.6113 24.2229 21.6532 24.2429 21.6955 24.2616C21.5209 25.91 21.3246 27.1571 21.1867 27.9307C21.1207 28.3015 20.8265 28.5859 20.4548 28.6384C18.9493 28.8509 15.7821 29.2074 11.4855 29.2074C10.7053 29.2074 9.91961 29.1954 9.15 29.1717C9.14541 29.1716 9.14083 29.1715 9.13624 29.1715C8.89906 29.1715 8.70331 29.36 8.69596 29.5987C8.68844 29.842 8.87961 30.0453 9.1229 30.0528C9.90145 30.0768 10.6964 30.0889 11.4855 30.0889C15.8359 30.0889 19.0495 29.727 20.5779 29.5112C21.3281 29.4053 21.9214 28.8324 22.0545 28.0854C22.1928 27.3103 22.3884 26.0684 22.5635 24.434C22.872 24.4266 23.1793 24.3497 23.4605 24.2012C25.028 23.3742 26.3534 22.4231 27.3999 21.3744C27.5718 21.2022 27.5716 20.9231 27.3993 20.7512C27.2269 20.5792 26.9479 20.5794 26.776 20.7518C25.7921 21.7376 24.5382 22.6359 23.0492 23.4216C22.7148 23.598 22.3158 23.598 21.9814 23.4216C18.0388 21.3412 15.7377 18.3999 15.8259 15.5538C15.8703 14.1212 16.5751 12.9259 17.6652 12.4344C18.8532 11.8987 20.3336 12.2543 21.7266 13.4102C22.1837 13.7895 22.8471 13.7894 23.304 13.4102C25.0317 11.9767 26.8715 11.7908 28.1056 12.9249C28.7871 13.551 29.1777 14.4938 29.2054 15.5796C29.2372 16.8219 28.7944 18.1388 27.9248 19.3879C27.7858 19.5876 27.8349 19.8624 28.0347 20.0014C28.2345 20.1405 28.5092 20.0912 28.6483 19.8915C29.6258 18.4872 30.1232 16.9883 30.0866 15.557Z" fill="#414141"/>
<path d="M7.15157 29.0821C5.05328 28.9594 3.47303 28.7727 2.51689 28.6377C2.14507 28.5853 1.85099 28.3015 1.78512 27.9317C1.44762 26.0373 0.88151 22.0354 0.88151 16.5173C0.88151 13.8549 1.01468 11.247 1.27731 8.76617C1.30293 8.52411 1.12751 8.30708 0.885447 8.28145C0.643032 8.25571 0.426298 8.43131 0.400734 8.67331C0.134812 11.1849 0 13.824 0 16.5173C0 22.1031 0.574686 26.1632 0.91724 28.0863C1.05011 28.8323 1.64337 29.4047 2.39359 29.5106C3.36607 29.6479 4.97207 29.8377 7.10015 29.9622C7.10885 29.9627 7.1176 29.9629 7.12624 29.9629C7.3579 29.9629 7.55213 29.7821 7.56588 29.5479C7.5801 29.3049 7.39463 29.0964 7.15157 29.0821Z" fill="#414141"/>
<path d="M5.13537 23.9117C5.46653 23.9117 5.73592 24.1811 5.73592 24.5121C5.73592 24.8432 5.46653 25.1126 5.13537 25.1126C4.80422 25.1126 4.53483 24.8432 4.53483 24.5121C4.53483 24.1811 4.80422 23.9117 5.13537 23.9117ZM5.13537 25.9941C5.95253 25.9941 6.61743 25.3293 6.61743 24.5121C6.61743 23.695 5.95253 23.0302 5.13537 23.0302C4.31821 23.0302 3.65332 23.695 3.65332 24.5121C3.65332 25.3293 4.31821 25.9941 5.13537 25.9941Z" fill="#414141"/>
<path d="M16.6994 24.5114C16.6994 24.2679 16.5021 24.0706 16.2586 24.0706H8.51693C8.27345 24.0706 8.07617 24.2679 8.07617 24.5114C8.07617 24.7549 8.27345 24.9521 8.51693 24.9521H16.2586C16.5021 24.9521 16.6994 24.7549 16.6994 24.5114Z" fill="#414141"/>
<path d="M5.13537 9.81498C5.46653 9.81498 5.73592 10.0844 5.73592 10.4155C5.73592 10.7466 5.46653 11.016 5.13537 11.016C4.80422 11.016 4.53483 10.7466 4.53483 10.4155C4.53483 10.0844 4.80422 9.81498 5.13537 9.81498ZM5.13537 11.8975C5.95253 11.8975 6.61743 11.2326 6.61743 10.4155C6.61743 9.59825 5.95253 8.93347 5.13537 8.93347C4.31821 8.93347 3.65332 9.59825 3.65332 10.4155C3.65332 11.2326 4.31821 11.8975 5.13537 11.8975Z" fill="#414141"/>
<path d="M8.51693 10.8555H14.4567C14.7001 10.8555 14.8974 10.6582 14.8974 10.4147C14.8974 10.1712 14.7001 9.97396 14.4567 9.97396H8.51693C8.27345 9.97396 8.07617 10.1712 8.07617 10.4147C8.07617 10.6582 8.27345 10.8555 8.51693 10.8555Z" fill="#414141"/>
<path d="M5.13537 14.5201C5.46653 14.5201 5.73592 14.7894 5.73592 15.1205C5.73592 15.4516 5.46653 15.721 5.13537 15.721C4.80422 15.721 4.53483 15.4516 4.53483 15.1205C4.53483 14.7894 4.80422 14.5201 5.13537 14.5201ZM5.13537 16.6025C5.95253 16.6025 6.61743 15.9377 6.61743 15.1205C6.61743 14.3033 5.95253 13.6386 5.13537 13.6386C4.31821 13.6386 3.65332 14.3033 3.65332 15.1205C3.65332 15.9377 4.31821 16.6025 5.13537 16.6025Z" fill="#414141"/>
<path d="M8.51693 15.5625H12.3103C12.5537 15.5625 12.7511 15.3652 12.7511 15.1217C12.7511 14.8783 12.5537 14.681 12.3103 14.681H8.51693C8.27345 14.681 8.07617 14.8783 8.07617 15.1217C8.07617 15.3652 8.27345 15.5625 8.51693 15.5625Z" fill="#414141"/>
<path d="M5.13537 19.2124C5.46653 19.2124 5.73592 19.4818 5.73592 19.8129C5.73592 20.144 5.46653 20.4134 5.13537 20.4134C4.80422 20.4134 4.53483 20.144 4.53483 19.8129C4.53483 19.4818 4.80422 19.2124 5.13537 19.2124ZM5.13537 21.2949C5.95253 21.2949 6.61743 20.6301 6.61743 19.8129C6.61743 18.9957 5.95253 18.3309 5.13537 18.3309C4.31821 18.3309 3.65332 18.9957 3.65332 19.8129C3.65332 20.6301 4.31821 21.2949 5.13537 21.2949Z" fill="#414141"/>
<path d="M8.51693 20.2534H13.2959C13.5394 20.2534 13.7367 20.0561 13.7367 19.8127C13.7367 19.5692 13.5394 19.3719 13.2959 19.3719H8.51693C8.27345 19.3719 8.07617 19.5692 8.07617 19.8127C8.07617 20.0561 8.27345 20.2534 8.51693 20.2534Z" fill="#414141"/>
</g>
</g>
<defs>
<clipPath id="clip0_629_2349">
<rect width="30.0889" height="30.0889" fill="white"/>
</clipPath>
</defs>
</svg>
