<svg width="32" height="32" viewBox="0 0 32 32" fill="none" xmlns="http://www.w3.org/2000/svg">
<path d="M20.4808 20.7034C20.4808 19.278 20.4808 17.8428 20.4808 16.4174C20.4808 15.8258 20.6651 15.6416 21.2469 15.6416H27.3851C27.9087 15.6416 28.122 15.8549 28.122 16.3786V23.5058C28.122 23.7483 28.1608 23.8452 28.4323 23.8355C28.9269 23.8064 29.6929 23.8258 30.1875 23.8258C30.3426 23.8258 30.4784 23.8452 30.5463 24.0004C30.6142 24.1555 30.556 24.2719 30.459 24.3883C29.1305 25.9495 25.9596 29.2755 24.6311 30.8368C24.4275 31.0792 24.2723 31.0792 24.059 30.8271C22.7402 29.2755 19.6566 25.9592 18.3378 24.4077C18.2311 24.2816 18.1536 24.1555 18.2408 23.9907C18.3281 23.8258 18.4542 23.8258 18.6093 23.8258C19.1039 23.8258 19.6857 23.8064 20.1802 23.8355C20.4517 23.8452 20.5002 23.7483 20.5002 23.5058C20.4808 22.0416 20.4808 22.1677 20.4808 20.7034Z" fill="#8B8B8B"/>
<path d="M14.1285 22.3131C13.9927 22.2258 13.9248 22.0609 13.9442 21.9058C13.9539 21.4694 13.9442 21.0428 13.9539 20.6064C13.9539 20.49 13.9151 20.4512 13.8085 20.4415C12.8969 20.3058 12.0339 19.947 11.2969 19.404C11.0836 19.2585 10.8897 19.0937 10.7151 18.9094C10.5794 18.7543 10.56 18.6282 10.686 18.4634C10.9672 18.0852 11.2485 17.7167 11.5394 17.3482C11.6945 17.1543 11.8497 17.1349 12.0436 17.2997C12.6448 17.8428 13.3721 18.2209 14.1576 18.3955C14.8169 18.5312 15.4473 18.4925 16.0485 18.1337C16.6788 17.7555 16.9891 16.7567 16.1648 16.1167C15.7382 15.787 15.2339 15.5931 14.7297 15.3797C14.0994 15.1179 13.4594 14.8852 12.8582 14.5652C12.2569 14.2452 11.7236 13.8573 11.326 13.2949C10.9091 12.7034 10.7345 11.9858 10.8218 11.2682C10.9769 9.87184 11.8206 9.01851 13.0424 8.47548C13.2945 8.36881 13.5563 8.29124 13.8279 8.24275C13.9345 8.22336 13.9442 8.17488 13.9442 8.0876C13.9442 7.62215 13.9442 7.147 13.9442 6.68154C13.9442 6.42942 14.0509 6.32275 14.303 6.32275H15.3891C15.6121 6.32275 15.7091 6.41972 15.7091 6.64275V8.04881C15.7091 8.14578 15.7382 8.18457 15.8351 8.19427C16.7563 8.30094 17.6291 8.66942 18.3563 9.24154C18.3951 9.27063 18.4339 9.30942 18.4727 9.34821C18.6376 9.50336 18.6569 9.59063 18.5406 9.78457C18.3176 10.1918 18.0945 10.5894 17.8715 10.9967C17.7454 11.2197 17.5709 11.2585 17.3576 11.0937C17.0763 10.8706 16.7757 10.6767 16.446 10.5215C15.7382 10.1918 15.0109 10.0464 14.2448 10.25C13.7309 10.3858 13.2848 10.6282 13.1103 11.1809C12.9648 11.6367 13.1103 12.0731 13.4691 12.3834C13.9345 12.8003 14.5066 13.0137 15.0788 13.2367C15.7673 13.5082 16.4557 13.77 17.1151 14.1191C17.5806 14.3615 17.9879 14.6912 18.3176 15.0888C18.6763 15.5252 18.8412 16.0488 18.8897 16.6112C18.8897 16.6694 18.8994 16.7373 18.8994 16.7955C18.9285 16.8537 18.8897 16.9312 18.9285 16.9894V17.0864C18.8897 17.3094 18.9091 17.5421 18.8509 17.7652C18.7054 18.3276 18.4339 18.8415 18.0363 19.2779C17.4642 19.9179 16.7369 20.2864 15.9127 20.4706C15.8157 20.4706 15.7479 20.5579 15.7479 20.6549V20.6743C15.7576 21.1009 15.7479 21.5373 15.7479 21.9737C15.7479 22.1385 15.6897 22.2646 15.5151 22.3131H14.1285Z" fill="#8B8B8B"/>
<path d="M15.6804 24.6111C15.3798 24.6402 15.0695 24.6499 14.7592 24.6499C9.05736 24.6499 4.43191 20.0244 4.43191 14.3226C4.43191 8.62078 9.05736 3.99533 14.7592 3.99533C20.461 3.99533 25.0865 8.62078 25.0865 14.3226H28.0925V14.3129C28.0828 7.05957 22.0125 0.98927 14.7689 0.98927C7.40888 0.979573 1.43555 6.94321 1.43555 14.3032V14.3226C1.43555 21.5759 7.51555 27.6462 14.7592 27.6462C15.9422 27.6462 17.1252 27.4911 18.2695 27.1808L15.6804 24.6111Z" fill="#8B8B8B"/>
</svg>
