<svg width="48" height="48" viewBox="0 0 48 48" fill="none" xmlns="http://www.w3.org/2000/svg">
<rect width="48" height="48" rx="24" fill="#F0F3FA"/>
<g clip-path="url(#clip0_632_1019)">
<path d="M22.4752 16.566H17.7923L14.9991 10.8195C14.8926 10.6003 15.1034 10.3614 15.3343 10.4402C16.4832 10.8321 18.1317 11.2366 20.1338 11.2366C22.1358 11.2366 23.7844 10.8321 24.9333 10.4402C25.1642 10.3614 25.3749 10.6003 25.2685 10.8195L22.4752 16.566Z" fill="#D77F4A"/>
<path d="M24.9327 10.4402C24.5341 10.5761 24.074 10.7132 23.5611 10.8348L20.7754 16.5661H22.4746L25.2678 10.8195C25.3743 10.6004 25.1636 10.3614 24.9327 10.4402Z" fill="#C86D36"/>
<path d="M25.9386 38.5756H14.3284C12.1725 38.5756 10.4248 36.8309 10.4248 34.6787C10.4248 34.0623 10.5713 33.4547 10.8522 32.9058L17.6356 19.6514H22.6315L29.4148 32.9058C29.6958 33.4547 29.8422 34.0623 29.8422 34.6787C29.8422 36.8309 28.0945 38.5756 25.9386 38.5756Z" fill="#D77F4A"/>
<path d="M29.4152 32.9058L22.6318 19.6514H20.9326L27.716 32.9058C27.9969 33.4547 28.1434 34.0623 28.1434 34.6787C28.1434 36.8309 26.3957 38.5756 24.2397 38.5756H25.939C28.0949 38.5756 29.8426 36.8309 29.8426 34.6787C29.8426 34.0623 29.6961 33.4548 29.4152 32.9058Z" fill="#C86D36"/>
<path d="M22.6315 17.5938H17.6356C17.0667 17.5938 16.6055 18.0541 16.6055 18.6221C16.6055 19.19 17.0666 19.6504 17.6356 19.6504H22.6315C23.2004 19.6504 23.6616 19.19 23.6616 18.6221C23.6616 18.0542 23.2004 17.5938 22.6315 17.5938Z" fill="#ECBBA3"/>
<path d="M22.6318 17.5938H20.9326C21.5015 17.5938 21.9627 18.0542 21.9627 18.6221C21.9627 19.19 21.5016 19.6504 20.9326 19.6504H22.6318C23.2007 19.6504 23.662 19.19 23.662 18.6221C23.6619 18.0542 23.2007 17.5938 22.6318 17.5938Z" fill="#E8AD8C"/>
<path d="M22.6315 15.5376H17.6356C17.0667 15.5376 16.6055 15.998 16.6055 16.5659C16.6055 17.1338 17.0666 17.5942 17.6356 17.5942H22.6315C23.2004 17.5942 23.6616 17.1338 23.6616 16.5659C23.6616 15.998 23.2004 15.5376 22.6315 15.5376Z" fill="#E8AD8C"/>
<path d="M22.6318 15.5376H20.9326C21.5015 15.5376 21.9627 15.998 21.9627 16.5659C21.9627 17.1338 21.5016 17.5942 20.9326 17.5942H22.6318C23.2007 17.5942 23.662 17.1338 23.662 16.5659C23.6619 15.998 23.2007 15.5376 22.6318 15.5376Z" fill="#E19974"/>
<path d="M20.1341 35.1305C22.3262 35.1305 24.1032 33.3566 24.1032 31.1683C24.1032 28.98 22.3262 27.2061 20.1341 27.2061C17.9421 27.2061 16.165 28.98 16.165 31.1683C16.165 33.3566 17.9421 35.1305 20.1341 35.1305Z" fill="#FFE967"/>
<path d="M20.1338 27.2061C19.842 27.2061 19.558 27.2383 19.2842 27.298C21.0678 27.6864 22.4037 29.2712 22.4037 31.1682C22.4037 33.0653 21.0678 34.6501 19.2842 35.0385C19.558 35.0982 19.842 35.1305 20.1338 35.1305C22.3258 35.1305 24.1029 33.3565 24.1029 31.1682C24.1029 28.98 22.3259 27.2061 20.1338 27.2061Z" fill="#FFD15B"/>
<path d="M29.8417 34.6779C29.8417 34.0615 29.6952 33.454 29.4143 32.905L26.3152 26.8496H25.2861C24.8169 26.8496 24.4365 27.23 24.4365 27.6992V29.9084C24.4365 30.3776 24.8169 30.758 25.2861 30.758C24.8169 30.758 24.4365 31.1384 24.4365 31.6076V33.8168C24.4365 34.286 24.8169 34.6664 25.2861 34.6664C24.8169 34.6664 24.4365 35.0468 24.4365 35.516V37.7252C24.4365 38.1944 24.8169 38.5748 25.2861 38.5748H25.9381C28.094 38.5748 29.8417 36.8301 29.8417 34.6779Z" fill="#C86D36"/>
<path d="M37.725 30.758H26.9854C26.5161 30.758 26.1357 30.3776 26.1357 29.9084V27.6992C26.1357 27.23 26.5161 26.8496 26.9854 26.8496H37.725C38.1942 26.8496 38.5746 27.23 38.5746 27.6992V29.9084C38.5746 30.3776 38.1943 30.758 37.725 30.758Z" fill="#FFE967"/>
<path d="M37.725 26.8496H36.8754V28.5864C36.8754 29.0556 36.495 29.436 36.0258 29.436H26.1357V29.9084C26.1357 30.3776 26.5161 30.758 26.9854 30.758H37.725C38.1942 30.758 38.5746 30.3776 38.5746 29.9084V27.6992C38.5746 27.23 38.1943 26.8496 37.725 26.8496Z" fill="#FFD15B"/>
<path d="M37.725 34.6672H26.9854C26.5161 34.6672 26.1357 34.2868 26.1357 33.8176V31.6084C26.1357 31.1392 26.5161 30.7588 26.9854 30.7588H37.725C38.1942 30.7588 38.5746 31.1392 38.5746 31.6084V33.8176C38.5746 34.2868 38.1943 34.6672 37.725 34.6672Z" fill="#FFE967"/>
<path d="M37.725 30.7588H36.8754V32.4956C36.8754 32.9648 36.495 33.3452 36.0258 33.3452H26.1357V33.8176C26.1357 34.2868 26.5161 34.6672 26.9854 34.6672H37.725C38.1942 34.6672 38.5746 34.2868 38.5746 33.8176V31.6084C38.5746 31.1392 38.1943 30.7588 37.725 30.7588Z" fill="#FFD15B"/>
<path d="M37.725 38.5754H26.9854C26.5161 38.5754 26.1357 38.195 26.1357 37.7258V35.5166C26.1357 35.0474 26.5161 34.667 26.9854 34.667H37.725C38.1942 34.667 38.5746 35.0474 38.5746 35.5166V37.7258C38.5746 38.195 38.1943 38.5754 37.725 38.5754Z" fill="#FFE967"/>
<path d="M37.725 34.667H36.8754V36.4038C36.8754 36.873 36.495 37.2534 36.0258 37.2534H26.1357V37.7258C26.1357 38.195 26.5161 38.5754 26.9854 38.5754H37.725C38.1942 38.5754 38.5746 38.195 38.5746 37.7258V35.5166C38.5746 35.0474 38.1943 34.667 37.725 34.667Z" fill="#FFD15B"/>
<path d="M23.9209 22.1704L25.6269 20.4644C25.7742 20.3177 26.0092 20.3086 26.1661 20.444L31.718 25.2261C31.8823 25.3677 32.1298 25.3507 32.2737 25.1888L38.575 18.0713" stroke="black" stroke-width="0.849608" stroke-miterlimit="10" stroke-linecap="round" stroke-linejoin="round"/>
<path d="M36.4424 18.0713H38.5749V20.2039" stroke="black" stroke-width="0.849608" stroke-miterlimit="10" stroke-linecap="round" stroke-linejoin="round"/>
<path d="M17.3171 15.5882L14.9993 10.8196C14.8923 10.6004 15.1035 10.3614 15.3341 10.4402C16.4833 10.8321 18.1316 11.2365 20.1338 11.2365C22.136 11.2365 23.7843 10.8321 24.9335 10.4402C25.1641 10.3614 25.3748 10.6004 25.2683 10.8196L22.9505 15.5882" stroke="black" stroke-width="0.849608" stroke-miterlimit="10" stroke-linecap="round" stroke-linejoin="round"/>
<path d="M15.7363 23.3637L17.6362 19.6514H22.6319L26.4245 27.0622" stroke="black" stroke-width="0.849608" stroke-miterlimit="10" stroke-linecap="round" stroke-linejoin="round"/>
<path d="M26.6574 38.5084C26.4246 38.552 26.1845 38.5747 25.9387 38.5747H14.3285C12.1727 38.5747 10.4248 36.8302 10.4248 34.6778C10.4248 34.3697 10.4616 34.0638 10.5336 33.7659C10.6049 33.4685 10.712 33.1791 10.8524 32.905L14.8278 25.1372" stroke="black" stroke-width="0.849608" stroke-miterlimit="10" stroke-linecap="round" stroke-linejoin="round"/>
<path d="M22.6315 17.5938H17.6356C17.0667 17.5938 16.6055 18.0541 16.6055 18.6221C16.6055 19.19 17.0666 19.6504 17.6356 19.6504H22.6315C23.2004 19.6504 23.6616 19.19 23.6616 18.6221C23.6616 18.0542 23.2004 17.5938 22.6315 17.5938Z" stroke="black" stroke-width="0.849608" stroke-miterlimit="10" stroke-linecap="round" stroke-linejoin="round"/>
<path d="M22.6315 15.5376H17.6356C17.0667 15.5376 16.6055 15.998 16.6055 16.5659C16.6055 17.1338 17.0666 17.5942 17.6356 17.5942H22.6315C23.2004 17.5942 23.6616 17.1338 23.6616 16.5659C23.6616 15.998 23.2004 15.5376 22.6315 15.5376Z" stroke="black" stroke-width="0.849608" stroke-miterlimit="10" stroke-linecap="round" stroke-linejoin="round"/>
<path d="M20.1341 35.1305C22.3262 35.1305 24.1032 33.3566 24.1032 31.1683C24.1032 28.98 22.3262 27.2061 20.1341 27.2061C17.9421 27.2061 16.165 28.98 16.165 31.1683C16.165 33.3566 17.9421 35.1305 20.1341 35.1305Z" stroke="black" stroke-width="0.849608" stroke-miterlimit="10" stroke-linecap="round" stroke-linejoin="round"/>
<path d="M19.1973 33.0387H20.6775C20.8946 33.0387 21.0707 32.863 21.0707 32.6461V32.2147V31.5611C21.0707 31.3443 20.8947 31.1686 20.6775 31.1686H19.5905C19.3734 31.1686 19.1973 30.9928 19.1973 30.776V29.6909C19.1973 29.4741 19.3733 29.2983 19.5905 29.2983H21.0707" stroke="black" stroke-width="0.849608" stroke-miterlimit="10" stroke-linecap="round" stroke-linejoin="round"/>
<path d="M20.1338 29.2992V28.6782" stroke="black" stroke-width="0.849608" stroke-miterlimit="10" stroke-linecap="round" stroke-linejoin="round"/>
<path d="M20.1338 33.6606V33.0396" stroke="black" stroke-width="0.849608" stroke-miterlimit="10" stroke-linecap="round" stroke-linejoin="round"/>
<path d="M32.7514 26.8496H37.725C38.1942 26.8496 38.5746 27.23 38.5746 27.6992V29.9084C38.5746 30.3776 38.1942 30.758 37.725 30.758H26.9854C26.5161 30.758 26.1357 30.3776 26.1357 29.9084V27.6992C26.1357 27.23 26.5161 26.8496 26.9854 26.8496H30.769" stroke="black" stroke-width="0.849608" stroke-miterlimit="10" stroke-linecap="round" stroke-linejoin="round"/>
<path d="M37.725 34.6672H26.9854C26.5161 34.6672 26.1357 34.2868 26.1357 33.8176V31.6084C26.1357 31.1392 26.5161 30.7588 26.9854 30.7588H37.725C38.1942 30.7588 38.5746 31.1392 38.5746 31.6084V33.8176C38.5746 34.2868 38.1943 34.6672 37.725 34.6672Z" stroke="black" stroke-width="0.849608" stroke-miterlimit="10" stroke-linecap="round" stroke-linejoin="round"/>
<path d="M37.725 38.5754H26.9854C26.5161 38.5754 26.1357 38.195 26.1357 37.7258V35.5166C26.1357 35.0474 26.5161 34.667 26.9854 34.667H37.725C38.1942 34.667 38.5746 35.0474 38.5746 35.5166V37.7258C38.5746 38.195 38.1943 38.5754 37.725 38.5754Z" stroke="black" stroke-width="0.849608" stroke-miterlimit="10" stroke-linecap="round" stroke-linejoin="round"/>
</g>
<defs>
<clipPath id="clip0_632_1019">
<rect width="29" height="29" fill="white" transform="translate(10 10)"/>
</clipPath>
</defs>
</svg>
