<svg width="48" height="48" viewBox="0 0 48 48" fill="none" xmlns="http://www.w3.org/2000/svg">
<rect width="48" height="48" rx="24" fill="#F0F3FA"/>
<g clip-path="url(#clip0_632_1095)">
<path d="M24.726 32.2568V35.1831C24.726 37.0563 23.2021 38.5802 21.3288 38.5802C19.4556 38.5802 17.9316 37.0563 17.9316 35.1831C17.9316 34.672 18.3464 34.2573 18.8575 34.2573C19.3685 34.2573 19.7833 34.672 19.7833 35.1831C19.7833 36.0355 20.4764 36.7286 21.3288 36.7286C22.1812 36.7286 22.8743 36.0355 22.8743 35.1831V32.2568L23.5763 30.7417L24.726 32.2568Z" fill="#54469C"/>
<path d="M24.7267 14.8648V32.258H22.875V14.8648C22.875 14.3537 23.2898 13.939 23.8008 13.939C24.3125 13.939 24.7267 14.3537 24.7267 14.8648Z" fill="#B3DAFE"/>
<path d="M22.8753 19.0557V35.183C22.8753 36.0353 22.1822 36.7291 21.3298 36.7291C20.4774 36.7291 19.7843 36.0353 19.7843 35.183C19.7843 34.6719 19.3695 34.2571 18.8584 34.2571C18.3468 34.2571 17.9326 34.6719 17.9326 35.183C17.9326 37.0562 19.4565 38.5807 21.3298 38.5807C22.8302 38.5807 24.1073 37.6024 24.5554 36.2495" stroke="black" stroke-width="0.925827" stroke-miterlimit="10" stroke-linecap="round" stroke-linejoin="round"/>
<path d="M24.7266 34.1028V19.0557" stroke="black" stroke-width="0.925827" stroke-miterlimit="10" stroke-linecap="round" stroke-linejoin="round"/>
<path d="M15.0647 33.7344C17.6381 33.7344 19.7242 31.6483 19.7242 29.075C19.7242 26.5016 17.6381 24.4155 15.0647 24.4155C12.4914 24.4155 10.4053 26.5016 10.4053 29.075C10.4053 31.6483 12.4914 33.7344 15.0647 33.7344Z" fill="#FFE177"/>
<path d="M15.8448 33.6689C15.5918 33.7121 15.3313 33.7343 15.0653 33.7343C12.4915 33.7343 10.4053 31.6481 10.4053 29.0749C10.4053 26.5017 12.4915 24.4155 15.0653 24.4155C15.3313 24.4155 15.5918 24.4377 15.8448 24.481C13.6426 24.8513 11.965 26.7671 11.965 29.0749C11.965 31.3827 13.6425 33.2985 15.8448 33.6689Z" fill="#FEC165"/>
<path d="M11.4805 26.0981C12.3347 25.0698 13.6234 24.4155 15.0647 24.4155C17.6378 24.4155 19.724 26.5017 19.724 29.0749C19.724 31.6481 17.6378 33.7343 15.0647 33.7343C12.4915 33.7343 10.4053 31.6481 10.4053 29.0749C10.4053 28.7132 10.4466 28.3608 10.5244 28.0225" stroke="black" stroke-width="0.925827" stroke-miterlimit="10" stroke-linecap="round" stroke-linejoin="round"/>
<path d="M15.892 27.2027C15.8126 27.1366 15.3576 26.7935 14.6901 26.9946C14.0138 27.1983 13.8459 28.1236 14.3055 28.484C14.5693 28.691 14.9664 28.8612 15.5015 29.0503C16.6992 29.4737 16.2564 31.1627 15.0382 31.1709C14.5627 31.174 14.3405 31.1438 13.9229 30.8706" stroke="black" stroke-width="0.925827" stroke-miterlimit="10" stroke-linecap="round" stroke-linejoin="round"/>
<path d="M15.0381 31.7874V31.1709" stroke="black" stroke-width="0.925827" stroke-miterlimit="10" stroke-linecap="round" stroke-linejoin="round"/>
<path d="M15.0381 26.9342V26.3623" stroke="black" stroke-width="0.925827" stroke-miterlimit="10" stroke-linecap="round" stroke-linejoin="round"/>
<path d="M32.4475 37.7803C35.0209 37.7803 37.107 35.6942 37.107 33.1209C37.107 30.5475 35.0209 28.4614 32.4475 28.4614C29.8742 28.4614 27.7881 30.5475 27.7881 33.1209C27.7881 35.6942 29.8742 37.7803 32.4475 37.7803Z" fill="#FFE177"/>
<path d="M33.2276 37.7148C32.9746 37.758 32.7141 37.7802 32.4481 37.7802C29.8743 37.7802 27.7881 35.694 27.7881 33.1208C27.7881 30.5476 29.8743 28.4614 32.4481 28.4614C32.7141 28.4614 32.9746 28.4836 33.2276 28.5269C31.0254 28.8972 29.3478 30.813 29.3478 33.1208C29.3478 35.4286 31.0254 37.3444 33.2276 37.7148Z" fill="#FEC165"/>
<path d="M32.4475 37.7803C35.0209 37.7803 37.107 35.6942 37.107 33.1209C37.107 30.5475 35.0209 28.4614 32.4475 28.4614C29.8742 28.4614 27.7881 30.5475 27.7881 33.1209C27.7881 35.6942 29.8742 37.7803 32.4475 37.7803Z" stroke="black" stroke-width="0.925827" stroke-miterlimit="10" stroke-linecap="round" stroke-linejoin="round"/>
<path d="M33.2748 31.2491C33.1954 31.183 32.7404 30.8399 32.0729 31.041C31.3966 31.2447 31.2287 32.17 31.6883 32.5304C31.9521 32.7374 32.3492 32.9076 32.8843 33.0967C34.082 33.5201 33.6392 35.2091 32.421 35.2172C31.9455 35.2203 31.7233 35.1901 31.3057 34.917" stroke="black" stroke-width="0.925827" stroke-miterlimit="10" stroke-linecap="round" stroke-linejoin="round"/>
<path d="M32.4209 35.8327V35.2163" stroke="black" stroke-width="0.925827" stroke-miterlimit="10" stroke-linecap="round" stroke-linejoin="round"/>
<path d="M32.4209 30.9795V30.4077" stroke="black" stroke-width="0.925827" stroke-miterlimit="10" stroke-linecap="round" stroke-linejoin="round"/>
<path d="M26.8683 20.7062C26.4834 19.692 25.2555 18.9516 23.8013 18.9516C22.3471 18.9516 21.1182 19.6919 20.7332 20.7062C20.3482 19.692 19.1203 18.9516 17.6662 18.9516C16.212 18.9516 14.9831 19.6919 14.598 20.7062C14.2131 19.692 12.9852 18.9516 11.531 18.9516C10.0769 18.9516 8.84785 19.6919 8.46289 20.7062C8.46289 14.2526 15.3299 9.021 23.8008 9.021C32.2716 9.021 39.1386 14.2527 39.1386 20.7062C38.7537 19.692 37.5258 18.9516 36.0716 18.9516C34.6174 18.9516 33.3885 19.6919 33.0035 20.7062C32.6185 19.692 31.3906 18.9516 29.9365 18.9516C28.4822 18.9516 27.2533 19.6919 26.8683 20.7062Z" fill="#FE5694"/>
<path d="M23.8008 9.021C20.1981 9.021 17.2187 13.3847 16.7299 19.0576C15.7035 19.2964 14.8968 19.9192 14.598 20.7062C14.2129 19.6921 12.9852 18.9514 11.5305 18.9514C10.0763 18.9514 8.84742 19.6921 8.46289 20.7062C8.46289 14.2525 15.3294 9.021 23.8008 9.021Z" fill="#FD3581"/>
<path d="M26.8683 20.7062C26.4834 19.692 25.2555 18.9516 23.8013 18.9516C22.3471 18.9516 21.1182 19.6919 20.7332 20.7062C20.3482 19.692 19.1203 18.9516 17.6662 18.9516C16.212 18.9516 14.9831 19.6919 14.598 20.7062C14.2131 19.692 12.9852 18.9516 11.531 18.9516C10.0769 18.9516 8.84785 19.6919 8.46289 20.7062C8.46289 14.2526 15.3299 9.021 23.8008 9.021C32.2716 9.021 39.1386 14.2527 39.1386 20.7062C38.7537 19.692 37.5258 18.9516 36.0716 18.9516C34.6174 18.9516 33.3885 19.6919 33.0035 20.7062C32.6185 19.692 31.3906 18.9516 29.9365 18.9516C28.4822 18.9516 27.2533 19.6919 26.8683 20.7062Z" stroke="black" stroke-width="0.925827" stroke-miterlimit="10" stroke-linecap="round" stroke-linejoin="round"/>
<path d="M14.5977 20.7067C14.5977 14.2536 18.7176 9.02148 23.8004 9.02148C26.4489 9.02148 28.8356 10.4423 30.5145 12.7155" stroke="black" stroke-width="0.925827" stroke-miterlimit="10" stroke-linecap="round" stroke-linejoin="round"/>
<path d="M33.0036 20.7068C33.0036 18.4231 32.4876 16.2925 31.5957 14.4927" stroke="black" stroke-width="0.925827" stroke-miterlimit="10" stroke-linecap="round" stroke-linejoin="round"/>
<path d="M26.8685 20.7067C26.8685 14.2531 25.4952 9.02148 23.801 9.02148C22.1068 9.02148 20.7334 14.2531 20.7334 20.7067" stroke="black" stroke-width="0.925827" stroke-miterlimit="10" stroke-linecap="round" stroke-linejoin="round"/>
<path d="M22.875 32.2578H24.7267" stroke="black" stroke-width="0.925827" stroke-miterlimit="10" stroke-linecap="round" stroke-linejoin="round"/>
<path d="M32.2295 24.0571V27.0092" stroke="black" stroke-width="0.925827" stroke-miterlimit="10" stroke-linecap="round" stroke-linejoin="round"/>
<path d="M16.8613 21.3481V23.1384" stroke="black" stroke-width="0.925827" stroke-miterlimit="10" stroke-linecap="round" stroke-linejoin="round"/>
<path d="M11.582 21.1006V24.1121" stroke="black" stroke-width="0.925827" stroke-miterlimit="10" stroke-linecap="round" stroke-linejoin="round"/>
<path d="M34.6982 22.1797V27.1786" stroke="black" stroke-width="0.925827" stroke-miterlimit="10" stroke-linecap="round" stroke-linejoin="round"/>
</g>
<defs>
<clipPath id="clip0_632_1095">
<rect width="31.6016" height="31.6016" fill="white" transform="translate(8 8)"/>
</clipPath>
</defs>
</svg>
