<svg width="48" height="48" viewBox="0 0 48 48" fill="none" xmlns="http://www.w3.org/2000/svg">
<rect width="48" height="48" rx="24" fill="#F0F3FA"/>
<path fill-rule="evenodd" clip-rule="evenodd" d="M12.2184 15.9642L21.3732 13.6518C22.1459 13.4567 22.9403 13.9302 23.1361 14.7054L23.3298 15.4725C23.525 16.2452 23.0516 17.0395 22.2763 17.2354L13.0156 19.5733C12.6473 19.6511 12.2774 19.5793 11.9727 19.3974C11.6532 19.2068 11.4058 18.8946 11.308 18.507L11.1014 17.6847C11.0236 17.3164 11.0954 16.9465 11.2773 16.6417C11.4887 16.2874 11.7988 16.0702 12.2184 15.9642Z" fill="#262626"/>
<path fill-rule="evenodd" clip-rule="evenodd" d="M29.4587 14.2073C29.9565 15.0585 30.2618 16.0176 30.3828 17.0096C30.5166 16.7954 30.6616 16.5884 30.8159 16.3904C30.8371 16.3631 30.8584 16.3361 30.8801 16.3092L31.0097 15.7253C31.4904 14.1322 32.2582 13.112 33.3463 12.5112C34.4154 11.9209 35.7699 11.758 37.4493 11.8676C37.699 11.8835 37.8756 12.1186 37.8233 12.3618H37.8236C37.4388 14.1212 36.7544 15.3901 35.7705 16.1689C34.7704 16.9605 33.4872 17.2321 31.9209 16.9837L31.4559 16.8966C30.9681 17.5238 30.5872 18.2477 30.3928 19.0019H32.9702C33.2778 19.0019 33.5671 19.0801 33.8208 19.2265C34.6061 19.6798 34.9276 20.7068 34.441 21.5498L33.4299 23.301C34.6149 23.3508 35.1992 24.7992 34.3457 25.6527C34.2629 25.7355 34.1697 25.8078 34.0683 25.8676C36.3823 27.5485 37.6689 30.4025 37.6689 33.3454C37.6689 38.3325 34.0051 39.3857 29.8048 39.3857C27.4726 39.3857 24.8254 39.094 23.3335 37.3162C22.2809 38.2186 20.9131 38.7638 19.4181 38.7638C17.8174 38.7638 16.3627 38.1389 15.2845 37.1198H11.8027C11.0029 37.1198 10.3499 36.467 10.3499 35.6671V34.8759C10.3499 34.6468 10.4035 34.4298 10.4988 34.2367C9.76252 34.1692 9.01448 33.5592 9.01448 32.7818V31.9907C9.01448 31.3023 9.5006 30.7141 10.1594 30.5709C10.0521 30.3673 9.99109 30.1366 9.99109 29.8938V29.1026C9.99109 28.8588 10.0517 28.6286 10.1587 28.4265C9.4899 28.2883 8.99512 27.7017 8.99512 27.0059V26.2148C8.99512 25.4149 9.64801 24.762 10.4479 24.762H11.4019C11.306 24.567 11.2519 24.348 11.2519 24.1181V23.3269C11.2519 22.5271 11.9049 21.8741 12.7047 21.8741H22.1993C22.9992 21.8741 23.6521 22.5271 23.6521 23.3269V24.1181C23.6521 24.9171 23.0026 25.5657 22.2009 25.5693L21.2455 25.5736C21.3414 25.7672 21.3953 25.9849 21.3953 26.2148L21.3942 27.0576C22.1796 27.3305 22.8911 27.7615 23.4905 28.3124C24.0698 27.3565 24.8218 26.5173 25.7164 25.8675C24.9416 25.4111 24.7968 24.3468 25.4391 23.7045C25.676 23.4677 25.9984 23.316 26.3548 23.301L25.3438 21.5498C25.1881 21.28 25.1102 20.9907 25.1102 20.7015C25.1102 19.7962 25.8489 19.0019 26.8146 19.0019H29.5523C29.558 18.976 29.5638 18.9501 29.5699 18.9242C29.7261 17.6539 29.5577 16.3767 29.0795 15.2684C29.0126 15.1131 28.9394 14.9613 28.8603 14.8133C27.1318 14.823 25.677 14.3604 24.7115 13.1792C23.9242 12.2161 23.5285 10.8417 23.5244 9.05634C23.5118 8.76814 23.7441 8.57894 23.993 8.61658C27.2228 9.10443 29.2021 10.3746 29.4595 13.7806H29.4584L29.4587 14.2073Z" fill="#262626"/>
<path fill-rule="evenodd" clip-rule="evenodd" d="M26.9139 12.7458C26.7195 12.631 26.6551 12.3802 26.7699 12.1859C26.8848 11.9916 27.1354 11.9271 27.3298 12.0419C27.7769 12.3074 28.1771 12.6254 28.5296 12.9854C28.0874 10.7589 26.591 9.92333 24.3506 9.50684C24.4702 12.1678 25.6002 13.8116 28.3179 13.982C27.9326 13.4933 27.4638 13.0725 26.9139 12.7458Z" fill="#64AD64"/>
<path fill-rule="evenodd" clip-rule="evenodd" d="M35.2649 15.5301C36.0086 14.9415 36.5569 13.9849 36.9098 12.6605C34.6657 12.589 33.0276 13.0703 32.1119 15.0998C32.5203 14.7867 32.9505 14.5322 33.3829 14.3524C33.5914 14.2658 33.8306 14.3646 33.9173 14.5731C34.0038 14.7816 33.905 15.0209 33.6965 15.1075C33.1441 15.3371 32.5929 15.7118 32.0977 16.1859C33.4063 16.3841 34.462 16.1655 35.265 15.5301H35.2649Z" fill="#64AD64"/>
<path fill-rule="evenodd" clip-rule="evenodd" d="M27.2953 23.3016H32.4884L33.7334 21.1452C33.8953 20.8648 33.8955 20.5432 33.7341 20.2626L33.7334 20.263C33.5679 19.9765 33.301 19.8228 32.9697 19.8228H26.8141C26.4829 19.8228 26.2158 19.9765 26.0503 20.263L26.0496 20.2626C25.8882 20.5433 25.8884 20.8648 26.0503 21.1452L27.2953 23.3016Z" fill="#78A678"/>
<path fill-rule="evenodd" clip-rule="evenodd" d="M32.8453 26.0586H26.9408C26.3376 26.3862 25.7807 26.812 25.2859 27.3182C24.8237 27.791 24.4162 28.3337 24.0756 28.9322C25.951 31.2194 25.8834 34.5332 23.9189 36.7432C25.2147 38.34 27.712 38.5679 29.8056 38.5679C31.7744 38.5679 33.5682 38.3412 34.8458 37.5643C36.0797 36.814 36.8506 35.5156 36.8506 33.3466C36.8506 30.3641 35.3974 27.4445 32.8454 26.0586H32.8453ZM30.3321 36.5537C30.3321 36.7799 30.1487 36.9633 29.9225 36.9633C29.6963 36.9633 29.513 36.7799 29.513 36.5537V35.9962C28.5289 35.8508 27.7002 35.0787 27.7002 34.0709C27.7002 33.8447 27.8835 33.6613 28.1097 33.6613C28.3359 33.6613 28.5193 33.8447 28.5193 34.0709C28.5193 35.0863 29.9974 35.5901 30.8353 34.8537C31.0657 34.6512 31.2082 34.3742 31.2082 34.0709C31.2082 32.1671 27.759 33.7432 27.759 30.9889C27.759 30.0019 28.5553 29.2394 29.513 29.0731V28.5061C29.513 28.2799 29.6963 28.0965 29.9225 28.0965C30.1487 28.0965 30.3321 28.2799 30.3321 28.5061V29.0731C31.2898 29.2394 32.0861 30.0018 32.0861 30.9889C32.0861 31.2151 31.9027 31.3985 31.6765 31.3985C31.4503 31.3985 31.267 31.2151 31.267 30.9889C31.267 29.9736 29.7889 29.4698 28.951 30.2062C28.7206 30.4086 28.578 30.6856 28.578 30.9889C28.578 32.8637 32.0273 31.2968 32.0273 34.0709C32.0273 35.0371 31.2632 35.7897 30.3321 35.9758V36.5537Z" fill="#5C825C"/>
<path fill-rule="evenodd" clip-rule="evenodd" d="M32.8439 26.0586H26.9394C26.3361 26.3862 25.7793 26.812 25.2845 27.3182C24.8223 27.791 24.4147 28.3337 24.0742 28.9322C25.6131 30.809 25.8434 33.3768 24.7913 35.459C25.5667 35.5609 26.3574 35.6143 27.1606 35.6143C27.6028 35.6143 28.041 35.5976 28.4751 35.5663C28.009 35.2157 27.6988 34.6875 27.6988 34.0709C27.6988 33.8447 27.8822 33.6613 28.1084 33.6613C28.3346 33.6613 28.5179 33.8447 28.5179 34.0709C28.5179 35.0863 29.996 35.5901 30.8339 34.8537C31.0643 34.6512 31.2069 34.3742 31.2069 34.0709C31.2069 32.1671 27.7576 33.7432 27.7576 30.9889C27.7576 30.0019 28.5539 29.2394 29.5116 29.0731V28.5061C29.5116 28.2799 29.695 28.0965 29.9212 28.0965C30.1474 28.0965 30.3307 28.2799 30.3307 28.5061V29.0731C31.2884 29.2394 32.0847 30.0018 32.0847 30.9889C32.0847 31.2151 31.9014 31.3985 31.6752 31.3985C31.449 31.3985 31.2656 31.2151 31.2656 30.9889C31.2656 29.9736 29.7876 29.4698 28.9496 30.2062C28.7192 30.4086 28.5767 30.6856 28.5767 30.9889C28.5767 32.8637 32.026 31.2968 32.026 34.0709C32.026 34.422 31.925 34.7449 31.7518 35.0226C33.5745 34.5435 35.2843 33.786 36.8328 32.7977C36.6664 30.011 35.2392 27.3592 32.8439 26.0586H32.8439Z" fill="#78A678"/>
<path fill-rule="evenodd" clip-rule="evenodd" d="M33.3718 24.1196H26.4135C25.9245 24.1196 25.6619 24.7177 26.0185 25.0743C26.1201 25.1759 26.26 25.239 26.4135 25.239H33.3718C33.8607 25.239 34.1234 24.641 33.7667 24.2843C33.6651 24.1827 33.5253 24.1196 33.3718 24.1196Z" fill="#78A678"/>
<path fill-rule="evenodd" clip-rule="evenodd" d="M20.0043 24.7639L22.1979 24.754C22.5428 24.7525 22.8331 24.4681 22.8331 24.1187V23.3275C22.8331 22.9798 22.5472 22.6938 22.1995 22.6938H12.7049C12.3572 22.6938 12.0713 22.9798 12.0713 23.3275V24.1187C12.0713 24.4659 12.3556 24.7626 12.7037 24.7626H19.9428C19.9634 24.7626 19.9839 24.763 20.0044 24.7639H20.0043Z" fill="#FFC447"/>
<path fill-rule="evenodd" clip-rule="evenodd" d="M19.4188 27.5459C16.5638 27.5459 14.2188 29.8563 14.2188 32.7459C14.2188 35.6178 16.5468 37.9459 19.4188 37.9459C22.2908 37.9459 24.6188 35.6179 24.6188 32.7459C24.6188 29.8739 22.2908 27.5459 19.4188 27.5459ZM19.0092 29.6399C19.0092 29.4137 19.1926 29.2303 19.4188 29.2303C19.645 29.2303 19.8283 29.4137 19.8283 29.6399V29.9073C20.5656 30.0847 21.1209 30.7309 21.1209 31.5072C21.1209 31.7334 20.9375 31.9168 20.7113 31.9168C20.4851 31.9168 20.3018 31.7334 20.3018 31.5072C20.3018 30.7602 19.335 30.4014 18.7879 30.9257C18.246 31.445 18.6307 32.3364 19.4187 32.3364C20.3419 32.3364 21.1209 33.0619 21.1209 33.9847C21.1209 34.7611 20.5655 35.4072 19.8283 35.5846V35.852C19.8283 36.0782 19.6449 36.2616 19.4187 36.2616C19.1925 36.2616 19.0091 36.0782 19.0091 35.852V35.5846C18.2719 35.4072 17.7165 34.7611 17.7165 33.9847C17.7165 33.7585 17.8999 33.5751 18.1261 33.5751C18.3523 33.5751 18.5356 33.7585 18.5356 33.9847C18.5356 34.7317 19.5024 35.0905 20.0495 34.5662C20.5914 34.047 20.2069 33.1555 19.4187 33.1555C18.4955 33.1555 17.7166 32.43 17.7166 31.5072C17.7166 30.7309 18.2719 30.0847 19.0092 29.9073V29.64V29.6399Z" fill="#F2B229"/>
<path fill-rule="evenodd" clip-rule="evenodd" d="M19.4182 27.5459C17.3252 27.5459 15.5064 28.7876 14.6846 30.5889C16.2871 32.1299 18.1744 33.3765 20.2597 34.2429C20.4323 33.7438 20.0585 33.1555 19.4182 33.1555C18.495 33.1555 17.716 32.43 17.716 31.5072C17.716 30.7309 18.2714 30.0847 19.0087 29.9073V29.64C19.0087 29.4138 19.192 29.2304 19.4182 29.2304C19.6444 29.2304 19.8278 29.4138 19.8278 29.64V29.9074C20.5651 30.0848 21.1204 30.731 21.1204 31.5073C21.1204 31.7335 20.937 31.9168 20.7108 31.9168C20.4846 31.9168 20.3012 31.7335 20.3012 31.5073C20.3012 30.7603 19.3344 30.4015 18.7873 30.9257C18.2454 31.4451 18.6301 32.3365 19.4182 32.3365C20.3414 32.3365 21.1203 33.0619 21.1203 33.9848C21.1203 34.1797 21.0852 34.3664 21.0211 34.5396C21.9583 34.8796 22.9318 35.144 23.9342 35.3255C24.3693 34.5653 24.6182 33.6847 24.6182 32.746C24.6182 29.874 22.2901 27.546 19.4182 27.546V27.5459Z" fill="#FFC447"/>
<path fill-rule="evenodd" clip-rule="evenodd" d="M15.1613 28.4893C15.1679 28.4828 15.1746 28.4763 15.1812 28.4697H11.4433C11.0956 28.4697 10.8096 28.7557 10.8096 29.1034V29.8946C10.8096 30.2448 11.0952 30.5387 11.4446 30.5387H13.8157C14.1211 29.7641 14.5825 29.0681 15.1613 28.4893L15.1613 28.4893Z" fill="#D49C24"/>
<path fill-rule="evenodd" clip-rule="evenodd" d="M15.1613 28.4893C15.1678 28.4828 15.1745 28.4763 15.1811 28.4697H12.8008C13.1978 28.9939 13.6227 29.4957 14.0735 29.9728C14.3592 29.4232 14.7273 28.9233 15.1612 28.4893L15.1613 28.4893Z" fill="#FFBB2B"/>
<path fill-rule="evenodd" clip-rule="evenodd" d="M16.212 27.6507C17.4909 26.8442 19.0495 26.5402 20.5764 26.8379V26.2157C20.5764 25.868 20.2904 25.582 19.9427 25.582H10.4481C10.1004 25.582 9.81445 25.8681 9.81445 26.2157V27.0069C9.81445 27.3571 10.1064 27.6387 10.4513 27.6421C12.3709 27.6616 14.2914 27.6507 16.212 27.6507Z" fill="#DEAB3E"/>
<path fill-rule="evenodd" clip-rule="evenodd" d="M16.2118 27.6507C17.4907 26.8442 19.0493 26.5402 20.5762 26.8379V26.2157C20.5762 25.868 20.2903 25.582 19.9426 25.582H11.0156C11.3711 26.3005 11.7722 26.9924 12.2168 27.6527C13.5482 27.656 14.8799 27.6507 16.2118 27.6507Z" fill="#FFC447"/>
<path fill-rule="evenodd" clip-rule="evenodd" d="M14.5612 36.3012C14.1145 35.6921 13.7795 34.9958 13.5866 34.2427L11.8254 34.2433C11.4478 34.2433 11.1689 34.5244 11.1689 34.8763V35.6676C11.1689 36.0153 11.455 36.3012 11.8027 36.3012H14.5612Z" fill="#D99D1C"/>
<path fill-rule="evenodd" clip-rule="evenodd" d="M13.4363 33.424C13.3585 32.73 13.401 32.0288 13.5593 31.3579H10.4667C10.119 31.3579 9.83301 31.6439 9.83301 31.9916V32.7827C9.83301 33.1191 10.2787 33.4247 10.631 33.4247L13.4363 33.424Z" fill="#D49715"/>
<path fill-rule="evenodd" clip-rule="evenodd" d="M21.5701 14.4453L12.3639 16.7706C12.0271 16.8558 11.8203 17.2017 11.9061 17.5414C11.9708 17.7974 12.0369 18.0534 12.1002 18.3098C12.1841 18.6445 12.5307 18.8528 12.8709 18.7669L22.0764 16.4418C22.4138 16.3566 22.6207 16.0106 22.5348 15.6707L22.3411 14.9036C22.2559 14.5663 21.9099 14.3594 21.5701 14.4452V14.4453Z" fill="#FFC447"/>
</svg>
