<svg width="48" height="48" viewBox="0 0 48 48" fill="none" xmlns="http://www.w3.org/2000/svg">
<rect width="48" height="48" rx="24" fill="#F0F3FA"/>
<g clip-path="url(#clip0_632_1065)">
<path d="M27.6181 21.2662L25.1897 22.7233L27.6943 24.2139C27.951 25.0654 28.4146 25.8669 29.0878 26.5396C29.8126 27.2644 30.688 27.7479 31.6134 27.9893V38.6415H10.4053V10.6963H31.6133V17.2131C30.6879 17.4546 29.8125 17.938 29.0877 18.6628C28.3418 19.4081 27.8527 20.3124 27.6187 21.2668L27.6181 21.2662Z" fill="#EB7065"/>
<path d="M27.6181 21.2662L25.1897 22.7233L27.6943 24.2139C27.951 25.0654 28.4146 25.8669 29.0878 26.5396C29.8126 27.2644 30.688 27.7479 31.6134 27.9893V38.6415H10.4053V10.6963H31.6133V17.2131C30.6879 17.4546 29.8125 17.938 29.0876 18.6628C28.3418 19.4081 27.8527 20.3124 27.6187 21.2668L27.6181 21.2662Z" stroke="black" stroke-width="1.14595" stroke-miterlimit="10" stroke-linecap="round" stroke-linejoin="round"/>
<path d="M21.5186 35.7135L22.9113 32.0566C22.9398 31.9871 23.0383 31.987 23.0669 32.0565L24.4469 35.7135" stroke="black" stroke-width="1.14595" stroke-miterlimit="10" stroke-linecap="round" stroke-linejoin="round"/>
<path d="M21.9531 35.0308H24.0198" stroke="black" stroke-width="1.14595" stroke-miterlimit="10" stroke-linecap="round" stroke-linejoin="round"/>
<path d="M26.2705 35.713V32.0108L28.7735 35.6353C28.8199 35.7024 28.8696 35.6695 28.8696 35.588V32.0039" stroke="black" stroke-width="1.14595" stroke-miterlimit="10" stroke-linecap="round" stroke-linejoin="round"/>
<path d="M13.5137 32.0049V35.7108C13.5546 35.7179 15.0077 35.7108 15.0077 35.7108" stroke="black" stroke-width="1.14595" stroke-miterlimit="10" stroke-linecap="round" stroke-linejoin="round"/>
<path d="M18.1094 35.713C19.1337 35.713 19.964 34.8827 19.964 33.8585C19.964 32.8342 19.1337 32.0039 18.1094 32.0039C17.0852 32.0039 16.2549 32.8342 16.2549 33.8585C16.2549 34.8827 17.0852 35.713 18.1094 35.713Z" stroke="black" stroke-width="1.14595" stroke-miterlimit="10" stroke-linecap="round" stroke-linejoin="round"/>
<path d="M18.5702 13.5771H13.4189V16.483H28.7359V13.5771H23.5681H18.5702Z" fill="white"/>
<path d="M18.5702 13.5771H13.4189V16.483H28.7359V13.5771H23.5681" stroke="black" stroke-width="1.14595" stroke-miterlimit="10" stroke-linecap="round" stroke-linejoin="round"/>
<path d="M13.4189 19.6924H16.047" stroke="white" stroke-width="1.14595" stroke-miterlimit="10" stroke-linecap="round" stroke-linejoin="round"/>
<path d="M13.4189 22.7241H16.047" stroke="white" stroke-width="1.14595" stroke-miterlimit="10" stroke-linecap="round" stroke-linejoin="round"/>
<path d="M18.708 19.6924H25.6792" stroke="white" stroke-width="1.14595" stroke-miterlimit="10" stroke-linecap="round" stroke-linejoin="round"/>
<path d="M18.708 22.7241H22.8599" stroke="white" stroke-width="1.14595" stroke-miterlimit="10" stroke-linecap="round" stroke-linejoin="round"/>
<path d="M13.4189 25.7534H25.6791" stroke="white" stroke-width="1.14595" stroke-miterlimit="10" stroke-linecap="round" stroke-linejoin="round"/>
<path d="M21.2441 28.7852H28.7358" stroke="white" stroke-width="1.14595" stroke-miterlimit="10" stroke-linecap="round" stroke-linejoin="round"/>
<path d="M29.0873 18.6612C28.3419 19.4066 27.8528 20.3109 27.6183 21.265L27.618 21.2646L25.1895 22.7214L27.6938 24.2124L27.6942 24.2117C27.9507 25.063 28.4145 25.8653 29.0872 26.538C31.2624 28.7132 34.789 28.7132 36.9641 26.538C39.1393 24.3629 39.1393 20.8363 36.9641 18.6612C34.789 16.486 31.2624 16.486 29.0873 18.6612Z" fill="#FFCE62"/>
<path d="M29.0873 18.6612C28.3419 19.4066 27.8528 20.3109 27.6183 21.265L27.618 21.2646L25.1895 22.7214L27.6938 24.2124L27.6942 24.2117C27.9507 25.063 28.4145 25.8653 29.0872 26.538C31.2624 28.7132 34.789 28.7132 36.9641 26.538C39.1393 24.3629 39.1393 20.8363 36.9641 18.6612C34.789 16.486 31.2624 16.486 29.0873 18.6612Z" stroke="black" stroke-width="1.14595" stroke-miterlimit="10" stroke-linecap="round" stroke-linejoin="round"/>
<path d="M34.0992 20.4834C34.0992 20.4834 33.5377 19.9655 32.6722 20.2262C31.8775 20.4656 31.6073 21.5028 32.2202 21.9765C32.532 22.2175 32.9969 22.4197 33.6256 22.642C35.033 23.1394 34.5128 25.1242 33.0811 25.1337C32.5225 25.1375 32.2613 25.102 31.7705 24.781" stroke="black" stroke-width="1.14595" stroke-miterlimit="10" stroke-linecap="round" stroke-linejoin="round"/>
<path d="M33.082 19.4829V20.1547" stroke="black" stroke-width="1.14595" stroke-miterlimit="10" stroke-linecap="round" stroke-linejoin="round"/>
<path d="M33.082 25.1333V25.7415" stroke="black" stroke-width="1.14595" stroke-miterlimit="10" stroke-linecap="round" stroke-linejoin="round"/>
<circle cx="21.0769" cy="13.5774" r="0.572977" fill="black"/>
</g>
<defs>
<clipPath id="clip0_632_1065">
<rect width="29.3364" height="29.3364" fill="white" transform="translate(9.83203 10)"/>
</clipPath>
</defs>
</svg>
