<svg width="24" height="24" viewBox="0 0 24 24" fill="none" xmlns="http://www.w3.org/2000/svg">
<g opacity="0.5">
<path d="M20.3811 11.5947C20.3303 11.4638 20.2542 11.3442 20.1571 11.2427L14.8238 5.9094C14.7243 5.80995 14.6063 5.73106 14.4763 5.67723C14.3464 5.62341 14.2071 5.5957 14.0665 5.5957C13.7824 5.5957 13.51 5.70854 13.3091 5.9094C13.2097 6.00886 13.1308 6.12692 13.077 6.25687C13.0231 6.38681 12.9954 6.52608 12.9954 6.66673C12.9954 6.95079 13.1083 7.22321 13.3091 7.42407L16.8291 10.9334L4.06764 10.9334C3.78475 10.9334 3.51344 11.0458 3.3134 11.2458C3.11336 11.4459 3.00098 11.7172 3.00098 12.0001C3.00098 12.283 3.11336 12.5543 3.3134 12.7543C3.51344 12.9544 3.78475 13.0667 4.06764 13.0667L16.8291 13.0667L13.3091 16.5761C13.2091 16.6752 13.1298 16.7932 13.0756 16.9232C13.0215 17.0532 12.9936 17.1926 12.9936 17.3334C12.9936 17.4742 13.0215 17.6136 13.0756 17.7436C13.1298 17.8736 13.2091 17.9916 13.3091 18.0907C13.4083 18.1907 13.5263 18.2701 13.6562 18.3242C13.7862 18.3784 13.9256 18.4063 14.0665 18.4063C14.2073 18.4063 14.3467 18.3784 14.4767 18.3242C14.6067 18.2701 14.7246 18.1907 14.8238 18.0907L20.1571 12.7574C20.2542 12.656 20.3303 12.5363 20.3811 12.4054C20.4878 12.1457 20.4878 11.8544 20.3811 11.5947Z" fill="white"/>
</g>
</svg>
