<svg width="48" height="48" viewBox="0 0 48 48" fill="none" xmlns="http://www.w3.org/2000/svg">
<rect width="48" height="48" rx="24" fill="#F0F3FA"/>
<g clip-path="url(#clip0_629_2604)">
<path d="M37.4584 30.0332V31.806C37.4793 32.3409 37.0649 32.7926 36.5302 32.8177H11.4699C10.9352 32.7926 10.5208 32.3409 10.5418 31.806V30.0332H37.4584Z" fill="#02A9F4"/>
<path d="M36.0659 30.0332V31.806C36.0868 32.3409 35.6724 32.7926 35.1377 32.8177H36.5299C37.0647 32.7926 37.4791 32.3409 37.4581 31.806V30.0332H36.0659Z" fill="#0377BC"/>
<path d="M37.4584 11.5537V30.0333H10.5418V11.5537C10.5208 11.0188 10.9352 10.5671 11.4699 10.542H36.5302C37.0649 10.5671 37.4793 11.0188 37.4584 11.5537Z" fill="#E91E63"/>
<path d="M36.5299 10.542H35.1377C35.6724 10.5671 36.0868 11.0188 36.0659 11.5537V30.0333H37.4581V11.5537C37.4791 11.0188 37.0647 10.5671 36.5299 10.542Z" fill="#AD1457"/>
<path d="M27.713 32.8179L29.1052 35.6023H24.0004H18.8955L20.2877 32.8179H27.713Z" fill="#3F51B5"/>
<path d="M27.7135 32.8179H26.3213L27.7135 35.6023H29.1058L27.7135 32.8179Z" fill="#283593"/>
<path d="M30.9619 35.6016H17.0395C16.5269 35.6016 16.1113 36.0171 16.1113 36.5297C16.1113 37.0423 16.5269 37.4579 17.0395 37.4579H30.9619C31.4745 37.4579 31.89 37.0423 31.89 36.5297C31.89 36.0171 31.4745 35.6016 30.9619 35.6016Z" fill="#02A9F4"/>
<path d="M30.9616 35.6016H29.5693C30.0819 35.6016 30.4975 36.0171 30.4975 36.5297C30.4975 37.0423 30.0819 37.4579 29.5693 37.4579H30.9616C31.4742 37.4579 31.8897 37.0423 31.8897 36.5297C31.8897 36.0171 31.4742 35.6016 30.9616 35.6016Z" fill="#0377BC"/>
<path d="M30.9615 17.5024H17.0391C15.7576 17.5024 14.7188 18.5413 14.7188 19.8228V25.3918C14.7188 26.6733 15.7576 27.7122 17.0391 27.7122H30.9615C32.243 27.7122 33.2819 26.6733 33.2819 25.3918V19.8228C33.2819 18.5413 32.243 17.5024 30.9615 17.5024Z" fill="#FFDC00"/>
<path d="M30.9616 17.5024H29.5693C30.8509 17.5024 31.8897 18.5413 31.8897 19.8228V25.3918C31.8897 26.6733 30.8509 27.7122 29.5693 27.7122H30.9616C32.2431 27.7122 33.282 26.6733 33.282 25.3918V19.8228C33.282 18.5413 32.2431 17.5024 30.9616 17.5024Z" fill="#FEC108"/>
<path d="M23.9997 15.1829C24.7686 15.1829 25.3919 14.5596 25.3919 13.7907C25.3919 13.0218 24.7686 12.3984 23.9997 12.3984C23.2307 12.3984 22.6074 13.0218 22.6074 13.7907C22.6074 14.5596 23.2307 15.1829 23.9997 15.1829Z" fill="#9E9E9E"/>
<path d="M12.3986 15.1826C12.1423 15.1826 11.9346 14.9749 11.9346 14.7186V12.8622C11.9346 12.3496 12.3501 11.9341 12.8627 11.9341H16.5754C16.8317 11.9341 17.0394 12.1419 17.0394 12.3982C17.0394 12.6545 16.8317 12.8622 16.5754 12.8622H12.8627V14.7186C12.8627 14.9749 12.655 15.1826 12.3986 15.1826Z" fill="#F5F5F5"/>
<path d="M12.3986 17.039C12.655 17.039 12.8627 16.8312 12.8627 16.5749C12.8627 16.3186 12.655 16.1108 12.3986 16.1108C12.1423 16.1108 11.9346 16.3186 11.9346 16.5749C11.9346 16.8312 12.1423 17.039 12.3986 17.039Z" fill="#F5F5F5"/>
<path d="M36.5302 10.0776H11.4699C10.6786 10.1029 10.0563 10.7629 10.0777 11.5543V31.8049C10.0563 32.5964 10.6786 33.2563 11.4699 33.2816H19.5365L18.6084 35.1379H17.0389C16.27 35.1379 15.6466 35.7612 15.6466 36.5301C15.6466 37.299 16.27 37.9224 17.0389 37.9224H30.9612C31.7301 37.9224 32.3535 37.299 32.3535 36.5301C32.3535 35.7612 31.7301 35.1379 30.9612 35.1379H29.3917L28.4636 33.2816H36.5302C37.3215 33.2563 37.9438 32.5964 37.9224 31.8049V11.5543C37.9438 10.7629 37.3215 10.1029 36.5302 10.0776ZM31.4253 36.5301C31.4253 36.7864 31.2175 36.9942 30.9612 36.9942H17.0389C16.7826 36.9942 16.5748 36.7864 16.5748 36.5301C16.5748 36.2738 16.7826 36.066 17.0389 36.066H30.9612C31.2175 36.066 31.4253 36.2738 31.4253 36.5301ZM28.354 35.1379H19.6461L20.5742 33.2816H27.4259L28.354 35.1379ZM36.5302 32.3534H11.4699C11.193 32.3248 10.9882 32.0827 11.0058 31.8049V30.4971H12.8622C13.1185 30.4971 13.3262 30.2893 13.3262 30.033C13.3262 29.7767 13.1185 29.5689 12.8622 29.5689H11.0058V11.5543C10.9882 11.2765 11.193 11.0344 11.4699 11.0058H36.5302C36.8071 11.0344 37.0119 11.2765 36.9943 11.5543V29.5689H14.7185C14.4622 29.5689 14.2544 29.7767 14.2544 30.033C14.2544 30.2893 14.4622 30.4971 14.7185 30.4971H36.9943V31.8049C37.0119 32.0827 36.8071 32.3248 36.5302 32.3534Z" fill="black"/>
<path d="M18.4305 22.1435C18.6556 22.1438 18.8482 22.3056 18.8871 22.5273C18.9261 22.7491 18.8002 22.9668 18.5886 23.0438C18.377 23.1207 18.1407 23.0346 18.0281 22.8397C17.8962 22.6263 17.6185 22.5565 17.4013 22.682C17.1841 22.8075 17.1059 23.0828 17.2248 23.3037C17.5626 23.8889 18.2718 24.147 18.9067 23.9159C19.5416 23.6848 19.9189 23.0312 19.8016 22.3658C19.6843 21.7005 19.1061 21.2154 18.4305 21.2154C18.2053 21.2152 18.0128 21.0534 17.9739 20.8316C17.9349 20.6098 18.0608 20.3921 18.2724 20.3152C18.484 20.2382 18.7203 20.3243 18.8328 20.5193C18.9648 20.7326 19.2424 20.8024 19.4596 20.6769C19.6769 20.5515 19.755 20.2761 19.6362 20.0552C19.2983 19.4701 18.5892 19.2119 17.9543 19.443C17.3194 19.6741 16.942 20.3277 17.0594 20.9931C17.1767 21.6585 17.7548 22.1436 18.4305 22.1435Z" fill="black"/>
<path d="M29.1049 23.9997H30.0331C30.2894 23.9997 30.4972 23.7919 30.4972 23.5356C30.4972 23.2793 30.2894 23.0715 30.0331 23.0715H29.1049V22.1434H29.569C29.8253 22.1434 30.0331 21.9356 30.0331 21.6793C30.0331 21.423 29.8253 21.2152 29.569 21.2152H29.1049V20.287H30.0331C30.2894 20.287 30.4972 20.0793 30.4972 19.823C30.4972 19.5667 30.2894 19.3589 30.0331 19.3589H29.1049C28.5923 19.3589 28.1768 19.7744 28.1768 20.287V23.0715C28.1768 23.5841 28.5923 23.9997 29.1049 23.9997Z" fill="black"/>
<path d="M26.3207 23.9997H26.7848C27.0411 23.9997 27.2489 23.7919 27.2489 23.5356C27.2489 23.2793 27.0411 23.0715 26.7848 23.0715H26.3207V19.823C26.3207 19.5667 26.113 19.3589 25.8567 19.3589C25.6004 19.3589 25.3926 19.5667 25.3926 19.823V23.0715C25.3926 23.5841 25.8081 23.9997 26.3207 23.9997Z" fill="black"/>
<path d="M21.0891 23.983C21.2076 24.0164 21.3346 24.0014 21.442 23.9411C21.5494 23.8809 21.6285 23.7804 21.6618 23.6619L21.9574 22.608H23.2568L23.5538 23.6619C23.61 23.8615 23.7919 23.9997 23.9993 24.0002C24.042 24.0002 24.0845 23.9944 24.1256 23.983C24.2441 23.9497 24.3446 23.8706 24.4048 23.7632C24.465 23.6558 24.4801 23.5289 24.4467 23.4104L23.4991 20.049C23.3934 19.6432 23.027 19.3599 22.6076 19.3599C22.1882 19.3599 21.8217 19.6432 21.7161 20.049L20.7684 23.4104C20.735 23.5288 20.75 23.6557 20.8101 23.7631C20.8703 23.8705 20.9706 23.9496 21.0891 23.983ZM22.9937 21.6798H22.2177L22.6071 20.301L22.9937 21.6798Z" fill="black"/>
<path d="M17.5031 25.8559H18.8954C19.1517 25.8559 19.3595 25.6481 19.3595 25.3918C19.3595 25.1355 19.1517 24.9277 18.8954 24.9277H17.5031C17.2468 24.9277 17.0391 25.1355 17.0391 25.3918C17.0391 25.6481 17.2468 25.8559 17.5031 25.8559Z" fill="black"/>
<path d="M20.7522 25.8559H30.4978C30.7541 25.8559 30.9619 25.6481 30.9619 25.3918C30.9619 25.1355 30.7541 24.9277 30.4978 24.9277H20.7522C20.4959 24.9277 20.2881 25.1355 20.2881 25.3918C20.2881 25.6481 20.4959 25.8559 20.7522 25.8559Z" fill="black"/>
<path d="M17.0384 28.1768H30.9607C32.4979 28.1753 33.7437 26.9296 33.7452 25.3924V19.8234C33.7437 18.2862 32.4979 17.0405 30.9607 17.0389H29.7077L25.7454 14.3979C25.8163 14.2031 25.8537 13.9977 25.8559 13.7904C25.8559 12.7652 25.0248 11.9341 23.9996 11.9341C22.9743 11.9341 22.1432 12.7652 22.1432 13.7904C22.1454 13.9977 22.1828 14.2031 22.2537 14.3979L18.2914 17.0389H17.0384C15.5012 17.0405 14.2554 18.2862 14.2539 19.8234V25.3924C14.2554 26.9296 15.5012 28.1753 17.0384 28.1768ZM23.9996 12.8622C24.5122 12.8622 24.9277 13.2778 24.9277 13.7904C24.9277 14.303 24.5122 14.7186 23.9996 14.7186C23.487 14.7186 23.0714 14.303 23.0714 13.7904C23.0714 13.2778 23.487 12.8622 23.9996 12.8622ZM22.7693 15.1696C23.466 15.8052 24.5322 15.8052 25.2289 15.1696L28.037 17.0389H19.9621L22.7693 15.1696ZM15.1821 19.8234C15.1821 18.7982 16.0132 17.9671 17.0384 17.9671H30.9607C31.986 17.9671 32.8171 18.7982 32.8171 19.8234V25.3924C32.8171 26.4176 31.986 27.2487 30.9607 27.2487H17.0384C16.0132 27.2487 15.1821 26.4176 15.1821 25.3924V19.8234Z" fill="black"/>
</g>
<defs>
<clipPath id="clip0_629_2604">
<rect width="27.8447" height="27.8447" fill="white" transform="translate(10.0781 10.0776)"/>
</clipPath>
</defs>
</svg>
