<svg width="48" height="48" viewBox="0 0 48 48" fill="none" xmlns="http://www.w3.org/2000/svg">
<rect width="48" height="48" rx="24" fill="#F0F3FA"/>
<g clip-path="url(#clip0_629_2576)">
<path d="M24.0008 39.2297C32.4123 39.2297 39.2312 32.4109 39.2312 23.9994C39.2312 15.5879 32.4123 8.76904 24.0008 8.76904C15.5894 8.76904 8.77051 15.5879 8.77051 23.9994C8.77051 32.4109 15.5894 39.2297 24.0008 39.2297Z" fill="#18CA63"/>
<path d="M24.8834 39.2046C24.5911 39.2211 24.2969 39.2297 24.0008 39.2297C15.5895 39.2297 8.77051 32.4107 8.77051 23.9994C8.77051 15.5881 15.5895 8.76904 24.0008 8.76904C24.2969 8.76904 24.5911 8.77762 24.8834 8.79417C16.8827 9.25139 10.5356 15.8841 10.5356 23.9994C10.5356 32.1147 16.8827 38.7474 24.8834 39.2046Z" fill="#258E51"/>
<path d="M24.0034 36.7787C31.0609 36.7787 36.7821 31.0575 36.7821 24C36.7821 16.9424 31.0609 11.2212 24.0034 11.2212C16.9459 11.2212 11.2246 16.9424 11.2246 24C11.2246 31.0575 16.9459 36.7787 24.0034 36.7787Z" fill="#EEF5F6"/>
<path d="M25.8292 36.6482C25.2328 36.7346 24.623 36.7787 24.0034 36.7787C16.957 36.7787 11.2246 31.0464 11.2246 24C11.2246 16.9536 16.957 11.2212 24.0034 11.2212C24.623 11.2212 25.2328 11.2653 25.8292 11.3517C19.6445 12.2392 14.8756 17.5732 14.8756 24C14.8756 30.4267 19.6445 35.7607 25.8292 36.6482Z" fill="#DEDBEE"/>
<path d="M17.7252 26.2043C18.9428 26.2043 19.9299 25.2172 19.9299 23.9996C19.9299 22.782 18.9428 21.7949 17.7252 21.7949C16.5076 21.7949 15.5205 22.782 15.5205 23.9996C15.5205 25.2172 16.5076 26.2043 17.7252 26.2043Z" fill="#01516B"/>
<path d="M18.4546 26.0811C18.2262 26.1613 17.9807 26.2045 17.7253 26.2045C16.5073 26.2045 15.5205 25.2171 15.5205 23.9997C15.5205 22.7824 16.5073 21.7949 17.7253 21.7949C17.9807 21.7949 18.2262 21.8382 18.4546 21.9184C17.5955 22.2198 16.9797 23.0378 16.9797 23.9997C16.9797 24.9617 17.5955 25.7796 18.4546 26.0811Z" fill="#025F80"/>
<path d="M24.0006 26.2043C25.2182 26.2043 26.2053 25.2172 26.2053 23.9996C26.2053 22.782 25.2182 21.7949 24.0006 21.7949C22.783 21.7949 21.7959 22.782 21.7959 23.9996C21.7959 25.2172 22.783 26.2043 24.0006 26.2043Z" fill="#01516B"/>
<path d="M24.73 26.0811C24.5016 26.1613 24.2561 26.2045 24.0007 26.2045C22.7827 26.2045 21.7959 25.2171 21.7959 23.9997C21.7959 22.7824 22.7827 21.7949 24.0007 21.7949C24.2561 21.7949 24.5016 21.8382 24.73 21.9184C23.8709 22.2198 23.2551 23.0378 23.2551 23.9997C23.2551 24.9617 23.8709 25.7796 24.73 26.0811Z" fill="#025F80"/>
<path d="M30.277 26.2043C31.4946 26.2043 32.4816 25.2172 32.4816 23.9996C32.4816 22.782 31.4946 21.7949 30.277 21.7949C29.0593 21.7949 28.0723 22.782 28.0723 23.9996C28.0723 25.2172 29.0593 26.2043 30.277 26.2043Z" fill="#01516B"/>
<path d="M31.0064 26.0811C30.7779 26.1613 30.5325 26.2045 30.2771 26.2045C29.059 26.2045 28.0723 25.2171 28.0723 23.9997C28.0723 22.7824 29.0591 21.7949 30.2771 21.7949C30.5325 21.7949 30.7779 21.8382 31.0064 21.9184C30.1473 22.2198 29.5315 23.0378 29.5315 23.9997C29.5315 24.9617 30.1472 25.7796 31.0064 26.0811Z" fill="#025F80"/>
<path d="M24.0015 39.6901C19.8106 39.6901 15.8705 38.058 12.907 35.0945C9.94359 32.131 8.31152 28.1909 8.31152 24.0001C8.31152 19.8092 9.94359 15.8691 12.907 12.9056C15.8705 9.94213 19.8106 8.31006 24.0015 8.31006C28.054 8.31006 31.9007 9.85074 34.833 12.6483C35.0166 12.8236 35.0235 13.1145 34.8483 13.2983C34.673 13.4819 34.382 13.4887 34.1984 13.3135C31.4378 10.6798 27.8166 9.22939 24.0015 9.22939C20.0562 9.22939 16.3469 10.7658 13.5571 13.5557C10.7673 16.3455 9.23086 20.0548 9.23086 24.0001C9.23086 27.9454 10.7673 31.6546 13.5571 34.4444C16.347 37.2343 20.0562 38.7707 24.0015 38.7707C27.9468 38.7707 31.6561 37.2343 34.4459 34.4444C37.2357 31.6546 38.7722 27.9454 38.7722 24.0001C38.7722 20.644 37.6749 17.4806 35.5989 14.8519C35.4416 14.6527 35.4755 14.3636 35.6748 14.2063C35.8739 14.049 36.163 14.0829 36.3204 14.2821C38.5258 17.0748 39.6915 20.4351 39.6915 24.0001C39.6915 28.1909 38.0595 32.131 35.096 35.0945C32.1325 38.058 28.1924 39.6901 24.0015 39.6901Z" fill="black"/>
<path d="M24.0002 37.2381C16.7004 37.2381 10.7617 31.2994 10.7617 23.9997C10.7617 16.7 16.7004 10.7612 24.0002 10.7612C31.2999 10.7612 37.2386 16.7 37.2386 23.9997C37.2386 31.2994 31.2999 37.2381 24.0002 37.2381ZM24.0002 11.6806C17.2074 11.6806 11.6811 17.2069 11.6811 23.9997C11.6811 30.7925 17.2074 36.3188 24.0002 36.3188C30.7929 36.3188 36.3193 30.7925 36.3193 23.9997C36.3193 17.2069 30.7929 11.6806 24.0002 11.6806Z" fill="black"/>
<path d="M16.6837 26.4027C16.6102 26.4027 16.5358 26.3851 16.4666 26.3479C15.5993 25.882 15.0605 24.9819 15.0605 23.9988C15.0605 22.5294 16.2557 21.334 17.7248 21.334C19.1939 21.334 20.389 22.5294 20.389 23.9988C20.389 24.9819 19.8503 25.882 18.983 26.3479C18.7593 26.468 18.4808 26.3841 18.3606 26.1604C18.2405 25.9368 18.3244 25.6581 18.5481 25.538C19.1165 25.2326 19.4697 24.6428 19.4697 23.9988C19.4697 23.0363 18.687 22.2533 17.7248 22.2533C16.7627 22.2533 15.9799 23.0363 15.9799 23.9988C15.9799 24.6428 16.3332 25.2326 16.9017 25.538C17.1253 25.6581 17.2093 25.9368 17.0892 26.1604C17.006 26.3149 16.8474 26.4027 16.6837 26.4027Z" fill="black"/>
<path d="M24.0013 26.6628C22.5322 26.6628 21.3369 25.4675 21.3369 23.9983C21.3369 22.5292 22.5322 21.334 24.0013 21.334C25.4705 21.334 26.6658 22.5292 26.6658 23.9983C26.6658 25.4675 25.4705 26.6628 24.0013 26.6628ZM24.0013 22.2533C23.0391 22.2533 22.2563 23.0361 22.2563 23.9983C22.2563 24.9606 23.0391 25.7434 24.0013 25.7434C24.9636 25.7434 25.7464 24.9606 25.7464 23.9983C25.7464 23.0361 24.9636 22.2533 24.0013 22.2533Z" fill="black"/>
<path d="M30.2786 26.6628C28.8095 26.6628 27.6143 25.4675 27.6143 23.9983C27.6143 22.5292 28.8095 21.334 30.2786 21.334C31.7478 21.334 32.943 22.5292 32.943 23.9983C32.943 25.4675 31.7478 26.6628 30.2786 26.6628ZM30.2786 22.2533C29.3164 22.2533 28.5336 23.0361 28.5336 23.9983C28.5336 24.9606 29.3164 25.7434 30.2786 25.7434C31.2409 25.7434 32.0237 24.9606 32.0237 23.9983C32.0237 23.0361 31.2409 22.2533 30.2786 22.2533Z" fill="black"/>
</g>
<defs>
<clipPath id="clip0_629_2576">
<rect width="31.38" height="31.38" fill="white" transform="translate(8.30957 8.31006)"/>
</clipPath>
</defs>
</svg>
