<svg width="48" height="48" viewBox="0 0 48 48" fill="none" xmlns="http://www.w3.org/2000/svg">
<rect width="48" height="48" rx="24" fill="#F0F3FA"/>
<g clip-path="url(#clip0_629_2486)">
<path d="M17.9537 31.8507H13.1104V26.2086C13.1104 25.9656 13.3074 25.7686 13.5504 25.7686H17.5136C17.7567 25.7686 17.9537 25.9656 17.9537 26.2086V31.8507Z" fill="#60B7FF"/>
<path d="M17.5149 25.7686H15.6289C15.872 25.7686 16.069 25.9656 16.069 26.2086V31.8507H17.955V26.2086C17.955 25.9656 17.758 25.7686 17.5149 25.7686Z" fill="#26A6FE"/>
<path d="M26.441 31.8522H21.5977V20.9936C21.5977 20.783 21.7469 20.6019 21.9536 20.5616L25.9168 19.79C26.1885 19.7371 26.441 19.9451 26.441 20.222V31.8522Z" fill="#60B7FF"/>
<path d="M25.9171 19.79L24.5244 20.0612C24.5439 20.1108 24.5552 20.1648 24.5552 20.222V31.8523H26.4413V20.222C26.4413 19.9452 26.1888 19.7371 25.9171 19.79Z" fill="#26A6FE"/>
<path d="M34.9283 31.8518H30.085V16.028C30.085 15.7849 30.282 15.5879 30.525 15.5879H34.4882C34.7313 15.5879 34.9283 15.7849 34.9283 16.028V31.8518Z" fill="#60B7FF"/>
<path d="M34.4886 15.5879H32.6025C32.8456 15.5879 33.0426 15.7849 33.0426 16.028V31.8517H34.9287V16.028C34.9287 15.7849 34.7316 15.5879 34.4886 15.5879Z" fill="#26A6FE"/>
<path d="M35.9743 39.6957H12.0257C10.984 39.6957 10.1396 38.8513 10.1396 37.8097V31.6243C10.1396 30.5827 10.984 29.7383 12.0257 29.7383H35.9744C37.016 29.7383 37.8604 30.5827 37.8604 31.6243V37.8097C37.8603 38.8513 37.016 39.6957 35.9743 39.6957Z" fill="#C9F6B0"/>
<path d="M35.973 29.7383H34.0869C35.1286 29.7383 35.973 30.5827 35.973 31.6243V37.8097C35.973 38.8513 35.1286 39.6957 34.0869 39.6957H35.973C37.0146 39.6957 37.859 38.8513 37.859 37.8097V31.6243C37.859 30.5827 37.0146 29.7383 35.973 29.7383Z" fill="#9BE69D"/>
<path d="M22.5447 20.0019L19.0573 16.842C18.8807 16.6819 18.6693 16.5615 18.4373 16.5065C17.9372 16.388 17.429 16.5551 17.0985 16.9199L13.0499 21.3882C12.5407 21.9501 12.5835 22.8183 13.1454 23.3275C13.7074 23.8367 14.5756 23.7939 15.0848 23.232L18.0427 19.9675C18.1359 19.8646 18.295 19.8567 18.3979 19.95L21.9048 23.1277C22.4667 23.6368 23.335 23.5939 23.8442 23.0321L33.0086 12.9176C33.1444 12.7677 33.3759 12.7563 33.5257 12.8921L34.692 13.9488C34.9273 14.162 35.3039 13.9952 35.304 13.6776L35.3058 8.81598C35.3059 8.59946 35.119 8.43016 34.9036 8.45153L30.0656 8.93128C29.7497 8.96259 29.6207 9.35375 29.8559 9.56694L30.9482 10.5567C31.098 10.6925 31.1094 10.924 30.9737 11.0738L22.8999 19.9844C22.8066 20.0874 22.6476 20.0952 22.5447 20.0019Z" fill="#C9F6B0"/>
<path d="M22.5447 20.0019L19.0573 16.842C18.8807 16.6819 18.6693 16.5615 18.4373 16.5065C17.9372 16.388 17.429 16.5551 17.0985 16.9199L13.0499 21.3882C12.5407 21.9501 12.5835 22.8183 13.1454 23.3275C13.7074 23.8367 14.5756 23.7939 15.0848 23.232L18.0427 19.9675C18.1359 19.8646 18.295 19.8567 18.3979 19.95L21.9048 23.1277C22.4667 23.6368 23.335 23.5939 23.8442 23.0321L33.0086 12.9176C33.1444 12.7677 33.3759 12.7563 33.5257 12.8921L34.692 13.9488C34.9273 14.162 35.3039 13.9952 35.304 13.6776L35.3058 8.81598C35.3059 8.59946 35.119 8.43016 34.9036 8.45153L30.0656 8.93128C29.7497 8.96259 29.6207 9.35375 29.8559 9.56694L30.9482 10.5567C31.098 10.6925 31.1094 10.924 30.9737 11.0738L22.8999 19.9844C22.8066 20.0874 22.6476 20.0952 22.5447 20.0019Z" fill="#C9F6B0"/>
<path d="M22.5447 20.0019L19.0573 16.842C18.8807 16.6819 18.6693 16.5615 18.4373 16.5065C17.9372 16.388 17.429 16.5551 17.0985 16.9199L13.0499 21.3882C12.5407 21.9501 12.5835 22.8183 13.1454 23.3275C13.7074 23.8367 14.5756 23.7939 15.0848 23.232L18.0427 19.9675C18.1359 19.8646 18.295 19.8567 18.3979 19.95L21.9048 23.1277C22.4667 23.6368 23.335 23.5939 23.8442 23.0321L33.0086 12.9176C33.1444 12.7677 33.3759 12.7563 33.5257 12.8921L34.692 13.9488C34.9273 14.162 35.3039 13.9952 35.304 13.6776L35.3058 8.81598C35.3059 8.59946 35.119 8.43016 34.9036 8.45153L30.0656 8.93128C29.7497 8.96259 29.6207 9.35375 29.8559 9.56694L30.9482 10.5567C31.098 10.6925 31.1094 10.924 30.9737 11.0738L22.8999 19.9844C22.8066 20.0874 22.6476 20.0952 22.5447 20.0019Z" fill="#C9F6B0"/>
<path d="M22.5447 20.0019L19.0573 16.842C18.8807 16.6819 18.6693 16.5615 18.4373 16.5065C17.9372 16.388 17.429 16.5551 17.0985 16.9199L13.0499 21.3882C12.5407 21.9501 12.5835 22.8183 13.1454 23.3275C13.7074 23.8367 14.5756 23.7939 15.0848 23.232L18.0427 19.9675C18.1359 19.8646 18.295 19.8567 18.3979 19.95L21.9048 23.1277C22.4667 23.6368 23.335 23.5939 23.8442 23.0321L33.0086 12.9176C33.1444 12.7677 33.3759 12.7563 33.5257 12.8921L34.692 13.9488C34.9273 14.162 35.3039 13.9952 35.304 13.6776L35.3058 8.81598C35.3059 8.59946 35.119 8.43016 34.9036 8.45153L30.0656 8.93128C29.7497 8.96259 29.6207 9.35375 29.8559 9.56694L30.9482 10.5567C31.098 10.6925 31.1094 10.924 30.9737 11.0738L22.8999 19.9844C22.8066 20.0874 22.6476 20.0952 22.5447 20.0019Z" fill="#9BE69D"/>
<path d="M13.1104 29.7374V26.2086C13.1104 25.966 13.3078 25.7686 13.5504 25.7686H17.5136C17.7569 25.7686 17.9537 25.966 17.9537 26.2086V29.7374" stroke="black" stroke-width="0.943022" stroke-miterlimit="10" stroke-linecap="round" stroke-linejoin="round"/>
<path d="M26.4385 20.1689C26.4404 20.1859 26.4416 20.2029 26.4416 20.2199V29.7368" stroke="black" stroke-width="0.943022" stroke-miterlimit="10" stroke-linecap="round" stroke-linejoin="round"/>
<path d="M21.5977 29.7379V22.8501" stroke="black" stroke-width="0.943022" stroke-miterlimit="10" stroke-linecap="round" stroke-linejoin="round"/>
<path d="M30.5898 15.5879H34.4883C34.7316 15.5879 34.9284 15.7847 34.9284 16.028V29.7382" stroke="black" stroke-width="0.943022" stroke-miterlimit="10" stroke-linecap="round" stroke-linejoin="round"/>
<path d="M30.085 29.7374V16.144" stroke="black" stroke-width="0.943022" stroke-miterlimit="10" stroke-linecap="round" stroke-linejoin="round"/>
<path d="M10.1396 34.04V31.6243C10.1396 30.5827 10.984 29.7383 12.0257 29.7383H35.9744C37.016 29.7383 37.8604 30.5827 37.8604 31.6243V37.8097C37.8604 38.8513 37.016 39.6957 35.9744 39.6957H12.0257C10.984 39.6957 10.1396 38.8513 10.1396 37.8097V36.2404" stroke="black" stroke-width="0.943022" stroke-miterlimit="10" stroke-linecap="round" stroke-linejoin="round"/>
<path d="M30.6475 32.748V36.6843" stroke="black" stroke-width="0.943022" stroke-miterlimit="10" stroke-linecap="round" stroke-linejoin="round"/>
<path d="M28.7536 32.7627H27.1699V36.6701" stroke="black" stroke-width="0.943022" stroke-miterlimit="10" stroke-linecap="round" stroke-linejoin="round"/>
<path d="M27.1699 34.6807H28.6278" stroke="black" stroke-width="0.943022" stroke-miterlimit="10" stroke-linecap="round" stroke-linejoin="round"/>
<path d="M32.5146 32.748H34.6884" stroke="black" stroke-width="0.943022" stroke-miterlimit="10" stroke-linecap="round" stroke-linejoin="round"/>
<path d="M33.5967 32.8745V36.685" stroke="black" stroke-width="0.943022" stroke-miterlimit="10" stroke-linecap="round" stroke-linejoin="round"/>
<path d="M17.9238 34.8062L19.5773 36.6848" stroke="black" stroke-width="0.943022" stroke-miterlimit="10" stroke-linecap="round" stroke-linejoin="round"/>
<path d="M17.4482 32.748V36.6843" stroke="black" stroke-width="0.943022" stroke-miterlimit="10" stroke-linecap="round" stroke-linejoin="round"/>
<path d="M19.576 33.771C19.576 34.336 19.0806 34.794 18.4952 34.794C18.2048 34.794 17.4564 34.7986 17.4564 34.7986C17.4564 34.7986 17.4518 34.0558 17.4518 33.771C17.4518 33.5372 17.4492 32.748 17.4492 32.748C17.4492 32.748 18.1521 32.748 18.4952 32.748C19.0806 32.748 19.576 33.2061 19.576 33.771Z" stroke="black" stroke-width="0.943022" stroke-miterlimit="10" stroke-linecap="round" stroke-linejoin="round"/>
<path d="M13.3125 32.748V36.6843" stroke="black" stroke-width="0.943022" stroke-miterlimit="10" stroke-linecap="round" stroke-linejoin="round"/>
<path d="M15.541 33.8589C15.541 34.4723 15.0219 34.9697 14.4085 34.9697C14.1043 34.9697 13.3201 34.9746 13.3201 34.9746C13.3201 34.9746 13.3152 34.1681 13.3152 33.8589C13.3152 33.6049 13.3125 32.748 13.3125 32.748C13.3125 32.748 14.049 32.748 14.4085 32.748C15.0219 32.748 15.541 33.2454 15.541 33.8589Z" stroke="black" stroke-width="0.943022" stroke-miterlimit="10" stroke-linecap="round" stroke-linejoin="round"/>
<path d="M23.2913 36.6842C24.3783 36.6842 25.2594 35.8031 25.2594 34.7161C25.2594 33.6292 24.3783 32.748 23.2913 32.748C22.2044 32.748 21.3232 33.6292 21.3232 34.7161C21.3232 35.8031 22.2044 36.6842 23.2913 36.6842Z" stroke="black" stroke-width="0.943022" stroke-miterlimit="10" stroke-linecap="round" stroke-linejoin="round"/>
<path d="M27.3915 15.0273L22.8999 19.9844C22.8067 20.0874 22.6476 20.0952 22.5447 20.0019L19.0573 16.842C18.8807 16.6819 18.6693 16.5615 18.4373 16.5065C17.9372 16.388 17.429 16.5551 17.0985 16.9199L13.0499 21.3882C12.5407 21.9501 12.5835 22.8183 13.1454 23.3275C13.7074 23.8367 14.5756 23.7939 15.0848 23.232L18.0427 19.9675C18.1359 19.8646 18.295 19.8567 18.3979 19.95L21.9048 23.1277C22.4667 23.6368 23.335 23.5939 23.8442 23.0321L33.0086 12.9176C33.1444 12.7677 33.3759 12.7563 33.5257 12.8921L34.692 13.9488C34.9273 14.162 35.3039 13.9952 35.304 13.6776L35.3058 8.81598C35.3059 8.59946 35.119 8.43016 34.9036 8.45153L30.0656 8.93128C29.7497 8.96259 29.6207 9.35375 29.8559 9.56694L30.9482 10.5567C31.098 10.6925 31.1094 10.924 30.9737 11.0738L28.88 13.3845" stroke="black" stroke-width="0.943022" stroke-miterlimit="10" stroke-linecap="round" stroke-linejoin="round"/>
</g>
<defs>
<clipPath id="clip0_629_2486">
<rect width="32.1885" height="32.1885" fill="white" transform="translate(7.90625 7.97852)"/>
</clipPath>
</defs>
</svg>
