<svg width="48" height="48" viewBox="0 0 48 48" fill="none" xmlns="http://www.w3.org/2000/svg">
<rect width="48" height="48" rx="24" fill="#F0F3FA"/>
<g clip-path="url(#clip0_629_2554)">
<path d="M27.0847 31.941H11.1181C9.73582 31.941 8.61523 30.8204 8.61523 29.4381V20.7632H29.5876V29.4381C29.5876 30.8205 28.467 31.941 27.0847 31.941Z" fill="#FFC250"/>
<path d="M8.61523 24.2534L10.8386 25.1723C11.0224 25.2483 11.2194 25.2874 11.4183 25.2874H26.7845C26.9834 25.2874 27.1803 25.2483 27.3642 25.1723L29.5875 24.2534V20.7632H8.61523V24.2534Z" fill="#EBB044"/>
<path d="M9.07431 14.9526C8.23614 14.9526 7.55664 15.6321 7.55664 16.4703V21.1769C7.55664 21.7911 7.92693 22.3449 8.4946 22.5795L10.8384 23.5482C11.0222 23.6242 11.2192 23.6633 11.4181 23.6633H26.7842C26.9832 23.6633 27.1801 23.6242 27.364 23.5482L29.7078 22.5795C30.2754 22.3449 30.6457 21.7911 30.6457 21.1769V16.4703C30.6457 15.6321 29.9662 14.9526 29.128 14.9526C27.9044 14.9526 8.39528 14.9526 9.07431 14.9526Z" fill="#FFC250"/>
<path d="M19.6851 25.5451H18.5188C18.0893 25.5451 17.7412 25.197 17.7412 24.7676V22.1731C17.7412 21.7436 18.0893 21.3955 18.5188 21.3955H19.6851C20.1146 21.3955 20.4627 21.7436 20.4627 22.1731V24.7676C20.4627 25.197 20.1146 25.5451 19.6851 25.5451Z" fill="#FFE07D"/>
<path d="M14.9191 14.9524V12.6134C14.9191 12.0507 15.3769 11.5929 15.9396 11.5929H22.2637C22.8264 11.5929 23.2842 12.0507 23.2842 12.6134V14.9524H25.2707V12.6134C25.2707 10.9553 23.9218 9.60645 22.2637 9.60645H15.9396C14.2815 9.60645 12.9326 10.9553 12.9326 12.6134V14.9524H14.9191Z" fill="#5E6B75"/>
<path d="M33.2437 38.3937C37.2201 38.3937 40.4435 35.1703 40.4435 31.1939C40.4435 27.2176 37.2201 23.9941 33.2437 23.9941C29.2674 23.9941 26.0439 27.2176 26.0439 31.1939C26.0439 35.1703 29.2674 38.3937 33.2437 38.3937Z" fill="#BED8FB"/>
<path d="M33.2437 23.9941C32.9358 23.9941 32.6326 24.0135 32.335 24.051C35.8823 24.4978 38.626 27.5254 38.626 31.1939C38.626 34.8625 35.8823 37.8901 32.335 38.3368C32.6326 38.3743 32.9358 38.3937 33.2437 38.3937C37.22 38.3937 40.4435 35.1703 40.4435 31.1939C40.4435 27.2177 37.22 23.9941 33.2437 23.9941Z" fill="#9DC6FB"/>
<path d="M33.2437 36.5763C36.2163 36.5763 38.6261 34.1665 38.6261 31.1939C38.6261 28.2213 36.2163 25.8115 33.2437 25.8115C30.2711 25.8115 27.8613 28.2213 27.8613 31.1939C27.8613 34.1665 30.2711 36.5763 33.2437 36.5763Z" fill="#F9F6F9"/>
<path d="M33.2435 25.8115C32.9559 25.8115 32.6738 25.8346 32.3984 25.8781C34.9695 26.2836 36.9358 28.5089 36.9358 31.1939C36.9358 33.8789 34.9695 36.1042 32.3984 36.5097C32.6738 36.5531 32.9559 36.5763 33.2435 36.5763C36.2161 36.5763 38.6259 34.1665 38.6259 31.1939C38.6259 28.2213 36.2161 25.8115 33.2435 25.8115Z" fill="#DDDAEC"/>
<path d="M33.244 25.3149C30.0024 25.3149 27.3652 27.9521 27.3652 31.1937C27.3652 34.4351 30.0024 37.0723 33.244 37.0723C36.4854 37.0723 39.1226 34.4352 39.1226 31.1937C39.1226 27.9521 36.4855 25.3149 33.244 25.3149ZM33.244 36.0798C30.5497 36.0798 28.3578 33.8879 28.3578 31.1937C28.3578 28.4994 30.5497 26.3075 33.244 26.3075C35.9382 26.3075 38.1301 28.4994 38.1301 31.1937C38.1301 33.8879 35.9382 36.0798 33.244 36.0798Z" fill="black"/>
<path d="M25.1185 17.21H13.0842C12.81 17.21 12.5879 17.4321 12.5879 17.7062C12.5879 17.9804 12.81 18.2025 13.0842 18.2025H25.1185C25.3926 18.2025 25.6147 17.9804 25.6147 17.7062C25.6147 17.4321 25.3926 17.21 25.1185 17.21Z" fill="black"/>
<path d="M33.2443 26.834C32.9702 26.834 32.748 27.0561 32.748 27.3303V27.7236C32.748 27.9978 32.9702 28.2199 33.2443 28.2199C33.5185 28.2199 33.7406 27.9978 33.7406 27.7236V27.3303C33.7406 27.0562 33.5185 26.834 33.2443 26.834Z" fill="black"/>
<path d="M36.2178 31.1931C36.2178 31.4672 36.4399 31.6893 36.714 31.6893H37.1074C37.3815 31.6893 37.6036 31.4672 37.6036 31.1931C37.6036 30.9189 37.3815 30.6968 37.1074 30.6968H36.714C36.4399 30.6968 36.2178 30.9189 36.2178 31.1931Z" fill="black"/>
<path d="M33.2443 34.168C32.9702 34.168 32.748 34.3901 32.748 34.6642V35.0576C32.748 35.3317 32.9702 35.5538 33.2443 35.5538C33.5185 35.5538 33.7406 35.3317 33.7406 35.0576V34.6642C33.7406 34.3902 33.5185 34.168 33.2443 34.168Z" fill="black"/>
<path d="M29.7734 30.6968H29.3801C29.1059 30.6968 28.8838 30.9189 28.8838 31.1931C28.8838 31.4672 29.1059 31.6893 29.3801 31.6893H29.7734C30.0476 31.6893 30.2697 31.4672 30.2697 31.1931C30.2697 30.9189 30.0476 30.6968 29.7734 30.6968Z" fill="black"/>
<path d="M33.2439 28.7358C32.9697 28.7358 32.7476 28.958 32.7476 29.2321V30.4428L32.289 30.247C32.0367 30.1394 31.7453 30.2565 31.6377 30.5085C31.53 30.7606 31.6471 31.0521 31.8992 31.1598L33.0489 31.6507C33.2032 31.7166 33.379 31.6998 33.5173 31.6085C33.6564 31.5166 33.7401 31.3611 33.7401 31.1943V29.2321C33.7401 28.958 33.518 28.7358 33.2439 28.7358Z" fill="black"/>
<path d="M11.7336 28.7358C11.4594 28.7358 11.2373 28.958 11.2373 29.2321C11.2373 29.5063 11.4594 29.7284 11.7336 29.7284H14.3457C14.6198 29.7284 14.842 29.5063 14.842 29.2321C14.842 28.958 14.6198 28.7358 14.3457 28.7358H11.7336Z" fill="black"/>
<path d="M39.8549 27.2534C39.7143 27.018 39.4097 26.9414 39.1743 27.0817C38.939 27.2223 38.8622 27.527 39.0027 27.7623C39.6204 28.7965 39.9469 29.9831 39.9469 31.1939C39.9469 34.8902 36.9398 37.8974 33.2434 37.8974C29.547 37.8974 26.5398 34.8903 26.5398 31.1939C26.5398 27.4975 29.547 24.4903 33.2434 24.4903C34.9824 24.4903 36.6309 25.1535 37.8851 26.3578C38.0828 26.5477 38.397 26.5413 38.5868 26.3435C38.7766 26.1458 38.7702 25.8317 38.5725 25.6419C37.1324 24.2593 35.2399 23.4978 33.2433 23.4978C32.118 23.4978 31.0482 23.7406 30.0838 24.1766V22.9499C30.7329 22.6012 31.1422 21.9257 31.1422 21.1769V16.4703C31.1422 15.3598 30.2387 14.4563 29.1282 14.4563H25.7667V12.6135C25.7667 10.6819 24.1952 9.11035 22.2635 9.11035H15.9393C14.0076 9.11035 12.4361 10.6819 12.4361 12.6135V14.4563H9.05722C9.05146 14.4563 9.04577 14.4565 9.04008 14.4566C7.94543 14.4751 7.06055 15.3713 7.06055 16.4703V21.1769C7.06055 21.9256 7.46981 22.6011 8.11893 22.9499V29.4388C8.11893 31.0925 9.46436 32.438 11.1181 32.438H14.7972C15.0713 32.438 15.2935 32.2158 15.2935 31.9417C15.2935 31.6675 15.0713 31.4454 14.7972 31.4454H11.1181C10.0116 31.4454 9.11148 30.5452 9.11148 29.4388V23.3714L10.649 24.0069C10.8942 24.1082 11.153 24.1596 11.4183 24.1596H17.2443V24.7678C17.2443 25.4702 17.8158 26.0417 18.5182 26.0417H19.6846C20.387 26.0417 20.9584 25.4702 20.9584 24.7678V24.1596H26.7845C27.0498 24.1596 27.3086 24.1083 27.5537 24.0069L29.0913 23.3714V24.7165C26.9611 26.0867 25.5472 28.4783 25.5472 31.194C25.5472 31.2781 25.5486 31.3619 25.5513 31.4454H16.7161C16.442 31.4454 16.2198 31.6675 16.2198 31.9417C16.2198 32.2158 16.442 32.438 16.7161 32.438H25.6478C26.2442 36.0922 29.4232 38.89 33.2434 38.89C37.487 38.89 40.9395 35.4376 40.9395 31.194C40.9395 29.8041 40.5644 28.4414 39.8549 27.2534ZM13.4286 12.6136C13.4286 11.2292 14.5549 10.103 15.9393 10.103H22.2634C23.6478 10.103 24.7741 11.2292 24.7741 12.6136V14.4564H23.7802V12.6136C23.7802 11.7772 23.0998 11.0968 22.2634 11.0968H19.2844C19.0103 11.0968 18.7881 11.319 18.7881 11.5931C18.7881 11.8672 19.0103 12.0894 19.2844 12.0894H22.2634C22.5525 12.0894 22.7876 12.3245 22.7876 12.6136V14.4564H15.4151V12.6136C15.4151 12.3245 15.6503 12.0894 15.9393 12.0894H17.3656C17.6398 12.0894 17.8619 11.8672 17.8619 11.5931C17.8619 11.319 17.6398 11.0968 17.3656 11.0968H15.9393C15.103 11.0968 14.4226 11.7772 14.4226 12.6136V14.4564H13.4286V12.6136ZM19.9659 24.7678C19.9659 24.9229 19.8397 25.0491 19.6846 25.0491H18.5182C18.3631 25.0491 18.2369 24.9229 18.2369 24.7678V22.1733C18.2369 22.0181 18.3631 21.892 18.5182 21.892H19.6846C19.8397 21.892 19.9659 22.0181 19.9659 22.1733V24.7678ZM27.1746 23.0895C27.0503 23.1409 26.9191 23.167 26.7845 23.167H20.9584V22.1733C20.9584 21.4709 20.387 20.8994 19.6846 20.8994H18.5182C17.8158 20.8994 17.2443 21.4709 17.2443 22.1733V23.1671H11.4183C11.2838 23.1671 11.1525 23.141 11.0282 23.0896L8.68442 22.1208C8.3009 21.9623 8.05309 21.5918 8.05309 21.1769V16.4703C8.05309 15.9071 8.51132 15.4489 9.07456 15.4489H29.1283C29.6915 15.4489 30.1497 15.9071 30.1497 16.4703V21.1769C30.1497 21.5918 29.9019 21.9623 29.5184 22.1208L27.1746 23.0895Z" fill="black"/>
</g>
<defs>
<clipPath id="clip0_629_2554">
<rect width="33.8789" height="33.8789" fill="white" transform="translate(7.06055 7.06055)"/>
</clipPath>
</defs>
</svg>
