<svg width="48" height="48" viewBox="0 0 48 48" fill="none" xmlns="http://www.w3.org/2000/svg">
<g clip-path="url(#clip0_6115_20449)">
<path fill-rule="evenodd" clip-rule="evenodd" d="M26.1735 0.374023C29.471 0.374023 32.399 1.98602 34.188 4.45552C35.6525 6.45252 37.5745 7.68002 39.9845 8.15302C44.5545 9.04102 48 13.063 48 17.885C48 18.9795 47.823 20.044 47.4825 21.02C46.8175 23.0465 46.8175 24.954 47.4825 26.9805C47.823 27.9565 48 29.021 48 30.1155C48 35.218 44.1255 39.432 39.172 39.965C36.4955 40.261 34.292 41.518 32.68 43.6625C30.876 46.073 27.9925 47.626 24.7545 47.626C20.9985 47.626 17.745 45.5405 16.059 42.4795C14.536 39.699 11.9775 37.9985 8.828 37.658C3.8745 37.111 0 32.911 0 27.793C0 26.0185 0.473 24.3325 1.3015 22.8835C2.337 21.079 2.7065 19.245 2.47 17.175C2.4405 16.7905 2.411 16.3525 2.411 15.9675C2.411 10.3475 6.965 5.73902 12.5845 5.73902H12.658C15.216 5.73902 17.4345 4.91952 19.2685 3.13002C21.0575 1.38552 23.4825 0.374023 26.1735 0.374023Z" fill="#E6EDFF"/>
<g clip-path="url(#clip1_6115_20449)">
<path d="M39.5075 22.8964H36.57C36.2653 21.3385 35.6483 19.8891 34.7869 18.6169L36.8714 16.5323C36.9875 16.4163 36.9875 16.2281 36.8714 16.112L34.1389 13.3795C34.0229 13.2635 33.8347 13.2635 33.7186 13.3795L31.6341 15.4641C30.3618 14.6026 28.9124 13.9856 27.3545 13.6809V10.7434C27.3545 10.5793 27.2215 10.4463 27.0574 10.4463H23.193C23.0289 10.4463 22.8959 10.5793 22.8959 10.7434V13.6786C21.3327 13.9813 19.8806 14.5956 18.6076 15.4553L16.5318 13.3795C16.4157 13.2634 16.2276 13.2634 16.1115 13.3795L13.379 16.112C13.263 16.2281 13.263 16.4163 13.379 16.5323L15.4548 18.6081C14.5951 19.8811 13.9808 21.3332 13.6781 22.8964H10.7429C10.5788 22.8964 10.4458 23.0295 10.4458 23.1935V27.0579C10.4458 27.222 10.5788 27.355 10.7429 27.355H13.6804C13.9851 28.9129 14.6021 30.3624 15.4636 31.6346L13.379 33.7192C13.263 33.8352 13.263 34.0234 13.379 34.1394L16.1115 36.8719C16.2276 36.988 16.4157 36.988 16.5318 36.8719L18.6163 34.7874C19.8886 35.6489 21.3381 36.2658 22.8959 36.5706V39.508C22.8959 39.6722 23.029 39.8052 23.193 39.8052H27.0574C27.2215 39.8052 27.3545 39.6721 27.3545 39.508V36.5728C28.9177 36.2701 30.3698 35.6558 31.6428 34.7961L33.7186 36.8719C33.8347 36.988 34.0229 36.988 34.1389 36.8719L36.8714 34.1394C36.9875 34.0234 36.9875 33.8352 36.8714 33.7192L34.7956 31.6433C35.6553 30.3703 36.2696 28.9183 36.5723 27.355H39.5075C39.6717 27.355 39.8046 27.222 39.8046 27.0579V23.1935C39.8047 23.0294 39.6717 22.8964 39.5075 22.8964ZM25.1252 32.7576C20.9102 32.7576 17.4934 29.3407 17.4934 25.1257C17.4934 20.9108 20.9102 17.4939 25.1252 17.4939C29.3402 17.4939 32.7571 20.9108 32.7571 25.1257C32.7571 29.3407 29.3402 32.7576 25.1252 32.7576Z" fill="#D12525"/>
<path d="M25.1252 28.6588C27.0765 28.6588 28.6583 27.0771 28.6583 25.1258C28.6583 23.1746 27.0765 21.5928 25.1252 21.5928C23.174 21.5928 21.5922 23.1746 21.5922 25.1258C21.5922 27.0771 23.174 28.6588 25.1252 28.6588Z" fill="#8E95A0"/>
<path d="M28.6584 25.1259C28.6584 27.077 27.0763 28.6591 25.1252 28.6591C24.8417 28.6591 24.566 28.6258 24.3015 28.5622C25.855 28.1913 27.0109 26.7935 27.0109 25.1259C27.0109 23.4583 25.855 22.0605 24.3015 21.6897C24.5659 21.6261 24.8417 21.5928 25.1252 21.5928C27.0763 21.5928 28.6584 23.1748 28.6584 25.1259Z" fill="#7E848C"/>
<path d="M32.244 27.9182C32.4781 27.9945 32.7297 27.8668 32.806 27.6327C33.0693 26.8256 33.2028 25.982 33.2028 25.1254C33.2028 20.6715 29.5792 17.0479 25.1252 17.0479C20.6713 17.0479 17.0476 20.6715 17.0476 25.1254C17.0476 29.5794 20.6713 33.203 25.1252 33.203C27.5607 33.203 29.842 32.12 31.3843 30.2318C31.54 30.0411 31.5117 29.7604 31.321 29.6046C31.1303 29.4489 30.8496 29.4772 30.6938 29.6679C29.3216 31.348 27.2919 32.3116 25.1252 32.3116C21.1628 32.3116 17.9391 29.0879 17.9391 25.1254C17.9391 21.163 21.1628 17.9393 25.1252 17.9393C29.0877 17.9393 32.3113 21.163 32.3113 25.1254C32.3113 25.8879 32.1927 26.6385 31.9585 27.3562C31.8821 27.5903 32.01 27.8419 32.244 27.9182Z" fill="black"/>
<path d="M39.5075 22.4501H36.9343C36.6311 21.1051 36.1042 19.8333 35.3669 18.6666L37.1866 16.8469C37.3269 16.7067 37.4042 16.5201 37.4042 16.3216C37.4042 16.1232 37.327 15.9366 37.1866 15.7963L34.454 13.0639C34.3137 12.9235 34.1272 12.8462 33.9287 12.8462C33.7303 12.8462 33.5437 12.9235 33.4034 13.0638L31.5837 14.8835C30.417 14.1461 29.1453 13.6193 27.8003 13.3161V10.7428C27.8003 10.3332 27.467 10 27.0574 10H23.193C22.7834 10 22.4501 10.3332 22.4501 10.7428V13.3161C22.2595 13.3592 22.0686 13.4071 21.8812 13.459C21.644 13.5248 21.505 13.7705 21.5708 14.0077C21.6367 14.245 21.8823 14.3837 22.1195 14.3181C22.3289 14.2599 22.5431 14.2073 22.7562 14.1615C23.0954 14.0886 23.3415 13.7834 23.3415 13.4358V10.8914H26.9088V13.4358C26.9088 13.7834 27.1549 14.0886 27.4941 14.1616C28.8168 14.4459 30.0644 14.9627 31.2024 15.6977C31.4938 15.8859 31.8838 15.8441 32.1294 15.5985L33.9287 13.7992L36.4511 16.3216L34.6519 18.1208C34.4061 18.3665 34.3644 18.7564 34.5527 19.048C35.2876 20.1858 35.8044 21.4334 36.0888 22.7562C36.1617 23.0953 36.4669 23.3415 36.8145 23.3415H39.3589V26.9087H36.8145C36.4669 26.9087 36.1617 27.1549 36.0888 27.4941C35.8044 28.8168 35.2876 30.0644 34.5527 31.2022C34.3644 31.4936 34.4061 31.8836 34.6519 32.1295L36.4511 33.9287L33.9287 36.451L32.1294 34.6517C31.8836 34.406 31.4938 34.3643 31.2022 34.5526C30.0644 35.2876 28.8168 35.8044 27.494 36.0887C27.1548 36.1617 26.9087 36.4669 26.9087 36.8145V39.3588H23.3414V36.8145C23.3414 36.4669 23.0952 36.1617 22.7561 36.0887C21.4334 35.8044 20.1858 35.2876 19.048 34.5526C18.7564 34.3643 18.3665 34.406 18.1208 34.6517L16.3215 36.451L13.7991 33.9287L15.5984 32.1294C15.8441 31.8836 15.8858 31.4937 15.6975 31.2023C14.9625 30.0644 14.4457 28.8168 14.1614 27.4941C14.0885 27.1549 13.7833 26.9087 13.4357 26.9087H10.8914V23.3415H13.4358C13.7835 23.3415 14.0887 23.0953 14.1616 22.7562C14.4459 21.4334 14.9627 20.1858 15.6977 19.0479C15.886 18.7564 15.8442 18.3665 15.5985 18.1208L13.7992 16.3216L16.3216 13.7992L18.1209 15.5985C18.3666 15.8441 18.7565 15.886 19.048 15.6977C19.2497 15.5675 19.4579 15.4422 19.667 15.3255C19.882 15.2056 19.959 14.9341 19.8391 14.7191C19.7191 14.5041 19.4476 14.4271 19.2326 14.5471C19.042 14.6535 18.8521 14.7663 18.6666 14.8835L16.8469 13.0639C16.7066 12.9235 16.5201 12.8462 16.3216 12.8462C16.1232 12.8462 15.9366 12.9235 15.7963 13.0638L13.0637 15.7963C12.9235 15.9366 12.8462 16.1232 12.8462 16.3216C12.8462 16.5201 12.9235 16.7067 13.0638 16.8469L14.8835 18.6666C14.1461 19.8334 13.6194 21.105 13.3161 22.4501H10.7429C10.3332 22.4501 10 22.7834 10 23.193V27.0574C10 27.467 10.3332 27.8003 10.7429 27.8003H13.3161C13.6194 29.1452 14.1462 30.417 14.8836 31.5838L13.0639 33.4034C12.9235 33.5437 12.8463 33.7303 12.8463 33.9287C12.8463 34.1272 12.9235 34.3138 13.0639 34.454L15.7964 37.1865C15.9367 37.3268 16.1232 37.4042 16.3217 37.4042C16.5201 37.4042 16.7067 37.3269 16.847 37.1866L18.6667 35.3669C19.8335 36.1042 21.1052 36.6311 22.4502 36.9342V39.5075C22.4502 39.9171 22.7834 40.2504 23.1931 40.2504H27.0575C27.4671 40.2504 27.8004 39.9171 27.8004 39.5075V36.9342C29.1455 36.631 30.417 36.1043 31.5839 35.3669L33.4035 37.1865C33.5438 37.3268 33.7303 37.4042 33.9288 37.4042C34.1273 37.4042 34.3138 37.3269 34.4541 37.1866L37.1866 34.454C37.327 34.3138 37.4042 34.1272 37.4042 33.9287C37.4042 33.7303 37.327 33.5437 37.1866 33.4034L35.3669 31.5838C36.1043 30.417 36.6311 29.1453 36.9343 27.8003H39.5076C39.9172 27.8003 40.2505 27.467 40.2505 27.0574V23.193C40.2504 22.7834 39.9172 22.4501 39.5075 22.4501Z" fill="black"/>
<path d="M21.1465 25.1262C21.1465 27.3201 22.9313 29.105 25.1252 29.105C27.3191 29.105 29.104 27.3201 29.104 25.1262C29.104 22.9324 27.3191 21.1475 25.1252 21.1475C22.9314 21.1475 21.1465 22.9324 21.1465 25.1262ZM28.2125 25.1262C28.2125 26.8286 26.8276 28.2135 25.1252 28.2135C23.4229 28.2135 22.0379 26.8286 22.0379 25.1262C22.0379 23.4239 23.4229 22.0389 25.1252 22.0389C26.8276 22.0389 28.2125 23.4239 28.2125 25.1262Z" fill="black"/>
</g>
</g>
<defs>
<clipPath id="clip0_6115_20449">
<rect width="48" height="48" fill="white"/>
</clipPath>
<clipPath id="clip1_6115_20449">
<rect width="30.2505" height="30.2505" fill="white" transform="translate(10 10)"/>
</clipPath>
</defs>
</svg>
