<svg width="48" height="48" viewBox="0 0 48 48" fill="none" xmlns="http://www.w3.org/2000/svg">
<rect width="48" height="48" rx="24" fill="#F0F3FA"/>
<g clip-path="url(#clip0_632_991)">
<path d="M39.093 24.9772L37.7413 24.5443C37.4178 24.4407 37.1666 24.1853 37.0647 23.8613C35.5092 18.9151 29.7333 16.6436 23.9194 16.6436C17.1175 16.6436 11.6035 19.7518 11.6035 26.6159C11.6035 30.5719 13.5438 33.3427 16.5416 34.943C16.6153 34.9824 16.6679 35.0523 16.6836 35.1344L17.3552 38.6228C17.4174 38.9515 17.7046 39.1894 18.0391 39.1894H20.307C20.6415 39.1894 20.9287 38.9515 20.9909 38.6228L21.358 36.6834C21.385 36.5403 21.5184 36.4439 21.663 36.4607C22.3945 36.5456 23.1486 36.5882 23.9193 36.5882C24.9495 36.5882 25.9784 36.5122 26.9829 36.3603C27.1305 36.338 27.2697 36.4351 27.2975 36.5818L27.6838 38.6229C27.746 38.9516 28.0332 39.1894 28.3676 39.1894H30.6356C30.97 39.1894 31.2572 38.9516 31.3194 38.6229L32.017 34.9294C32.0327 34.846 32.0863 34.775 32.1617 34.7358C33.9419 33.8102 35.4148 32.5368 36.3541 30.9133C36.4793 30.697 36.6772 30.5322 36.9153 30.4559L39.093 29.7583C39.6451 29.5815 40.0197 29.0682 40.0197 28.4885V26.2471C40.0197 25.6673 39.6451 25.154 39.093 24.9772Z" fill="#FF7BAC"/>
<path d="M39.8499 25.5964C39.7911 25.4912 39.7189 25.3939 39.6341 25.3081C39.6323 25.3063 39.6307 25.3042 39.6288 25.3024C39.4821 25.1557 39.3001 25.0421 39.093 24.9758L38.091 24.6548V25.8336C38.091 27.298 37.1579 28.5997 35.771 29.0701C35.1403 29.2721 34.595 29.6717 34.1955 30.1998C33.7063 30.8465 33.1249 31.4276 32.4697 31.9435C31.6973 32.5515 31.1763 33.4216 31.0274 34.3933C30.9212 35.0861 30.8389 36.0175 30.7865 36.5414C30.7462 36.9443 30.4075 37.2512 30.0025 37.2512H28.88C28.5455 37.2512 28.2583 37.0133 28.1961 36.6846L27.8098 34.4514C27.782 34.3047 27.6429 34.2076 27.4953 34.2299C26.4908 34.3817 24.9496 34.4578 23.9195 34.4578C23.1487 34.4578 21.7543 34.4152 21.0228 34.3303C20.8782 34.3135 20.7448 34.4099 20.7177 34.553L20.3506 36.6206C20.2884 36.9492 20.0012 37.1871 19.6667 37.1871H18.5514C18.217 37.1871 17.9298 36.9492 17.8676 36.6206L17.3241 33.3882C17.3083 33.3062 17.2557 33.2362 17.1821 33.1969C14.458 31.7427 11.9671 28.9374 11.6518 25.5391V25.5393C11.6443 25.6227 11.6377 25.7068 11.6319 25.7913C11.6317 25.793 11.6317 25.7947 11.6316 25.7964C11.631 25.8048 11.6305 25.8131 11.6299 25.8214C11.6249 25.8975 11.6205 25.974 11.6169 26.051C11.6154 26.0829 11.6144 26.1152 11.6132 26.1473C11.611 26.206 11.6087 26.2647 11.6072 26.324C11.605 26.4201 11.6035 26.5168 11.6035 26.6144C11.6035 27.1089 11.6338 27.5849 11.6927 28.0424C11.7649 28.6029 11.8804 29.1353 12.0353 29.6404C12.0437 29.6679 12.0526 29.6953 12.0613 29.7228C12.0828 29.7907 12.1052 29.8584 12.1283 29.9258C12.1375 29.9526 12.1467 29.9796 12.1561 30.0063C12.2198 30.1862 12.2887 30.3622 12.3627 30.5346C12.3706 30.553 12.3784 30.5713 12.3864 30.5895C12.4228 30.6729 12.4604 30.7556 12.4992 30.8373C12.5057 30.8508 12.5124 30.8641 12.5188 30.8776C12.555 30.9528 12.5925 31.0273 12.6308 31.1014C12.6373 31.1141 12.6438 31.127 12.6504 31.1397C12.6922 31.2192 12.7353 31.2978 12.7794 31.3756C12.789 31.3925 12.7987 31.4093 12.8084 31.4261C12.9512 31.6741 13.1055 31.913 13.2709 32.143C13.2866 32.165 13.3028 32.1868 13.3188 32.2086C13.359 32.2633 13.3998 32.3175 13.4411 32.3712C13.4574 32.3923 13.4736 32.4135 13.4901 32.4345C13.5461 32.5058 13.6029 32.5763 13.6611 32.6457C13.6616 32.6464 13.6621 32.647 13.6627 32.6477C13.7209 32.7171 13.7806 32.7853 13.841 32.8529C13.8593 32.8734 13.8779 32.8936 13.8964 32.9139C13.9416 32.9635 13.9872 33.0125 14.0335 33.061C14.0522 33.0806 14.0708 33.1003 14.0896 33.1197C14.153 33.1849 14.217 33.2495 14.2824 33.3129C14.2826 33.313 14.2828 33.3132 14.2829 33.3134C14.3558 33.384 14.43 33.4535 14.5055 33.5218C14.6563 33.6584 14.8122 33.7905 14.9728 33.918C15.1334 34.0455 15.2989 34.1684 15.4688 34.2867C15.5538 34.3458 15.64 34.4038 15.7272 34.4607C15.8058 34.5119 15.8855 34.5619 15.9658 34.6112C15.9889 34.6254 16.0122 34.6394 16.0355 34.6534C16.0962 34.69 16.1573 34.7261 16.2186 34.7615C16.2429 34.7756 16.2672 34.7897 16.2916 34.8036C16.3743 34.8504 16.4574 34.8966 16.5417 34.9417C16.5602 34.9516 16.5772 34.9633 16.5928 34.9766C16.6068 34.9887 16.619 35.0024 16.6302 35.0168C16.6336 35.0211 16.6365 35.0256 16.6395 35.0301C16.6472 35.0413 16.654 35.053 16.66 35.0653C16.6624 35.0702 16.6649 35.0749 16.667 35.0799C16.6741 35.097 16.6801 35.1146 16.6837 35.1331L17.3553 38.6216C17.3631 38.6626 17.3744 38.7023 17.3888 38.7402C17.396 38.7592 17.4041 38.7778 17.4129 38.7959C17.4216 38.814 17.4312 38.8316 17.4414 38.8487C17.4515 38.8659 17.4625 38.8825 17.4741 38.8986C17.4858 38.9148 17.4981 38.9304 17.511 38.9455C17.5256 38.9625 17.5413 38.9786 17.5574 38.9941C17.5625 38.999 17.5679 39.0036 17.5732 39.0084C17.5849 39.0189 17.5968 39.0291 17.6092 39.0388C17.6154 39.0437 17.6217 39.0485 17.6281 39.0531C17.6408 39.0624 17.6538 39.0711 17.6671 39.0796C17.6731 39.0834 17.6789 39.0874 17.6851 39.091C17.7043 39.1024 17.724 39.1132 17.7444 39.1227C17.7447 39.1228 17.745 39.123 17.7453 39.1231C17.7657 39.1326 17.7867 39.1409 17.808 39.1484C17.8148 39.1507 17.8217 39.1527 17.8285 39.1549C17.8437 39.1597 17.8591 39.1641 17.8747 39.1679C17.8826 39.1698 17.8905 39.1716 17.8985 39.1732C17.9143 39.1765 17.9303 39.1791 17.9465 39.1812C17.9538 39.1822 17.961 39.1834 17.9683 39.1841C17.9916 39.1865 18.0151 39.188 18.0388 39.1881C18.039 39.1881 18.0392 39.1881 18.0392 39.1881H20.3071C20.4116 39.1881 20.5115 39.1649 20.6014 39.1228C20.6373 39.106 20.6716 39.0862 20.704 39.0637C20.7364 39.0412 20.7669 39.016 20.795 38.9884C20.8372 38.9469 20.8742 38.9 20.9049 38.8486C20.9457 38.7801 20.9754 38.7036 20.9909 38.6215L21.358 36.6821V36.682C21.3611 36.6659 21.3659 36.6505 21.3715 36.6357C21.3732 36.6313 21.3751 36.6271 21.3771 36.6228C21.3818 36.6122 21.387 36.6019 21.3929 36.5921C21.3952 36.5882 21.3975 36.5842 21.4 36.5804C21.4086 36.5677 21.4178 36.5554 21.4282 36.5444C21.4567 36.5143 21.4922 36.4919 21.531 36.477C21.5348 36.4755 21.5385 36.4741 21.5423 36.4728C21.5517 36.4696 21.561 36.4669 21.5707 36.4648C21.578 36.4631 21.5856 36.4621 21.5931 36.461C21.6004 36.46 21.6075 36.4587 21.615 36.4583C21.6307 36.4574 21.6468 36.4574 21.6631 36.4594C21.785 36.4736 21.9078 36.4861 22.0309 36.4979C22.0617 36.5008 22.0926 36.5037 22.1235 36.5065C22.2466 36.5177 22.3701 36.5281 22.4944 36.537C22.4949 36.537 22.4956 36.537 22.4962 36.5371C22.6204 36.5459 22.7454 36.5532 22.8708 36.5597C22.9023 36.5613 22.9339 36.5628 22.9656 36.5644C23.0914 36.5702 23.2177 36.5755 23.3446 36.579C23.5351 36.5843 23.7268 36.587 23.9195 36.587C24.177 36.587 24.4345 36.5822 24.6915 36.5727C24.8231 36.5679 24.9546 36.5617 25.0859 36.5543C25.0992 36.5535 25.1126 36.5525 25.1259 36.5517C25.2452 36.5448 25.3644 36.5371 25.4834 36.5281C25.4861 36.5279 25.4889 36.5276 25.4917 36.5274C25.7526 36.5075 26.0127 36.4828 26.2715 36.4531C26.2723 36.4531 26.2731 36.4529 26.2739 36.4529C26.3923 36.4393 26.5104 36.4248 26.6282 36.4092C26.6852 36.4017 26.7419 36.3932 26.7987 36.3851C26.8612 36.3763 26.9239 36.368 26.9862 36.3586C27.1125 36.3394 27.2318 36.4105 27.2799 36.5238C27.2805 36.5252 27.2815 36.5265 27.2821 36.528C27.2888 36.5446 27.294 36.5622 27.2975 36.5805L27.4906 37.601L27.6838 38.6216C27.746 38.9502 28.0332 39.1881 28.3676 39.1881H30.6356C30.6357 39.1881 30.6359 39.1881 30.6359 39.1881C30.6597 39.1881 30.6831 39.1866 30.7064 39.1842C30.7137 39.1834 30.721 39.1823 30.7282 39.1813C30.7444 39.1792 30.7604 39.1765 30.7762 39.1733C30.7841 39.1717 30.792 39.1699 30.7999 39.168C30.8156 39.1642 30.8309 39.1598 30.8462 39.1549C30.853 39.1527 30.8599 39.1508 30.8666 39.1484C30.8881 39.1409 30.9092 39.1326 30.9297 39.123C30.9298 39.123 30.9298 39.1229 30.93 39.1229C30.9505 39.1134 30.9703 39.1025 30.9897 39.0911C30.9958 39.0874 31.0016 39.0835 31.0076 39.0796C31.021 39.0712 31.034 39.0624 31.0467 39.0531C31.053 39.0485 31.0593 39.0437 31.0655 39.0389C31.0778 39.0291 31.0898 39.0189 31.1015 39.0084C31.1067 39.0037 31.1121 38.9991 31.1172 38.9942C31.1334 38.9787 31.1491 38.9625 31.1637 38.9455C31.1694 38.9389 31.1746 38.9317 31.1801 38.9248C31.1993 38.9006 31.2174 38.8755 31.2334 38.8488C31.2538 38.8146 31.2714 38.7783 31.2859 38.7403C31.3003 38.7023 31.3117 38.6627 31.3194 38.6216L31.4723 37.8123L31.6312 36.9712L31.7308 36.4437L32.017 34.9282L32.0427 34.7922C32.0897 34.769 32.1086 34.7596 32.1556 34.7363C32.1574 34.7369 32.1585 34.7366 32.1594 34.7361C32.1603 34.7356 32.1609 34.735 32.1617 34.7345C32.2161 34.7062 32.2693 34.6766 32.3231 34.6477C32.3794 34.6174 32.4363 34.5878 32.492 34.5568C32.5402 34.53 32.5873 34.5019 32.635 34.4745C32.6951 34.44 32.7557 34.4062 32.8149 34.3709C32.8637 34.3418 32.9112 34.3115 32.9594 34.2819C33.0163 34.247 33.0737 34.2126 33.1298 34.1769C33.18 34.1449 33.229 34.1115 33.2786 34.0788C33.3312 34.0441 33.3846 34.01 33.4366 33.9746C33.4856 33.9412 33.5332 33.9064 33.5816 33.8723C33.6327 33.8363 33.6844 33.8009 33.7347 33.7643C33.7815 33.73 33.827 33.6945 33.8731 33.6597C33.9234 33.6217 33.9745 33.5843 34.024 33.5456C34.0688 33.5105 34.1122 33.4742 34.1563 33.4385C34.2056 33.3987 34.2556 33.3594 34.3041 33.3188C34.3487 33.2814 34.3917 33.2428 34.4355 33.2047C34.4819 33.1645 34.5291 33.1248 34.5747 33.0838C34.6172 33.0455 34.6581 33.006 34.6998 32.9671C34.7451 32.925 34.7911 32.8835 34.8354 32.8406C34.8759 32.8014 34.9148 32.7609 34.9546 32.7212C34.9985 32.6772 35.0431 32.634 35.086 32.5892C35.125 32.5486 35.1624 32.5065 35.2007 32.4652C35.2425 32.4201 35.2851 32.3756 35.3259 32.3297C35.3632 32.2878 35.3987 32.2446 35.4351 32.2021C35.4751 32.1554 35.516 32.1094 35.555 32.0619C35.5905 32.0188 35.6242 31.9743 35.6588 31.9305C35.6969 31.8824 35.7359 31.8349 35.7729 31.7859C35.807 31.741 35.8392 31.6947 35.8724 31.6492C35.9081 31.6001 35.9446 31.5517 35.9793 31.5018C36.0117 31.4552 36.0422 31.4073 36.0737 31.3601C36.1071 31.3099 36.1415 31.2603 36.1738 31.2094C36.214 31.1462 36.2508 31.0806 36.291 31.0175C36.3148 30.98 36.3372 30.9416 36.3595 30.9032C36.482 30.6924 36.6752 30.5317 36.9075 30.4574L36.9154 30.4549H36.9154L38.0265 30.099L39.0932 29.7573C39.6453 29.5805 40.0199 29.0672 40.0199 28.4875V26.2456C40.0199 26.0476 39.9753 25.8577 39.8957 25.6859C39.8814 25.6555 39.8662 25.6256 39.8499 25.5964Z" fill="#E8679C"/>
<path d="M29.2028 17.8557C29.2718 17.5283 29.4982 17.2561 29.8025 17.1168C30.9714 16.5818 33.9496 15.2942 34.7152 15.6953C35.674 16.1975 35.1718 21.6192 33.7108 22.4467C32.2996 23.2459 28.2049 22.5917 29.2028 17.8557Z" fill="#E8679C"/>
<path d="M22.3687 19.959C25.7236 19.959 28.4434 17.2392 28.4434 13.8843C28.4434 10.5293 25.7236 7.80957 22.3687 7.80957C19.0137 7.80957 16.2939 10.5293 16.2939 13.8843C16.2939 17.2392 19.0137 19.959 22.3687 19.959Z" fill="#FFB125"/>
<path d="M34.3088 16.3228C33.6421 16.3228 32.0277 16.8722 30.0956 17.7566C29.9901 17.8049 29.914 17.896 29.892 18.0002C29.6105 19.3365 29.7611 20.4119 30.3276 21.1102C30.3939 21.1919 30.4665 21.2687 30.5448 21.3406C30.6359 21.4243 30.7828 21.3774 30.8131 21.2574C31.4846 18.5981 34.7432 16.3228 34.3088 16.3228Z" fill="#FF7BAC"/>
<path d="M26.7375 9.66553L18.1484 18.2546C20.5262 20.5519 24.316 20.5274 26.6631 18.1802C29.0102 15.8331 29.0348 12.0433 26.7375 9.66553Z" fill="#FF901D"/>
<path d="M22.2288 16.8984C21.1789 16.8814 20.4678 16.3142 20.4678 15.8993C20.4678 15.6961 20.6455 15.4167 20.8572 15.4167C21.1366 15.4167 21.3652 16.0094 22.2288 16.0771V14.0875C21.4668 13.8166 20.6201 13.5118 20.6201 12.4281C20.6201 11.3613 21.4245 10.938 22.2288 10.8533V10.6078C22.2288 10.5062 22.3303 10.4131 22.4743 10.4131C22.6013 10.4131 22.7283 10.5062 22.7283 10.6078V10.8364C23.304 10.8534 24.1169 11.0311 24.1169 11.446C24.1169 11.6069 23.9983 11.9286 23.7443 11.9286C23.5412 11.9286 23.321 11.6577 22.7283 11.6153V13.334C23.4649 13.6049 24.2692 13.9774 24.2692 15.1289C24.2692 16.1702 23.6427 16.7459 22.7283 16.873V17.1608C22.7283 17.2624 22.6014 17.3555 22.4743 17.3555C22.3304 17.3555 22.2288 17.2624 22.2288 17.1608V16.8984ZM22.2796 13.1731V11.6323C21.8055 11.6915 21.4669 11.9032 21.4669 12.3435C21.4668 12.826 21.8308 13.0038 22.2796 13.1731ZM22.6775 14.2738V16.0601C23.1347 15.9755 23.4225 15.7046 23.4225 15.2219C23.4226 14.6886 23.0924 14.4515 22.6775 14.2738Z" fill="#DD7219"/>
<path d="M35.2109 24.9216C35.2109 24.6564 34.9958 24.4414 34.7306 24.4414C34.4654 24.4414 34.2504 24.6564 34.2504 24.9216C34.2504 25.2579 33.9768 25.5314 33.6406 25.5314C33.3044 25.5314 33.0308 25.2579 33.0308 24.9216C33.0308 24.6564 32.8158 24.4414 32.5506 24.4414C32.2853 24.4414 32.0703 24.6564 32.0703 24.9216C32.0703 25.7875 32.7748 26.4919 33.6406 26.4919C34.5064 26.4919 35.2109 25.7874 35.2109 24.9216Z" fill="black"/>
<path d="M39.2396 24.5187L37.8878 24.0857C37.7147 24.0303 37.5783 23.8921 37.5229 23.716C37.238 22.8103 36.8081 21.96 36.2451 21.1886C35.9885 20.837 35.7032 20.5012 35.3915 20.1816C35.5909 19.3068 35.6993 18.3168 35.6852 17.4614C35.6651 16.2377 35.4206 15.5201 34.9377 15.2671C34.6776 15.1308 33.8861 14.7165 29.6021 16.6775C29.5007 16.7239 29.4059 16.7811 29.3182 16.8466C29.0294 16.769 28.7342 16.6972 28.4372 16.6327C28.4014 16.6249 28.3646 16.618 28.3285 16.6104C28.6757 15.852 28.8784 15.0284 28.9165 14.1781C28.9283 13.9131 28.7232 13.6887 28.4582 13.6769C28.1938 13.6637 27.9687 13.8701 27.9569 14.1351C27.8943 15.5332 27.3144 16.8486 26.324 17.8391C25.7322 18.4308 25.0394 18.8607 24.3009 19.1314C23.0203 18.9517 21.7159 18.9517 20.4353 19.1314C19.6968 18.8607 19.004 18.4308 18.4122 17.8391C17.3556 16.7824 16.7736 15.3775 16.7736 13.8832C16.7736 12.3888 17.3556 10.984 18.4122 9.92733C19.4689 8.87062 20.8738 8.28867 22.3681 8.28867C23.8624 8.28867 25.2673 8.87062 26.324 9.92733C26.7486 10.3519 27.0995 10.8365 27.3669 11.3674C27.4862 11.6043 27.775 11.6997 28.0119 11.5804C28.2488 11.4611 28.3441 11.1723 28.2248 10.9354C27.9114 10.3129 27.5004 9.74525 27.0033 9.24805C25.7652 8.00997 24.119 7.32812 22.3682 7.32812C20.6173 7.32812 18.9712 8.00997 17.7331 9.24805C16.495 10.4862 15.8132 12.1323 15.8132 13.8831C15.8132 15.634 16.495 17.2801 17.7331 18.5182C18.0902 18.8754 18.4788 19.1825 18.8897 19.4398C18.8898 19.4398 18.89 19.4397 18.8901 19.4397C18.5915 19.5173 18.2951 19.6044 18.0021 19.7024C17.7505 19.7865 17.6148 20.0586 17.6989 20.3102C17.7829 20.5618 18.0551 20.6975 18.3066 20.6135C20.9257 19.7379 23.8106 19.7379 26.4298 20.6135C26.4803 20.6303 26.5316 20.6383 26.5821 20.6383C26.783 20.6383 26.9703 20.5112 27.0375 20.3102C27.1216 20.0586 26.9859 19.7865 26.7343 19.7024C26.4412 19.6044 26.1449 19.5172 25.8463 19.4397C25.8464 19.4397 25.8465 19.4398 25.8466 19.4398C26.2577 19.1825 26.6461 18.8754 27.0033 18.5182C27.3192 18.2023 27.5981 17.8573 27.8402 17.4906C27.9726 17.5163 28.1041 17.5432 28.2335 17.5713C28.406 17.6088 28.5777 17.649 28.7479 17.6912C28.7425 17.7121 28.737 17.7329 28.7326 17.7541C28.4984 18.8656 28.5136 19.8487 28.7778 20.6758C29.0152 21.4193 29.4438 22.0216 30.0514 22.4661C30.7675 22.99 31.6321 23.2163 32.4153 23.2163C33.0047 23.2163 33.5481 23.088 33.9472 22.862C34.3986 22.6063 34.7768 22.0675 35.0762 21.2586C35.2146 21.4202 35.3457 21.5856 35.4694 21.755C35.9706 22.4417 36.3533 23.1985 36.6067 24.0043C36.7555 24.4776 37.125 24.85 37.5949 25.0006L38.9466 25.4336C39.3013 25.5472 39.5396 25.8737 39.5396 26.2461V28.4874C39.5396 28.8599 39.3013 29.1863 38.9466 29.2999L36.7688 29.9975C36.4204 30.1092 36.1255 30.3487 35.9385 30.6718C35.0829 32.1505 33.7377 33.3741 31.94 34.3088C31.7324 34.4169 31.5885 34.6102 31.5452 34.8392L30.8477 38.5326C30.8284 38.6344 30.7393 38.7082 30.6357 38.7082H28.3678C28.2642 38.7082 28.1751 38.6343 28.1558 38.5326L27.7695 36.4914C27.6934 36.0898 27.3168 35.823 26.9113 35.8845C25.9344 36.0322 24.9278 36.107 23.9196 36.107C23.1695 36.107 22.429 36.0652 21.7185 35.9826C21.3256 35.9375 20.9597 36.2053 20.8863 36.5931L20.5191 38.5326C20.4999 38.6344 20.4107 38.7082 20.3072 38.7082H18.0392C17.9357 38.7082 17.8465 38.6343 17.827 38.531L17.1554 35.0427C17.1122 34.818 16.971 34.6269 16.7679 34.5184C13.7036 32.8824 12.0839 30.1494 12.0839 26.6148C12.0839 24.829 12.4746 23.2498 13.2452 21.921C13.9642 20.681 15.0144 19.6558 16.3666 18.8736C16.5961 18.7408 16.6746 18.447 16.5418 18.2174C16.409 17.9878 16.1153 17.9095 15.8856 18.0421C13.2637 19.5587 11.6824 21.8987 11.247 24.8706V24.8705C11.2008 24.8663 11.1545 24.8623 11.1084 24.8576C11.1168 24.5369 11.0588 24.2134 10.9325 23.8993C10.6538 23.2067 10.0815 22.7068 9.47426 22.6258C8.99576 22.5617 8.5404 22.7649 8.22439 23.1824C7.76619 23.7879 7.84089 24.267 7.98417 24.5624C8.22606 25.0608 8.84784 25.4133 9.87967 25.635C9.85131 25.6775 9.82012 25.7201 9.78596 25.763C9.1763 26.5276 8.45803 26.6967 7.99165 26.7126C7.71862 26.7219 7.5 26.9411 7.5 27.2143V27.2166C7.5 27.4861 7.71263 27.7059 7.98185 27.7182C8.01633 27.7198 8.05236 27.7206 8.08988 27.7206C8.68001 27.7206 9.62715 27.503 10.5371 26.362C10.6808 26.1819 10.7978 25.9919 10.8878 25.7956C10.9784 25.8058 11.0655 25.8146 11.1489 25.8223C11.1489 25.8221 11.1489 25.822 11.1489 25.8218C11.1326 26.0821 11.1235 26.3461 11.1235 26.6148C11.1235 28.6147 11.6003 30.3978 12.5404 31.9148C13.4073 33.3134 14.6485 34.4586 16.2307 35.3199L16.8836 38.7111C16.9886 39.2659 17.4746 39.6686 18.0393 39.6686H20.3072C20.8719 39.6686 21.3579 39.2659 21.4629 38.7111L21.7949 36.9575C22.4843 37.0305 23.198 37.0675 23.9196 37.0675C24.9096 37.0675 25.8984 36.9985 26.8621 36.8624L27.212 38.7113C27.3171 39.2661 27.8031 39.6687 28.3677 39.6687H30.6356C31.2003 39.6687 31.6864 39.266 31.7914 38.711L32.4706 35.1151C34.3892 34.1005 35.8354 32.7678 36.7698 31.1528C36.8372 31.0364 36.9409 30.951 37.0618 30.9123L39.2396 30.2147C39.9935 29.9731 40.5 29.279 40.5 28.4873V26.246C40.5 25.4543 39.9935 24.7602 39.2396 24.5187ZM34.6527 18.811C34.4678 20.3917 33.972 21.744 33.4738 22.0261C32.9075 22.3469 31.6001 22.4089 30.6184 21.6908C29.6357 20.9719 29.3086 19.6791 29.6724 17.9521C29.7089 17.7787 29.8322 17.6286 30.002 17.5508C32.4064 16.4502 33.7926 16.0903 34.3075 16.0903C34.3853 16.0903 34.4431 16.0985 34.4817 16.1135C34.6364 16.2783 34.8393 17.2156 34.6527 18.811ZM8.84842 24.143C8.79873 24.0406 8.91604 23.8604 8.99041 23.7621C9.1083 23.6063 9.2169 23.5745 9.29895 23.5745C9.31629 23.5745 9.33247 23.5759 9.34729 23.5779C9.56811 23.6074 9.87748 23.8504 10.0414 24.2578C10.08 24.3537 10.1301 24.5126 10.1419 24.7107C9.47704 24.5729 8.96051 24.3743 8.84842 24.143Z" fill="black"/>
</g>
<defs>
<clipPath id="clip0_632_991">
<rect width="33" height="33" fill="white" transform="translate(7.5 7)"/>
</clipPath>
</defs>
</svg>
