<svg width="48" height="48" viewBox="0 0 48 48" fill="none" xmlns="http://www.w3.org/2000/svg">
<rect width="48" height="48" rx="24" fill="#F0F3FA"/>
<g clip-path="url(#clip0_629_2436)">
<path d="M24.0004 21.4123C25.982 20.8894 27.9827 20.624 29.9587 20.624C32.1863 20.624 34.4452 20.9605 36.6725 21.624C37.7949 21.9584 38.5643 22.9904 38.5643 24.1615V35.917C38.5643 37.3792 37.3789 38.5647 35.9166 38.5647H25.7586C24.7876 38.5647 24.0004 37.7775 24.0004 36.8064L22.2422 28.4222L24.0004 21.4123Z" fill="#D18A56"/>
<path d="M23.9994 21.4123C22.0178 20.8894 20.0171 20.624 18.0411 20.624C15.8135 20.624 13.5546 20.9605 11.3273 21.624C10.2049 21.9584 9.43555 22.9904 9.43555 24.1615V35.917C9.43555 37.3792 10.6209 38.5647 12.0832 38.5647H22.2412C23.2123 38.5647 23.9994 37.7775 23.9994 36.8064V21.4123Z" fill="#C27B48"/>
<path d="M12.083 32.2842C12.083 33.0316 12.083 33.8084 12.083 34.6285C12.083 35.4724 12.8624 36.1018 13.6868 35.9219C16.7549 35.2522 19.8092 35.2894 22.8788 36.0332C23.6154 36.2117 24.3831 36.2117 25.1196 36.0332C28.1892 35.2894 31.2435 35.2522 34.3116 35.9219C35.1361 36.1018 35.9155 35.4724 35.9155 34.6285C35.9155 33.8084 35.9155 33.0316 35.9155 32.2842H12.083Z" fill="#E9EDF5"/>
<path d="M12.083 32.2842C12.083 33.0316 12.083 33.8084 12.083 34.6285C12.083 35.4724 12.8624 36.1018 13.6868 35.9219C16.7549 35.2522 19.8092 35.2894 22.8788 36.0332C23.2471 36.1225 23.6232 36.1671 23.9992 36.1671V32.2842H12.083Z" fill="#DCE1EB"/>
<path d="M23.9993 19.5275C27.5543 18.4686 31.084 18.3547 34.6335 19.1863C35.3835 19.362 35.9155 20.0287 35.9155 20.799C35.9155 25.984 35.9155 27.0999 35.9155 32.2848C35.9155 33.1286 35.1361 33.7581 34.3116 33.5782C31.2435 32.9085 28.1893 32.9457 25.1196 33.6895C24.3831 33.868 23.6154 33.868 22.8788 33.6895C19.8092 32.9457 16.755 32.9085 13.6868 33.5782C12.8624 33.7581 12.083 33.1287 12.083 32.2848C12.083 27.0998 12.083 25.9839 12.083 20.799C12.083 20.0287 12.615 19.362 13.365 19.1863C16.9146 18.3547 20.4443 18.4686 23.9993 19.5275Z" fill="#F2F6FC"/>
<path d="M13.365 19.1864C12.615 19.3621 12.083 20.0288 12.083 20.7991C12.083 25.984 12.083 27.0999 12.083 32.2848C12.083 33.1287 12.8624 33.7581 13.6868 33.5782C16.7549 32.9086 19.8092 32.9457 22.8788 33.6896C23.2471 33.7788 23.6232 33.8234 23.9992 33.8234V19.5275C20.4442 18.4685 16.9145 18.3547 13.365 19.1864Z" fill="#E9EDF5"/>
<path d="M31.6187 17.055C31.6187 12.8823 28.2644 9.49314 24.1051 9.43676C19.8489 9.37909 16.3951 12.7722 16.3809 17.0288C16.373 19.3884 17.4378 21.4992 19.1153 22.9019C19.9735 23.6196 20.4833 24.67 20.4833 25.7887V25.846H27.5162V25.7883C27.5162 24.6795 28.0094 23.628 28.8627 22.9199C30.5464 21.5224 31.6187 19.414 31.6187 17.055Z" fill="#FFE45C"/>
<path d="M21.0694 17.055C21.0694 13.8744 22.7585 11.0885 25.2886 9.54501C24.9031 9.47931 24.5079 9.44221 24.1051 9.43676C19.8489 9.37909 16.3951 12.7722 16.3809 17.0288C16.373 19.3884 17.4378 21.4992 19.1153 22.9019C19.9735 23.6196 20.4833 24.67 20.4833 25.7887V25.846H27.5162V25.7883C27.5162 25.7024 27.5202 25.6171 27.526 25.5321C23.804 24.5094 21.0694 21.1018 21.0694 17.055Z" fill="#FFDA45"/>
<path d="M27.5165 27.0181L24.0001 28.1903L20.4837 27.0181C19.8363 27.0181 19.3115 26.4933 19.3115 25.846C19.3115 25.1986 19.8363 24.6738 20.4837 24.6738H27.5165C28.1639 24.6738 28.6887 25.1986 28.6887 25.846C28.6887 26.4933 28.1639 27.0181 27.5165 27.0181Z" fill="#636978"/>
<path d="M22.8279 25.846C22.8279 25.1986 23.3527 24.6738 24.0001 24.6738H20.4837C19.8363 24.6738 19.3115 25.1986 19.3115 25.846C19.3115 26.4933 19.8363 27.0181 20.4837 27.0181L24.0001 28.1903V27.0181C23.3527 27.0181 22.8279 26.4933 22.8279 25.846Z" fill="#555A66"/>
<path d="M27.5165 29.3628H20.4837C19.8363 29.3628 19.3115 28.8381 19.3115 28.1907C19.3115 27.5433 19.8363 27.0186 20.4837 27.0186H27.5165C28.1639 27.0186 28.6887 27.5433 28.6887 28.1907C28.6887 28.8381 28.1639 29.3628 27.5165 29.3628Z" fill="#707789"/>
<path d="M22.8279 28.1907C22.8279 27.5433 23.3527 27.0186 24.0001 27.0186H20.4837C19.8363 27.0186 19.3115 27.5433 19.3115 28.1907C19.3115 28.8381 19.8363 29.3628 20.4837 29.3628H24.0001C23.3527 29.3628 22.8279 28.8381 22.8279 28.1907Z" fill="#636978"/>
<path d="M35.9549 21.4209C36.1943 21.4845 36.4334 21.5519 36.6721 21.623C37.7945 21.9574 38.5639 22.9894 38.5639 24.1605V35.916C38.5639 37.3782 37.3785 38.5636 35.9162 38.5636L25.7582 38.5636C24.7872 38.5636 24 37.7764 24 36.8054" stroke="#262626" stroke-width="0.879107" stroke-miterlimit="10" stroke-linecap="round" stroke-linejoin="round"/>
<path d="M12.0444 21.4209C11.805 21.4845 11.566 21.5518 11.3273 21.623C10.2049 21.9574 9.43555 22.9893 9.43555 24.1604V35.9159C9.43555 37.3781 10.6209 38.5636 12.0832 38.5636H22.2412C23.2123 38.5636 23.9994 37.7764 23.9994 36.8054V29.4795" stroke="#262626" stroke-width="0.879107" stroke-miterlimit="10" stroke-linecap="round" stroke-linejoin="round"/>
<path d="M18.9209 35.4654C20.2391 35.5237 21.5579 35.7129 22.8795 36.0332C23.6161 36.2117 24.3837 36.2117 25.1203 36.0332C28.1899 35.2894 31.2442 35.2522 34.3123 35.9219C35.1368 36.1018 35.9161 35.4724 35.9161 34.6285C35.9161 33.8084 35.9161 33.0316 35.9161 32.2842" stroke="#262626" stroke-width="0.879107" stroke-miterlimit="10" stroke-linecap="round" stroke-linejoin="round"/>
<path d="M12.083 32.2842C12.083 33.0316 12.083 33.8084 12.083 34.6285C12.083 35.4724 12.8624 36.1018 13.6869 35.9219C14.8446 35.6692 16.0004 35.5171 17.1558 35.4657" stroke="#262626" stroke-width="0.879107" stroke-miterlimit="10" stroke-linecap="round" stroke-linejoin="round"/>
<path d="M31.5078 18.6976C32.5488 18.7787 33.5903 18.9415 34.6335 19.1859C35.3835 19.3616 35.9155 20.0283 35.9155 20.7986C35.9155 25.9836 35.9155 27.0994 35.9155 32.2843C35.9155 33.1282 35.1361 33.7577 34.3116 33.5777C31.2435 32.9081 28.1893 32.9453 25.1196 33.6891C24.3831 33.8676 23.6154 33.8676 22.8788 33.6891C19.8092 32.9453 16.755 32.9081 13.6868 33.5777C12.8624 33.7577 12.083 33.1283 12.083 32.2843C12.083 27.0994 12.083 25.9835 12.083 20.7986C12.083 20.0283 12.615 19.3616 13.365 19.1859C14.4203 18.9386 15.4738 18.7749 16.5268 18.6948" stroke="#262626" stroke-width="0.879107" stroke-miterlimit="10" stroke-linecap="round" stroke-linejoin="round"/>
<path d="M30.5892 13.2279C29.2858 10.9887 26.8738 9.47427 24.1051 9.43676C19.8489 9.37909 16.3951 12.7722 16.3809 17.0288C16.373 19.3884 17.4378 21.4992 19.1153 22.9019C19.6517 23.3504 20.0521 23.9289 20.2768 24.5729" stroke="#262626" stroke-width="0.879107" stroke-miterlimit="10" stroke-linecap="round" stroke-linejoin="round"/>
<path d="M27.71 24.6024C27.9279 23.9525 28.3235 23.3676 28.8629 22.9199C30.5466 21.5224 31.6189 19.414 31.6189 17.0549C31.6189 16.2849 31.5047 15.5415 31.2922 14.8408" stroke="#262626" stroke-width="0.879107" stroke-miterlimit="10" stroke-linecap="round" stroke-linejoin="round"/>
<path d="M20.4837 27.0181C19.8363 27.0181 19.3115 26.4933 19.3115 25.846C19.3115 25.1986 19.8363 24.6738 20.4837 24.6738H27.5165C28.1639 24.6738 28.6887 25.1986 28.6887 25.846C28.6887 26.4933 28.1639 27.0181 27.5165 27.0181" stroke="#262626" stroke-width="0.879107" stroke-miterlimit="10" stroke-linecap="round" stroke-linejoin="round"/>
<path d="M27.5165 29.3628H20.4837C19.8363 29.3628 19.3115 28.8381 19.3115 28.1907C19.3115 27.5433 19.8363 27.0186 20.4837 27.0186H27.5165C28.1639 27.0186 28.6887 27.5433 28.6887 28.1907C28.6887 28.8381 28.1639 29.3628 27.5165 29.3628Z" stroke="#262626" stroke-width="0.879107" stroke-miterlimit="10" stroke-linecap="round" stroke-linejoin="round"/>
<path d="M33.3623 13.6482L33.913 13.4478" stroke="#262626" stroke-width="0.879107" stroke-miterlimit="10" stroke-linecap="round" stroke-linejoin="round"/>
<path d="M31.6318 10.6507L32.0808 10.2739" stroke="#262626" stroke-width="0.879107" stroke-miterlimit="10" stroke-linecap="round" stroke-linejoin="round"/>
<path d="M33.8135 15.3254L35.545 15.02" stroke="#262626" stroke-width="0.879107" stroke-miterlimit="10" stroke-linecap="round" stroke-linejoin="round"/>
<path d="M32.6348 12.072L34.1574 11.1929" stroke="#262626" stroke-width="0.879107" stroke-miterlimit="10" stroke-linecap="round" stroke-linejoin="round"/>
<path d="M14.6376 13.6482L14.0869 13.4478" stroke="#262626" stroke-width="0.879107" stroke-miterlimit="10" stroke-linecap="round" stroke-linejoin="round"/>
<path d="M16.367 10.6507L15.918 10.2739" stroke="#262626" stroke-width="0.879107" stroke-miterlimit="10" stroke-linecap="round" stroke-linejoin="round"/>
<path d="M14.1856 15.3254L12.4541 15.02" stroke="#262626" stroke-width="0.879107" stroke-miterlimit="10" stroke-linecap="round" stroke-linejoin="round"/>
<path d="M15.3644 12.072L13.8418 11.1929" stroke="#262626" stroke-width="0.879107" stroke-miterlimit="10" stroke-linecap="round" stroke-linejoin="round"/>
</g>
<defs>
<clipPath id="clip0_629_2436">
<rect width="30.0068" height="30.0068" fill="white" transform="translate(8.99609 8.99658)"/>
</clipPath>
</defs>
</svg>
