<svg width="48" height="48" viewBox="0 0 48 48" fill="none" xmlns="http://www.w3.org/2000/svg">
<rect width="48" height="48" rx="24" fill="#F0F3FA"/>
<path d="M36.5588 21.8342L23.9996 11.4404L11.4404 21.8342V35.6926C11.4404 35.9223 11.5317 36.1427 11.6941 36.3051C11.8566 36.4675 12.0769 36.5588 12.3066 36.5588H35.6926C35.9223 36.5588 36.1427 36.4675 36.3051 36.3051C36.4675 36.1427 36.5588 35.9223 36.5588 35.6926V21.8342Z" fill="#FCAA52"/>
<path d="M14.9037 25.7329H33.0928C33.5712 25.7329 33.959 25.3451 33.959 24.8668V14.473C33.959 13.9946 33.5712 13.6068 33.0928 13.6068H14.9037C14.4253 13.6068 14.0375 13.9946 14.0375 14.473V24.8668C14.0375 25.3451 14.4253 25.7329 14.9037 25.7329Z" fill="#20D665"/>
<path d="M32.2274 17.0972V22.2421C31.465 22.6205 30.8475 23.238 30.4691 24.0004H17.5288C17.1504 23.238 16.5329 22.6205 15.7705 22.2421V17.0972C16.5329 16.7187 17.1504 16.1012 17.5288 15.3389H30.4691C30.8475 16.1012 31.465 16.7187 32.2274 17.0972Z" fill="#59E78B"/>
<path d="M14.9037 29.1968H33.0928C33.5712 29.1968 33.959 28.809 33.959 28.3306V17.9368C33.959 17.4585 33.5712 17.0707 33.0928 17.0707H14.9037C14.4253 17.0707 14.0375 17.4585 14.0375 17.9368V28.3306C14.0375 28.809 14.4253 29.1968 14.9037 29.1968Z" fill="#31E170"/>
<path d="M32.2274 20.5625V25.7074C31.465 26.0858 30.8475 26.7034 30.4691 27.4657H17.5288C17.1504 26.7034 16.5329 26.0858 15.7705 25.7074V20.5625C16.5329 20.1841 17.1504 19.5665 17.5288 18.8042H30.4691C30.8475 19.5665 31.465 20.1841 32.2274 20.5625Z" fill="#70EA95"/>
<path d="M14.9037 33.1216H33.0928C33.5712 33.1216 33.959 32.7338 33.959 32.2554V21.4026C33.959 20.9242 33.5712 20.5364 33.0928 20.5364H14.9037C14.4253 20.5364 14.0375 20.9242 14.0375 21.4026V32.2554C14.0375 32.7338 14.4253 33.1216 14.9037 33.1216Z" fill="#59E78B"/>
<path d="M32.2274 24.0264V29.6303C31.465 30.0087 30.8475 30.6263 30.4691 31.3886H17.5288C17.1504 30.6263 16.5329 30.0087 15.7705 29.6303V24.0264C16.5329 23.6479 17.1504 23.0304 17.5288 22.2681H30.4691C30.8475 23.0304 31.465 23.6479 32.2274 24.0264Z" fill="#8CEAA3"/>
<path d="M23.9984 28.7643C25.1943 28.7643 26.1638 27.7949 26.1638 26.599C26.1638 25.4031 25.1943 24.4336 23.9984 24.4336C22.8025 24.4336 21.833 25.4031 21.833 26.599C21.833 27.7949 22.8025 28.7643 23.9984 28.7643Z" fill="#59E78B"/>
<path d="M33.0941 13.6069H32.3232C32.5388 13.8441 32.6591 14.1526 32.661 14.4731V24.8669C32.6591 25.1874 32.5388 25.4959 32.3232 25.733H33.0941C33.3238 25.733 33.5441 25.6418 33.7066 25.4793C33.869 25.3169 33.9603 25.0966 33.9603 24.8669V14.4731C33.9603 14.2434 33.869 14.0231 33.7066 13.8606C33.5441 13.6982 33.3238 13.6069 33.0941 13.6069Z" fill="#1EC95E"/>
<path d="M33.0941 17.0713H32.3232C32.5388 17.3085 32.6591 17.6169 32.661 17.9374V28.3312C32.6591 28.6517 32.5388 28.9602 32.3232 29.1974H33.0941C33.3238 29.1974 33.5441 29.1061 33.7066 28.9437C33.869 28.7813 33.9603 28.561 33.9603 28.3312V17.9374C33.9603 17.7077 33.869 17.4874 33.7066 17.325C33.5441 17.1625 33.3238 17.0713 33.0941 17.0713Z" fill="#20D665"/>
<path d="M33.0941 20.5352H32.3232C32.5388 20.7723 32.6591 21.0808 32.661 21.4013V32.2542C32.6591 32.5747 32.5388 32.8831 32.3232 33.1203H33.0941C33.3238 33.1203 33.5441 33.0291 33.7066 32.8666C33.869 32.7042 33.9603 32.4839 33.9603 32.2542V21.4013C33.9603 21.1716 33.869 20.9513 33.7066 20.7888C33.5441 20.6264 33.3238 20.5352 33.0941 20.5352Z" fill="#31E170"/>
<path d="M36.5588 21.8354V35.6938C36.5588 35.9236 36.4675 36.1439 36.3051 36.3063C36.1427 36.4687 35.9223 36.56 35.6926 36.56H12.3066C12.0769 36.56 11.8566 36.4687 11.6941 36.3063C11.5317 36.1439 11.4404 35.9236 11.4404 35.6938V21.8354L23.9996 31.3631L36.5588 21.8354Z" fill="#FCB860"/>
<path d="M36.2685 36.3382C36.1101 36.48 35.9051 36.5586 35.6925 36.5591H12.3065C12.0939 36.5586 11.8889 36.48 11.7305 36.3382L21.1455 29.1968L23.9995 31.3622L26.8534 29.1968L36.2685 36.3382Z" fill="#FCAA52"/>
<path d="M35.2597 22.8229V35.6938C35.2578 36.0143 35.1375 36.3228 34.9219 36.56H35.6927C35.9225 36.56 36.1428 36.4687 36.3052 36.3063C36.4676 36.1439 36.5589 35.9236 36.5589 35.6938V21.8354L35.2597 22.8229Z" fill="#FCAA52"/>
<path d="M36.5583 32.6613C36.6731 32.6613 36.7833 32.6157 36.8645 32.5344C36.9457 32.4532 36.9913 32.3431 36.9913 32.2282V21.8344C36.9914 21.7708 36.9775 21.7079 36.9506 21.6503C36.9236 21.5927 36.8843 21.5417 36.8354 21.5009L34.3929 19.4785V14.4721C34.3929 14.1276 34.256 13.7971 34.0124 13.5534C33.7687 13.3098 33.4382 13.1729 33.0937 13.1729H26.7708L24.2763 11.1071C24.1984 11.0423 24.1004 11.0068 23.9991 11.0068C23.8978 11.0068 23.7997 11.0423 23.7219 11.1071L21.2274 13.1729H18.3691C18.2543 13.1729 18.1441 13.2185 18.0629 13.2998C17.9817 13.381 17.936 13.4911 17.936 13.606C17.936 13.7208 17.9817 13.831 18.0629 13.9122C18.1441 13.9934 18.2543 14.0391 18.3691 14.0391H33.0937C33.2085 14.0391 33.3187 14.0847 33.3999 14.1659C33.4811 14.2471 33.5267 14.3573 33.5267 14.4721V16.7155C33.3879 16.665 33.2414 16.6387 33.0937 16.6375H32.3055C31.681 16.3023 31.1756 15.7819 30.859 15.1477C30.8233 15.0748 30.7678 15.0135 30.6989 14.9706C30.63 14.9277 30.5504 14.9051 30.4692 14.9052H17.5289C17.4478 14.9051 17.3682 14.9277 17.2993 14.9706C17.2304 15.0135 17.1749 15.0748 17.1392 15.1477C16.8225 15.7819 16.3172 16.3023 15.6927 16.6375H14.9045C14.7568 16.6387 14.6103 16.665 14.4714 16.7155V14.4721C14.4714 14.3573 14.5171 14.2471 14.5983 14.1659C14.6795 14.0847 14.7897 14.0391 14.9045 14.0391H16.6368C16.7517 14.0391 16.8618 13.9934 16.943 13.9122C17.0243 13.831 17.0699 13.7208 17.0699 13.606C17.0699 13.4911 17.0243 13.381 16.943 13.2998C16.8618 13.2185 16.7517 13.1729 16.6368 13.1729H14.9045C14.5599 13.1729 14.2295 13.3098 13.9858 13.5534C13.7422 13.7971 13.6053 14.1276 13.6053 14.4721V19.4785L11.1627 21.5009C11.1139 21.5417 11.0745 21.5927 11.0476 21.6503C11.0206 21.7079 11.0067 21.7708 11.0068 21.8344V35.6928C11.0068 36.0374 11.1437 36.3678 11.3874 36.6115C11.631 36.8552 11.9615 36.992 12.3061 36.992H35.6921C36.0367 36.992 36.3671 36.8552 36.6108 36.6115C36.8545 36.3678 36.9913 36.0374 36.9913 35.6928V33.9605C36.9913 33.8457 36.9457 33.7355 36.8645 33.6543C36.7833 33.5731 36.6731 33.5274 36.5583 33.5274C36.4434 33.5274 36.3332 33.5731 36.252 33.6543C36.1708 33.7355 36.1252 33.8457 36.1252 33.9605V35.6928L27.5676 29.1967L36.1252 22.7006V32.2282C36.1252 32.3431 36.1708 32.4532 36.252 32.5344C36.3332 32.6157 36.4434 32.6613 36.5583 32.6613ZM23.9991 12.0036L25.4109 13.1729H22.5873L23.9991 12.0036ZM35.861 21.8344L34.3929 22.9344V20.6045L35.861 21.8344ZM11.873 35.6928V22.7006L20.4305 29.1967L11.873 35.6928ZM16.2037 24.9049V24.2856C16.8607 23.9038 17.4069 23.3575 17.7888 22.7006H30.2094C30.5912 23.3575 31.1375 23.9038 31.7944 24.2856V24.9049L23.9991 30.8164L16.2037 24.9049ZM32.4181 23.636C31.7425 23.3 31.195 22.7525 30.859 22.0769C30.8233 22.004 30.7678 21.9427 30.6989 21.8998C30.63 21.8569 30.5504 21.8343 30.4692 21.8344H17.5289C17.4478 21.8343 17.3682 21.8569 17.2993 21.8998C17.2304 21.9427 17.1749 22.004 17.1392 22.0769C16.8031 22.7525 16.2557 23.3 15.5801 23.636C15.5072 23.6717 15.4458 23.7272 15.403 23.7961C15.3601 23.865 15.3374 23.9446 15.3376 24.0258V24.2466L14.4714 23.5884V21.4013C14.4714 21.2865 14.5171 21.1763 14.5983 21.0951C14.6795 21.0139 14.7897 20.9683 14.9045 20.9683H33.0937C33.2085 20.9683 33.3187 21.0139 33.3999 21.0951C33.4811 21.1763 33.5267 21.2865 33.5267 21.4013V23.5884L32.6606 24.2466V24.0258C32.6607 23.9446 32.6381 23.865 32.5952 23.7961C32.5523 23.7272 32.4909 23.6717 32.4181 23.636ZM17.1175 20.1021C17.3757 19.8418 17.6012 19.5509 17.7888 19.236H30.2094C30.397 19.5509 30.6224 19.8418 30.8806 20.1021H17.1175ZM17.7888 15.7714H30.2094C30.397 16.0863 30.6224 16.3772 30.8806 16.6375H17.1175C17.3757 16.3772 17.6012 16.0863 17.7888 15.7714ZM14.9045 17.5037H33.0937C33.2085 17.5037 33.3187 17.5493 33.3999 17.6305C33.4811 17.7117 33.5267 17.8219 33.5267 17.9367V20.1801C33.3879 20.1296 33.2414 20.1033 33.0937 20.1021H32.3011C31.6779 19.7666 31.174 19.2461 30.859 18.6123C30.8233 18.5394 30.7678 18.4781 30.6989 18.4352C30.63 18.3923 30.5504 18.3697 30.4692 18.3698H17.5289C17.4478 18.3697 17.3682 18.3923 17.2993 18.4352C17.2304 18.4781 17.1749 18.5394 17.1392 18.6123C16.8241 19.2461 16.3203 19.7666 15.697 20.1021H14.9045C14.7568 20.1033 14.6103 20.1296 14.4714 20.1801V17.9367C14.4714 17.8219 14.5171 17.7117 14.5983 17.6305C14.6795 17.5493 14.7897 17.5037 14.9045 17.5037ZM13.6053 21.4013V22.9344L12.1372 21.8344L13.6053 20.6045V21.4013ZM35.259 36.1259H12.7391L21.1451 29.7424L23.7436 31.7085C23.8185 31.7647 23.9097 31.7951 24.0034 31.7951C24.0971 31.7951 24.1883 31.7647 24.2633 31.7085L26.8617 29.7424L35.259 36.1259ZM26.5975 26.5982C26.5975 26.0843 26.4451 25.5819 26.1596 25.1546C25.8741 24.7273 25.4683 24.3943 24.9935 24.1976C24.5187 24.0009 23.9962 23.9495 23.4922 24.0497C22.9881 24.15 22.5251 24.3975 22.1617 24.7609C21.7983 25.1243 21.5508 25.5873 21.4506 26.0913C21.3503 26.5954 21.4018 27.1178 21.5984 27.5926C21.7951 28.0674 22.1282 28.4732 22.5555 28.7588C22.9828 29.0443 23.4852 29.1967 23.9991 29.1967C24.6882 29.1967 25.3492 28.9229 25.8365 28.4356C26.3238 27.9483 26.5975 27.2874 26.5975 26.5982ZM22.2668 26.5982C22.2668 26.2556 22.3684 25.9207 22.5587 25.6358C22.7491 25.3509 23.0196 25.1289 23.3362 24.9978C23.6527 24.8667 24.001 24.8324 24.337 24.8992C24.6731 24.9661 24.9817 25.1311 25.224 25.3733C25.4663 25.6156 25.6313 25.9242 25.6981 26.2603C25.7649 26.5963 25.7306 26.9446 25.5995 27.2612C25.4684 27.5777 25.2464 27.8482 24.9615 28.0386C24.6766 28.2289 24.3417 28.3305 23.9991 28.3305C23.5397 28.3305 23.099 28.148 22.7742 27.8232C22.4493 27.4983 22.2668 27.0577 22.2668 26.5982Z" fill="black"/>
</svg>
