<svg width="48" height="48" viewBox="0 0 48 48" fill="none" xmlns="http://www.w3.org/2000/svg">
<rect width="48" height="48" rx="24" fill="#F0F3FA"/>
<g clip-path="url(#clip0_629_2238)">
<path d="M35.5161 17.7046H12.4834L14.0538 15.0874H33.9457L35.5161 17.7046Z" fill="#8C6B3B"/>
<path d="M35.5152 18.228H12.4825C12.2937 18.228 12.12 18.1265 12.027 17.9624C11.9341 17.7983 11.9364 17.5971 12.0336 17.435L13.604 14.8176C13.6985 14.6598 13.8689 14.5635 14.0529 14.5635H33.9448C34.1289 14.5635 34.2992 14.6598 34.3937 14.8176L35.9641 17.435C36.0612 17.5968 36.0637 17.7983 35.9707 17.9624C35.8778 18.1263 35.7039 18.228 35.5152 18.228ZM13.407 17.181H34.5908L33.6485 15.6106H14.3495L13.407 17.181Z" fill="#414141"/>
<path d="M23.9875 18.8587L31.123 20.5273L32.9109 12.8821L25.7753 11.2134L23.9875 18.8587Z" fill="#83D816"/>
<path d="M31.1231 21.0532C31.0836 21.0532 31.0435 21.0487 31.0032 21.0394L23.8672 19.3704C23.7319 19.3386 23.6149 19.2549 23.5416 19.1366C23.4683 19.0189 23.445 18.8765 23.4767 18.7414L25.2652 11.096C25.3309 10.8144 25.6123 10.639 25.8942 10.7055L33.0302 12.3745C33.1654 12.4063 33.2824 12.49 33.3558 12.6083C33.4291 12.726 33.4524 12.8684 33.4206 13.0035L31.6321 20.6489C31.5759 20.8905 31.3605 21.0532 31.1231 21.0532ZM24.6153 18.4701L30.7321 19.9008L32.2818 13.2751L26.165 11.8444L24.6153 18.4701Z" fill="#414141"/>
<path d="M15.6331 20.2889L24.3887 19.2539L23.2797 9.87286L14.5241 10.9079L15.6331 20.2889Z" fill="#E6C02A"/>
<path d="M15.6325 20.8133C15.3707 20.8133 15.1448 20.6174 15.1132 20.351L14.0046 10.9704C13.9709 10.6834 14.1761 10.4231 14.4628 10.3891L23.2182 9.35418C23.3567 9.33793 23.4945 9.37719 23.6037 9.46307C23.7129 9.54895 23.7833 9.67486 23.7996 9.81273L24.9082 19.1936C24.9245 19.3313 24.8855 19.4703 24.7993 19.5792C24.7134 19.6884 24.5875 19.7588 24.45 19.775L15.6946 20.8096C15.6736 20.8119 15.6529 20.8133 15.6325 20.8133ZM15.1056 11.3675L16.0915 19.7085L23.8072 18.7969L22.8213 10.4556L15.1056 11.3675Z" fill="#414141"/>
<path d="M20.5701 24.2106L29.0039 22.1826L26.8697 13.307L18.4359 15.335L20.5701 24.2106Z" fill="#ED5481"/>
<path d="M20.5694 24.7343C20.3331 24.7343 20.1184 24.5732 20.0609 24.3332L17.9267 15.4581C17.8592 15.177 18.0322 14.8944 18.3133 14.8269L26.7461 12.799C26.8817 12.7668 27.0236 12.7894 27.1418 12.8613C27.2601 12.9338 27.3449 13.0505 27.3774 13.1853L29.5115 22.0607C29.544 22.1959 29.5215 22.3382 29.449 22.4564C29.3764 22.575 29.26 22.6595 29.1249 22.692L20.6921 24.7197C20.6511 24.7298 20.6097 24.7343 20.5694 24.7343ZM19.0668 15.7222L20.9562 23.5798L28.3711 21.7968L26.4817 13.9394L19.0668 15.7222Z" fill="#414141"/>
<path d="M36.4838 37.1031C36.5124 37.6743 36.057 38.153 35.4851 38.153H12.3713C11.7966 38.153 11.3401 37.6697 11.373 37.0959L12.4822 17.7051H35.5149L36.4838 37.1031Z" fill="#299FE9"/>
<path fill-rule="evenodd" clip-rule="evenodd" d="M31.2498 38.6438H34.8884C36.0281 38.6438 36.9375 37.6927 36.8863 36.5541L36.039 17.6782C36.0246 17.3999 35.7949 17.1816 35.5161 17.1816H12.4833C12.2045 17.1816 11.9748 17.4 11.9604 17.6782L11.0182 36.487C10.9611 37.6263 11.867 38.5825 13.0077 38.587L27.241 38.6438C27.241 38.6438 27.7664 38.6438 27.7664 38.1203C27.7664 37.5968 27.241 37.5968 27.241 37.5968H13.0397C12.4673 37.5968 12.0117 37.1172 12.041 36.5456L12.9317 19.1773C12.959 18.6456 13.398 18.2285 13.9304 18.2285H34.0684C34.6008 18.2285 35.0398 18.6456 35.0671 19.1773L35.9578 36.5456C35.9871 37.1172 35.5315 37.5968 34.9591 37.5968H31.2498C31.2498 37.5968 30.7923 37.5968 30.7923 38.1203C30.7923 38.6438 31.2498 38.6438 31.2498 38.6438Z" fill="#414141"/>
<path d="M27.9239 21.8928C28.5022 21.8928 28.9709 21.4241 28.9709 20.8458C28.9709 20.2676 28.5022 19.7988 27.9239 19.7988C27.3457 19.7988 26.877 20.2676 26.877 20.8458C26.877 21.4241 27.3457 21.8928 27.9239 21.8928Z" fill="#8C6B3B"/>
<path d="M27.9249 22.4147C27.0589 22.4147 26.3545 21.7104 26.3545 20.8443C26.3545 19.9783 27.0589 19.2739 27.9249 19.2739C28.7909 19.2739 29.4953 19.9783 29.4953 20.8443C29.4953 21.7104 28.7909 22.4147 27.9249 22.4147ZM27.9249 20.3209C27.6363 20.3209 27.4015 20.5557 27.4015 20.8443C27.4015 21.133 27.6363 21.3678 27.9249 21.3678C28.2135 21.3678 28.4483 21.133 28.4483 20.8443C28.4483 20.5557 28.2135 20.3209 27.9249 20.3209Z" fill="#414141"/>
<path d="M20.0724 21.8928C20.6506 21.8928 21.1194 21.4241 21.1194 20.8458C21.1194 20.2676 20.6506 19.7988 20.0724 19.7988C19.4941 19.7988 19.0254 20.2676 19.0254 20.8458C19.0254 21.4241 19.4941 21.8928 20.0724 21.8928Z" fill="#8C6B3B"/>
<path d="M20.0733 22.4147C19.2073 22.4147 18.5029 21.7104 18.5029 20.8443C18.5029 19.9783 19.2073 19.2739 20.0733 19.2739C20.9394 19.2739 21.6437 19.9783 21.6437 20.8443C21.6437 21.7104 20.9394 22.4147 20.0733 22.4147ZM20.0733 20.3209C19.7847 20.3209 19.5499 20.5557 19.5499 20.8443C19.5499 21.133 19.7847 21.3678 20.0733 21.3678C20.362 21.3678 20.5968 21.133 20.5968 20.8443C20.5968 20.5557 20.362 20.3209 20.0733 20.3209Z" fill="#414141"/>
<path d="M23.9983 28.6976C21.5448 28.6976 19.5488 26.7016 19.5488 24.2482V21.3691C19.5488 21.0802 19.7833 20.8457 20.0722 20.8457C20.3612 20.8457 20.5957 21.0802 20.5957 21.3691V24.2482C20.5957 26.1242 22.1221 27.6508 23.9983 27.6508C25.8745 27.6508 27.4009 26.1244 27.4009 24.2482V21.5709C27.3746 21.509 27.3605 21.4406 27.3605 21.3691C27.3605 21.0802 27.595 20.8457 27.884 20.8457H27.9243C28.2132 20.8457 28.4477 21.0802 28.4477 21.3691V24.2482C28.4477 26.7016 26.4517 28.6976 23.9983 28.6976Z" fill="#414141"/>
</g>
<defs>
<clipPath id="clip0_629_2238">
<rect width="30.8848" height="30.8848" fill="white" transform="translate(8.55664 7.75879)"/>
</clipPath>
</defs>
</svg>
