<svg width="40" height="40" viewBox="0 0 40 40" fill="none" xmlns="http://www.w3.org/2000/svg">
<rect width="40" height="40" rx="20" fill="#F0F3FA"/>
<path fill-rule="evenodd" clip-rule="evenodd" d="M30.5443 10.7941C30.5443 10.328 30.3594 9.88132 30.0295 9.55189C29.7001 9.22203 29.2534 9.03711 28.7873 9.03711C24.8166 9.03711 15.1886 9.03711 11.2179 9.03711C10.7519 9.03711 10.3051 9.22203 9.97572 9.55189C9.64585 9.88132 9.46094 10.328 9.46094 10.7941V19.5788C9.46094 20.0448 9.64585 20.4915 9.97572 20.8209C10.3051 21.1508 10.7519 21.3357 11.2179 21.3357H28.7873C29.2534 21.3357 29.7001 21.1508 30.0295 20.8209C30.3594 20.4915 30.5443 20.0448 30.5443 19.5788C30.5443 17.2412 30.5443 13.1317 30.5443 10.7941Z" fill="#80C783"/>
<path d="M28.7873 9.03711C29.2534 9.03711 29.6998 9.22225 30.0293 9.55211C30.3591 9.88154 30.5443 10.328 30.5443 10.7941V19.5788C30.5443 20.0448 30.3591 20.4913 30.0293 20.8207C29.6998 21.1506 29.2534 21.3357 28.7873 21.3357H11.2179C10.7519 21.3357 10.3054 21.1506 9.97594 20.8207C9.64608 20.4913 9.46094 20.0448 9.46094 19.5788V10.7941C9.46094 10.328 9.64608 9.88154 9.97594 9.55211C10.3054 9.22225 10.7519 9.03711 11.2179 9.03711H28.7873ZM11.2179 9.88044C10.9754 9.88044 10.7432 9.97658 10.5722 10.1478L10.5717 10.1484C10.4004 10.3194 10.3043 10.5516 10.3043 10.7941V19.5788C10.3043 19.791 10.378 19.9952 10.5113 20.1575L10.5717 20.2245L10.5722 20.225C10.7432 20.3963 10.9754 20.4924 11.2179 20.4924H28.7873C29.0298 20.4924 29.262 20.3963 29.433 20.225L29.4336 20.2245C29.6048 20.0534 29.7009 19.8213 29.7009 19.5788V10.7941C29.7009 10.5516 29.6048 10.3194 29.4336 10.1484L29.433 10.1478C29.262 9.97658 29.0298 9.88044 28.7873 9.88044H11.2179Z" fill="#1E3F20"/>
<path fill-rule="evenodd" clip-rule="evenodd" d="M28.7862 12.5519C28.3202 12.5519 27.8735 12.3669 27.5441 12.0371C27.2142 11.7077 27.0293 11.261 27.0293 10.7949C23.0586 10.7949 16.9444 10.7949 12.9737 10.7949C12.9737 11.261 12.7888 11.7077 12.459 12.0371C12.1295 12.3669 11.6828 12.5519 11.2168 12.5519V17.8227C11.6828 17.8227 12.1295 18.0076 12.459 18.3375C12.7888 18.6669 12.9737 19.1136 12.9737 19.5796H27.0293C27.0293 19.1136 27.2142 18.6669 27.5441 18.3375C27.8735 18.0076 28.3202 17.8227 28.7862 17.8227C28.7862 15.8729 28.7862 14.5016 28.7862 12.5519Z" fill="#458948"/>
<path fill-rule="evenodd" clip-rule="evenodd" d="M31.4204 14.3077C31.4204 13.8417 31.2354 13.395 30.9056 13.0656C30.5762 12.7357 30.1295 12.5508 29.6634 12.5508C25.409 12.5508 14.5915 12.5508 10.337 12.5508C9.87099 12.5508 9.42429 12.7357 9.09486 13.0656C8.765 13.395 8.58008 13.8417 8.58008 14.3077V23.0925C8.58008 23.5585 8.765 24.0052 9.09486 24.3346C9.42429 24.6645 9.87099 24.8494 10.337 24.8494H29.6634C30.1295 24.8494 30.5762 24.6645 30.9056 24.3346C31.2354 24.0052 31.4204 23.5585 31.4204 23.0925C31.4204 20.7548 31.4204 16.6453 31.4204 14.3077Z" fill="#80C783"/>
<path fill-rule="evenodd" clip-rule="evenodd" d="M31.4204 14.3077C31.4204 13.8417 31.2354 13.395 30.9056 13.0656C30.5762 12.7357 30.1295 12.5508 29.6634 12.5508C25.409 12.5508 14.5915 12.5508 10.337 12.5508C9.87099 12.5508 9.42429 12.7357 9.09486 13.0656C8.765 13.395 8.58008 13.8417 8.58008 14.3077V23.0925C8.58008 23.5585 8.765 24.0052 9.09486 24.3346C9.42429 24.6645 9.87099 24.8494 10.337 24.8494H29.6634C30.1295 24.8494 30.5762 24.6645 30.9056 24.3346C31.2354 24.0052 31.4204 23.5585 31.4204 23.0925C31.4204 20.7548 31.4204 16.6453 31.4204 14.3077Z" fill="#80C783"/>
<path d="M29.6634 12.5508C30.1295 12.5508 30.5759 12.7359 30.9054 13.0658C31.2352 13.3952 31.4204 13.8417 31.4204 14.3077V23.0925C31.4204 23.5585 31.2352 24.005 30.9054 24.3344C30.5759 24.6643 30.1295 24.8494 29.6634 24.8494H10.337C9.87099 24.8494 9.42451 24.6643 9.09508 24.3344C8.76522 24.005 8.58008 23.5585 8.58008 23.0925V14.3077C8.58008 13.8417 8.76522 13.3952 9.09508 13.0658C9.42451 12.7359 9.87099 12.5508 10.337 12.5508H29.6634ZM10.337 13.3941C10.0945 13.3941 9.86236 13.4903 9.69135 13.6615L9.6908 13.662C9.51955 13.8331 9.42341 14.0652 9.42341 14.3077V23.0925C9.42341 23.3047 9.49717 23.5088 9.6304 23.6711L9.6908 23.7381L9.69135 23.7387C9.86236 23.9099 10.0945 24.0061 10.337 24.0061H29.6634C29.9059 24.0061 30.1381 23.9099 30.3091 23.7387L30.3096 23.7381C30.4809 23.5671 30.577 23.3349 30.577 23.0925V14.3077C30.577 14.0652 30.4809 13.8331 30.3096 13.662L30.3091 13.6615C30.1381 13.4903 29.9059 13.3941 29.6634 13.3941H10.337Z" fill="#1E3F20"/>
<path fill-rule="evenodd" clip-rule="evenodd" d="M29.6643 16.0655C29.1983 16.0655 28.7516 15.8806 28.4221 15.5508C28.0923 15.2213 27.9073 14.7746 27.9073 14.3086C23.9366 14.3086 16.0655 14.3086 12.0948 14.3086C12.0948 14.7746 11.9099 15.2213 11.5801 15.5508C11.2506 15.8806 10.8039 16.0655 10.3379 16.0655V21.3364C10.8039 21.3364 11.2506 21.5213 11.5801 21.8512C11.9099 22.1806 12.0948 22.6273 12.0948 23.0933H27.9073C27.9073 22.6273 28.0923 22.1806 28.4221 21.8512C28.7516 21.5213 29.1983 21.3364 29.6643 21.3364C29.6643 19.3866 29.6643 18.0153 29.6643 16.0655Z" fill="#458948"/>
<path fill-rule="evenodd" clip-rule="evenodd" d="M32.3004 17.8214C32.3004 16.8511 31.5137 16.0645 30.5434 16.0645H9.46007C8.4898 16.0645 7.70312 16.8511 7.70312 17.8214V28.3631C7.70312 29.3333 8.4898 30.12 9.46007 30.12H30.5434C31.5137 30.12 32.3004 29.3333 32.3004 28.3631V17.8214Z" fill="#80C783"/>
<path fill-rule="evenodd" clip-rule="evenodd" d="M32.3004 17.5028C32.3004 16.4733 31.5137 15.6387 30.5434 15.6387H9.46007C8.4898 15.6387 7.70312 16.4733 7.70312 17.5028V28.6875C7.70312 29.7169 8.4898 30.5516 9.46007 30.5516H30.5434C31.5137 30.5516 32.3004 29.7169 32.3004 28.6875V17.5028Z" fill="#80C783"/>
<path fill-rule="evenodd" clip-rule="evenodd" d="M30.543 15.2217C31.979 15.2217 33.1433 16.3859 33.1433 17.822V28.3636C33.1433 29.7997 31.979 30.9639 30.543 30.9639H15.5738C15.5738 30.9639 15.1101 30.9639 15.1101 30.5422C15.1101 30.1206 15.5738 30.1206 15.5738 30.1206H30.543C31.5133 30.1206 32.2999 29.3339 32.2999 28.3636V17.822C32.2999 16.8517 31.5133 16.065 30.543 16.065H23.4449C23.4449 16.065 22.8827 16.065 22.8827 15.6433C22.8827 15.2217 23.4449 15.2217 23.4449 15.2217H30.543ZM13.3249 30.9639C13.3249 30.9639 13.8872 30.9639 13.8872 30.5422C13.8872 30.1206 13.3249 30.1206 13.3249 30.1206H9.45965C8.48938 30.1206 7.70271 29.3339 7.70271 28.3636V17.822C7.70271 16.8517 8.48938 16.065 9.45965 16.065H21.196C21.196 16.065 21.6859 16.065 21.6859 15.6433C21.6859 15.2217 21.196 15.2217 21.196 15.2217H9.45965C8.02362 15.2217 6.85938 16.3859 6.85938 17.822V28.3636C6.85938 29.7997 8.02362 30.9639 9.45965 30.9639H13.3249Z" fill="#1E3F20"/>
<path fill-rule="evenodd" clip-rule="evenodd" d="M30.5443 19.5792C30.0782 19.5792 29.6315 19.3943 29.3021 19.0644C28.9723 18.735 28.7873 18.2883 28.7873 17.8223C24.8166 17.8223 15.1886 17.8223 11.2179 17.8223C11.2179 18.2883 11.033 18.735 10.7031 19.0644C10.3737 19.3943 9.92697 19.5792 9.46094 19.5792V26.607C9.92697 26.607 10.3737 26.7919 10.7031 27.1218C11.033 27.4512 11.2179 27.8979 11.2179 28.3639H28.7873C28.7873 27.8979 28.9723 27.4512 29.3021 27.1218C29.6315 26.7919 30.0782 26.607 30.5443 26.607C30.5443 24.6572 30.5443 21.529 30.5443 19.5792Z" fill="#419C45"/>
<path d="M20.0015 28.0119C22.6409 28.0119 24.7804 25.8723 24.7804 23.233C24.7804 20.5937 22.6409 18.4541 20.0015 18.4541C17.3622 18.4541 15.2227 20.5937 15.2227 23.233C15.2227 25.8723 17.3622 28.0119 20.0015 28.0119Z" fill="#80C783"/>
<path d="M27.0289 23.9708C27.514 23.9708 27.9073 23.5775 27.9073 23.0923C27.9073 22.6072 27.514 22.2139 27.0289 22.2139C26.5437 22.2139 26.1504 22.6072 26.1504 23.0923C26.1504 23.5775 26.5437 23.9708 27.0289 23.9708Z" fill="#80C783"/>
<path d="M12.9722 23.9708C13.4574 23.9708 13.8507 23.5775 13.8507 23.0923C13.8507 22.6072 13.4574 22.2139 12.9722 22.2139C12.4871 22.2139 12.0938 22.6072 12.0938 23.0923C12.0938 23.5775 12.4871 23.9708 12.9722 23.9708Z" fill="#80C783"/>
<path d="M20.2354 26.3251H19.6316V25.5897C19.2073 25.5336 18.8748 25.3679 18.6341 25.0924C18.3935 24.8169 18.2557 24.5111 18.2207 24.1749L18.9557 23.9578C18.9732 24.1772 19.0388 24.371 19.1526 24.5391C19.2663 24.7025 19.426 24.8099 19.6316 24.8613V23.5725L19.5135 23.5445C19.1591 23.4605 18.8813 23.3087 18.6801 23.0893C18.4832 22.8698 18.3848 22.592 18.3848 22.2558C18.3848 21.9103 18.5007 21.6091 18.7326 21.3523C18.9688 21.0908 19.2685 20.9344 19.6316 20.883V20.1406H20.2354V20.89C20.5897 20.9507 20.8632 21.0932 21.0557 21.3173C21.2526 21.5367 21.3772 21.7842 21.4297 22.0597L20.721 22.2978C20.6685 21.9663 20.5066 21.7445 20.2354 21.6325V22.8862L20.2944 22.9002C20.6751 22.9889 20.966 23.1523 21.1672 23.3904C21.3729 23.6286 21.4757 23.9087 21.4757 24.2309C21.4757 24.5624 21.3663 24.8566 21.1476 25.1134C20.9288 25.3702 20.6247 25.5266 20.2354 25.5827V26.3251ZM19.1526 22.2068C19.1526 22.3375 19.1919 22.4542 19.2707 22.557C19.3538 22.655 19.4741 22.7204 19.6316 22.7531V21.6044C19.4785 21.6465 19.3604 21.7235 19.2773 21.8356C19.1941 21.943 19.1526 22.0667 19.1526 22.2068ZM20.7144 24.2729C20.7144 23.9928 20.5547 23.806 20.2354 23.7126V24.8613C20.3929 24.8286 20.511 24.7585 20.5897 24.6511C20.6729 24.5391 20.7144 24.413 20.7144 24.2729Z" fill="#458948"/>
</svg>
