<svg width="48" height="48" viewBox="0 0 48 48" fill="none" xmlns="http://www.w3.org/2000/svg">
<rect width="48" height="48" rx="24" fill="#F0F3FA"/>
<g clip-path="url(#clip0_629_2299)">
<path d="M39.4769 19.2768H33.2566L27.4941 14.2846C26.6002 13.5108 25.5764 13.4426 25.3244 13.438H15.2815C14.2568 13.438 13.6046 13.8964 13.3871 14.0776L13.3061 14.1496L13.3054 14.1502L6.92552 19.8288C6.26085 20.3298 5.83105 21.1257 5.83105 22.0224V26.2369C5.83105 27.7532 7.0602 28.9824 8.57646 28.9824H8.95489V28.9822C8.95489 25.9152 11.4411 23.4292 14.5076 23.4292C17.5748 23.4292 20.0609 25.9153 20.0609 28.9822V28.9824H22.0314H28.4541V28.9822C28.4541 25.9152 30.9404 23.4292 34.007 23.4292C37.0734 23.4292 39.5591 25.9142 39.5602 28.9804C41.038 28.9361 42.2224 27.7252 42.2224 26.2369V22.0224C42.2226 20.5058 40.9934 19.2768 39.4769 19.2768Z" fill="#4ABF69"/>
<path d="M39.9739 23.9343C39.263 23.9343 38.6865 23.358 38.6865 22.6468C38.6865 21.9357 39.263 21.3594 39.9739 21.3594H42.1421C42.1948 21.5717 42.2232 21.7939 42.2232 22.0226V23.9342H39.9739V23.9343Z" fill="#F7A539"/>
<path d="M29.9941 19.2768H33.2553L27.4928 14.2846C26.5989 13.5108 25.5751 13.4426 25.3231 13.438H17.6785L13.8018 17.1026V19.2768H27.9104" fill="#97D3EE"/>
<path d="M7.97399 26.8967V22.6822C7.97399 21.7855 8.40372 20.9895 9.06846 20.4886L16.6678 13.623H15.8421C14.8174 13.623 14.1652 14.0815 13.9477 14.2626L13.8667 14.3346L13.8661 14.3353L7.48607 20.014C6.8214 20.5149 6.3916 21.3109 6.3916 22.2075V26.4221C6.3916 27.9383 7.62074 29.1675 9.13701 29.1675H9.17606C8.45062 28.6734 7.97399 27.8408 7.97399 26.8967Z" fill="#2C9B46"/>
<path d="M40.8563 22.5936C40.8563 21.8825 41.4328 21.3062 42.1437 21.3062H40.5335C39.8226 21.3062 39.2461 21.8824 39.2461 22.5936C39.2461 23.3046 39.8226 23.881 40.5335 23.881H42.1437C41.4328 23.881 40.8563 23.3047 40.8563 22.5936Z" fill="#ED6529"/>
<path d="M18.2391 13.3854L15.2615 16.2C15.1081 16.3475 14.3623 17.1013 14.3623 17.811V18.6022V18.6103C14.3631 18.6822 14.3911 19.2241 15.0672 19.2241H20.6202V13.3853H18.2392L18.2391 13.3854Z" fill="#5BC5EF"/>
<path d="M34.0069 34.5363C37.0737 34.5363 39.5598 32.0502 39.5598 28.9835C39.5598 25.9168 37.0737 23.4307 34.0069 23.4307C30.9402 23.4307 28.4541 25.9168 28.4541 28.9835C28.4541 32.0502 30.9402 34.5363 34.0069 34.5363Z" fill="#5B5E5E"/>
<path d="M20.0601 28.9827C20.0601 32.0498 17.574 34.5359 14.5069 34.5359C11.4401 34.5359 8.9541 32.0498 8.9541 28.9827C8.9541 25.9156 11.4403 23.4297 14.5069 23.4297C17.574 23.4297 20.0601 25.9157 20.0601 28.9827Z" fill="#5B5E5E"/>
<path d="M17.0134 28.9832C17.0134 30.3673 15.8913 31.4896 14.5071 31.4896C13.1231 31.4896 12.001 30.3673 12.001 28.9832C12.001 27.599 13.1231 26.4775 14.5071 26.4775C15.8913 26.4777 17.0134 27.5991 17.0134 28.9832Z" fill="#E6E9ED"/>
<path d="M36.5124 28.9832C36.5124 30.3673 35.3903 31.4896 34.0061 31.4896C32.6221 31.4896 31.5 30.3673 31.5 28.9832C31.5 27.599 32.6221 26.4775 34.0061 26.4775C35.3904 26.4777 36.5124 27.5991 36.5124 28.9832Z" fill="#E6E9ED"/>
<path d="M7.36824 24.4876C8.07929 24.4876 8.65573 23.9111 8.65573 23.2002C8.65573 22.4891 8.07943 21.9126 7.36824 21.9126H5.83105V22.5759V24.4876H7.36824Z" fill="#ED3A47"/>
<path d="M30.5564 28.9299C30.5564 26.1249 32.6364 23.8071 35.3379 23.4315C35.0857 23.3964 34.8284 23.377 34.5664 23.377C31.4997 23.377 29.0137 25.863 29.0137 28.9299C29.0137 31.997 31.4998 34.4832 34.5664 34.4832C34.8284 34.4832 35.0856 34.4638 35.3379 34.4287C32.6364 34.053 30.5564 31.7352 30.5564 28.9299Z" fill="#464949"/>
<path d="M11.0573 28.9299C11.0573 26.1249 13.1376 23.8071 15.8389 23.4315C15.5867 23.3964 15.3295 23.377 15.0676 23.377C12.0009 23.377 9.51465 25.863 9.51465 28.9299C9.51465 31.997 12.001 34.4832 15.0676 34.4832C15.3296 34.4832 15.5867 34.4638 15.8389 34.4287C13.1376 34.053 11.0573 31.7352 11.0573 28.9299Z" fill="#464949"/>
<path d="M24.026 21.3193H21.4615C21.1337 21.3193 20.8682 21.5849 20.8682 21.9127C20.8682 22.2404 21.1337 22.506 21.4615 22.506H24.026C24.3538 22.506 24.6193 22.2404 24.6193 21.9127C24.6193 21.5849 24.3538 21.3193 24.026 21.3193Z" fill="#231F20"/>
<path fill-rule="evenodd" clip-rule="evenodd" d="M42.8097 21.8317C42.8091 21.8212 42.8082 21.8107 42.8073 21.8003C42.8068 21.7939 42.8062 21.7876 42.8058 21.7812C42.8024 21.7335 42.7982 21.686 42.7927 21.639C42.7907 21.6218 42.7885 21.6048 42.7862 21.5877L42.7858 21.5851C42.7796 21.538 42.7725 21.4911 42.7643 21.4445C42.7614 21.428 42.7585 21.4114 42.7554 21.3949C42.7456 21.3435 42.7345 21.2926 42.7225 21.2423C42.7204 21.2337 42.719 21.2249 42.7168 21.2163C42.7167 21.2157 42.7164 21.2151 42.7162 21.2145C42.716 21.2139 42.7157 21.2133 42.7156 21.2126C42.3527 19.7616 41.0383 18.6835 39.4765 18.6835H33.4775L27.8821 13.836C26.8479 12.9408 25.671 12.851 25.3349 12.8448C25.3313 12.8447 25.3277 12.8447 25.3241 12.8447H25.324H17.6796H15.2812C14.071 12.8447 13.2878 13.388 13.0072 13.6215C13.0042 13.624 13.0013 13.6264 12.9985 13.6289C12.9964 13.6306 12.9944 13.6324 12.9924 13.6342L12.9114 13.7062C12.9102 13.7073 12.9089 13.7085 12.9076 13.7096C12.907 13.7101 12.9065 13.7106 12.906 13.7112L9.24848 16.9666L9.19952 17.0102V17.01L8.01288 18.0624L7.49412 18.5232L6.30733 19.5742C5.66894 20.1632 5.28956 20.9652 5.24259 21.8375C5.23943 21.8622 5.2373 21.8871 5.2373 21.9126V22.0225V24.4876V26.2369C5.2373 28.0153 6.63511 29.4731 8.38991 29.5702C8.68694 32.6846 11.3167 35.1289 14.5073 35.1289C17.6964 35.1289 20.3251 32.6875 20.6247 29.5757H27.8895C28.1891 32.6875 30.8178 35.1289 34.0066 35.1289C37.2173 35.1289 39.8595 32.6536 40.1288 29.5113C41.6728 29.2103 42.8153 27.865 42.8153 26.2369V23.9341V22.0225C42.8155 21.9585 42.8133 21.8949 42.8097 21.8317ZM41.6288 22.0225V23.3408H39.9728C39.5901 23.3408 39.2788 23.0294 39.2788 22.6468C39.2788 22.2641 39.5902 21.9527 39.9728 21.9527H41.627C41.6278 21.9759 41.6288 21.999 41.6288 22.0225ZM19.4672 14.0314V18.6836H14.3961V17.3583L17.9155 14.0314H19.4672ZM7.36781 22.5059C7.75056 22.5059 8.06183 22.8174 8.06183 23.2002C8.06183 23.5829 7.75042 23.8942 7.36781 23.8942H6.42395V22.5058H7.36774L7.36781 22.5059ZM14.5073 33.9422C11.7726 33.9422 9.54786 31.7172 9.54786 28.9823C9.54786 26.2475 11.7727 24.0227 14.5073 24.0227C14.6782 24.0227 14.8472 24.0314 15.0137 24.0483C17.5117 24.3028 19.4672 26.4185 19.4672 28.9823C19.4672 31.7173 17.2422 33.9422 14.5073 33.9422ZM34.0067 33.9422C31.2719 33.9422 29.0471 31.7172 29.0471 28.9823C29.0471 26.2475 31.272 24.0227 34.0067 24.0227C36.4764 24.0227 38.5303 25.838 38.905 28.2042C38.9062 28.2118 38.9078 28.2192 38.909 28.2267C38.9185 28.2885 38.9257 28.3509 38.9328 28.4133C38.9338 28.4223 38.9351 28.4313 38.9363 28.4403C38.9379 28.4518 38.9395 28.4633 38.9407 28.4749C38.9449 28.5168 38.9477 28.5591 38.9506 28.6014C38.9514 28.6127 38.9521 28.624 38.9529 28.6353C38.9538 28.6477 38.9548 28.66 38.9559 28.6723C38.9567 28.6827 38.9576 28.6931 38.9584 28.7036C38.959 28.7112 38.9595 28.7189 38.9599 28.7266C38.9615 28.7586 38.962 28.7908 38.9626 28.823C38.9628 28.8363 38.963 28.8497 38.9633 28.863C38.9643 28.9028 38.9663 28.9423 38.9663 28.9823C38.9665 31.7173 36.7416 33.9422 34.0067 33.9422ZM40.1148 28.2936C40.1109 28.2587 40.1059 28.2241 40.1009 28.1895C40.0987 28.1742 40.0965 28.1589 40.0944 28.1436C40.0927 28.1308 40.091 28.1181 40.0894 28.1053L40.0894 28.1052C40.0861 28.0796 40.0827 28.0541 40.0788 28.0287C40.0684 27.9619 40.0558 27.8959 40.0431 27.8298L40.0431 27.8296C40.0406 27.8167 40.0384 27.8038 40.0361 27.7909L40.0361 27.7908L40.0361 27.7907C40.0329 27.7725 40.0297 27.7543 40.0259 27.7363C40.006 27.6399 39.984 27.5443 39.9596 27.4496C39.9564 27.4372 39.9525 27.4252 39.9492 27.4128C39.9275 27.3306 39.9046 27.2489 39.8796 27.168C39.8729 27.1463 39.8656 27.125 39.8583 27.1036L39.8583 27.1035L39.8581 27.1031C39.8539 27.0906 39.8496 27.0782 39.8455 27.0656L39.8383 27.044C39.8216 26.9931 39.8049 26.9423 39.7866 26.8921C39.7765 26.8643 39.7658 26.8369 39.755 26.8095C39.7507 26.7986 39.7464 26.7877 39.7422 26.7768L39.7338 26.7552C39.7166 26.7106 39.6995 26.6661 39.6811 26.6221C39.6681 26.591 39.6544 26.5602 39.6406 26.5295L39.6336 26.5136L39.6288 26.5028L39.6246 26.4933C39.6046 26.4481 39.5846 26.403 39.5635 26.3585C39.5443 26.3182 39.5242 26.2784 39.5043 26.2386C39.4812 26.1927 39.4582 26.1469 39.434 26.1016C39.4127 26.0616 39.3906 26.0221 39.3684 25.9826C39.3437 25.9387 39.3187 25.8949 39.293 25.8516C39.2697 25.8123 39.2457 25.7734 39.2215 25.7347C39.1951 25.6924 39.1683 25.6505 39.1409 25.609C39.1156 25.5706 39.0899 25.5325 39.0638 25.4948C39.0356 25.454 39.0069 25.4138 38.9777 25.3738C38.9506 25.3366 38.9235 25.2996 38.8956 25.2631C38.8656 25.2237 38.8349 25.1851 38.804 25.1466C38.7753 25.1108 38.7465 25.0748 38.717 25.0396C38.6852 25.0018 38.6526 24.9646 38.6198 24.9276C38.614 24.921 38.6082 24.9144 38.6024 24.9078C38.5781 24.88 38.5538 24.8523 38.5288 24.8252C38.4949 24.7883 38.4598 24.7524 38.425 24.7163C38.4197 24.7109 38.4145 24.7054 38.4092 24.7L38.401 24.6914C38.3778 24.6673 38.3547 24.6432 38.331 24.6197C38.302 24.5909 38.2722 24.563 38.2425 24.535C38.2346 24.5276 38.2267 24.5202 38.2188 24.5127C38.2093 24.5037 38.1998 24.4947 38.1903 24.4856C38.1684 24.4647 38.1464 24.4438 38.124 24.4235C38.0884 24.3913 38.0519 24.3602 38.0154 24.3291L37.9951 24.3118C37.9839 24.3023 37.9729 24.2926 37.9618 24.2829C37.9441 24.2674 37.9264 24.2519 37.9081 24.2369C37.8362 24.1777 37.7629 24.1201 37.6883 24.0641C37.669 24.0496 37.6493 24.0357 37.6296 24.0217C37.618 24.0136 37.6064 24.0054 37.595 23.9971L37.5724 23.9809C37.5337 23.9528 37.495 23.9248 37.4556 23.8979C37.4317 23.8817 37.4074 23.866 37.383 23.8504L37.3826 23.8502C37.371 23.8428 37.3595 23.8353 37.3479 23.8278L37.3385 23.8217L37.324 23.8122L37.3238 23.8121C37.2878 23.7886 37.2517 23.765 37.2149 23.7425C37.1877 23.7257 37.16 23.7096 37.1323 23.6936L37.1322 23.6935C37.1216 23.6873 37.111 23.6812 37.1004 23.675L37.0849 23.6659C37.0457 23.6429 37.0065 23.62 36.9666 23.598C36.9323 23.5791 36.8975 23.561 36.8628 23.5429L36.8627 23.5428L36.8475 23.5349L36.8441 23.5331C36.8 23.51 36.7559 23.4869 36.7111 23.465C36.6718 23.4456 36.6321 23.4272 36.5923 23.4087L36.5884 23.4069C36.542 23.3854 36.4956 23.364 36.4485 23.3436C36.407 23.3256 36.3652 23.3083 36.3232 23.2911C36.2754 23.2716 36.2275 23.2526 36.1792 23.2342C36.1369 23.2181 36.0945 23.2027 36.0518 23.1876C36.0027 23.1702 35.9532 23.1535 35.9035 23.1373C35.8607 23.1233 35.8178 23.1097 35.7745 23.0967C35.7238 23.0814 35.6727 23.0671 35.6213 23.0531C35.5782 23.0413 35.5351 23.0297 35.4917 23.0188C35.439 23.0057 35.3859 22.9938 35.3328 22.982L35.3106 22.9771C35.2751 22.9692 35.2396 22.9614 35.2038 22.9543C35.1506 22.9437 35.097 22.9346 35.0432 22.9255L35.0373 22.9245C35.0255 22.9225 35.0137 22.9204 35.0018 22.9184C34.9716 22.9131 34.9414 22.9079 34.9109 22.9034C34.858 22.8956 34.8046 22.8892 34.7511 22.8829L34.7334 22.8808C34.7205 22.8793 34.7077 22.8777 34.6949 22.8761C34.6678 22.8727 34.6408 22.8693 34.6135 22.8666C34.5493 22.8602 34.4846 22.856 34.4198 22.8517L34.4133 22.8513C34.3996 22.8504 34.3859 22.8493 34.3722 22.8483C34.3522 22.8467 34.3321 22.8451 34.3119 22.8441C34.2107 22.8391 34.1089 22.8363 34.0065 22.8363C33.9036 22.8363 33.8014 22.8391 33.6997 22.8441C33.6798 22.8451 33.6599 22.8467 33.6401 22.8483L33.64 22.8483C33.6261 22.8494 33.6123 22.8505 33.5984 22.8514L33.5981 22.8514C33.5307 22.8558 33.4633 22.8602 33.3966 22.8667C33.3708 22.8693 33.3452 22.8725 33.3196 22.8758L33.3195 22.8758C33.3057 22.8775 33.2918 22.8793 33.2779 22.881L33.2553 22.8836C33.2026 22.8899 33.1498 22.8962 33.0975 22.904C33.0688 22.9083 33.0402 22.9133 33.0117 22.9183C32.9989 22.9206 32.9861 22.9228 32.9732 22.925L32.9603 22.9272C32.9077 22.9361 32.8552 22.9451 32.8032 22.9555C32.7704 22.962 32.738 22.9693 32.7055 22.9765C32.6986 22.9781 32.6918 22.9796 32.6849 22.9811L32.677 22.9829C32.6222 22.995 32.5676 23.0072 32.5135 23.0207C32.4757 23.0302 32.4382 23.0405 32.4008 23.0507L32.4006 23.0508L32.3877 23.0543C32.3346 23.0688 32.2815 23.0836 32.229 23.0996C32.1899 23.1114 32.1512 23.124 32.1125 23.1366L32.1048 23.1391C32.0529 23.156 32.0012 23.1734 31.9501 23.1916C31.9092 23.2061 31.8686 23.2213 31.8281 23.2368C31.7774 23.2561 31.727 23.276 31.677 23.2965C31.6371 23.313 31.5974 23.3298 31.5579 23.347C31.5082 23.3687 31.4589 23.3911 31.4098 23.414C31.3712 23.4322 31.3326 23.4504 31.2944 23.4693C31.2455 23.4934 31.1971 23.5185 31.1489 23.5439C31.1117 23.5635 31.0746 23.5831 31.0379 23.6034C30.9896 23.6301 30.9421 23.6579 30.8946 23.6859C30.8592 23.7068 30.8237 23.7274 30.7888 23.749C30.7409 23.7786 30.6939 23.8093 30.6468 23.8401C30.6396 23.8448 30.6325 23.8494 30.6253 23.8541L30.6249 23.8544C30.5989 23.8713 30.5728 23.8883 30.5472 23.9058C30.4992 23.9386 30.4521 23.9728 30.4051 24.0071C30.3943 24.0148 30.3836 24.0226 30.3728 24.0303C30.353 24.0445 30.3332 24.0587 30.3137 24.0734C30.2664 24.1091 30.2203 24.146 30.1741 24.183L30.1675 24.1883C30.1576 24.1962 30.1476 24.2041 30.1376 24.212C30.1211 24.225 30.1046 24.238 30.0884 24.2514C30.0338 24.2967 29.9805 24.3437 29.9274 24.3908C29.9196 24.3978 29.9116 24.4046 29.9037 24.4115C29.893 24.4207 29.8822 24.43 29.8718 24.4395C29.7296 24.5689 29.5936 24.705 29.4641 24.8471C29.4533 24.8589 29.443 24.871 29.4326 24.8831L29.4325 24.8831C29.4305 24.8855 29.4285 24.8878 29.4264 24.8902C29.4216 24.8958 29.4168 24.9014 29.4119 24.9069C29.366 24.9586 29.3203 25.0104 29.2761 25.0636C29.2618 25.0808 29.2479 25.0985 29.234 25.1161L29.2339 25.1162L29.2338 25.1164C29.2262 25.1259 29.2187 25.1355 29.2111 25.145L29.2058 25.1516C29.1694 25.197 29.1331 25.2424 29.098 25.2888C29.0825 25.3095 29.0674 25.3304 29.0524 25.3514C29.0452 25.3614 29.038 25.3714 29.0308 25.3813L29.0283 25.3848C28.9952 25.4304 28.9622 25.4759 28.9304 25.5224C28.9129 25.548 28.896 25.5739 28.8791 25.5999C28.8741 25.6075 28.8692 25.6151 28.8642 25.6227C28.8336 25.6694 28.8031 25.7162 28.7736 25.7638C28.7519 25.7991 28.731 25.8349 28.7099 25.8705C28.6821 25.9177 28.6544 25.9649 28.6279 26.0129C28.6075 26.0499 28.5876 26.0873 28.5679 26.1248C28.5427 26.1726 28.5179 26.2207 28.4938 26.2693C28.4748 26.3078 28.4563 26.3466 28.4381 26.3856C28.4153 26.4343 28.3931 26.4832 28.3715 26.5326C28.3541 26.5725 28.3371 26.6126 28.3206 26.6529C28.3002 26.7025 28.2806 26.7525 28.2614 26.8027C28.2459 26.8436 28.2305 26.8847 28.2158 26.926C28.1976 26.9768 28.1805 27.0278 28.1638 27.0792C28.1501 27.121 28.1365 27.1628 28.1238 27.205C28.108 27.257 28.0935 27.3094 28.0792 27.3619L28.0731 27.3841L28.073 27.3843C28.0635 27.4193 28.0539 27.4543 28.045 27.4896C28.0316 27.543 28.0196 27.5967 28.0077 27.6507C28.0052 27.6621 28.0026 27.6734 28.0001 27.6848L28 27.6849C27.993 27.7164 27.9859 27.7478 27.9796 27.7795C27.9695 27.8301 27.9608 27.8812 27.9522 27.9324L27.9499 27.9459C27.9477 27.9587 27.9454 27.9715 27.9432 27.9843C27.938 28.0141 27.9327 28.0439 27.9283 28.0739C27.9206 28.1257 27.9144 28.178 27.9082 28.2302L27.906 28.2492C27.9042 28.2638 27.9024 28.2783 27.9005 28.2929C27.8971 28.3195 27.8937 28.3461 27.8911 28.373C27.8908 28.3756 27.8905 28.3781 27.8901 28.3806C27.8897 28.3837 27.8893 28.3868 27.889 28.3899L20.6256 28.3898C20.625 28.384 20.6242 28.3785 20.6236 28.3727C20.621 28.347 20.6178 28.3215 20.6145 28.2959C20.6126 28.281 20.6107 28.2662 20.609 28.2513L20.6059 28.2258C20.5999 28.1749 20.5938 28.124 20.5864 28.0736C20.582 28.0443 20.5769 28.0152 20.5718 27.9862C20.5696 27.9734 20.5673 27.9606 20.5652 27.9478L20.5613 27.9254L20.5613 27.9252C20.5529 27.8763 20.5446 27.8274 20.5349 27.7789C20.5284 27.7459 20.521 27.7133 20.5137 27.6806C20.5116 27.6712 20.5094 27.6617 20.5073 27.6522C20.4952 27.5976 20.4831 27.5431 20.4696 27.4891C20.4612 27.4553 20.452 27.4219 20.4428 27.3884C20.4405 27.3799 20.4381 27.3714 20.4358 27.363C20.4214 27.31 20.4066 27.2571 20.3908 27.2046C20.3781 27.1629 20.3646 27.1216 20.3511 27.0802C20.3342 27.0284 20.3169 26.9767 20.2987 26.9255C20.2841 26.8846 20.2689 26.8441 20.2535 26.8036C20.2342 26.7528 20.2143 26.7023 20.1937 26.6523C20.1773 26.6124 20.1605 26.5729 20.1433 26.5335C20.1216 26.4836 20.0992 26.4342 20.0761 26.3851C20.0581 26.3465 20.0398 26.3081 20.021 26.27C19.9968 26.2211 19.9717 26.1726 19.9463 26.1244C19.9267 26.0873 19.9071 26.0502 19.8868 26.0135C19.8601 25.9652 19.8322 25.9177 19.8043 25.8703L19.7951 25.8547L19.795 25.8545C19.7772 25.8243 19.7594 25.7941 19.741 25.7643C19.7115 25.7165 19.6809 25.6696 19.6501 25.6227C19.6439 25.6132 19.6377 25.6037 19.6315 25.5942L19.6314 25.594C19.6158 25.5702 19.6003 25.5463 19.5842 25.5228C19.5527 25.4767 19.5199 25.4314 19.4871 25.3862L19.4835 25.3812C19.4763 25.3713 19.4691 25.3613 19.462 25.3514C19.4471 25.3306 19.4321 25.3097 19.4167 25.2893C19.3813 25.2424 19.3446 25.1966 19.3078 25.1507L19.3076 25.1505L19.3028 25.1445C19.2984 25.139 19.2939 25.1334 19.2895 25.1278C19.2858 25.1231 19.2821 25.1184 19.2784 25.1137C19.2652 25.097 19.2521 25.0803 19.2386 25.064C19.1944 25.0107 19.1486 24.9588 19.1026 24.907C19.0948 24.8982 19.0871 24.8893 19.0794 24.8804L19.0793 24.8803C19.0727 24.8726 19.066 24.8649 19.0593 24.8572C19.0564 24.8539 19.0535 24.8506 19.0505 24.8474C18.921 24.7053 18.785 24.5693 18.6429 24.4399C18.6342 24.4319 18.6253 24.4242 18.6163 24.4164L18.6111 24.4119C18.6029 24.4049 18.5946 24.3978 18.5865 24.3905C18.5337 24.3436 18.4807 24.2969 18.4263 24.2517C18.4099 24.2381 18.3931 24.2249 18.3764 24.2117C18.3663 24.2038 18.3562 24.1958 18.3462 24.1878L18.3429 24.1852L18.3428 24.1851C18.2959 24.1475 18.2491 24.1099 18.2011 24.0738C18.1813 24.0588 18.1611 24.0443 18.141 24.0299L18.1409 24.0298C18.1302 24.0221 18.1194 24.0145 18.1088 24.0067L18.104 24.0032C18.0589 23.9705 18.0137 23.9377 17.9676 23.9062C17.9422 23.8889 17.9164 23.8721 17.8906 23.8553L17.8905 23.8552C17.8827 23.8501 17.8749 23.845 17.8671 23.8399C17.8203 23.8093 17.7737 23.7788 17.726 23.7494C17.6951 23.7304 17.6637 23.7119 17.6324 23.6935L17.6193 23.6858C17.5722 23.658 17.5248 23.6304 17.4769 23.6038C17.44 23.5833 17.4026 23.5636 17.3651 23.5439C17.3172 23.5185 17.269 23.4937 17.2203 23.4697C17.1819 23.4506 17.1432 23.4323 17.1044 23.4141C17.0556 23.3913 17.0065 23.369 16.9569 23.3473C16.9173 23.33 16.8774 23.3131 16.8373 23.2966C16.7874 23.2761 16.7372 23.2563 16.6867 23.2371C16.646 23.2216 16.6052 23.2064 16.5641 23.1917C16.5131 23.1735 16.4617 23.1563 16.41 23.1395L16.3996 23.1362C16.3615 23.1238 16.3235 23.1114 16.2851 23.0998C16.2327 23.084 16.1798 23.0693 16.1269 23.0548L16.1061 23.0491C16.071 23.0396 16.036 23.03 16.0007 23.0211C15.9472 23.0077 15.8932 22.9957 15.8392 22.9837L15.8376 22.9833C15.8267 22.9809 15.8158 22.9785 15.8049 22.9761C15.7737 22.9691 15.7425 22.9621 15.711 22.9558C15.6607 22.9458 15.6101 22.9372 15.5594 22.9285L15.5413 22.9254C15.5283 22.9232 15.5154 22.921 15.5025 22.9187C15.4739 22.9137 15.4454 22.9087 15.4166 22.9044C15.3612 22.8962 15.3054 22.8896 15.2495 22.883L15.2365 22.8815C15.2236 22.8799 15.2108 22.8783 15.198 22.8767C15.1712 22.8733 15.1445 22.8699 15.1176 22.8672C15.0508 22.8607 14.9834 22.8563 14.9159 22.8519C14.908 22.8514 14.9001 22.8508 14.8923 22.8502C14.8865 22.8497 14.8807 22.8493 14.875 22.8488C14.8549 22.8472 14.8347 22.8456 14.8145 22.8446C14.7128 22.8396 14.6105 22.8368 14.5077 22.8368C14.4048 22.8368 14.3026 22.8396 14.201 22.8446C14.1803 22.8456 14.1597 22.8473 14.1391 22.8489C14.1257 22.85 14.1122 22.8511 14.0988 22.852L14.0925 22.8524C14.0275 22.8566 13.9626 22.8609 13.8981 22.8673C13.8713 22.87 13.8446 22.8733 13.818 22.8767L13.8179 22.8767C13.8047 22.8784 13.7915 22.88 13.7783 22.8816L13.7591 22.8839C13.7056 22.8902 13.6522 22.8966 13.5993 22.9044C13.57 22.9087 13.541 22.9138 13.512 22.9189L13.5117 22.9189C13.4989 22.9212 13.4861 22.9234 13.4732 22.9256L13.4642 22.9271L13.464 22.9271C13.411 22.9362 13.3579 22.9452 13.3055 22.9557C13.2713 22.9625 13.2374 22.97 13.2036 22.9776L13.2035 22.9777C13.1945 22.9797 13.1855 22.9817 13.1765 22.9837C13.1229 22.9956 13.0694 23.0075 13.0163 23.0208C12.9778 23.0305 12.9397 23.0409 12.9016 23.0514L12.887 23.0553C12.8352 23.0695 12.7835 23.0839 12.7324 23.0994C12.6893 23.1124 12.6467 23.1262 12.604 23.1402C12.5538 23.1566 12.5038 23.1734 12.4541 23.191C12.4115 23.2061 12.3694 23.2218 12.3272 23.2379C12.2784 23.2564 12.2299 23.2755 12.1817 23.2953C12.1398 23.3126 12.0982 23.3301 12.0567 23.3483C12.0094 23.3689 11.9625 23.3902 11.9157 23.4121C11.8745 23.4313 11.8337 23.4507 11.7931 23.4708C11.7471 23.4936 11.7016 23.5171 11.6562 23.541C11.6162 23.5621 11.5761 23.5832 11.5366 23.6051C11.4917 23.6299 11.4475 23.6558 11.4034 23.6817L11.3938 23.6873C11.3582 23.7082 11.3226 23.7291 11.2875 23.7508C11.245 23.777 11.2033 23.8043 11.1615 23.8316L11.1578 23.834C11.1497 23.8393 11.1415 23.8446 11.1333 23.8499C11.1041 23.869 11.0748 23.888 11.046 23.9077C11.0102 23.9322 10.9751 23.9576 10.94 23.983L10.9193 23.9979C10.91 24.0046 10.9006 24.0113 10.8913 24.018C10.8649 24.0369 10.8384 24.0557 10.8126 24.0753C10.7775 24.1019 10.7431 24.1293 10.7088 24.1567L10.6874 24.1738C10.6767 24.1823 10.666 24.1907 10.6552 24.1992C10.6325 24.217 10.6098 24.2349 10.5876 24.2533C10.5521 24.2827 10.5175 24.3132 10.483 24.3436L10.4824 24.3441C10.4746 24.351 10.4668 24.3579 10.4589 24.3648C10.448 24.3743 10.437 24.3838 10.426 24.3933C10.4075 24.4091 10.3891 24.425 10.3711 24.4413C10.3018 24.5046 10.2337 24.5693 10.1672 24.6357C10.1521 24.6507 10.1376 24.6662 10.123 24.6817C10.1134 24.6919 10.1037 24.7021 10.094 24.7122C10.0858 24.7206 10.0776 24.7291 10.0694 24.7376C10.0357 24.7723 10.0021 24.807 9.96951 24.8426C9.95012 24.8638 9.93134 24.8855 9.91255 24.9073L9.91248 24.9074C9.90306 24.9183 9.89365 24.9292 9.88415 24.94C9.87634 24.949 9.86852 24.9579 9.86069 24.9668C9.83397 24.9971 9.80729 25.0275 9.7814 25.0587C9.76059 25.0837 9.74039 25.1093 9.7202 25.1349C9.7124 25.1448 9.70461 25.1547 9.69677 25.1646C9.69069 25.1722 9.68459 25.1799 9.67849 25.1875L9.67801 25.1881C9.65288 25.2196 9.62775 25.2511 9.60342 25.2833C9.58121 25.3127 9.55971 25.3426 9.5382 25.3726C9.53276 25.3802 9.52732 25.3877 9.52187 25.3953L9.51796 25.4007C9.49027 25.439 9.46256 25.4773 9.43578 25.5163C9.41149 25.5517 9.388 25.5878 9.36452 25.6239L9.35857 25.633L9.35207 25.643C9.32737 25.6809 9.30268 25.7188 9.27879 25.7573C9.25413 25.7972 9.23035 25.8376 9.20657 25.878C9.18162 25.9205 9.15688 25.963 9.13288 26.0059C9.10998 26.047 9.08789 26.0886 9.06595 26.1304C9.04297 26.174 9.02037 26.2177 8.9985 26.2618C8.97751 26.3041 8.9571 26.3467 8.93714 26.3895C8.91615 26.4343 8.89574 26.4794 8.87593 26.5248C8.85692 26.5681 8.83842 26.6114 8.82044 26.6551C8.80143 26.7014 8.78323 26.7478 8.76539 26.7946C8.74851 26.8386 8.732 26.8827 8.71622 26.9271C8.69919 26.9748 8.68327 27.0228 8.66734 27.0711L8.66191 27.0877C8.64917 27.1267 8.63645 27.1655 8.62462 27.2049C8.61041 27.2518 8.59733 27.2992 8.58423 27.3465L8.58213 27.3542L8.57878 27.3663C8.56756 27.4069 8.55636 27.4475 8.54602 27.4884C8.53368 27.5375 8.52268 27.5871 8.51167 27.6367L8.51013 27.6436C8.50753 27.6553 8.50489 27.6669 8.50226 27.6786C8.49485 27.7114 8.48745 27.7441 8.48084 27.7771C8.47147 27.8239 8.4634 27.8711 8.45533 27.9184L8.45148 27.9409C8.44915 27.9545 8.44674 27.9682 8.44433 27.9818C8.43909 28.0114 8.43387 28.0409 8.42939 28.0707C8.42223 28.1185 8.41646 28.1667 8.41068 28.215C8.40929 28.2266 8.4079 28.2382 8.40649 28.2498C8.40481 28.2638 8.40301 28.2778 8.4012 28.2918C8.3979 28.3174 8.3946 28.343 8.39204 28.3688C8.39192 28.3701 8.39178 28.3714 8.39161 28.3727C8.39124 28.3756 8.39078 28.3786 8.39042 28.3816C7.29023 28.2869 6.42395 27.3613 6.42395 26.2372V25.0812H7.36774C8.40473 25.0812 9.24848 24.2374 9.24848 23.2004C9.24848 22.1634 8.40473 21.3196 7.36774 21.3196H6.54116C6.67834 20.9202 6.93199 20.567 7.28223 20.303C7.29515 20.2933 7.30755 20.2831 7.31966 20.2724L13.6997 14.5937C13.7004 14.593 13.7013 14.5922 13.7021 14.5915C13.7031 14.5906 13.7041 14.5897 13.705 14.5888L13.7731 14.5282C13.9242 14.4043 14.4484 14.0316 15.2812 14.0316H16.1882L13.3951 16.6715C13.2766 16.7835 13.2094 16.9395 13.2094 17.1027V19.2768C13.2094 19.6046 13.4749 19.8702 13.8027 19.8702H27.9114C28.2392 19.8702 28.5047 19.6046 28.5047 19.2768C28.5047 18.949 28.2392 18.6835 27.9114 18.6835H20.654V14.0313H25.318C25.4968 14.0353 26.3609 14.0888 27.1052 14.733L31.6652 18.6835H29.9951C29.6673 18.6835 29.4017 18.949 29.4017 19.2768C29.4017 19.6046 29.6673 19.8702 29.9951 19.8702H33.2563H39.4767C40.1947 19.8702 40.8312 20.2238 41.2224 20.7659H39.973C38.936 20.7659 38.0923 21.6096 38.0923 22.6466C38.0923 23.6836 38.936 24.5273 39.973 24.5273H41.6288V26.2369C41.6288 27.2084 40.9979 28.024 40.1148 28.2936Z" fill="#3D4D41"/>
<path d="M34.0066 29.687C34.3958 29.687 34.7114 29.3714 34.7114 28.9822C34.7114 28.5929 34.3958 28.2773 34.0066 28.2773C33.6173 28.2773 33.3018 28.5929 33.3018 28.9822C33.3018 29.3714 33.6173 29.687 34.0066 29.687Z" fill="#231F20"/>
<path d="M14.5075 29.687C14.8968 29.687 15.2124 29.3714 15.2124 28.9822C15.2124 28.5929 14.8968 28.2773 14.5075 28.2773C14.1183 28.2773 13.8027 28.5929 13.8027 28.9822C13.8027 29.3714 14.1183 29.687 14.5075 29.687Z" fill="#231F20"/>
</g>
<defs>
<clipPath id="clip0_629_2299">
<rect width="38.3926" height="23.689" fill="white" transform="translate(5.2373 12.1553)"/>
</clipPath>
</defs>
</svg>
