<svg width="24" height="24" viewBox="0 0 24 24" fill="none" xmlns="http://www.w3.org/2000/svg">
<g clip-path="url(#clip0_848_451)">
<path d="M22.5 12.0199C22.4934 17.8164 17.7767 22.5133 11.9735 22.5C6.177 22.4868 1.48678 17.7701 1.50003 11.9603C1.51328 6.17037 6.23662 1.48678 12.0464 1.50003C17.8231 1.51328 22.5067 6.23 22.5 12.0199ZM20.9962 12.0067C21.0029 7.0382 17.0082 3.03031 12.0265 3.00381C7.05807 2.97732 3.01706 7.00507 3.01044 11.9934C3.00381 16.9619 6.99845 20.9697 11.9802 20.9962C16.9486 21.0161 20.9896 16.995 20.9962 12.0067Z" fill="#C0BBBB"/>
<path d="M12.02 10.503C12.8415 10.5096 13.4973 11.1853 13.4973 12.0134C13.4907 12.8481 12.8083 13.5106 11.9604 13.4973C11.1456 13.4841 10.4964 12.8017 10.503 11.9736C10.5096 11.1522 11.1919 10.4964 12.02 10.503Z" fill="#C0BBBB"/>
<path d="M8.34865 11.9937C8.34865 12.8284 7.69944 13.4909 6.87136 13.4975C6.03666 13.5041 5.34108 12.8152 5.3477 11.9937C5.35433 11.1789 6.03666 10.5098 6.85811 10.5098C7.68619 10.5032 8.34203 11.159 8.34865 11.9937Z" fill="#C0BBBB"/>
<path d="M17.1542 10.5029C17.9691 10.5096 18.6514 11.1919 18.6514 12.0001C18.6514 12.8282 17.9558 13.5039 17.1145 13.4906C16.293 13.484 15.6438 12.8083 15.6504 11.9736C15.6637 11.1521 16.3195 10.5029 17.1542 10.5029Z" fill="#C0BBBB"/>
</g>
<defs>
<clipPath id="clip0_848_451">
<rect width="21" height="21" fill="white" transform="translate(1.5 1.5)"/>
</clipPath>
</defs>
</svg>
