<svg width="48" height="48" viewBox="0 0 48 48" fill="none" xmlns="http://www.w3.org/2000/svg">
<g clip-path="url(#clip0_6115_20241)">
<path fill-rule="evenodd" clip-rule="evenodd" d="M26.1735 0.374023C29.471 0.374023 32.399 1.98602 34.188 4.45552C35.6525 6.45252 37.5745 7.68002 39.9845 8.15302C44.5545 9.04102 48 13.063 48 17.885C48 18.9795 47.823 20.044 47.4825 21.02C46.8175 23.0465 46.8175 24.954 47.4825 26.9805C47.823 27.9565 48 29.021 48 30.1155C48 35.218 44.1255 39.432 39.172 39.965C36.4955 40.261 34.292 41.518 32.68 43.6625C30.876 46.073 27.9925 47.626 24.7545 47.626C20.9985 47.626 17.745 45.5405 16.059 42.4795C14.536 39.699 11.9775 37.9985 8.828 37.658C3.8745 37.111 0 32.911 0 27.793C0 26.0185 0.473 24.3325 1.3015 22.8835C2.337 21.079 2.7065 19.245 2.47 17.175C2.4405 16.7905 2.411 16.3525 2.411 15.9675C2.411 10.3475 6.965 5.73902 12.5845 5.73902H12.658C15.216 5.73902 17.4345 4.91952 19.2685 3.13002C21.0575 1.38552 23.4825 0.374023 26.1735 0.374023Z" fill="#E6EDFF"/>
<path d="M24.837 10.7884L25.08 10.209L25.6224 8.94707C25.6412 8.88145 25.7062 8.83496 25.7718 8.83496H26.5381C26.6687 8.83496 26.7907 8.87222 26.8932 8.93784C26.9961 9.00313 27.0706 9.10601 27.127 9.22735C27.1738 9.34903 27.1831 9.47994 27.1643 9.60128C27.1362 9.72263 27.0706 9.83474 26.9773 9.92838L26.1734 10.7231L25.9307 10.9661C25.8931 10.9941 25.8555 11.0221 25.7998 11.0221H24.9956C24.9679 11.0221 24.9491 11.0129 24.9306 11.0033C24.8462 10.9753 24.8089 10.8728 24.837 10.7884Z" fill="#9595FC"/>
<path d="M23.2103 8.92828L23.7528 10.2087L23.9866 10.7788C23.9958 10.7976 24.0053 10.8256 24.0053 10.8536C24.0053 10.947 23.9305 11.0218 23.8464 11.0218H23.0333C22.9864 11.0218 22.9492 11.003 22.9119 10.975L22.6689 10.7227L21.8558 9.92806C21.7624 9.83474 21.6968 9.7223 21.6688 9.60095C21.65 9.47928 21.6596 9.35793 21.7061 9.23659V9.22736C21.7624 9.10601 21.837 9.00313 21.9398 8.93784C22.0427 8.87222 22.1733 8.83496 22.3042 8.83496H23.0613C23.1263 8.83463 23.1826 8.87189 23.2103 8.92828Z" fill="#9595FC"/>
<path d="M23.6871 10.919L23.4441 10.3396L22.9116 9.06846V9.05889H22.9017C22.8644 8.95634 22.8456 8.85346 22.8555 8.75058C22.8644 8.6477 22.902 8.54483 22.9584 8.45151C23.0237 8.36742 23.0986 8.30181 23.183 8.24575H23.1919C23.2855 8.19893 23.3884 8.1709 23.4913 8.1709H24.4165H25.3418C25.445 8.1709 25.5475 8.19893 25.6412 8.24575C25.7345 8.29257 25.8094 8.36709 25.8747 8.45151C25.931 8.54516 25.9683 8.6477 25.9775 8.75058C25.9871 8.85346 25.9686 8.94678 25.931 9.04966V9.05889L25.3886 10.3396L25.1453 10.9005C25.1265 10.9754 25.0612 11.0222 24.9956 11.0222H23.8461C23.7805 11.0218 23.7152 10.9846 23.6871 10.919Z" fill="#7676FF"/>
<path d="M31.8849 20.1725L32.0995 27.837C32.0995 27.9304 32.0247 28.0052 31.931 28.0148H31.8004H17.0976H17.0323C16.7613 28.0148 16.5087 27.9399 16.2844 27.8186C16.0507 27.6877 15.8541 27.5099 15.7143 27.2857V27.2765C15.621 27.1456 15.5458 26.9959 15.4997 26.8369C15.4433 26.678 15.4153 26.5098 15.4153 26.3321C15.4153 25.9117 15.5742 25.5282 15.8357 25.2291L15.8452 25.2199C16.0695 24.9676 16.3685 24.7803 16.7144 24.6966C16.6956 24.5096 16.6864 24.3042 16.6772 24.0984C16.6679 23.8366 16.6584 23.5844 16.6584 23.3413C16.6584 20.6774 17.2562 18.2287 18.2474 16.2658C19.266 14.2467 20.7244 12.7418 22.3972 12.0688C22.416 12.0596 22.444 12.0596 22.4625 12.0596H26.3699C26.3976 12.0596 26.426 12.0596 26.4448 12.0688C27.7624 12.6017 28.931 13.639 29.8748 15.0319C30.8099 16.4247 31.5106 18.1819 31.875 20.1353C31.875 20.1445 31.8849 20.1633 31.8849 20.1725Z" fill="#7676FF"/>
<path d="M27.0057 12.3864H21.8271C21.5936 12.3864 21.3879 12.2927 21.2385 12.1433L21.2293 12.1341C21.0706 11.9844 20.9767 11.7697 20.9767 11.536C20.9767 11.3022 21.0703 11.0964 21.2197 10.9378H21.2289C21.3783 10.7881 21.5933 10.6855 21.8267 10.6855H27.0053C27.2388 10.6855 27.4535 10.7884 27.6032 10.9378C27.7618 11.0967 27.8557 11.3022 27.8557 11.536C27.8557 11.7694 27.7621 11.9844 27.6032 12.1341C27.4538 12.2927 27.2391 12.3864 27.0057 12.3864Z" fill="#24D1AF"/>
<path d="M30.0245 21.7706H19.9482C19.9202 21.7706 19.8829 21.7613 19.8549 21.7425C19.78 21.6957 19.7517 21.6024 19.7988 21.5183L22.3131 17.1532C22.3599 17.0783 22.4625 17.0503 22.5469 17.0971L28.1551 20.3312L30.0993 21.453C30.1461 21.481 30.1834 21.5371 30.1834 21.6024C30.1831 21.6957 30.1085 21.7706 30.0245 21.7706Z" fill="#24D1AF"/>
<path d="M30.8561 9.80675C31.473 9.1898 32.3237 8.80664 33.2582 8.80664C34.2023 8.80664 35.053 9.1898 35.6696 9.80675C36.2866 10.4237 36.6697 11.2741 36.6697 12.2089C36.6697 13.153 36.2866 14.0037 35.6696 14.6203C35.053 15.2373 34.2023 15.6204 33.2582 15.6204C32.3237 15.6204 31.473 15.2373 30.8561 14.6203C30.2391 14.0034 29.856 13.153 29.856 12.2089C29.856 11.2744 30.2391 10.4237 30.8561 9.80675Z" fill="#FFB53B"/>
<path d="M29.5012 33.2305L35.6419 28.8654C36.156 28.4915 36.7729 28.3514 37.3619 28.4074C37.96 28.4635 38.5305 28.7345 38.9601 29.1925C39.1006 29.3422 39.2035 29.5012 39.2595 29.6786C39.3245 29.8563 39.3436 30.0525 39.3245 30.2487C39.3057 30.4544 39.2496 30.6318 39.1471 30.8C39.0538 30.959 38.9225 31.0991 38.7639 31.2204L30.4729 37.1281C29.847 37.5676 29.1829 37.8852 28.4912 38.0721C27.8092 38.2499 27.0802 38.3056 26.3135 38.2218L12.7414 37.6517C12.6477 37.6517 12.5824 37.5769 12.5824 37.4928V30.7252C12.5824 30.6318 12.6573 30.557 12.7414 30.557H12.9376C13.3395 30.557 13.7042 30.5194 14.0501 30.4261C14.4052 30.342 14.7511 30.2111 15.097 30.0337C16.2093 29.454 17.4244 29.1737 18.6391 29.183C19.8546 29.1922 21.0601 29.482 22.1634 30.071C22.4061 30.2019 22.6399 30.3044 22.8829 30.3796C23.1259 30.4544 23.3693 30.5009 23.6403 30.5293L27.22 30.8937C27.8557 30.9497 28.4074 31.2488 28.8183 31.6788C29.2017 32.0992 29.4543 32.6416 29.5012 33.2305Z" fill="#F9AD95"/>
<path d="M12.0687 38.8393H9.5076C9.27414 38.8393 9.06838 38.7456 8.90945 38.587C8.76007 38.4377 8.66676 38.2227 8.66676 37.9889V30.1374C8.66676 29.9132 8.76007 29.6982 8.90978 29.5485C9.06871 29.3895 9.27414 29.2959 9.50793 29.2959H12.069C12.2933 29.2959 12.5086 29.3895 12.6579 29.5389L12.6672 29.5482C12.8169 29.6979 12.9102 29.9125 12.9102 30.1371V37.9885C12.9102 38.2223 12.8169 38.4373 12.6672 38.5867C12.5082 38.746 12.3025 38.8393 12.0687 38.8393Z" fill="#7676FF"/>
<path d="M27.8468 21.7711H21.1917C21.098 21.7711 21.0232 21.6963 21.0232 21.603C21.0232 21.5749 21.0327 21.5469 21.0515 21.5189L22.3039 19.3409C22.3507 19.2661 22.4536 19.2381 22.5284 19.2849C22.687 19.369 22.8648 19.3878 23.0237 19.3502C23.1826 19.3033 23.3323 19.2005 23.4257 19.0419C23.4629 18.967 23.5661 18.939 23.6502 18.9858L27.6134 21.2759L27.9405 21.4628C28.0153 21.5096 28.0437 21.603 27.9965 21.687C27.9682 21.7431 27.9026 21.7711 27.8468 21.7711Z" fill="#58ED9B"/>
<path d="M30.0244 28.0139H19.4998C19.4061 28.0139 19.3313 27.9391 19.3313 27.8457V21.6018C19.3313 21.5084 19.4061 21.4336 19.4998 21.4336H25.9772H30.0244C30.1085 21.4336 30.1831 21.5084 30.1831 21.6018V27.8457C30.1831 27.9394 30.1085 28.0139 30.0244 28.0139Z" fill="#24D1AF"/>
<path d="M30.1831 22.6867V26.762C30.1831 26.8553 30.1082 26.9302 30.0245 26.9302H25.9772H21.3974C21.3038 26.9302 21.2289 26.8553 21.2289 26.762C21.2289 26.5843 21.1537 26.4161 21.042 26.304C20.9206 26.1823 20.7617 26.1078 20.5839 26.1078C20.4906 26.1078 20.4158 26.0329 20.4158 25.9489V23.4999C20.4158 23.4158 20.4906 23.3409 20.5839 23.3409C20.7617 23.3409 20.9206 23.2661 21.042 23.1447L21.0515 23.1355C21.1636 23.0234 21.2289 22.8645 21.2289 22.6867C21.2289 22.5934 21.3038 22.5186 21.3974 22.5186H25.9772H30.0245C30.1085 22.5189 30.1831 22.5934 30.1831 22.6867Z" fill="#58ED9B"/>
<path d="M24.4162 23.1635C24.8182 22.7711 25.3698 22.5186 25.9769 22.5186C26.5846 22.5186 27.1362 22.7708 27.5286 23.1635C27.9306 23.5655 28.1828 24.1171 28.1828 24.7245C28.1828 25.3322 27.9303 25.8836 27.5286 26.2855C27.1362 26.6779 26.5846 26.9305 25.9769 26.9305C25.3695 26.9305 24.8178 26.6779 24.4162 26.2855C24.0238 25.8836 23.7712 25.3322 23.7712 24.7245C23.7712 24.1171 24.0238 23.5655 24.4162 23.1635Z" fill="#24D1AF"/>
<path d="M36.1283 28.0152H30.3984C30.249 28.0152 30.1181 27.9499 30.0152 27.8562V27.847C29.9219 27.7537 29.8563 27.6135 29.8563 27.4731V26.3048C29.8563 26.1551 29.9219 26.0153 30.0152 25.9216L30.0245 25.9124C30.1273 25.8188 30.2579 25.7627 30.3984 25.7627H36.1283C36.2777 25.7627 36.4086 25.8188 36.5115 25.9216C36.6048 26.0153 36.6701 26.1551 36.6701 26.3048V27.4731C36.6701 27.6228 36.6048 27.7537 36.5115 27.8562H36.5019C36.4082 27.9499 36.2777 28.0152 36.1283 28.0152Z" fill="#FEDF5B"/>
<path d="M36.1283 22.2567H30.3984C30.249 22.2567 30.1181 22.1914 30.0152 22.0978V22.0882C29.9219 21.9946 29.8563 21.8547 29.8563 21.7143V20.546C29.8563 20.3963 29.9219 20.2565 30.0152 20.1628C30.1184 20.06 30.249 20.0039 30.3984 20.0039H36.1283C36.2777 20.0039 36.4086 20.06 36.5115 20.1628C36.5303 20.1909 36.5487 20.2097 36.5675 20.2377C36.6328 20.3218 36.6704 20.4342 36.6704 20.5463V21.7146C36.6704 21.8547 36.6051 21.9949 36.5118 22.0885V22.0978H36.5022C36.4082 22.1911 36.2777 22.2567 36.1283 22.2567Z" fill="#FFB53B"/>
<path d="M36.1283 24.1734H30.3984C30.249 24.1734 30.1181 24.1081 30.0152 24.0144C29.9219 23.9115 29.8563 23.781 29.8563 23.6313V22.463C29.8563 22.3133 29.9219 22.1827 30.0152 22.0798C30.1184 21.9862 30.249 21.9209 30.3984 21.9209H36.1283C36.2777 21.9209 36.4086 21.9862 36.5115 22.0798C36.5303 22.1079 36.5487 22.1359 36.5675 22.1547C36.6328 22.248 36.6704 22.3509 36.6704 22.463V23.6313C36.6704 23.781 36.6051 23.9119 36.5118 24.0144L36.493 24.0237C36.3993 24.1173 36.2684 24.1734 36.1283 24.1734Z" fill="#FEDF5B"/>
<path d="M36.1283 26.088H30.3984C30.249 26.088 30.1181 26.0319 30.0152 25.929C29.9219 25.8354 29.8563 25.6956 29.8563 25.5459V24.3868C29.8563 24.2371 29.9219 24.0973 30.0152 24.0037V23.9944C30.1184 23.9011 30.249 23.8447 30.3984 23.8447H36.1283C36.2777 23.8447 36.4086 23.9008 36.5115 24.0037C36.5303 24.0225 36.5487 24.0505 36.5675 24.0785C36.6328 24.1626 36.6704 24.2655 36.6704 24.3872V25.5462C36.6704 25.6959 36.6051 25.8357 36.5118 25.9294H36.5022C36.4082 26.0319 36.2777 26.088 36.1283 26.088Z" fill="#FFB53B"/>
<path d="M17.0323 28.1762H19.4998H25.9772H30.3984H31.9313H36.1283C36.5164 28.1762 36.832 27.8607 36.832 27.4726V26.3043C36.832 26.1658 36.7904 26.0372 36.7208 25.9284C36.7904 25.8179 36.832 25.6877 36.832 25.5472V24.3882C36.832 24.2477 36.7904 24.1178 36.7208 24.0073C36.7904 23.8982 36.832 23.7699 36.832 23.6311V22.4628C36.832 22.3253 36.7908 22.1974 36.7222 22.0889C36.7908 21.9804 36.832 21.8528 36.832 21.7149V20.5467C36.832 20.1586 36.5164 19.843 36.1283 19.843H31.9834C31.2943 16.4915 29.6271 13.7659 27.4851 12.4218C27.8007 12.25 28.0176 11.92 28.0176 11.5361C28.0176 10.9782 27.5636 10.5242 27.0057 10.5242H26.606L27.0987 10.0401C27.3265 9.81226 27.3987 9.48219 27.284 9.17025C27.159 8.85799 26.8731 8.66377 26.5384 8.66377H26.1266C26.1061 8.5566 26.0682 8.45142 26.0026 8.35315C25.8423 8.1286 25.6013 8 25.3418 8H23.4913C23.2314 8 22.9907 8.1286 22.8242 8.36206C22.7616 8.45603 22.7263 8.55891 22.7072 8.66377H22.3042C21.9695 8.66377 21.684 8.85766 21.561 9.16498C21.433 9.46933 21.4993 9.80468 21.7361 10.0414L22.2274 10.5238H21.8277C21.2698 10.5238 20.8158 10.9779 20.8158 11.5358C20.8158 11.9196 21.0331 12.2504 21.3489 12.4218C18.4476 14.2404 16.4975 18.53 16.4975 23.3412C16.4975 23.7811 16.5113 24.1893 16.5403 24.5801C15.7892 24.8204 15.2543 25.5258 15.2543 26.332C15.2543 26.7059 15.3684 27.068 15.5778 27.37C15.901 27.8748 16.445 28.1762 17.0323 28.1762ZM25.9772 27.5167H19.8295V21.9322H29.7326C29.7508 21.9876 29.7738 22.0404 29.8045 22.0885C29.7541 22.1687 29.7201 22.2593 29.7053 22.3569H23.9582C23.7762 22.3569 23.6285 22.5047 23.6285 22.6867C23.6285 22.8687 23.7762 23.0164 23.9582 23.0164H24.342C23.8919 23.4477 23.6097 24.0531 23.6097 24.7245C23.6097 25.3958 23.8916 26.0013 24.342 26.4326H21.6784C21.5682 26.0672 21.279 25.778 20.9137 25.6679V23.7814C21.279 23.6713 21.5682 23.3821 21.6784 23.0168H22.687C22.8691 23.0168 23.0168 22.869 23.0168 22.687C23.0168 22.505 22.8691 22.3573 22.687 22.3573H21.3971C21.2151 22.3573 21.0673 22.505 21.0673 22.687C21.0673 22.9538 20.8504 23.1704 20.5839 23.1704C20.4019 23.1704 20.2542 23.3181 20.2542 23.5002V25.9492C20.2542 26.1312 20.4019 26.2789 20.5839 26.2789C20.8507 26.2789 21.0673 26.4959 21.0673 26.7623C21.0673 26.9443 21.2151 27.092 21.3971 27.092H29.6947V27.4726C29.6947 27.4877 29.6983 27.5019 29.6993 27.5167H25.9772ZM21.7634 21.2728L22.5974 19.8341C22.7781 19.877 22.969 19.8747 23.1549 19.8249C23.3419 19.7751 23.5091 19.6811 23.6453 19.5525L26.6225 21.2728H21.7634ZM25.9772 24.3948C25.8094 24.3948 25.662 24.2998 25.662 24.1916C25.662 24.0977 25.7995 23.9885 25.9772 23.9885C26.1549 23.9885 26.2924 24.0977 26.2924 24.1916C26.2924 24.3736 26.4402 24.5214 26.6222 24.5214C26.8042 24.5214 26.9519 24.3736 26.9519 24.1916C26.9519 23.8184 26.6825 23.4998 26.3069 23.3798V23.0497C27.0911 23.2041 27.6853 23.8955 27.6853 24.7245C27.6853 25.5535 27.0914 26.2449 26.3069 26.3993V26.0692C26.6825 25.9492 26.9519 25.6306 26.9519 25.2574C26.9519 24.7736 26.5239 24.3948 25.9772 24.3948ZM25.6475 26.0692V26.3993C24.8633 26.2449 24.2691 25.5535 24.2691 24.7245C24.2691 23.8955 24.863 23.2041 25.6475 23.0497V23.3798C25.2719 23.4998 25.0025 23.8184 25.0025 24.1916C25.0025 24.6754 25.4305 25.0542 25.9772 25.0542C26.145 25.0542 26.2924 25.1492 26.2924 25.2574C26.2924 25.3513 26.1549 25.4605 25.9772 25.4605C25.7995 25.4605 25.662 25.3513 25.662 25.2574C25.662 25.0753 25.5142 24.9276 25.3322 24.9276C25.1502 24.9276 25.0025 25.0753 25.0025 25.2574C25.0025 25.6306 25.2719 25.9492 25.6475 26.0692ZM29.8055 25.9281C29.7363 26.0369 29.6947 26.1655 29.6947 26.304V26.4322H27.6124C28.0625 26.0009 28.3447 25.3955 28.3447 24.7242C28.3447 24.0528 28.0628 23.4474 27.6124 23.0161H29.6947V23.6304C29.6947 23.7689 29.7363 23.8975 29.8055 24.0066C29.7363 24.1171 29.6947 24.247 29.6947 24.3875V25.5465C29.6947 25.6877 29.7363 25.8176 29.8055 25.9281ZM36.1722 27.4726C36.1722 27.496 36.1514 27.5167 36.128 27.5167H31.9313H30.3984C30.375 27.5167 30.3542 27.496 30.3542 27.4726V26.3043C30.3542 26.2809 30.375 26.2601 30.3984 26.2601H36.128C36.1514 26.2601 36.1722 26.2809 36.1722 26.3043V27.4726ZM36.1722 25.5472C36.1722 25.5775 36.153 25.6006 36.128 25.6006H30.3984C30.3733 25.6006 30.3542 25.5775 30.3542 25.5472V24.3882C30.3542 24.3578 30.3733 24.3347 30.3984 24.3347H36.128C36.153 24.3347 36.1722 24.3578 36.1722 24.3882V25.5472ZM36.1722 23.6311C36.1722 23.6545 36.1514 23.6753 36.128 23.6753H30.3984C30.375 23.6753 30.3542 23.6545 30.3542 23.6311V22.4628C30.3542 22.4394 30.375 22.4186 30.3984 22.4186H36.128C36.1514 22.4186 36.1722 22.4394 36.1722 22.4628V23.6311ZM36.128 20.5022C36.1514 20.5022 36.1722 20.5229 36.1722 20.5463V21.7146C36.1722 21.738 36.1514 21.7588 36.128 21.7588H30.3984C30.375 21.7588 30.3542 21.738 30.3542 21.7146V20.5463C30.3542 20.5229 30.375 20.5022 30.3984 20.5022H36.128ZM25.9993 9.32325H26.5378C26.6007 9.32325 26.6469 9.35524 26.6677 9.40635C26.6809 9.44229 26.6937 9.51154 26.6331 9.57188L25.6643 10.5235H25.4925L25.9993 9.32325ZM23.3666 8.73664C23.3874 8.70796 23.4306 8.65948 23.491 8.65948H25.3415C25.4018 8.65948 25.4453 8.70763 25.4598 8.72774C25.4783 8.75511 25.4918 8.79633 25.4786 8.84876C25.4694 8.86755 25.4648 8.88766 25.4588 8.90811L24.7766 10.5238H24.0647L23.3643 8.86524L23.3627 8.86129C23.3409 8.81083 23.3439 8.77094 23.3666 8.73664ZM22.2003 9.57353C22.1558 9.52901 22.1449 9.47625 22.1703 9.41525C22.1944 9.35524 22.2406 9.32325 22.3036 9.32325H22.8407L23.2911 10.4058L23.3426 10.5238H23.1675L22.2003 9.57353ZM21.8271 11.1833H23.8491H23.8504H24.9946H24.9952C24.9952 11.1833 24.9959 11.1833 24.9962 11.1833H27.005C27.2029 11.1833 27.3575 11.3383 27.3575 11.5358C27.3575 11.7333 27.2025 11.8883 27.005 11.8883H26.3693H22.4628H21.8271C21.6358 11.8883 21.4746 11.7271 21.4746 11.5358C21.4746 11.3446 21.6362 11.1833 21.8271 11.1833ZM16.9373 25.1634C17.1121 25.139 17.2367 24.9817 17.2203 24.8059C17.1771 24.3483 17.1563 23.8695 17.1563 23.3412C17.1563 18.2932 19.3619 13.8681 22.5281 12.5481H26.3053C28.6583 13.5271 30.5494 16.2973 31.3101 19.843H30.3987C30.0106 19.843 29.695 20.1586 29.695 20.5467V21.0334L28.2402 20.1981L28.0486 20.0794C27.8937 19.9835 27.6905 20.0313 27.5949 20.1863C27.499 20.3409 27.5468 20.5444 27.7018 20.64L27.8963 20.7607C27.8986 20.762 27.9009 20.7636 27.9032 20.765C27.9052 20.7659 27.9069 20.7669 27.9088 20.7679L28.7886 21.2731H27.9448L23.7313 18.8406C23.6552 18.7967 23.5645 18.7845 23.4804 18.8076C23.3957 18.8304 23.3234 18.8861 23.2802 18.9623C23.2163 19.074 23.1117 19.1545 22.9858 19.1881C22.8605 19.2214 22.7306 19.2046 22.6211 19.1403C22.5453 19.0961 22.4549 19.0833 22.3705 19.106C22.2857 19.1285 22.2132 19.1835 22.1693 19.2594L21.0024 21.2728H20.5117L22.5845 17.6878L26.608 20.0095C26.7659 20.1002 26.9674 20.0465 27.0584 19.8888C27.1494 19.7309 27.0954 19.5294 26.9377 19.4384L22.6287 16.9518C22.4707 16.8608 22.2693 16.9152 22.1783 17.0725L19.7497 21.2728H19.5007C19.3187 21.2728 19.171 21.4205 19.171 21.6025V27.5167H17.0323C16.6709 27.5167 16.3342 27.3288 16.1255 27.0043C15.9883 26.8065 15.9128 26.5678 15.9128 26.332C15.9132 25.747 16.3534 25.2445 16.9373 25.1634ZM33.2586 15.7819C35.2288 15.7819 36.8316 14.179 36.8316 12.2088C36.8316 10.2439 35.2288 8.64497 33.2586 8.64497C31.2936 8.64497 29.6947 10.2436 29.6947 12.2088C29.6947 14.179 31.2936 15.7819 33.2586 15.7819ZM33.2586 9.30446C34.8651 9.30446 36.1722 10.6073 36.1722 12.2088C36.1722 13.8157 34.8651 15.1224 33.2586 15.1224C31.657 15.1224 30.3542 13.8153 30.3542 12.2088C30.3542 10.6076 31.657 9.30446 33.2586 9.30446ZM33.7608 12.8911C33.7608 12.7031 33.5263 12.5386 33.2589 12.5386C32.6235 12.5386 32.1064 12.0888 32.1064 11.5358C32.1064 11.0785 32.454 10.6907 32.9291 10.566V10.4048C32.9291 10.2228 33.0769 10.0751 33.2589 10.0751C33.4409 10.0751 33.5886 10.2228 33.5886 10.4048V10.5654C34.0691 10.6894 34.4202 11.0778 34.4202 11.5358C34.4202 11.7178 34.2725 11.8656 34.0905 11.8656C33.9085 11.8656 33.7608 11.7178 33.7608 11.5358C33.7608 11.3479 33.5263 11.1833 33.2589 11.1833C32.9964 11.1833 32.7659 11.3482 32.7659 11.5358C32.7659 11.7185 32.9961 11.8791 33.2589 11.8791C33.8992 11.8791 34.4202 12.3331 34.4202 12.8911C34.4202 13.3494 34.0687 13.7375 33.5886 13.8615V14.0221C33.5886 14.2041 33.4409 14.3518 33.2589 14.3518C33.0769 14.3518 32.9291 14.2041 32.9291 14.0221V13.8608C32.454 13.7359 32.1064 13.3484 32.1064 12.8911C32.1064 12.709 32.2542 12.5613 32.4362 12.5613C32.6182 12.5613 32.7659 12.709 32.7659 12.8911C32.7659 13.079 32.9961 13.2436 33.2589 13.2436C33.526 13.2439 33.7608 13.079 33.7608 12.8911ZM39.0877 29.0781C38.1668 28.104 36.6443 27.9523 35.5443 28.7276L29.6255 32.9354C29.4082 31.7688 28.44 30.8468 27.2348 30.7245L23.6634 30.3598C23.1296 30.3074 22.693 30.1751 22.2449 29.9301C19.995 28.7223 17.2944 28.7041 15.0199 29.8813C14.3772 30.2154 13.7685 30.37 13.0714 30.3881V30.1365C13.0714 29.5836 12.6217 29.1338 12.0687 29.1338H9.5076C8.95462 29.1338 8.50485 29.5836 8.50485 30.1365V37.988C8.50485 38.5459 8.95462 39 9.5076 39H12.0687C12.6217 39 13.0714 38.5459 13.0714 37.988V37.8363L26.2994 38.391C26.5262 38.4137 26.7504 38.4253 26.972 38.4253C28.2706 38.4253 29.4758 38.0335 30.5613 37.2567L38.8612 31.3589C39.2275 31.0991 39.4491 30.711 39.4844 30.274C39.5319 29.8226 39.3954 29.4098 39.0877 29.0781ZM38.8279 30.2127C38.8075 30.4633 38.6871 30.6737 38.4797 30.8211L30.1784 36.7195C29.0247 37.5448 27.7766 37.8769 26.3462 37.7335L13.0714 37.1765V36.3057C13.0714 36.1237 12.9237 35.9759 12.7417 35.9759C12.5597 35.9759 12.412 36.1237 12.412 36.3057V37.9884C12.412 38.1829 12.258 38.3408 12.0687 38.3408H9.5076C9.31833 38.3408 9.16434 38.1829 9.16434 37.9884V30.1365C9.16434 29.944 9.31503 29.7933 9.5076 29.7933H12.0687C12.2613 29.7933 12.412 29.944 12.412 30.1365V35.025C12.412 35.207 12.5597 35.3547 12.7417 35.3547C12.9237 35.3547 13.0714 35.207 13.0714 35.025V31.0512C13.8721 31.0325 14.5919 30.8468 15.3236 30.4666C17.4049 29.3903 19.8757 29.4068 21.9306 30.5101C22.4582 30.7987 22.9726 30.9546 23.5978 31.016L27.1686 31.3807C28.1792 31.4832 28.9722 32.3287 29.0128 33.342C29.0197 33.5992 28.9277 33.8214 28.7444 33.9981C28.5502 34.1785 28.323 34.2563 28.0674 34.2296L21.0011 33.5098C20.8174 33.4897 20.6578 33.6232 20.6397 33.8043C20.6212 33.9856 20.7531 34.1475 20.9341 34.1657L27.9995 34.8855C28.0559 34.8914 28.1116 34.8944 28.1667 34.8944C28.5479 34.8944 28.9007 34.7529 29.1975 34.4773C29.4115 34.2712 29.5486 34.0232 29.6179 33.7502L35.9258 29.2657C36.7578 28.6791 37.9112 28.7932 38.6066 29.5288C38.7837 29.7201 38.8563 29.941 38.8279 30.2127Z" fill="black"/>
</g>
<defs>
<clipPath id="clip0_6115_20241">
<rect width="48" height="48" fill="white"/>
</clipPath>
</defs>
</svg>
