<svg width="24" height="24" viewBox="0 0 24 24" fill="none" xmlns="http://www.w3.org/2000/svg">
<g clip-path="url(#clip0_848_422)">
<path d="M20.6925 11.5137C20.6925 13.8156 20.6925 16.1107 20.6925 18.4126C20.6925 20.2568 19.4561 21.4932 17.605 21.4932C13.8619 21.4932 10.1187 21.4932 6.36869 21.4932C4.52442 21.4932 3.28809 20.25 3.28809 18.4057C3.28809 13.7951 3.28809 9.18443 3.28809 4.57377C3.28809 2.73634 4.52442 1.5 6.37552 1.5C10.1187 1.5 13.8619 1.5 17.605 1.5C19.4561 1.5 20.6856 2.73634 20.6856 4.5806C20.6925 6.89618 20.6925 9.20492 20.6925 11.5137ZM13.6228 9.56011C13.9507 9.56011 14.1692 9.4235 14.3605 9.20492C15.2826 8.1735 16.2116 7.14208 17.1405 6.10383C17.2908 5.93989 17.4001 5.7623 17.4206 5.53005C17.4479 5.15437 17.2498 4.79235 16.922 4.63525C16.5668 4.46448 16.1501 4.53279 15.8632 4.84699C15.146 5.62568 14.4356 6.4112 13.7457 7.21038C13.5613 7.42213 13.4384 7.47678 13.172 7.30601C12.3796 6.77322 11.5668 6.26776 10.7608 5.7623C10.3099 5.47541 9.90011 5.52322 9.53126 5.90574C8.62962 6.84153 7.73481 7.77732 6.84 8.71311C6.68973 8.87022 6.58044 9.05465 6.55994 9.28006C6.52579 9.6694 6.71705 10.0041 7.05858 10.1749C7.4206 10.3525 7.80994 10.2978 8.11732 9.97678C8.79355 9.28689 9.46295 8.59016 10.1187 7.87978C10.2963 7.68852 10.4124 7.64754 10.6446 7.80465C11.4302 8.3306 12.2293 8.82924 13.0217 9.3347C13.2198 9.46448 13.4179 9.57377 13.6228 9.56011ZM11.9834 14.1434C13.2676 14.1434 14.5517 14.1434 15.8359 14.1434C15.993 14.1434 16.1501 14.1503 16.3072 14.0956C16.7375 13.9317 16.9561 13.5219 16.8742 13.0505C16.799 12.6407 16.4302 12.3607 15.9452 12.3538C13.3291 12.3538 10.7129 12.3538 8.09683 12.3538C7.46158 12.3538 7.07907 12.6954 7.07907 13.2486C7.07907 13.8019 7.46158 14.1434 8.09 14.1434C9.39464 14.1434 10.6925 14.1434 11.9834 14.1434ZM9.94109 18.4399C10.59 18.4399 11.2389 18.4467 11.8878 18.4399C12.4548 18.4331 12.8441 18.0642 12.8441 17.5519C12.8441 17.0396 12.4479 16.6571 11.8946 16.6571C10.6105 16.6503 9.32634 16.6503 8.03535 16.6571C7.46158 16.6571 7.0859 17.0191 7.0859 17.5451C7.0859 18.0779 7.45475 18.4331 8.02852 18.4399C8.66377 18.4399 9.30585 18.4399 9.94109 18.4399Z" fill="#3D86BF"/>
</g>
<defs>
<clipPath id="clip0_848_422">
<rect width="17.4044" height="20" fill="white" transform="translate(3.28906 1.5)"/>
</clipPath>
</defs>
</svg>
