<svg width="24" height="24" viewBox="0 0 24 24" fill="none" xmlns="http://www.w3.org/2000/svg">
<path d="M17.2048 13.9928C17.4821 13.9928 17.6207 13.9928 17.733 14.0544C17.8257 14.1052 17.912 14.2005 17.9533 14.2978C18.0033 14.4158 17.9907 14.5413 17.9655 14.7922C17.835 16.0935 17.3871 17.3473 16.6561 18.4414C15.7763 19.7581 14.5257 20.7844 13.0626 21.3905C11.5995 21.9965 9.9895 22.1551 8.43626 21.8461C6.88302 21.5372 5.45628 20.7746 4.33646 19.6548C3.21664 18.5349 2.45403 17.1082 2.14507 15.555C1.83611 14.0017 1.99468 12.3917 2.60072 10.9286C3.20677 9.46551 4.23307 8.21496 5.54984 7.33512C6.64394 6.60406 7.89775 6.15623 9.19897 6.02567C9.44995 6.00049 9.57545 5.9879 9.69339 6.03793C9.79068 6.07921 9.88603 6.16548 9.93682 6.25816C9.99838 6.37052 9.99838 6.50914 9.99838 6.78639V13.1921C9.99838 13.4724 9.99838 13.6125 10.0529 13.7196C10.1009 13.8138 10.1775 13.8903 10.2716 13.9383C10.3787 13.9928 10.5188 13.9928 10.7991 13.9928H17.2048Z" fill="#3D86BF"/>
<path d="M14.002 2.7828C14.002 2.50555 14.002 2.36693 14.0635 2.25457C14.1143 2.16189 14.2097 2.07562 14.3069 2.03434C14.4249 1.9843 14.5504 1.99689 14.8014 2.02207C16.6314 2.20563 18.3519 3.01531 19.6639 4.32733C20.9759 5.63935 21.7856 7.3598 21.9691 9.18984C21.9943 9.44083 22.0069 9.56633 21.9569 9.68427C21.9156 9.78156 21.8293 9.87691 21.7366 9.92769C21.6243 9.98925 21.4857 9.98925 21.2084 9.98925L14.8027 9.98925C14.5224 9.98925 14.3823 9.98925 14.2752 9.93471C14.181 9.88673 14.1045 9.81017 14.0565 9.716C14.002 9.60895 14.002 9.46881 14.002 9.18854V2.7828Z" fill="#3D86BF"/>
<path d="M17.2048 13.9928C17.4821 13.9928 17.6207 13.9928 17.733 14.0544C17.8257 14.1052 17.912 14.2005 17.9533 14.2978C18.0033 14.4158 17.9907 14.5413 17.9655 14.7922C17.835 16.0935 17.3871 17.3473 16.6561 18.4414C15.7763 19.7581 14.5257 20.7844 13.0626 21.3905C11.5995 21.9965 9.9895 22.1551 8.43626 21.8461C6.88302 21.5372 5.45628 20.7746 4.33646 19.6548C3.21664 18.5349 2.45403 17.1082 2.14507 15.555C1.83611 14.0017 1.99468 12.3917 2.60072 10.9286C3.20677 9.46551 4.23307 8.21496 5.54984 7.33512C6.64394 6.60406 7.89775 6.15623 9.19897 6.02567C9.44995 6.00049 9.57545 5.9879 9.69339 6.03793C9.79068 6.07921 9.88603 6.16548 9.93682 6.25816C9.99838 6.37052 9.99838 6.50914 9.99838 6.78639V13.1921C9.99838 13.4724 9.99838 13.6125 10.0529 13.7196C10.1009 13.8138 10.1775 13.8903 10.2716 13.9383C10.3787 13.9928 10.5188 13.9928 10.7991 13.9928H17.2048Z" stroke="#3D86BF" stroke-linecap="round" stroke-linejoin="round"/>
<path d="M14.002 2.7828C14.002 2.50555 14.002 2.36693 14.0635 2.25457C14.1143 2.16189 14.2097 2.07562 14.3069 2.03434C14.4249 1.9843 14.5504 1.99689 14.8014 2.02207C16.6314 2.20563 18.3519 3.01531 19.6639 4.32733C20.9759 5.63935 21.7856 7.3598 21.9691 9.18984C21.9943 9.44083 22.0069 9.56633 21.9569 9.68427C21.9156 9.78156 21.8293 9.87691 21.7366 9.92769C21.6243 9.98925 21.4857 9.98925 21.2084 9.98925L14.8027 9.98925C14.5224 9.98925 14.3823 9.98925 14.2752 9.93471C14.181 9.88673 14.1045 9.81017 14.0565 9.716C14.002 9.60895 14.002 9.46881 14.002 9.18854V2.7828Z" stroke="#3D86BF" stroke-linecap="round" stroke-linejoin="round"/>
</svg>
