<svg width="24" height="24" viewBox="0 0 24 24" fill="none" xmlns="http://www.w3.org/2000/svg">
<g clip-path="url(#clip0_848_433)">
<path d="M12.0053 20.9349C9.75272 20.9349 7.50691 20.901 5.2543 20.9485C3.0017 20.996 1.21047 19.1776 1.23761 16.9318C1.27832 13.4647 1.27832 9.99076 1.23761 6.52365C1.21047 4.27104 3.00848 2.47982 5.26109 2.50017C9.75951 2.54767 14.2579 2.51374 18.7564 2.51374C21.1107 2.51374 22.7527 4.16249 22.7527 6.53043C22.7527 6.85611 22.7323 7.18857 22.7595 7.51425C22.7798 7.806 22.7052 7.89421 22.3931 7.89421C19.9844 7.88064 17.5758 7.88742 15.1671 7.88742C14.9093 7.88742 14.6515 7.90778 14.3936 7.95527C12.5753 8.27417 11.2251 9.8822 11.2251 11.7345C11.2251 13.5868 12.5753 15.188 14.4004 15.5069C14.6582 15.5544 14.9161 15.5748 15.1739 15.5748C17.5826 15.5748 19.9912 15.5816 22.3999 15.568C22.6713 15.568 22.7798 15.6223 22.7595 15.914C22.7188 16.5993 22.8273 17.2982 22.6509 17.9766C22.1963 19.7882 20.7172 20.9417 18.8513 20.9417C16.5716 20.9417 14.2851 20.9349 12.0053 20.9349Z" fill="#3D86BF"/>
<path d="M18.708 14.0346C17.5206 14.0346 16.3332 14.0481 15.1459 14.0278C13.7142 14.0074 12.7508 13.0236 12.7779 11.6259C12.7983 10.52 13.6667 9.56328 14.7659 9.44115C14.9423 9.4208 15.1255 9.41401 15.3087 9.41401C17.6699 9.41401 20.031 9.4208 22.399 9.40723C22.7043 9.40723 22.7721 9.48865 22.7654 9.7804C22.7518 11.0899 22.7518 12.4062 22.7654 13.7157C22.7654 13.9803 22.6907 14.0346 22.4397 14.0346C21.198 14.0278 19.9496 14.0346 18.708 14.0346ZM14.3113 11.7412C14.3181 12.1687 14.6777 12.5079 15.0984 12.4944C15.5055 12.4808 15.8379 12.1348 15.8379 11.7209C15.8379 11.3002 15.4851 10.9474 15.0644 10.9474C14.6438 10.961 14.3045 11.3138 14.3113 11.7412Z" fill="#3D86BF"/>
</g>
<defs>
<clipPath id="clip0_848_433">
<rect width="21.5287" height="18.4483" fill="white" transform="translate(1.23633 2.5)"/>
</clipPath>
</defs>
</svg>
